<svg width="102" height="102" viewBox="0 0 102 102" fill="none" xmlns="http://www.w3.org/2000/svg">
<path d="M56.8427 11.5547C55.6675 10.6475 54.2985 10.0243 52.8425 9.73404C51.3866 9.44374 49.8832 9.49412 48.45 9.88125C46.9327 10.2956 45.5415 11.0788 44.4004 12.1612C43.2592 13.2436 42.4036 14.5915 41.9097 16.0847C41.4159 17.578 41.2991 19.1703 41.5699 20.7196C41.8406 22.269 42.4905 23.7272 43.4616 24.9645C44.1794 25.8383 44.5864 26.926 44.6186 28.0564V30.2812C44.6186 30.9097 44.7425 31.5319 44.9832 32.1124C45.2239 32.6929 45.5766 33.2203 46.0213 33.6644C46.4659 34.1084 46.9938 34.4605 47.5746 34.7004C48.1554 34.9403 48.7778 35.0633 49.4062 35.0625H52.5938C53.8618 35.0625 55.0779 34.5588 55.9746 33.6621C56.8713 32.7654 57.375 31.5493 57.375 30.2812V28.0755C57.4156 26.9302 57.8323 25.8301 58.5607 24.9454C59.8627 23.2851 60.5678 21.2349 60.5625 19.125C60.5671 17.6619 60.2339 16.2176 59.5886 14.9045C58.9434 13.5914 58.0037 12.445 56.8427 11.5547ZM54.1875 30.2812C54.1875 30.7039 54.0196 31.1093 53.7207 31.4082C53.4218 31.7071 53.0164 31.875 52.5938 31.875H49.4062C48.9836 31.875 48.5782 31.7071 48.2793 31.4082C47.9804 31.1093 47.8125 30.7039 47.8125 30.2812V28.6875H54.1875V30.2812ZM56.0458 22.9851C55.4488 23.7438 54.9764 24.5927 54.6465 25.5H47.3567C47.0325 24.6005 46.5642 23.7597 45.9701 23.0106C45.3256 22.1893 44.8935 21.2218 44.7123 20.1936C44.5312 19.1655 44.6064 18.1085 44.9314 17.1164C45.2565 16.1243 45.8212 15.2277 46.5757 14.5061C47.3301 13.7845 48.2509 13.2601 49.2564 12.9795C49.8252 12.8279 50.4113 12.7507 51 12.75C52.6908 12.75 54.3123 13.4216 55.5078 14.6172C56.7034 15.8127 57.375 17.4342 57.375 19.125C57.3772 20.5243 56.9091 21.8838 56.0458 22.9851ZM59.4373 9.09394C59.8592 9.09385 60.2638 8.92649 60.5625 8.62856L62.8161 6.375C63.1064 6.07442 63.267 5.67183 63.2634 5.25395C63.2598 4.83608 63.0921 4.43635 62.7966 4.14085C62.5012 3.84536 62.1014 3.67774 61.6835 3.67411C61.2657 3.67048 60.8631 3.83112 60.5625 4.12144L58.3089 6.375C58.0855 6.5979 57.9332 6.88213 57.8715 7.19167C57.8098 7.5012 57.8413 7.82209 57.9622 8.11366C58.083 8.40524 58.2878 8.65436 58.5504 8.82944C58.813 9.00452 59.1217 9.09769 59.4373 9.09713V9.09394ZM51 6.375C51.4227 6.375 51.8281 6.20709 52.127 5.9082C52.4258 5.60932 52.5938 5.20394 52.5938 4.78125V1.59375C52.5938 1.17106 52.4258 0.765685 52.127 0.466799C51.8281 0.167912 51.4227 0 51 0C50.5773 0 50.1719 0.167912 49.873 0.466799C49.5742 0.765685 49.4062 1.17106 49.4062 1.59375V4.78125C49.4062 5.20394 49.5742 5.60932 49.873 5.9082C50.1719 6.20709 50.5773 6.375 51 6.375ZM90.8438 35.0625H87.6562V31.875C87.6486 31.8203 87.638 31.766 87.6244 31.7124C90.1979 30.2866 92.1824 27.9942 93.2248 25.2429C94.2671 22.4916 94.2999 19.4598 93.3172 16.6866C94.1379 15.8533 94.7642 14.8489 95.1512 13.7453C95.5383 12.6416 95.6765 11.4661 95.5561 10.3028C95.4357 9.13945 95.0596 8.01715 94.4547 7.0162C93.8498 6.01524 93.0311 5.16041 92.0572 4.51288C91.0833 3.86536 89.9782 3.44117 88.8212 3.27067C87.6642 3.10017 86.4837 3.18759 85.3644 3.52667C84.2451 3.86574 83.2147 4.44809 82.3467 5.23201C81.4788 6.01594 80.795 6.98205 80.3441 8.06119C77.6275 8.24312 75.0417 9.29556 72.9702 11.0625C70.8987 12.8294 69.4516 15.2168 68.8434 17.8708C68.2353 20.5247 68.4985 23.304 69.594 25.7966C70.6895 28.2893 72.559 30.3626 74.9254 31.7092C74.916 31.7641 74.9096 31.8194 74.9062 31.875V35.0625H71.7188C68.7599 35.0625 65.9223 36.2379 63.8301 38.3301C61.7379 40.4223 60.5625 43.2599 60.5625 46.2188V68.5312C60.5625 69.5777 60.7686 70.6139 61.1691 71.5808C61.5696 72.5476 62.1565 73.426 62.8965 74.166C63.6365 74.906 64.5149 75.4929 65.4817 75.8934C66.4486 76.2939 67.4848 76.5 68.5312 76.5H70.125V97.2188C70.125 98.4868 70.6287 99.7029 71.5254 100.6C72.4221 101.496 73.6382 102 74.9062 102H87.6562C88.9243 102 90.1404 101.496 91.0371 100.6C91.9338 99.7029 92.4375 98.4868 92.4375 97.2188V76.5H94.0312C95.0777 76.5 96.1139 76.2939 97.0808 75.8934C98.0476 75.4929 98.926 74.906 99.666 74.166C100.406 73.426 100.993 72.5476 101.393 71.5808C101.794 70.6139 102 69.5777 102 68.5312V46.2188C102 43.2599 100.825 40.4223 98.7324 38.3301C96.6402 36.2379 93.8026 35.0625 90.8438 35.0625ZM87.6562 6.375C88.9243 6.375 90.1404 6.87874 91.0371 7.7754C91.9338 8.67205 92.4375 9.88818 92.4375 11.1562C92.4299 11.9856 92.2034 12.7982 91.7809 13.5118C89.932 10.8186 87.1213 8.93636 83.9269 8.25244C84.3627 7.67429 84.9258 7.20424 85.5725 6.87867C86.2193 6.5531 86.9322 6.38076 87.6562 6.375ZM81.2812 11.1562C83.1855 11.159 85.0455 11.7302 86.6231 12.7966C88.2007 13.8631 89.4239 15.3763 90.1361 17.1424C86.8075 17.0554 83.5331 16.2794 80.5194 14.8633C80.269 14.7101 79.9811 14.6289 79.6875 14.6289C79.3939 14.6289 79.106 14.7101 78.8556 14.8633C76.9031 15.8546 74.7898 16.4903 72.6144 16.7407C73.3745 15.0792 74.5948 13.6701 76.1308 12.6804C77.6667 11.6907 79.4541 11.1618 81.2812 11.1562ZM71.7188 20.7188C71.7188 20.4988 71.7698 20.2916 71.7825 20.0813C74.5082 19.818 77.1756 19.1286 79.6875 18.0381C83.2212 19.4814 86.9893 20.2657 90.8055 20.3522C90.8055 20.4765 90.8438 20.5944 90.8438 20.7188C90.8438 23.2549 89.8363 25.6871 88.043 27.4805C86.2496 29.2738 83.8174 30.2812 81.2812 30.2812C78.7451 30.2812 76.3129 29.2738 74.5195 27.4805C72.7262 25.6871 71.7188 23.2549 71.7188 20.7188ZM84.4688 33.0161V38.25C84.4688 39.0954 84.1329 39.9061 83.5352 40.5039C82.9374 41.1017 82.1266 41.4375 81.2812 41.4375C80.4359 41.4375 79.6251 41.1017 79.0273 40.5039C78.4296 39.9061 78.0938 39.0954 78.0938 38.25V33.0161C80.1759 33.6198 82.3866 33.6198 84.4688 33.0161ZM70.125 73.3125H68.5312C67.2632 73.3125 66.0471 72.8088 65.1504 71.9121C64.2537 71.0154 63.75 69.7993 63.75 68.5312V66.9375H70.125V73.3125ZM89.25 97.2188C89.25 97.6414 89.0821 98.0468 88.7832 98.3457C88.4843 98.6446 88.0789 98.8125 87.6562 98.8125H82.875V78.0938C82.875 77.6711 82.7071 77.2657 82.4082 76.9668C82.1093 76.6679 81.7039 76.5 81.2812 76.5C80.8586 76.5 80.4532 76.6679 80.1543 76.9668C79.8554 77.2657 79.6875 77.6711 79.6875 78.0938V98.8125H74.9062C74.4836 98.8125 74.0782 98.6446 73.7793 98.3457C73.4804 98.0468 73.3125 97.6414 73.3125 97.2188V70.125H89.25V97.2188ZM98.8125 68.5312C98.8125 69.7993 98.3088 71.0154 97.4121 71.9121C96.5154 72.8088 95.2993 73.3125 94.0312 73.3125H92.4375V66.9375H98.8125V68.5312ZM98.8125 63.75H92.4375V49.4062C92.4375 48.9836 92.2696 48.5782 91.9707 48.2793C91.6718 47.9804 91.2664 47.8125 90.8438 47.8125C90.4211 47.8125 90.0157 47.9804 89.7168 48.2793C89.4179 48.5782 89.25 48.9836 89.25 49.4062V66.9375H73.3125V49.4062C73.3125 48.9836 73.1446 48.5782 72.8457 48.2793C72.5468 47.9804 72.1414 47.8125 71.7188 47.8125C71.2961 47.8125 70.8907 47.9804 70.5918 48.2793C70.2929 48.5782 70.125 48.9836 70.125 49.4062V63.75H63.75V46.2188C63.75 44.1053 64.5896 42.0784 66.084 40.584C67.5784 39.0896 69.6053 38.25 71.7188 38.25H74.9062C74.9062 39.9408 75.5779 41.5623 76.7734 42.7578C77.969 43.9534 79.5905 44.625 81.2812 44.625C82.972 44.625 84.5935 43.9534 85.7891 42.7578C86.9846 41.5623 87.6562 39.9408 87.6562 38.25H90.8438C92.9572 38.25 94.9841 39.0896 96.4785 40.584C97.9729 42.0784 98.8125 44.1053 98.8125 46.2188V63.75ZM43.6911 8.62856C43.9898 8.32969 44.1577 7.92439 44.1577 7.50178C44.1577 7.07918 43.9898 6.67387 43.6911 6.375L41.4375 4.12144C41.1369 3.83112 40.7343 3.67048 40.3165 3.67411C39.8986 3.67774 39.4988 3.84536 39.2034 4.14085C38.9079 4.43635 38.7402 4.83608 38.7366 5.25395C38.733 5.67183 38.8936 6.07442 39.1839 6.375L41.4375 8.62856C41.7364 8.92734 42.1417 9.09519 42.5643 9.09519C42.9869 9.09519 43.3922 8.92734 43.6911 8.62856ZM30.2812 35.0625H27.0938V31.875C27.0861 31.8203 27.0755 31.766 27.0619 31.7124C29.4071 30.3814 31.266 28.3363 32.368 25.8751C33.4699 23.4139 33.7572 20.6652 33.188 18.0294C32.6189 15.3935 31.223 13.0082 29.2038 11.221C27.1845 9.43371 24.6473 8.33787 21.9619 8.09306C21.8083 8.03754 21.647 8.00635 21.4837 8.00062H21.4519C21.4047 8.00784 21.3579 8.01742 21.3116 8.02931C21.1108 8.02931 20.9228 7.96875 20.7188 7.96875C17.9127 7.95997 15.1827 8.88011 12.9545 10.5857C10.7263 12.2912 9.12523 14.6862 8.401 17.3972C7.67676 20.1081 7.87011 22.9826 8.95089 25.5721C10.0317 28.1616 11.9391 30.3207 14.3756 31.7124C14.362 31.766 14.3514 31.8203 14.3438 31.875V35.0625H11.1562C8.19743 35.0625 5.35979 36.2379 3.26759 38.3301C1.17539 40.4223 0 43.2599 0 46.2188L0 68.5312C0 69.5777 0.206118 70.6139 0.606585 71.5808C1.00705 72.5476 1.59403 73.426 2.33399 74.166C3.07396 74.906 3.95243 75.4929 4.91924 75.8934C5.88605 76.2939 6.92228 76.5 7.96875 76.5H9.5625V97.2188C9.5625 98.4868 10.0662 99.7029 10.9629 100.6C11.8596 101.496 13.0757 102 14.3438 102H27.0938C28.3618 102 29.5779 101.496 30.4746 100.6C31.3713 99.7029 31.875 98.4868 31.875 97.2188V76.5H33.4688C34.5152 76.5 35.5514 76.2939 36.5183 75.8934C37.4851 75.4929 38.3635 74.906 39.1035 74.166C39.8435 73.426 40.4305 72.5476 40.8309 71.5808C41.2314 70.6139 41.4375 69.5777 41.4375 68.5312V46.2188C41.4375 43.2599 40.2621 40.4223 38.1699 38.3301C36.0777 36.2379 33.2401 35.0625 30.2812 35.0625ZM20.7188 11.1562C22.9559 11.1607 25.1206 11.9493 26.8363 13.3849C28.5521 14.8205 29.7102 16.8122 30.1091 19.0134L21.5953 16.5941C19.893 16.1143 18.0798 16.2107 16.4379 16.8682L11.3379 18.9242C11.7551 16.7409 12.9197 14.7712 14.6317 13.3536C16.3437 11.936 18.496 11.159 20.7188 11.1562ZM11.3156 22.2806C11.4645 22.2729 11.6116 22.2439 11.7523 22.1946L17.6301 19.8263C18.6133 19.4324 19.699 19.3742 20.7188 19.6605L29.8382 22.2519C29.9297 22.268 30.0226 22.2754 30.1155 22.2743C29.7515 24.5057 28.6057 26.5349 26.8831 27.9993C25.1605 29.4636 22.9733 30.2676 20.7124 30.2676C18.4515 30.2676 16.2642 29.4636 14.5416 27.9993C12.819 26.5349 11.6733 24.5057 11.3092 22.2743L11.3156 22.2806ZM23.9062 33.0161V38.25C23.9062 39.0954 23.5704 39.9061 22.9727 40.5039C22.3749 41.1017 21.5641 41.4375 20.7188 41.4375C19.8734 41.4375 19.0626 41.1017 18.4648 40.5039C17.8671 39.9061 17.5312 39.0954 17.5312 38.25V33.0161C18.57 33.3026 19.6413 33.4548 20.7188 33.4688C21.7962 33.4548 22.8675 33.3026 23.9062 33.0161ZM9.5625 73.3125H7.96875C6.70068 73.3125 5.48455 72.8088 4.5879 71.9121C3.69124 71.0154 3.1875 69.7993 3.1875 68.5312V66.9375H9.5625V73.3125ZM28.6875 97.2188C28.6875 97.6414 28.5196 98.0468 28.2207 98.3457C27.9218 98.6446 27.5164 98.8125 27.0938 98.8125H22.3125V78.0938C22.3125 77.6711 22.1446 77.2657 21.8457 76.9668C21.5468 76.6679 21.1414 76.5 20.7188 76.5C20.2961 76.5 19.8907 76.6679 19.5918 76.9668C19.2929 77.2657 19.125 77.6711 19.125 78.0938V98.8125H14.3438C13.9211 98.8125 13.5157 98.6446 13.2168 98.3457C12.9179 98.0468 12.75 97.6414 12.75 97.2188V70.125H28.6875V97.2188ZM38.25 68.5312C38.25 69.7993 37.7463 71.0154 36.8496 71.9121C35.9529 72.8088 34.7368 73.3125 33.4688 73.3125H31.875V66.9375H38.25V68.5312ZM38.25 63.75H31.875V49.4062C31.875 48.9836 31.7071 48.5782 31.4082 48.2793C31.1093 47.9804 30.7039 47.8125 30.2812 47.8125C29.8586 47.8125 29.4532 47.9804 29.1543 48.2793C28.8554 48.5782 28.6875 48.9836 28.6875 49.4062V66.9375H12.75V49.4062C12.75 48.9836 12.5821 48.5782 12.2832 48.2793C11.9843 47.9804 11.5789 47.8125 11.1562 47.8125C10.7336 47.8125 10.3282 47.9804 10.0293 48.2793C9.73041 48.5782 9.5625 48.9836 9.5625 49.4062V63.75H3.1875V46.2188C3.1875 44.1053 4.02706 42.0784 5.52149 40.584C7.01592 39.0896 9.04281 38.25 11.1562 38.25H14.3438C14.3438 39.9408 15.0154 41.5623 16.2109 42.7578C17.4065 43.9534 19.028 44.625 20.7188 44.625C22.4095 44.625 24.031 43.9534 25.2266 42.7578C26.4221 41.5623 27.0938 39.9408 27.0938 38.25H30.2812C31.3277 38.25 32.3639 38.4561 33.3308 38.8566C34.2976 39.257 35.176 39.844 35.916 40.584C36.656 41.324 37.243 42.2024 37.6434 43.1692C38.0439 44.1361 38.25 45.1723 38.25 46.2188V63.75Z" fill="#40BA77"/>
</svg>
