<svg width="48" height="50" viewBox="0 0 48 50" fill="none" xmlns="http://www.w3.org/2000/svg">
<mask id="path-1-outside-1_113_3904" maskUnits="userSpaceOnUse" x="0" y="0" width="48" height="50" fill="black">
<rect fill="white" width="48" height="50"/>
<path d="M43.5829 26.5315C43.5829 21.9048 42.0731 17.5516 39.2167 13.9424C36.5385 10.5585 32.8141 8.1073 28.6904 7.00414V2.66828C28.6904 1.74841 27.9481 1 27.0356 1H20.0578C19.1453 1 18.4031 1.74841 18.4031 2.66828V7.00386C9.63402 9.34564 3.51057 17.374 3.51057 26.5315C3.51057 32.5711 6.16016 38.2457 10.78 42.1003C10.9188 42.2161 11.0868 42.2725 11.2539 42.2725C11.4679 42.2725 11.6803 42.1799 11.8274 42.0007C12.0894 41.6816 12.0451 41.2088 11.7285 40.9447C7.45134 37.3761 4.99833 32.1226 4.99833 26.5315C4.99833 18.1871 10.4898 10.8555 18.4029 8.56001V9.70311C18.4029 10.6231 19.1452 11.3714 20.0576 11.3714H27.0354C27.9479 11.3714 28.6902 10.623 28.6902 9.70311V8.55945C36.6229 10.8531 42.0947 18.1298 42.0947 26.5315C42.0947 36.8425 33.774 45.2312 23.5465 45.2312H1.74393C1.33309 45.2312 1 45.567 1 45.9812C1 46.3953 1.33309 46.7312 1.74393 46.7312H23.5468C28.8986 46.7312 33.9301 44.63 37.7144 40.8148C41.4987 36.9996 43.5829 31.927 43.5829 26.5315ZM27.2025 9.70311C27.2025 9.79433 27.1261 9.87139 27.0356 9.87139H20.0578C19.9674 9.87139 19.8909 9.79433 19.8909 9.70311V2.66828C19.8909 2.57707 19.9674 2.5 20.0578 2.5H27.0356C27.1261 2.5 27.2025 2.57707 27.2025 2.66828V9.70311ZM47 45.9812C47 46.2121 46.8945 46.4301 46.714 46.5722L43.8321 48.8411C43.6961 48.9482 43.5348 49 43.3748 49C43.1535 49 42.9346 48.9009 42.7879 48.7115C42.535 48.3851 42.5925 47.9137 42.9163 47.6588L44.0947 46.7311H36.4962C36.0854 46.7311 35.7523 46.3952 35.7523 45.9811C35.7523 45.5669 36.0854 45.2311 36.4962 45.2311H44.0947L42.9163 44.3033C42.5925 44.0484 42.535 43.577 42.7879 43.2506C43.0408 42.9241 43.5083 42.8661 43.8321 43.1211L46.714 45.39C46.8946 45.5322 47 45.7502 47 45.9812ZM10.3899 24.0747C10.1027 24.1861 9.91327 24.4644 9.91327 24.7747V28.292C9.91327 28.6023 10.1028 28.8805 10.3899 28.9919L12.1672 29.6817C12.4271 30.6383 12.8044 31.5558 13.2926 32.4183L12.5191 34.1742C12.3942 34.4577 12.4553 34.7895 12.673 35.0089L15.1399 37.4959C15.3576 37.7154 15.6868 37.777 15.9679 37.6511L17.7102 36.871C18.566 37.3632 19.4758 37.7434 20.4238 38.0053L21.1082 39.7977C21.2186 40.0872 21.4946 40.2782 21.8024 40.2782H25.2913C25.5991 40.2782 25.875 40.0872 25.9855 39.7977L26.6696 38.0058C27.6183 37.744 28.5284 37.3635 29.3842 36.8714L31.1258 37.6512C31.407 37.777 31.7362 37.7155 31.9538 37.496L34.4207 35.0089C34.6383 34.7895 34.6994 34.4578 34.5746 34.1742L33.8008 32.4178C34.289 31.555 34.6661 30.6379 34.9259 29.6819L36.7038 28.992C36.9909 28.8806 37.1804 28.6024 37.1804 28.2921V24.7749C37.1804 24.4645 36.9909 24.1864 36.7038 24.0749L34.9264 23.3852C34.6667 22.4288 34.2893 21.5112 33.8011 20.6484L34.5746 18.8926C34.6995 18.6091 34.6384 18.2772 34.4207 18.0578L31.9535 15.5707C31.7359 15.3513 31.4066 15.2897 31.1255 15.4155L29.3832 16.1956C28.5275 15.7034 27.6178 15.3232 26.6696 15.0613L25.9853 13.2689C25.8748 12.9794 25.5988 12.7883 25.291 12.7883H21.8023C21.4945 12.7883 21.2185 12.9794 21.108 13.2689L20.4237 15.0612C19.4755 15.3231 18.5658 15.7033 17.71 16.1955L15.9677 15.4154C15.6865 15.2895 15.3574 15.3512 15.1397 15.5706L12.6729 18.0577C12.4553 18.277 12.3941 18.6088 12.519 18.8924L13.2927 20.6486C12.8045 21.5114 12.4272 22.4287 12.1675 23.3848L10.3899 24.0747ZM13.5167 24.1195C13.7691 23.0495 14.1882 22.0307 14.7619 21.0914C14.8905 20.8808 14.9079 20.6198 14.8084 20.3937L14.0861 18.7544L15.8307 16.9956L17.4571 17.7238C17.6813 17.8241 17.9402 17.8067 18.149 17.6769C19.0809 17.0986 20.0913 16.6762 21.1523 16.4216C21.391 16.3643 21.5863 16.1922 21.6744 15.9614L22.3131 14.2885H24.7803L25.419 15.9614C25.5071 16.1921 25.7024 16.3643 25.9411 16.4216C27.0022 16.6762 28.0126 17.0986 28.9444 17.6769C29.1533 17.8066 29.4122 17.8241 29.6364 17.7237L31.2627 16.9956L33.0073 18.7543L32.2853 20.3933C32.1857 20.6193 32.2031 20.8803 32.3318 21.0909C32.9055 22.0302 33.3245 23.0492 33.5771 24.1196C33.6339 24.3602 33.8047 24.5572 34.0336 24.646L35.6924 25.2896V27.777L34.0331 28.421C33.8042 28.5098 33.6334 28.7066 33.5766 28.9473C33.324 30.0172 32.9051 31.0359 32.3314 31.9752C32.2028 32.1857 32.1854 32.4467 32.2849 32.6728L33.0073 34.3123L31.2627 36.0712L29.637 35.3433C29.4128 35.2429 29.1537 35.2604 28.945 35.3902C28.0133 35.9685 27.0026 36.391 25.9408 36.6457C25.7022 36.703 25.5068 36.8751 25.4188 37.1059L24.7803 38.7782H22.3131L21.6744 37.1054C21.5863 36.8746 21.391 36.7024 21.1523 36.6451C20.0913 36.3906 19.0809 35.9682 18.149 35.3898C17.9401 35.2602 17.6811 35.2425 17.4571 35.343L15.8307 36.0712L14.0861 34.3124L14.8081 32.6735C14.9077 32.4475 14.8903 32.1864 14.7616 31.9758C14.1881 31.0369 13.769 30.0179 13.5163 28.9471C13.4595 28.7066 13.2887 28.5097 13.0598 28.4209L11.401 27.7772V25.2898L13.0601 24.646C13.2891 24.557 13.4599 24.36 13.5167 24.1195ZM23.5467 33.9536C27.6051 33.9536 30.9068 30.6249 30.9068 26.5333C30.9068 22.4418 27.6051 19.1131 23.5467 19.1131C19.4883 19.1131 16.1865 22.4418 16.1865 26.5333C16.1865 30.6249 19.4883 33.9536 23.5467 33.9536ZM23.5467 20.6131C26.7846 20.6131 29.419 23.269 29.419 26.5333C29.419 29.7978 26.7846 32.4536 23.5467 32.4536C20.3087 32.4536 17.6744 29.7977 17.6744 26.5333C17.6745 23.2689 20.3087 20.6131 23.5467 20.6131ZM25.9441 5.32441L23.8052 7.9902C23.6726 8.15548 23.4766 8.25626 23.2659 8.26751C23.2528 8.26817 23.2398 8.26855 23.2268 8.26855C23.03 8.26855 22.8407 8.18989 22.7008 8.04889L21.2018 6.53773C20.9113 6.24485 20.9112 5.77001 21.2018 5.47713C21.4923 5.18426 21.9633 5.18426 22.2538 5.47713L23.1683 6.39898L24.7874 4.3811C25.0457 4.05907 25.5141 4.00919 25.8336 4.26973C26.1529 4.53016 26.2025 5.00238 25.9441 5.32441Z"/>
</mask>
<path d="M43.5829 26.5315C43.5829 21.9048 42.0731 17.5516 39.2167 13.9424C36.5385 10.5585 32.8141 8.1073 28.6904 7.00414V2.66828C28.6904 1.74841 27.9481 1 27.0356 1H20.0578C19.1453 1 18.4031 1.74841 18.4031 2.66828V7.00386C9.63402 9.34564 3.51057 17.374 3.51057 26.5315C3.51057 32.5711 6.16016 38.2457 10.78 42.1003C10.9188 42.2161 11.0868 42.2725 11.2539 42.2725C11.4679 42.2725 11.6803 42.1799 11.8274 42.0007C12.0894 41.6816 12.0451 41.2088 11.7285 40.9447C7.45134 37.3761 4.99833 32.1226 4.99833 26.5315C4.99833 18.1871 10.4898 10.8555 18.4029 8.56001V9.70311C18.4029 10.6231 19.1452 11.3714 20.0576 11.3714H27.0354C27.9479 11.3714 28.6902 10.623 28.6902 9.70311V8.55945C36.6229 10.8531 42.0947 18.1298 42.0947 26.5315C42.0947 36.8425 33.774 45.2312 23.5465 45.2312H1.74393C1.33309 45.2312 1 45.567 1 45.9812C1 46.3953 1.33309 46.7312 1.74393 46.7312H23.5468C28.8986 46.7312 33.9301 44.63 37.7144 40.8148C41.4987 36.9996 43.5829 31.927 43.5829 26.5315ZM27.2025 9.70311C27.2025 9.79433 27.1261 9.87139 27.0356 9.87139H20.0578C19.9674 9.87139 19.8909 9.79433 19.8909 9.70311V2.66828C19.8909 2.57707 19.9674 2.5 20.0578 2.5H27.0356C27.1261 2.5 27.2025 2.57707 27.2025 2.66828V9.70311ZM47 45.9812C47 46.2121 46.8945 46.4301 46.714 46.5722L43.8321 48.8411C43.6961 48.9482 43.5348 49 43.3748 49C43.1535 49 42.9346 48.9009 42.7879 48.7115C42.535 48.3851 42.5925 47.9137 42.9163 47.6588L44.0947 46.7311H36.4962C36.0854 46.7311 35.7523 46.3952 35.7523 45.9811C35.7523 45.5669 36.0854 45.2311 36.4962 45.2311H44.0947L42.9163 44.3033C42.5925 44.0484 42.535 43.577 42.7879 43.2506C43.0408 42.9241 43.5083 42.8661 43.8321 43.1211L46.714 45.39C46.8946 45.5322 47 45.7502 47 45.9812ZM10.3899 24.0747C10.1027 24.1861 9.91327 24.4644 9.91327 24.7747V28.292C9.91327 28.6023 10.1028 28.8805 10.3899 28.9919L12.1672 29.6817C12.4271 30.6383 12.8044 31.5558 13.2926 32.4183L12.5191 34.1742C12.3942 34.4577 12.4553 34.7895 12.673 35.0089L15.1399 37.4959C15.3576 37.7154 15.6868 37.777 15.9679 37.6511L17.7102 36.871C18.566 37.3632 19.4758 37.7434 20.4238 38.0053L21.1082 39.7977C21.2186 40.0872 21.4946 40.2782 21.8024 40.2782H25.2913C25.5991 40.2782 25.875 40.0872 25.9855 39.7977L26.6696 38.0058C27.6183 37.744 28.5284 37.3635 29.3842 36.8714L31.1258 37.6512C31.407 37.777 31.7362 37.7155 31.9538 37.496L34.4207 35.0089C34.6383 34.7895 34.6994 34.4578 34.5746 34.1742L33.8008 32.4178C34.289 31.555 34.6661 30.6379 34.9259 29.6819L36.7038 28.992C36.9909 28.8806 37.1804 28.6024 37.1804 28.2921V24.7749C37.1804 24.4645 36.9909 24.1864 36.7038 24.0749L34.9264 23.3852C34.6667 22.4288 34.2893 21.5112 33.8011 20.6484L34.5746 18.8926C34.6995 18.6091 34.6384 18.2772 34.4207 18.0578L31.9535 15.5707C31.7359 15.3513 31.4066 15.2897 31.1255 15.4155L29.3832 16.1956C28.5275 15.7034 27.6178 15.3232 26.6696 15.0613L25.9853 13.2689C25.8748 12.9794 25.5988 12.7883 25.291 12.7883H21.8023C21.4945 12.7883 21.2185 12.9794 21.108 13.2689L20.4237 15.0612C19.4755 15.3231 18.5658 15.7033 17.71 16.1955L15.9677 15.4154C15.6865 15.2895 15.3574 15.3512 15.1397 15.5706L12.6729 18.0577C12.4553 18.277 12.3941 18.6088 12.519 18.8924L13.2927 20.6486C12.8045 21.5114 12.4272 22.4287 12.1675 23.3848L10.3899 24.0747ZM13.5167 24.1195C13.7691 23.0495 14.1882 22.0307 14.7619 21.0914C14.8905 20.8808 14.9079 20.6198 14.8084 20.3937L14.0861 18.7544L15.8307 16.9956L17.4571 17.7238C17.6813 17.8241 17.9402 17.8067 18.149 17.6769C19.0809 17.0986 20.0913 16.6762 21.1523 16.4216C21.391 16.3643 21.5863 16.1922 21.6744 15.9614L22.3131 14.2885H24.7803L25.419 15.9614C25.5071 16.1921 25.7024 16.3643 25.9411 16.4216C27.0022 16.6762 28.0126 17.0986 28.9444 17.6769C29.1533 17.8066 29.4122 17.8241 29.6364 17.7237L31.2627 16.9956L33.0073 18.7543L32.2853 20.3933C32.1857 20.6193 32.2031 20.8803 32.3318 21.0909C32.9055 22.0302 33.3245 23.0492 33.5771 24.1196C33.6339 24.3602 33.8047 24.5572 34.0336 24.646L35.6924 25.2896V27.777L34.0331 28.421C33.8042 28.5098 33.6334 28.7066 33.5766 28.9473C33.324 30.0172 32.9051 31.0359 32.3314 31.9752C32.2028 32.1857 32.1854 32.4467 32.2849 32.6728L33.0073 34.3123L31.2627 36.0712L29.637 35.3433C29.4128 35.2429 29.1537 35.2604 28.945 35.3902C28.0133 35.9685 27.0026 36.391 25.9408 36.6457C25.7022 36.703 25.5068 36.8751 25.4188 37.1059L24.7803 38.7782H22.3131L21.6744 37.1054C21.5863 36.8746 21.391 36.7024 21.1523 36.6451C20.0913 36.3906 19.0809 35.9682 18.149 35.3898C17.9401 35.2602 17.6811 35.2425 17.4571 35.343L15.8307 36.0712L14.0861 34.3124L14.8081 32.6735C14.9077 32.4475 14.8903 32.1864 14.7616 31.9758C14.1881 31.0369 13.769 30.0179 13.5163 28.9471C13.4595 28.7066 13.2887 28.5097 13.0598 28.4209L11.401 27.7772V25.2898L13.0601 24.646C13.2891 24.557 13.4599 24.36 13.5167 24.1195ZM23.5467 33.9536C27.6051 33.9536 30.9068 30.6249 30.9068 26.5333C30.9068 22.4418 27.6051 19.1131 23.5467 19.1131C19.4883 19.1131 16.1865 22.4418 16.1865 26.5333C16.1865 30.6249 19.4883 33.9536 23.5467 33.9536ZM23.5467 20.6131C26.7846 20.6131 29.419 23.269 29.419 26.5333C29.419 29.7978 26.7846 32.4536 23.5467 32.4536C20.3087 32.4536 17.6744 29.7977 17.6744 26.5333C17.6745 23.2689 20.3087 20.6131 23.5467 20.6131ZM25.9441 5.32441L23.8052 7.9902C23.6726 8.15548 23.4766 8.25626 23.2659 8.26751C23.2528 8.26817 23.2398 8.26855 23.2268 8.26855C23.03 8.26855 22.8407 8.18989 22.7008 8.04889L21.2018 6.53773C20.9113 6.24485 20.9112 5.77001 21.2018 5.47713C21.4923 5.18426 21.9633 5.18426 22.2538 5.47713L23.1683 6.39898L24.7874 4.3811C25.0457 4.05907 25.5141 4.00919 25.8336 4.26973C26.1529 4.53016 26.2025 5.00238 25.9441 5.32441Z" fill="#CD5955"/>
<path d="M43.5829 26.5315C43.5829 21.9048 42.0731 17.5516 39.2167 13.9424C36.5385 10.5585 32.8141 8.1073 28.6904 7.00414V2.66828C28.6904 1.74841 27.9481 1 27.0356 1H20.0578C19.1453 1 18.4031 1.74841 18.4031 2.66828V7.00386C9.63402 9.34564 3.51057 17.374 3.51057 26.5315C3.51057 32.5711 6.16016 38.2457 10.78 42.1003C10.9188 42.2161 11.0868 42.2725 11.2539 42.2725C11.4679 42.2725 11.6803 42.1799 11.8274 42.0007C12.0894 41.6816 12.0451 41.2088 11.7285 40.9447C7.45134 37.3761 4.99833 32.1226 4.99833 26.5315C4.99833 18.1871 10.4898 10.8555 18.4029 8.56001V9.70311C18.4029 10.6231 19.1452 11.3714 20.0576 11.3714H27.0354C27.9479 11.3714 28.6902 10.623 28.6902 9.70311V8.55945C36.6229 10.8531 42.0947 18.1298 42.0947 26.5315C42.0947 36.8425 33.774 45.2312 23.5465 45.2312H1.74393C1.33309 45.2312 1 45.567 1 45.9812C1 46.3953 1.33309 46.7312 1.74393 46.7312H23.5468C28.8986 46.7312 33.9301 44.63 37.7144 40.8148C41.4987 36.9996 43.5829 31.927 43.5829 26.5315ZM27.2025 9.70311C27.2025 9.79433 27.1261 9.87139 27.0356 9.87139H20.0578C19.9674 9.87139 19.8909 9.79433 19.8909 9.70311V2.66828C19.8909 2.57707 19.9674 2.5 20.0578 2.5H27.0356C27.1261 2.5 27.2025 2.57707 27.2025 2.66828V9.70311ZM47 45.9812C47 46.2121 46.8945 46.4301 46.714 46.5722L43.8321 48.8411C43.6961 48.9482 43.5348 49 43.3748 49C43.1535 49 42.9346 48.9009 42.7879 48.7115C42.535 48.3851 42.5925 47.9137 42.9163 47.6588L44.0947 46.7311H36.4962C36.0854 46.7311 35.7523 46.3952 35.7523 45.9811C35.7523 45.5669 36.0854 45.2311 36.4962 45.2311H44.0947L42.9163 44.3033C42.5925 44.0484 42.535 43.577 42.7879 43.2506C43.0408 42.9241 43.5083 42.8661 43.8321 43.1211L46.714 45.39C46.8946 45.5322 47 45.7502 47 45.9812ZM10.3899 24.0747C10.1027 24.1861 9.91327 24.4644 9.91327 24.7747V28.292C9.91327 28.6023 10.1028 28.8805 10.3899 28.9919L12.1672 29.6817C12.4271 30.6383 12.8044 31.5558 13.2926 32.4183L12.5191 34.1742C12.3942 34.4577 12.4553 34.7895 12.673 35.0089L15.1399 37.4959C15.3576 37.7154 15.6868 37.777 15.9679 37.6511L17.7102 36.871C18.566 37.3632 19.4758 37.7434 20.4238 38.0053L21.1082 39.7977C21.2186 40.0872 21.4946 40.2782 21.8024 40.2782H25.2913C25.5991 40.2782 25.875 40.0872 25.9855 39.7977L26.6696 38.0058C27.6183 37.744 28.5284 37.3635 29.3842 36.8714L31.1258 37.6512C31.407 37.777 31.7362 37.7155 31.9538 37.496L34.4207 35.0089C34.6383 34.7895 34.6994 34.4578 34.5746 34.1742L33.8008 32.4178C34.289 31.555 34.6661 30.6379 34.9259 29.6819L36.7038 28.992C36.9909 28.8806 37.1804 28.6024 37.1804 28.2921V24.7749C37.1804 24.4645 36.9909 24.1864 36.7038 24.0749L34.9264 23.3852C34.6667 22.4288 34.2893 21.5112 33.8011 20.6484L34.5746 18.8926C34.6995 18.6091 34.6384 18.2772 34.4207 18.0578L31.9535 15.5707C31.7359 15.3513 31.4066 15.2897 31.1255 15.4155L29.3832 16.1956C28.5275 15.7034 27.6178 15.3232 26.6696 15.0613L25.9853 13.2689C25.8748 12.9794 25.5988 12.7883 25.291 12.7883H21.8023C21.4945 12.7883 21.2185 12.9794 21.108 13.2689L20.4237 15.0612C19.4755 15.3231 18.5658 15.7033 17.71 16.1955L15.9677 15.4154C15.6865 15.2895 15.3574 15.3512 15.1397 15.5706L12.6729 18.0577C12.4553 18.277 12.3941 18.6088 12.519 18.8924L13.2927 20.6486C12.8045 21.5114 12.4272 22.4287 12.1675 23.3848L10.3899 24.0747ZM13.5167 24.1195C13.7691 23.0495 14.1882 22.0307 14.7619 21.0914C14.8905 20.8808 14.9079 20.6198 14.8084 20.3937L14.0861 18.7544L15.8307 16.9956L17.4571 17.7238C17.6813 17.8241 17.9402 17.8067 18.149 17.6769C19.0809 17.0986 20.0913 16.6762 21.1523 16.4216C21.391 16.3643 21.5863 16.1922 21.6744 15.9614L22.3131 14.2885H24.7803L25.419 15.9614C25.5071 16.1921 25.7024 16.3643 25.9411 16.4216C27.0022 16.6762 28.0126 17.0986 28.9444 17.6769C29.1533 17.8066 29.4122 17.8241 29.6364 17.7237L31.2627 16.9956L33.0073 18.7543L32.2853 20.3933C32.1857 20.6193 32.2031 20.8803 32.3318 21.0909C32.9055 22.0302 33.3245 23.0492 33.5771 24.1196C33.6339 24.3602 33.8047 24.5572 34.0336 24.646L35.6924 25.2896V27.777L34.0331 28.421C33.8042 28.5098 33.6334 28.7066 33.5766 28.9473C33.324 30.0172 32.9051 31.0359 32.3314 31.9752C32.2028 32.1857 32.1854 32.4467 32.2849 32.6728L33.0073 34.3123L31.2627 36.0712L29.637 35.3433C29.4128 35.2429 29.1537 35.2604 28.945 35.3902C28.0133 35.9685 27.0026 36.391 25.9408 36.6457C25.7022 36.703 25.5068 36.8751 25.4188 37.1059L24.7803 38.7782H22.3131L21.6744 37.1054C21.5863 36.8746 21.391 36.7024 21.1523 36.6451C20.0913 36.3906 19.0809 35.9682 18.149 35.3898C17.9401 35.2602 17.6811 35.2425 17.4571 35.343L15.8307 36.0712L14.0861 34.3124L14.8081 32.6735C14.9077 32.4475 14.8903 32.1864 14.7616 31.9758C14.1881 31.0369 13.769 30.0179 13.5163 28.9471C13.4595 28.7066 13.2887 28.5097 13.0598 28.4209L11.401 27.7772V25.2898L13.0601 24.646C13.2891 24.557 13.4599 24.36 13.5167 24.1195ZM23.5467 33.9536C27.6051 33.9536 30.9068 30.6249 30.9068 26.5333C30.9068 22.4418 27.6051 19.1131 23.5467 19.1131C19.4883 19.1131 16.1865 22.4418 16.1865 26.5333C16.1865 30.6249 19.4883 33.9536 23.5467 33.9536ZM23.5467 20.6131C26.7846 20.6131 29.419 23.269 29.419 26.5333C29.419 29.7978 26.7846 32.4536 23.5467 32.4536C20.3087 32.4536 17.6744 29.7977 17.6744 26.5333C17.6745 23.2689 20.3087 20.6131 23.5467 20.6131ZM25.9441 5.32441L23.8052 7.9902C23.6726 8.15548 23.4766 8.25626 23.2659 8.26751C23.2528 8.26817 23.2398 8.26855 23.2268 8.26855C23.03 8.26855 22.8407 8.18989 22.7008 8.04889L21.2018 6.53773C20.9113 6.24485 20.9112 5.77001 21.2018 5.47713C21.4923 5.18426 21.9633 5.18426 22.2538 5.47713L23.1683 6.39898L24.7874 4.3811C25.0457 4.05907 25.5141 4.00919 25.8336 4.26973C26.1529 4.53016 26.2025 5.00238 25.9441 5.32441Z" stroke="#CD5955" stroke-width="0.5" mask="url(#path-1-outside-1_113_3904)"/>
</svg>
