<svg width="50" height="50" viewBox="0 0 50 50" fill="none" xmlns="http://www.w3.org/2000/svg">
<path d="M16.6182 21.7183C16.6182 22.2122 16.6714 22.6129 16.7645 22.9064C16.8709 23.2008 17.0039 23.5208 17.1901 23.8684C17.2566 23.9748 17.2832 24.0812 17.2832 24.1752C17.2832 24.3082 17.2034 24.442 17.0305 24.5759L16.1927 25.1363C16.073 25.217 15.9533 25.2569 15.8469 25.2569C15.7139 25.2569 15.5809 25.1895 15.4479 25.0698C15.2617 24.8694 15.1012 24.6557 14.9682 24.442C14.8352 24.2151 14.7022 23.9615 14.5559 23.6547C13.5186 24.8827 12.2152 25.4971 10.645 25.4971C9.5278 25.4971 8.63585 25.1762 7.98417 24.536C7.33249 23.895 7 23.0403 7 21.9719C7 20.837 7.39899 19.9158 8.21026 19.2215C9.02153 18.5273 10.0997 18.1806 11.4695 18.1806C11.9217 18.1806 12.3881 18.2205 12.8802 18.287C13.3723 18.3544 13.8776 18.4608 14.4096 18.5814V17.6061C14.4096 16.5918 14.1968 15.8842 13.7845 15.4702C13.359 15.0561 12.6408 14.8566 11.6158 14.8566C11.1503 14.8566 10.6716 14.9098 10.1795 15.0295C9.6874 15.1501 9.20773 15.2964 8.74224 15.4835C8.52945 15.5775 8.36985 15.6307 8.27676 15.6573C8.18366 15.6839 8.11716 15.6971 8.06396 15.6971C7.87777 15.6971 7.78467 15.5633 7.78467 15.2831V14.6288C7.78467 14.416 7.81127 14.2555 7.87777 14.1615C7.94427 14.0684 8.06396 13.9753 8.25016 13.8813C8.71564 13.641 9.27422 13.4407 9.92679 13.2811C10.5785 13.1073 11.27 13.0266 12.0015 13.0266C13.5851 13.0266 14.7421 13.3875 15.4878 14.1083C16.2192 14.8291 16.5916 15.9241 16.5916 17.3933V21.7183H16.6182ZM11.2168 23.7478C11.6557 23.7478 12.1079 23.668 12.5876 23.5075C13.0664 23.3471 13.492 23.0536 13.851 22.6528C14.0638 22.3992 14.2234 22.1191 14.3032 21.799C14.383 21.478 14.4362 21.0906 14.4362 20.6375V20.0762C14.0505 19.9832 13.6383 19.9025 13.2127 19.8493C12.7871 19.7961 12.3748 19.7695 11.9616 19.7695C11.0705 19.7695 10.4189 19.9424 9.97999 20.3032C9.54021 20.6641 9.32742 21.1712 9.32742 21.8389C9.32742 22.4657 9.48702 22.933 9.82039 23.254C10.1396 23.5873 10.6051 23.7478 11.2168 23.7478ZM21.9008 25.1895C21.6605 25.1895 21.5001 25.1496 21.3937 25.0565C21.2882 24.9758 21.1942 24.7896 21.1144 24.536L17.9881 14.2156C17.9092 13.9478 17.8684 13.7749 17.8684 13.6809C17.8684 13.4673 17.9748 13.3476 18.1885 13.3476H19.4918C19.7445 13.3476 19.9174 13.3875 20.0105 13.4806C20.1169 13.5612 20.1967 13.7483 20.2765 14.0019L22.5108 22.8399L24.5873 14.0019C24.6529 13.735 24.7336 13.5612 24.84 13.4814C24.9464 13.4008 25.1317 13.3476 25.372 13.3476H26.436C26.6887 13.3476 26.8616 13.3875 26.9679 13.4814C27.0752 13.5612 27.1674 13.7483 27.2206 14.0019L29.3237 22.9472L31.6246 14.0019C31.7044 13.735 31.7975 13.5612 31.8914 13.4814C31.997 13.4008 32.1707 13.3476 32.4092 13.3476H33.6479C33.8598 13.3476 33.9786 13.454 33.9786 13.6809C33.9786 13.7483 33.9662 13.8148 33.9538 13.8946C33.9396 13.9753 33.913 14.0817 33.8598 14.2289L30.6528 24.5493C30.573 24.8162 30.4808 24.99 30.3735 25.0698C30.2671 25.1496 30.0942 25.2037 29.8681 25.2037H28.7244C28.4717 25.2037 28.2988 25.1638 28.1924 25.0698C28.086 24.9767 27.9929 24.8029 27.9397 24.536L25.8774 15.9241L23.8293 24.5227C23.7619 24.7896 23.6821 24.9634 23.5766 25.0565C23.4702 25.1496 23.2831 25.1904 23.0446 25.1904H21.9008V25.1895ZM38.9943 25.5503C38.3027 25.5503 37.612 25.4705 36.9462 25.3101C36.2812 25.1496 35.7616 24.9758 35.4167 24.7754C35.203 24.6557 35.0567 24.5218 35.0035 24.4022C34.9503 24.2816 34.9237 24.1486 34.9237 24.028V23.3471C34.9237 23.0669 35.0301 22.933 35.2296 22.933C35.3094 22.933 35.3901 22.9472 35.4699 22.9738C35.5497 23.0004 35.6694 23.0536 35.8024 23.1068C36.2546 23.3072 36.7476 23.4676 37.2653 23.574C37.7973 23.6813 38.3169 23.7345 38.8489 23.7345C39.6868 23.7345 40.3384 23.5873 40.7915 23.2939C41.2437 23.0004 41.4822 22.573 41.4822 22.026C41.4822 21.6518 41.3625 21.345 41.124 21.0906C40.8846 20.837 40.4324 20.6109 39.779 20.3963L37.8505 19.7961C36.8788 19.4893 36.1615 19.0353 35.7226 18.4342C35.2828 17.8464 35.0567 17.1929 35.0567 16.4987C35.0567 15.9374 35.1764 15.4436 35.4167 15.0162C35.6561 14.5889 35.9753 14.2156 36.3734 13.9212C36.7742 13.6144 37.2263 13.3875 37.7583 13.227C38.2903 13.0674 38.8489 13 39.4341 13C39.7258 13 40.0317 13.0133 40.3251 13.0541C40.6319 13.094 40.9112 13.1472 41.1905 13.2004C41.4556 13.2678 41.7083 13.3343 41.9486 13.4141C42.1888 13.4947 42.3733 13.5745 42.5071 13.6543C42.6933 13.7616 42.8272 13.868 42.9052 13.9886C42.9859 14.095 43.0267 14.2422 43.0267 14.4293V15.0561C43.0267 15.3363 42.9194 15.4835 42.7208 15.4835C42.6135 15.4835 42.4415 15.4303 42.2154 15.323C41.4556 14.9763 40.6053 14.8025 39.6602 14.8025C38.9021 14.8025 38.3027 14.9231 37.8913 15.1767C37.479 15.4303 37.2653 15.8177 37.2653 16.3648C37.2653 16.7389 37.3983 17.059 37.6652 17.3126C37.9303 17.5662 38.4233 17.8198 39.1282 18.0467L41.0176 18.6479C41.9752 18.9547 42.6667 19.382 43.0799 19.9291C43.4913 20.477 43.6917 21.1047 43.6917 21.799C43.6917 22.3726 43.5711 22.8931 43.345 23.3471C43.1065 23.801 42.7864 24.2018 42.3733 24.5218C41.9628 24.8561 41.4698 25.0964 40.897 25.2702C40.2985 25.4572 39.6743 25.5503 38.9943 25.5503Z" fill="#252F3E"/>
<path d="M41.1628 32.0381C36.7855 35.2832 30.4283 37.0059 24.9604 37.0059C17.2963 37.0059 10.392 34.1616 5.17774 29.4349C4.76456 29.0616 5.13695 28.5545 5.62903 28.8471C11.2698 32.1329 18.2281 34.1225 25.4241 34.1225C30.2802 34.1225 35.616 33.1082 40.5235 31.0238C41.2568 30.6904 41.881 31.5043 41.1628 32.0381ZM42.9866 29.9562C42.428 29.2345 39.2875 29.6096 37.8636 29.7833C37.4389 29.8365 37.3715 29.4615 37.7572 29.1813C40.2593 27.4196 44.3689 27.9267 44.8476 28.5146C45.3282 29.1148 44.7164 33.2403 42.3748 35.2167C42.0148 35.5234 41.6682 35.363 41.8286 34.9631C42.3606 33.642 43.5452 30.6638 42.9866 29.9562Z" fill="#FF9900"/>
</svg>
