<svg width="50" height="50" viewBox="0 0 50 50" fill="none" xmlns="http://www.w3.org/2000/svg">
<path d="M39.6458 15.5951L33.4756 15.5935V27.8596C33.4756 33.2651 33.1953 35.3234 32.315 37.0983C31.4743 38.8337 30.1522 39.9658 27.4257 41.2562L33.1542 44.0001C35.8791 42.6289 37.2027 41.3781 38.2018 39.4005C39.2848 37.3438 39.6443 34.9624 39.6443 30.0003L39.6458 15.5951Z" fill="#0D2E1E"/>
<path d="M29.8276 34.7613V6H23.6589V15.4747C22.7374 15.2324 21.9743 15.1517 20.9736 15.1517C14.5199 15.1517 10.3542 19.2667 10.3542 25.6017C10.3542 32.1788 14.2793 35.6083 21.8143 35.6083C24.3382 35.6099 26.6625 35.3677 29.8276 34.7613ZM16.6463 25.4813C16.6463 22.0914 18.4482 20.155 21.5753 20.155H21.5673L21.6972 20.1534C22.3986 20.1534 23.0715 20.2722 23.6573 20.478V30.4435C22.7754 30.5654 22.2149 30.605 21.5341 30.605C18.3674 30.6034 16.6463 28.7905 16.6463 25.4813Z" fill="#0D2E1E"/>
<path d="M39.6458 25H33.4756V27.8611C33.4756 33.2666 33.1953 35.3249 32.315 37.0998C31.4743 38.8352 30.1522 39.9672 27.4257 41.2577L33.1542 44C35.8791 42.6288 37.2028 41.378 38.2018 39.4004C39.2848 37.3437 39.6443 34.9623 39.6443 30.0002L39.6458 25ZM29.8276 25H23.6589V30.4435C22.777 30.5654 22.2165 30.605 21.5357 30.605C18.369 30.605 16.6463 28.7905 16.6463 25.4829C16.6463 25.3183 16.6511 25.1583 16.659 25.0016H10.3668C10.3589 25.1995 10.3542 25.4006 10.3542 25.6032C10.3542 32.1804 14.2793 35.6099 21.8143 35.6099C24.3382 35.6099 26.6625 35.3677 29.8276 34.7628V25Z" fill="#0B281A"/>
<path d="M39.6458 6.0332H33.4756V12.4093H39.6458V6.0332Z" fill="#0D2E1E"/>
<path d="M36.5615 6.0332H33.4756V12.4093H36.5615V6.0332Z" fill="#0B281A"/>
</svg>
