<svg width="27" height="20" viewBox="0 0 27 20" fill="none" xmlns="http://www.w3.org/2000/svg">
<path d="M13.4329 8.453L25.6949 0.576C25.2019 0.206065 24.6032 0.00415899 23.9869 0H2.8789C2.26258 0.00415899 1.66387 0.206065 1.1709 0.576L13.4329 8.453Z" fill="#40BA77"/>
<path d="M13.951 10.4L13.788 10.477H13.711C13.6227 10.5165 13.529 10.5424 13.433 10.554C13.3533 10.564 13.2727 10.564 13.193 10.554H13.116L12.953 10.477L0.0999999 2.16797C0.0372008 2.39954 0.0036069 2.63806 0 2.87797V16.308C0 16.6859 0.0744417 17.0602 0.219075 17.4093C0.363708 17.7585 0.5757 18.0758 0.842947 18.343C1.11019 18.6103 1.42746 18.8223 1.77664 18.9669C2.12581 19.1115 2.50006 19.186 2.878 19.186H23.987C24.3649 19.186 24.7392 19.1115 25.0884 18.9669C25.4375 18.8223 25.7548 18.6103 26.0221 18.343C26.2893 18.0758 26.5013 17.7585 26.6459 17.4093C26.7906 17.0602 26.865 16.6859 26.865 16.308V2.87797C26.8614 2.63806 26.8278 2.39954 26.765 2.16797L13.951 10.4Z" fill="#40BA77"/>
</svg>
