<svg width="50" height="50" viewBox="0 0 50 50" fill="none" xmlns="http://www.w3.org/2000/svg">
<g clip-path="url(#clip0_206_243)">
<path d="M10 37.168L10.2488 36.8197L22.0149 14.4938L22.0397 14.2575L16.8531 4.51484C16.4184 3.69874 15.1949 3.90511 15.0524 4.8187L10 37.168Z" fill="#FFC24A"/>
<path d="M10.1468 36.9023L10.3349 36.5353L21.9779 14.4434L16.804 4.66117C16.3741 3.85363 15.2821 4.05953 15.141 4.96351L10.1468 36.9023Z" fill="#FFA712"/>
<g filter="url(#filter0_i_206_243)">
<path d="M10.1468 36.9023L10.3349 36.5353L21.9779 14.4434L16.804 4.66117C16.3741 3.85363 15.2821 4.05953 15.141 4.96351L10.1468 36.9023Z" fill="#E8981A" fill-opacity="0.07"/>
</g>
<path d="M25.8209 21.6267L29.6828 17.6717L25.8197 10.2971C25.4531 9.59897 24.4292 9.59687 24.0664 10.2971L22.0023 14.233V14.5682L25.8208 21.6267H25.8209Z" fill="#F4BD62"/>
<path d="M25.752 21.4619L29.5066 17.6168L25.752 10.4675C25.3955 9.78889 24.5294 9.71776 24.1766 10.3984L22.1018 14.3955L22.0397 14.5999L25.752 21.4619V21.4619Z" fill="#FFA50E"/>
<g filter="url(#filter1_i_206_243)">
<path d="M25.752 21.4619L29.5066 17.6168L25.752 10.4675C25.3955 9.78889 24.5294 9.71776 24.1766 10.3984L22.1018 14.3955L22.0397 14.5999L25.752 21.4619V21.4619Z" fill="#E8981A" fill-opacity="0.1"/>
</g>
<path d="M10 37.1679L10.1127 37.0544L10.5224 36.888L25.5783 21.888L25.7691 21.3688L22.0132 14.2117L10 37.1679Z" fill="#F6820C"/>
<path d="M26.3032 44.7326L39.9292 37.1333L36.0381 13.1691C35.9164 12.4193 34.9966 12.123 34.4598 12.6605L10 37.1678L23.5478 44.732C23.9689 44.9671 24.4432 45.0906 24.9255 45.0907C25.4077 45.0908 25.882 44.9675 26.3032 44.7326Z" fill="#FDE068"/>
<path d="M39.8071 37.0696L35.9455 13.2873C35.8248 12.5432 35.0598 12.2354 34.5272 12.7689L10.1512 37.1212L23.5503 44.6104C23.9682 44.8437 24.4388 44.9663 24.9174 44.9664C25.396 44.9665 25.8667 44.8442 26.2847 44.6111L39.8072 37.0695L39.8071 37.0696Z" fill="#FCCA3F"/>
<path d="M26.3031 44.5088C25.8819 44.7438 25.4077 44.867 24.9254 44.8669C24.4431 44.8668 23.9689 44.7433 23.5478 44.5083L10.1091 37.0528L10.0001 37.168L23.5478 44.7322C23.9689 44.9673 24.4432 45.0908 24.9255 45.0909C25.4077 45.091 25.882 44.9677 26.3032 44.7328L39.9292 37.1335L39.8958 36.9282L26.3032 44.509L26.3031 44.5088Z" fill="#EEAB37"/>
</g>
<defs>
<filter id="filter0_i_206_243" x="10.1468" y="4.15649" width="11.831" height="32.7458" filterUnits="userSpaceOnUse" color-interpolation-filters="sRGB">
<feFlood flood-opacity="0" result="BackgroundImageFix"/>
<feBlend mode="normal" in="SourceGraphic" in2="BackgroundImageFix" result="shape"/>
<feColorMatrix in="SourceAlpha" type="matrix" values="0 0 0 0 0 0 0 0 0 0 0 0 0 0 0 0 0 0 127 0" result="hardAlpha"/>
<feOffset/>
<feGaussianBlur stdDeviation="124.619"/>
<feComposite in2="hardAlpha" operator="arithmetic" k2="-1" k3="1"/>
<feColorMatrix type="matrix" values="0 0 0 0 0 0 0 0 0 0 0 0 0 0 0 0 0 0 0.06 0"/>
<feBlend mode="normal" in2="shape" result="effect1_innerShadow_206_243"/>
</filter>
<filter id="filter1_i_206_243" x="22.0397" y="9.92188" width="7.46684" height="11.54" filterUnits="userSpaceOnUse" color-interpolation-filters="sRGB">
<feFlood flood-opacity="0" result="BackgroundImageFix"/>
<feBlend mode="normal" in="SourceGraphic" in2="BackgroundImageFix" result="shape"/>
<feColorMatrix in="SourceAlpha" type="matrix" values="0 0 0 0 0 0 0 0 0 0 0 0 0 0 0 0 0 0 127 0" result="hardAlpha"/>
<feOffset dx="7.12109" dy="-64.0898"/>
<feGaussianBlur stdDeviation="24.9238"/>
<feComposite in2="hardAlpha" operator="arithmetic" k2="-1" k3="1"/>
<feColorMatrix type="matrix" values="0 0 0 0 0 0 0 0 0 0 0 0 0 0 0 0 0 0 0.09 0"/>
<feBlend mode="normal" in2="shape" result="effect1_innerShadow_206_243"/>
</filter>
<clipPath id="clip0_206_243">
<rect width="30" height="41.141" fill="white" transform="translate(10 4)"/>
</clipPath>
</defs>
</svg>
