<svg width="82" height="92" viewBox="0 0 82 92" fill="none" xmlns="http://www.w3.org/2000/svg">
<path d="M53.1509 80.7799H26.0114C23.3139 80.7765 20.728 79.813 18.8209 78.101C16.9138 76.3889 15.8411 74.0679 15.8382 71.6471V63.9824C15.8309 63.7784 15.8695 63.5752 15.9514 63.3849C16.0334 63.1945 16.1572 63.0209 16.3154 62.8743C16.4736 62.7278 16.663 62.6112 16.8724 62.5316C17.0818 62.452 17.3069 62.411 17.5343 62.411C17.7617 62.411 17.9868 62.452 18.1961 62.5316C18.4055 62.6112 18.5949 62.7278 18.7532 62.8743C18.9114 63.0209 19.0351 63.1945 19.1171 63.3849C19.1991 63.5752 19.2376 63.7784 19.2304 63.9824V71.6471C19.2318 73.2623 19.9473 74.811 21.22 75.9532C22.4927 77.0953 24.2184 77.7375 26.0183 77.7387H53.1509C54.9511 77.7387 56.6777 77.0969 57.9506 75.9545C59.2236 74.8121 59.9388 73.2627 59.9388 71.6471V16.8477C59.9388 15.2321 59.2236 13.6826 57.9506 12.5402C56.6777 11.3978 54.9511 10.756 53.1509 10.756H26.0114C24.2116 10.7573 22.4858 11.3995 21.2132 12.5416C19.9405 13.6837 19.2249 15.2325 19.2235 16.8477V51.8407C19.2095 52.236 19.0247 52.611 18.7081 52.8861C18.3916 53.1613 17.9681 53.3152 17.5274 53.3152C17.0867 53.3152 16.6633 53.1613 16.3467 52.8861C16.0302 52.611 15.8453 52.236 15.8313 51.8407V16.8477C15.8343 14.4258 16.9079 12.1039 18.8165 10.3916C20.7251 8.67938 23.3127 7.71668 26.0114 7.71484L53.1509 7.71484C55.849 7.7175 58.4357 8.68056 60.3436 10.3927C62.2515 12.1049 63.3246 14.4263 63.3275 16.8477V71.6471C63.3246 74.0684 62.2515 76.3899 60.3436 78.102C58.4357 79.8142 55.849 80.7773 53.1509 80.7799V80.7799Z" fill="#2D4356"/>
<path d="M39.5803 68.6029C39.916 68.6026 40.2442 68.6916 40.5235 68.8588C40.8028 69.026 41.0206 69.2637 41.1493 69.5419C41.278 69.8202 41.3118 70.1265 41.2466 70.422C41.1813 70.7175 41.0198 70.989 40.7825 71.2021C40.5453 71.4153 40.2429 71.5605 39.9137 71.6193C39.5845 71.6782 39.2432 71.6482 38.933 71.5329C38.6228 71.4177 38.3577 71.2225 38.1711 70.9721C37.9846 70.7216 37.885 70.4271 37.885 70.1258C37.885 69.7222 38.0636 69.335 38.3814 69.0495C38.6993 68.7639 39.1305 68.6033 39.5803 68.6029M39.5803 65.5586C38.5739 65.5586 37.5901 65.8264 36.7533 66.3282C35.9166 66.83 35.2644 67.5431 34.8793 68.3775C34.4941 69.2119 34.3934 70.1301 34.5897 71.0159C34.786 71.9017 35.2707 72.7154 35.9823 73.354C36.6939 73.9926 37.6005 74.4275 38.5876 74.6037C39.5746 74.7799 40.5977 74.6895 41.5275 74.3439C42.4573 73.9982 43.2519 73.4129 43.8111 72.662C44.3702 71.9111 44.6686 71.0282 44.6686 70.125C44.6684 68.9141 44.1322 67.7528 43.178 66.8966C42.2237 66.0404 40.9296 65.5594 39.5803 65.5594V65.5586ZM48.0625 16.8478H37.885C37.6577 16.8543 37.4313 16.8197 37.2192 16.7461C37.0071 16.6726 36.8137 16.5615 36.6503 16.4195C36.487 16.2775 36.3571 16.1075 36.2684 15.9196C36.1798 15.7317 36.1341 15.5297 36.1341 15.3256C36.1341 15.1216 36.1798 14.9196 36.2684 14.7317C36.3571 14.5438 36.487 14.3738 36.6503 14.2318C36.8137 14.0898 37.0071 13.9787 37.2192 13.9052C37.4313 13.8316 37.6577 13.797 37.885 13.8035H48.0625C48.503 13.8161 48.9208 13.982 49.2274 14.2661C49.5341 14.5501 49.7055 14.9301 49.7055 15.3256C49.7055 15.7212 49.5341 16.1012 49.2274 16.3852C48.9208 16.6693 48.503 16.8352 48.0625 16.8478V16.8478ZM31.0997 13.8043C30.7641 13.8043 30.436 13.8936 30.1569 14.0609C29.8779 14.2283 29.6604 14.4661 29.5319 14.7444C29.4035 15.0227 29.3699 15.3289 29.4354 15.6243C29.5008 15.9197 29.6625 16.1911 29.8998 16.4041C30.1371 16.617 30.4395 16.7621 30.7687 16.8208C31.0978 16.8796 31.439 16.8494 31.7491 16.7342C32.0592 16.6189 32.3242 16.4237 32.5107 16.1733C32.6972 15.9228 32.7967 15.6284 32.7967 15.3272C32.7967 15.1272 32.7528 14.9292 32.6675 14.7444C32.5822 14.5596 32.4572 14.3917 32.2997 14.2503C32.1421 14.1089 31.955 13.9967 31.7491 13.9202C31.5432 13.8437 31.3226 13.8043 31.0997 13.8043ZM17.5317 56.4258C17.1959 56.4255 16.8676 56.5146 16.5883 56.6818C16.3089 56.849 16.0912 57.0868 15.9625 57.3652C15.8339 57.6435 15.8001 57.9498 15.8655 58.2454C15.931 58.541 16.0926 58.8125 16.33 59.0255C16.5675 59.2386 16.87 59.3837 17.1993 59.4424C17.5287 59.5011 17.87 59.4708 18.1802 59.3554C18.4903 59.2399 18.7553 59.0445 18.9417 58.7938C19.128 58.5431 19.2273 58.2485 19.2269 57.9471C19.2265 57.5438 19.0477 57.157 18.7299 56.8718C18.4121 56.5866 17.9812 56.4262 17.5317 56.4258V56.4258Z" fill="#2D4356"/>
<path d="M65.7153 84.7129H59.8081C59.4501 84.7379 59.1157 84.8832 58.8718 85.1197C58.6279 85.3563 58.4924 85.6668 58.4924 85.9891C58.4924 86.3113 58.6279 86.6218 58.8718 86.8583C59.1157 87.0949 59.4501 87.2402 59.8081 87.2652H65.7153C66.0734 87.2402 66.4077 87.0949 66.6516 86.8583C66.8955 86.6218 67.031 86.3113 67.031 85.9891C67.031 85.6668 66.8955 85.3563 66.6516 85.1197C66.4077 84.8832 66.0734 84.7379 65.7153 84.7129V84.7129ZM23.0531 84.7129H17.1467C16.7887 84.7379 16.4543 84.8832 16.2104 85.1197C15.9665 85.3563 15.8311 85.6668 15.8311 85.9891C15.8311 86.3113 15.9665 86.6218 16.2104 86.8583C16.4543 87.0949 16.7887 87.2402 17.1467 87.2652H23.0513C23.4094 87.2402 23.7438 87.0949 23.9877 86.8583C24.2316 86.6218 24.367 86.3113 24.367 85.9891C24.367 85.6668 24.2316 85.3563 23.9877 85.1197C23.7438 84.8832 23.4094 84.7379 23.0513 84.7129H23.0531ZM55.6512 84.7129H27.21C26.8329 84.7129 26.4712 84.8473 26.2045 85.0867C25.9378 85.326 25.788 85.6506 25.788 85.9891C25.788 86.3275 25.9378 86.6521 26.2045 86.8914C26.4712 87.1308 26.8329 87.2652 27.21 87.2652H38.544V88.5414H32.8989C32.5218 88.5414 32.1601 88.6758 31.8934 88.9152C31.6267 89.1545 31.4769 89.4791 31.4769 89.8175C31.4769 90.156 31.6267 90.4806 31.8934 90.7199C32.1601 90.9592 32.5218 91.0937 32.8989 91.0937H50.6746C51.0517 91.0937 51.4134 90.9592 51.6801 90.7199C51.9468 90.4806 52.0966 90.156 52.0966 89.8175C52.0966 89.4791 51.9468 89.1545 51.6801 88.9152C51.4134 88.6758 51.0517 88.5414 50.6746 88.5414L44.3163 87.2652H55.6512C56.0283 87.2652 56.39 87.1308 56.6567 86.8914C56.9234 86.6521 57.0732 86.3275 57.0732 85.9891C57.0732 85.6506 56.9234 85.326 56.6567 85.0867C56.39 84.8473 56.0283 84.7129 55.6512 84.7129Z" fill="#489977"/>
<path d="M1.94458 81.209H80.4872" stroke="#2D4356" stroke-width="3" stroke-linecap="round"/>
<path d="M5.03506 38.6611L6.09277 37.4135L5.42515 37.0742L4.7455 38.4714H4.72402L4.03664 37.0835L3.35786 37.4328L4.40182 38.6519V38.675L2.76929 38.4822V39.1608L4.41642 38.9711V38.9912L3.35957 40.2087L3.99282 40.5688L4.71629 39.1608H4.73863L5.40625 40.558L6.10738 40.1987L5.03936 39.0004V38.9834L6.71914 39.1631V38.4845L5.03936 38.6835L5.03506 38.6611Z" fill="#489977"/>
<path d="M4.94515 1.10421L4.33682 1.80513L4.70199 2.01256L5.11871 1.20137H5.1316L5.51567 2.00639L5.91951 1.79896L5.3043 1.10883V1.09804L6.27093 1.20137V0.811192L5.3043 0.926085V0.914519L5.91263 0.195858L5.52856 0L5.14105 0.805023H5.12816L4.73206 0.00539764L4.34369 0.206654L4.94515 0.90835V0.919916L4 0.811192V1.20137L4.94515 1.09264V1.10421Z" fill="#489977"/>
<path d="M73.646 4.26317L74.5404 3.20677L73.9759 2.91992L73.4011 4.10201H73.3822L72.7996 2.9284L72.2248 3.22373L73.1098 4.25469V4.27165L71.7256 4.11049V4.68573L73.1193 4.52457V4.53922L72.2248 5.5694L72.761 5.87399L73.3736 4.68342H73.3925L73.957 5.8655L74.5499 5.56092L73.646 4.5477V4.53074L75.0671 4.68496V4.10972L73.646 4.27859V4.26317Z" fill="#489977"/>
</svg>
