<svg width="71" height="80" viewBox="0 0 71 80" fill="none" xmlns="http://www.w3.org/2000/svg">
<path d="M56.6772 73.4844H51.6588C51.3547 73.5061 51.0706 73.6321 50.8634 73.8373C50.6563 74.0425 50.5412 74.3118 50.5412 74.5913C50.5412 74.8709 50.6563 75.1401 50.8634 75.3453C51.0706 75.5505 51.3547 75.6766 51.6588 75.6983H56.6772C56.9813 75.6766 57.2653 75.5505 57.4725 75.3453C57.6797 75.1401 57.7948 74.8709 57.7948 74.5913C57.7948 74.3118 57.6797 74.0425 57.4725 73.8373C57.2653 73.6321 56.9813 73.5061 56.6772 73.4844ZM20.4343 73.4844H15.416C15.1118 73.5061 14.8278 73.6321 14.6206 73.8373C14.4134 74.0425 14.2983 74.3118 14.2983 74.5913C14.2983 74.8709 14.4134 75.1401 14.6206 75.3453C14.8278 75.5505 15.1118 75.6766 15.416 75.6983H20.4343C20.7385 75.6766 21.0225 75.5505 21.2297 75.3453C21.4368 75.1401 21.5519 74.8709 21.5519 74.5913C21.5519 74.3118 21.4368 74.0425 21.2297 73.8373C21.0225 73.6321 20.7385 73.5061 20.4343 73.4844ZM48.1276 73.4844H23.9655C23.6451 73.4844 23.3378 73.601 23.1113 73.8086C22.8848 74.0162 22.7575 74.2977 22.7575 74.5913C22.7575 74.8849 22.8848 75.1665 23.1113 75.374C23.3378 75.5816 23.6451 75.6983 23.9655 75.6983H33.5937V76.8052H28.7982C28.4778 76.8052 28.1706 76.9218 27.944 77.1294C27.7175 77.337 27.5902 77.6186 27.5902 77.9122C27.5902 78.2057 27.7175 78.4873 27.944 78.6949C28.1706 78.9025 28.4778 79.0191 28.7982 79.0191H43.8978C44.2182 79.0191 44.5255 78.9025 44.752 78.6949C44.9785 78.4873 45.1058 78.2057 45.1058 77.9122C45.1058 77.6186 44.9785 77.337 44.752 77.1294C44.5255 76.9218 44.2182 76.8052 43.8978 76.8052L38.498 75.6983H48.1276C48.448 75.6983 48.7553 75.5816 48.9818 75.374C49.2084 75.1665 49.3356 74.8849 49.3356 74.5913C49.3356 74.2977 49.2084 74.0162 48.9818 73.8086C48.7553 73.601 48.448 73.4844 48.1276 73.4844Z" fill="#489977"/>
<path d="M2.50146 70.4453H69.2256" stroke="#2D4356" stroke-width="3" stroke-linecap="round"/>
<path d="M5.12705 33.537L6.02519 32.4548L5.4581 32.1602L4.88297 33.3722H4.86251L4.27787 32.1668L3.70128 32.4702L4.59065 33.5283V33.5457L3.20215 33.3816V33.9702L4.60088 33.8055V33.8229L3.69982 34.879L4.23768 35.191L4.85227 33.9702H4.87128L5.43837 35.1823L6.03396 34.8709L5.12705 33.8316V33.8142L6.55356 33.9702V33.3816L5.12705 33.5544V33.537Z" fill="#489977"/>
<path d="M0.80387 0.958283L0.28647 1.56633L0.597056 1.74647L0.950028 1.04266H0.96099L1.28692 1.74112L1.62966 1.56098L1.1108 0.962971V0.953596L1.93221 1.04333V0.704482L1.1108 0.803592V0.793548L1.6282 0.170093L1.30227 0L0.96976 0.698456H0.958798L0.621903 0.00535721L0.289393 0.179469L0.800947 0.78819V0.798235L0 0.704482V1.04333L0.80387 0.948908V0.958283Z" fill="#489977"/>
<path d="M59.1675 3.69841L59.9275 2.78232L59.4481 2.5332L58.9607 3.55912H58.9446L58.4491 2.54057L57.961 2.79705L58.713 3.69171V3.70578L57.5371 3.56649V4.06539L58.721 3.9261V3.93949L57.961 4.83282L58.4163 5.09666L58.9373 4.06405H58.9526L59.4321 5.08997L59.9356 4.82612L59.1675 3.94686V3.93279L60.3748 4.06672V3.56783L59.1675 3.71448V3.69841Z" fill="#489977"/>
<path d="M3.78526 62.419L8.51567 59.5294L4.41593 57.2178L3.78526 62.419ZM34.6897 19.0726L29.6472 16.4716H29.0136L5.67727 54.0389V54.6168L11.0362 57.2171H11.3519L34.6882 19.6492L34.6897 19.0726ZM17.0287 29.7651H0.316922L0.0012207 38.1452C0.0012207 38.4345 0.316922 39.0124 0.316922 39.301H11.0362L17.0287 29.7651ZM60.5473 54.9054L59.2859 55.7726C58.6552 56.3506 58.6552 56.9285 59.6016 58.3736C60.548 59.5294 62.1243 60.1074 63.7014 60.6853C64.0171 60.6853 64.332 60.9746 64.6477 60.9746C64.6477 58.6629 64.0171 56.3539 63.0707 55.1954C62.3039 54.799 61.3977 54.6951 60.548 54.9061L60.5473 54.9054ZM32.167 29.7651L26.1745 39.301H43.8355C42.5742 36.9893 40.9974 33.8107 39.1051 29.7651H32.167ZM51.4036 29.7651C51.7193 30.6323 52.35 31.2102 52.6649 32.0767L54.242 34.9663L54.5577 35.2556L56.7654 38.7231C56.7654 39.0124 57.0811 39.0124 57.0811 39.301H65.5948C65.8455 38.9619 65.9573 38.5525 65.9105 38.1452V29.7651H51.4036ZM59.6031 52.3051C59.7229 52.1913 59.8134 52.0543 59.868 51.9043C59.9227 51.7542 59.94 51.5949 59.9188 51.4379L57.3961 47.1032C57.3961 46.8139 57.0804 46.8139 56.7654 46.8139L55.819 47.3918C55.5033 47.6811 55.1884 47.6811 54.5577 47.9698L54.242 48.2591H53.9263L53.6106 48.5483C53.2949 48.8376 53.2949 48.8376 53.6106 49.1263L56.764 53.461C56.764 53.7503 57.0797 53.7503 57.3946 53.7503L57.7103 53.461C57.8346 53.3512 57.984 53.2682 58.1478 53.2182C58.3115 53.1681 58.4854 53.1522 58.6567 53.1717L59.6031 52.3045V52.3051ZM55.5033 43.6357V42.4799C55.0158 41.7416 54.594 40.9686 54.242 40.1682L52.35 36.698V36.4087L52.0335 36.1221C52.0335 35.8328 51.7178 35.8328 51.7178 35.5442L50.7715 33.8105C50.7724 33.7723 50.7648 33.7343 50.7493 33.6988C50.7337 33.6633 50.7105 33.6311 50.681 33.6041C50.6515 33.577 50.6163 33.5558 50.5776 33.5415C50.5389 33.5273 50.4975 33.5204 50.4558 33.5212C45.4133 24.8518 41.9413 19.0726 39.7336 15.8937C38.1566 13.8707 36.8952 11.2731 35.3189 8.95804C33.4269 6.06846 31.2192 2.31167 29.3264 0C30.2728 3.75679 34.0568 11.2697 35.6331 14.7379L36.2638 16.183V16.7609C36.8574 17.1433 37.3206 17.6719 37.5997 18.2856C37.8788 18.8993 37.9625 19.573 37.8409 20.2284C44.1476 33.8105 49.8258 44.213 51.0857 45.3688C52.0321 45.6581 52.347 45.6581 52.9777 45.3688L54.8697 44.5016C54.8697 44.2123 55.5004 43.9237 55.5004 43.6344L55.5033 43.6357Z" fill="#2D4356"/>
</svg>
