<svg width="47" height="52" viewBox="0 0 47 52" fill="none" xmlns="http://www.w3.org/2000/svg">
<mask id="path-1-outside-1_113_3906" maskUnits="userSpaceOnUse" x="17.7263" y="22.8838" width="17" height="17" fill="black">
<rect fill="white" x="17.7263" y="22.8838" width="17" height="17"/>
<path d="M33.0051 32.2522L32.7284 32.0975C32.7819 31.639 32.7819 31.1758 32.7284 30.7173L33.0026 30.5643C33.1778 30.4681 33.3318 30.3377 33.4555 30.1807C33.5791 30.0237 33.6699 29.8434 33.7224 29.6505C33.7736 29.4616 33.7857 29.2642 33.758 29.0704C33.7303 28.8767 33.6632 28.6906 33.561 28.5236L32.4843 26.7396C32.2774 26.4069 31.9511 26.166 31.5722 26.0664C31.1934 25.9667 30.7907 26.0159 30.4469 26.2037L30.1326 26.3776C29.7276 26.0883 29.2916 25.8452 28.8326 25.6528V25.3619C28.828 24.9667 28.6671 24.5894 28.3852 24.3124C28.1032 24.0354 27.7231 23.8814 27.3278 23.8838H25.1701C24.7749 23.8814 24.3948 24.0354 24.1128 24.3124C23.8308 24.5894 23.67 24.9667 23.6653 25.3619V25.6528C23.2067 25.8448 22.7712 26.088 22.367 26.3776L22.0518 26.2037C21.7082 26.0161 21.3057 25.9671 20.927 26.0667C20.5484 26.1664 20.2222 26.4071 20.0153 26.7396L18.9369 28.5236C18.8351 28.6909 18.7683 28.8771 18.7407 29.071C18.7131 29.2649 18.7253 29.4623 18.7764 29.6514C18.829 29.8436 18.9196 30.0233 19.0428 30.18C19.166 30.3366 19.3193 30.467 19.4937 30.5635L19.7704 30.7173C19.7436 30.9465 19.7302 31.1771 19.7303 31.4078C19.7306 31.6383 19.7439 31.8686 19.7704 32.0975L19.4945 32.2513C19.3199 32.3476 19.1664 32.4779 19.043 32.6346C18.9197 32.7913 18.829 32.9711 18.7764 33.1634C18.7252 33.3525 18.7131 33.55 18.7408 33.7439C18.7686 33.9378 18.8356 34.124 18.9377 34.2912L20.0145 36.0752C20.2222 36.4072 20.5487 36.6474 20.9274 36.747C21.3061 36.8466 21.7086 36.798 22.0527 36.6111L22.367 36.4372C22.771 36.727 23.2066 36.9702 23.6653 37.162V37.4496C23.6697 37.8449 23.8305 38.2225 24.1125 38.4996C24.3945 38.7767 24.7748 38.9309 25.1701 38.9285H27.3245C27.7199 38.9309 28.1001 38.7767 28.3821 38.4996C28.6641 38.2225 28.8249 37.8449 28.8293 37.4496V37.1587C29.2885 36.9667 29.7246 36.7235 30.1293 36.4338L30.4436 36.6069C30.7872 36.7952 31.1899 36.8448 31.5689 36.7452C31.9478 36.6457 32.2742 36.4047 32.4809 36.0719L33.5569 34.2895C33.6593 34.1223 33.7266 33.936 33.7545 33.7419C33.7823 33.5479 33.7703 33.3502 33.7191 33.1609C33.6668 32.9694 33.5767 32.7903 33.4541 32.6343C33.3314 32.4782 33.1788 32.3483 33.0051 32.2522ZM31.0957 31.4078C31.0955 31.6143 31.0804 31.8205 31.0505 32.0248C31.0127 32.3176 31.0643 32.6149 31.1986 32.8778C31.3329 33.1407 31.5436 33.3569 31.8029 33.4978L32.0144 33.6157L31.13 35.0795L30.8591 34.929C30.5987 34.7895 30.3041 34.7268 30.0094 34.7481C29.7148 34.7694 29.4322 34.8739 29.1946 35.0494C28.8637 35.2928 28.5029 35.4928 28.1212 35.6447C27.841 35.7514 27.5993 35.9399 27.4276 36.1858C27.2558 36.4316 27.162 36.7234 27.1581 37.0232V37.2598H25.334V37.0232C25.3303 36.7233 25.2364 36.4315 25.0647 36.1857C24.8929 35.9398 24.6512 35.7513 24.3709 35.6447C23.9893 35.4925 23.6286 35.2925 23.2975 35.0494C23.0606 34.8731 22.7782 34.7681 22.4836 34.7468C22.1891 34.7255 21.8945 34.7887 21.6347 34.929L21.363 35.0795L20.4785 33.6157L20.6867 33.4995C20.9466 33.3579 21.1576 33.1409 21.2919 32.8771C21.4262 32.6132 21.4775 32.315 21.4391 32.0214C21.3795 31.6131 21.3795 31.1983 21.4391 30.79C21.4766 30.4971 21.4249 30.1998 21.2906 29.9368C21.1564 29.6738 20.9459 29.4575 20.6867 29.3161L20.476 29.1991L21.3596 27.7353L21.6305 27.8849C21.8906 28.0251 22.1853 28.0884 22.4801 28.0672C22.7749 28.046 23.0575 27.9413 23.295 27.7654C23.6264 27.5226 23.987 27.3227 24.3684 27.1701C24.6485 27.0633 24.8901 26.8748 25.0617 26.6289C25.2333 26.3831 25.327 26.0914 25.3306 25.7916V25.5558H27.1573V25.7916C27.1617 26.0913 27.2562 26.3828 27.4286 26.6281C27.601 26.8734 27.8432 27.0611 28.1237 27.1668C28.5056 27.3199 28.8665 27.5208 29.198 27.7645C29.4357 27.9394 29.7182 28.0434 30.0126 28.0644C30.307 28.0854 30.6014 28.0226 30.8616 27.8832L31.1325 27.7328L32.0153 29.1991L31.808 29.3145C31.5472 29.4551 31.3352 29.6715 31.1998 29.9351C31.0645 30.1986 31.0121 30.497 31.0497 30.7908C31.0799 30.9951 31.0952 31.2013 31.0957 31.4078Z"/>
</mask>
<path d="M33.0051 32.2522L32.7284 32.0975C32.7819 31.639 32.7819 31.1758 32.7284 30.7173L33.0026 30.5643C33.1778 30.4681 33.3318 30.3377 33.4555 30.1807C33.5791 30.0237 33.6699 29.8434 33.7224 29.6505C33.7736 29.4616 33.7857 29.2642 33.758 29.0704C33.7303 28.8767 33.6632 28.6906 33.561 28.5236L32.4843 26.7396C32.2774 26.4069 31.9511 26.166 31.5722 26.0664C31.1934 25.9667 30.7907 26.0159 30.4469 26.2037L30.1326 26.3776C29.7276 26.0883 29.2916 25.8452 28.8326 25.6528V25.3619C28.828 24.9667 28.6671 24.5894 28.3852 24.3124C28.1032 24.0354 27.7231 23.8814 27.3278 23.8838H25.1701C24.7749 23.8814 24.3948 24.0354 24.1128 24.3124C23.8308 24.5894 23.67 24.9667 23.6653 25.3619V25.6528C23.2067 25.8448 22.7712 26.088 22.367 26.3776L22.0518 26.2037C21.7082 26.0161 21.3057 25.9671 20.927 26.0667C20.5484 26.1664 20.2222 26.4071 20.0153 26.7396L18.9369 28.5236C18.8351 28.6909 18.7683 28.8771 18.7407 29.071C18.7131 29.2649 18.7253 29.4623 18.7764 29.6514C18.829 29.8436 18.9196 30.0233 19.0428 30.18C19.166 30.3366 19.3193 30.467 19.4937 30.5635L19.7704 30.7173C19.7436 30.9465 19.7302 31.1771 19.7303 31.4078C19.7306 31.6383 19.7439 31.8686 19.7704 32.0975L19.4945 32.2513C19.3199 32.3476 19.1664 32.4779 19.043 32.6346C18.9197 32.7913 18.829 32.9711 18.7764 33.1634C18.7252 33.3525 18.7131 33.55 18.7408 33.7439C18.7686 33.9378 18.8356 34.124 18.9377 34.2912L20.0145 36.0752C20.2222 36.4072 20.5487 36.6474 20.9274 36.747C21.3061 36.8466 21.7086 36.798 22.0527 36.6111L22.367 36.4372C22.771 36.727 23.2066 36.9702 23.6653 37.162V37.4496C23.6697 37.8449 23.8305 38.2225 24.1125 38.4996C24.3945 38.7767 24.7748 38.9309 25.1701 38.9285H27.3245C27.7199 38.9309 28.1001 38.7767 28.3821 38.4996C28.6641 38.2225 28.8249 37.8449 28.8293 37.4496V37.1587C29.2885 36.9667 29.7246 36.7235 30.1293 36.4338L30.4436 36.6069C30.7872 36.7952 31.1899 36.8448 31.5689 36.7452C31.9478 36.6457 32.2742 36.4047 32.4809 36.0719L33.5569 34.2895C33.6593 34.1223 33.7266 33.936 33.7545 33.7419C33.7823 33.5479 33.7703 33.3502 33.7191 33.1609C33.6668 32.9694 33.5767 32.7903 33.4541 32.6343C33.3314 32.4782 33.1788 32.3483 33.0051 32.2522ZM31.0957 31.4078C31.0955 31.6143 31.0804 31.8205 31.0505 32.0248C31.0127 32.3176 31.0643 32.6149 31.1986 32.8778C31.3329 33.1407 31.5436 33.3569 31.8029 33.4978L32.0144 33.6157L31.13 35.0795L30.8591 34.929C30.5987 34.7895 30.3041 34.7268 30.0094 34.7481C29.7148 34.7694 29.4322 34.8739 29.1946 35.0494C28.8637 35.2928 28.5029 35.4928 28.1212 35.6447C27.841 35.7514 27.5993 35.9399 27.4276 36.1858C27.2558 36.4316 27.162 36.7234 27.1581 37.0232V37.2598H25.334V37.0232C25.3303 36.7233 25.2364 36.4315 25.0647 36.1857C24.8929 35.9398 24.6512 35.7513 24.3709 35.6447C23.9893 35.4925 23.6286 35.2925 23.2975 35.0494C23.0606 34.8731 22.7782 34.7681 22.4836 34.7468C22.1891 34.7255 21.8945 34.7887 21.6347 34.929L21.363 35.0795L20.4785 33.6157L20.6867 33.4995C20.9466 33.3579 21.1576 33.1409 21.2919 32.8771C21.4262 32.6132 21.4775 32.315 21.4391 32.0214C21.3795 31.6131 21.3795 31.1983 21.4391 30.79C21.4766 30.4971 21.4249 30.1998 21.2906 29.9368C21.1564 29.6738 20.9459 29.4575 20.6867 29.3161L20.476 29.1991L21.3596 27.7353L21.6305 27.8849C21.8906 28.0251 22.1853 28.0884 22.4801 28.0672C22.7749 28.046 23.0575 27.9413 23.295 27.7654C23.6264 27.5226 23.987 27.3227 24.3684 27.1701C24.6485 27.0633 24.8901 26.8748 25.0617 26.6289C25.2333 26.3831 25.327 26.0914 25.3306 25.7916V25.5558H27.1573V25.7916C27.1617 26.0913 27.2562 26.3828 27.4286 26.6281C27.601 26.8734 27.8432 27.0611 28.1237 27.1668C28.5056 27.3199 28.8665 27.5208 29.198 27.7645C29.4357 27.9394 29.7182 28.0434 30.0126 28.0644C30.307 28.0854 30.6014 28.0226 30.8616 27.8832L31.1325 27.7328L32.0153 29.1991L31.808 29.3145C31.5472 29.4551 31.3352 29.6715 31.1998 29.9351C31.0645 30.1986 31.0121 30.497 31.0497 30.7908C31.0799 30.9951 31.0952 31.2013 31.0957 31.4078Z" fill="#9783B5"/>
<path d="M33.0051 32.2522L32.7284 32.0975C32.7819 31.639 32.7819 31.1758 32.7284 30.7173L33.0026 30.5643C33.1778 30.4681 33.3318 30.3377 33.4555 30.1807C33.5791 30.0237 33.6699 29.8434 33.7224 29.6505C33.7736 29.4616 33.7857 29.2642 33.758 29.0704C33.7303 28.8767 33.6632 28.6906 33.561 28.5236L32.4843 26.7396C32.2774 26.4069 31.9511 26.166 31.5722 26.0664C31.1934 25.9667 30.7907 26.0159 30.4469 26.2037L30.1326 26.3776C29.7276 26.0883 29.2916 25.8452 28.8326 25.6528V25.3619C28.828 24.9667 28.6671 24.5894 28.3852 24.3124C28.1032 24.0354 27.7231 23.8814 27.3278 23.8838H25.1701C24.7749 23.8814 24.3948 24.0354 24.1128 24.3124C23.8308 24.5894 23.67 24.9667 23.6653 25.3619V25.6528C23.2067 25.8448 22.7712 26.088 22.367 26.3776L22.0518 26.2037C21.7082 26.0161 21.3057 25.9671 20.927 26.0667C20.5484 26.1664 20.2222 26.4071 20.0153 26.7396L18.9369 28.5236C18.8351 28.6909 18.7683 28.8771 18.7407 29.071C18.7131 29.2649 18.7253 29.4623 18.7764 29.6514C18.829 29.8436 18.9196 30.0233 19.0428 30.18C19.166 30.3366 19.3193 30.467 19.4937 30.5635L19.7704 30.7173C19.7436 30.9465 19.7302 31.1771 19.7303 31.4078C19.7306 31.6383 19.7439 31.8686 19.7704 32.0975L19.4945 32.2513C19.3199 32.3476 19.1664 32.4779 19.043 32.6346C18.9197 32.7913 18.829 32.9711 18.7764 33.1634C18.7252 33.3525 18.7131 33.55 18.7408 33.7439C18.7686 33.9378 18.8356 34.124 18.9377 34.2912L20.0145 36.0752C20.2222 36.4072 20.5487 36.6474 20.9274 36.747C21.3061 36.8466 21.7086 36.798 22.0527 36.6111L22.367 36.4372C22.771 36.727 23.2066 36.9702 23.6653 37.162V37.4496C23.6697 37.8449 23.8305 38.2225 24.1125 38.4996C24.3945 38.7767 24.7748 38.9309 25.1701 38.9285H27.3245C27.7199 38.9309 28.1001 38.7767 28.3821 38.4996C28.6641 38.2225 28.8249 37.8449 28.8293 37.4496V37.1587C29.2885 36.9667 29.7246 36.7235 30.1293 36.4338L30.4436 36.6069C30.7872 36.7952 31.1899 36.8448 31.5689 36.7452C31.9478 36.6457 32.2742 36.4047 32.4809 36.0719L33.5569 34.2895C33.6593 34.1223 33.7266 33.936 33.7545 33.7419C33.7823 33.5479 33.7703 33.3502 33.7191 33.1609C33.6668 32.9694 33.5767 32.7903 33.4541 32.6343C33.3314 32.4782 33.1788 32.3483 33.0051 32.2522ZM31.0957 31.4078C31.0955 31.6143 31.0804 31.8205 31.0505 32.0248C31.0127 32.3176 31.0643 32.6149 31.1986 32.8778C31.3329 33.1407 31.5436 33.3569 31.8029 33.4978L32.0144 33.6157L31.13 35.0795L30.8591 34.929C30.5987 34.7895 30.3041 34.7268 30.0094 34.7481C29.7148 34.7694 29.4322 34.8739 29.1946 35.0494C28.8637 35.2928 28.5029 35.4928 28.1212 35.6447C27.841 35.7514 27.5993 35.9399 27.4276 36.1858C27.2558 36.4316 27.162 36.7234 27.1581 37.0232V37.2598H25.334V37.0232C25.3303 36.7233 25.2364 36.4315 25.0647 36.1857C24.8929 35.9398 24.6512 35.7513 24.3709 35.6447C23.9893 35.4925 23.6286 35.2925 23.2975 35.0494C23.0606 34.8731 22.7782 34.7681 22.4836 34.7468C22.1891 34.7255 21.8945 34.7887 21.6347 34.929L21.363 35.0795L20.4785 33.6157L20.6867 33.4995C20.9466 33.3579 21.1576 33.1409 21.2919 32.8771C21.4262 32.6132 21.4775 32.315 21.4391 32.0214C21.3795 31.6131 21.3795 31.1983 21.4391 30.79C21.4766 30.4971 21.4249 30.1998 21.2906 29.9368C21.1564 29.6738 20.9459 29.4575 20.6867 29.3161L20.476 29.1991L21.3596 27.7353L21.6305 27.8849C21.8906 28.0251 22.1853 28.0884 22.4801 28.0672C22.7749 28.046 23.0575 27.9413 23.295 27.7654C23.6264 27.5226 23.987 27.3227 24.3684 27.1701C24.6485 27.0633 24.8901 26.8748 25.0617 26.6289C25.2333 26.3831 25.327 26.0914 25.3306 25.7916V25.5558H27.1573V25.7916C27.1617 26.0913 27.2562 26.3828 27.4286 26.6281C27.601 26.8734 27.8432 27.0611 28.1237 27.1668C28.5056 27.3199 28.8665 27.5208 29.198 27.7645C29.4357 27.9394 29.7182 28.0434 30.0126 28.0644C30.307 28.0854 30.6014 28.0226 30.8616 27.8832L31.1325 27.7328L32.0153 29.1991L31.808 29.3145C31.5472 29.4551 31.3352 29.6715 31.1998 29.9351C31.0645 30.1986 31.0121 30.497 31.0497 30.7908C31.0799 30.9951 31.0952 31.2013 31.0957 31.4078Z" stroke="#9783B5" stroke-width="0.4" mask="url(#path-1-outside-1_113_3906)"/>
<path d="M38.7323 40.2029L38.7323 40.2029C38.5568 40.0274 38.3187 39.9288 38.0705 39.9288C37.8224 39.9288 37.5843 40.0274 37.4088 40.2029L37.4088 40.2029L36.8884 40.7232L34.6309 38.4657C36.4422 36.319 37.3638 33.5591 37.2039 30.7526C37.0422 27.9151 35.7878 25.2506 33.7039 23.3182C31.6199 21.3858 28.8685 20.3356 26.027 20.3882C23.1854 20.4408 20.4747 21.592 18.4637 23.6001C16.4526 25.6083 15.2976 28.3174 15.241 31.1589C15.1845 34.0003 16.2307 36.7533 18.1602 38.8399C20.0897 40.9266 22.7524 42.1848 25.5896 42.3504C28.396 42.5143 31.1572 41.5966 33.3065 39.7883L35.5649 42.0468L35.0446 42.5671L35.0446 42.5671C34.8691 42.7426 34.7705 42.9807 34.7705 43.2289C34.7705 43.4771 34.8691 43.7151 35.0446 43.8906L35.0446 43.8906L42.138 50.9841L42.138 50.9841C42.3136 51.1596 42.5516 51.2581 42.7998 51.2581C43.048 51.2581 43.286 51.1596 43.4615 50.9841L43.4616 50.9841L45.8258 48.6199L45.8258 48.6199C46.0012 48.4443 46.0998 48.2063 46.0998 47.9581C46.0998 47.7099 46.0012 47.4719 45.8258 47.2964L45.8258 47.2964L38.7323 40.2029ZM32.6797 37.8377L32.6795 37.8379C31.1916 39.3261 29.2337 40.2523 27.1395 40.4588C25.0452 40.6653 22.9441 40.1392 21.1943 38.9702C19.4444 37.8012 18.154 36.0617 17.5429 34.0479C16.9319 32.0342 17.0379 29.8708 17.8431 27.9265C18.6483 25.9822 20.1027 24.3772 21.9586 23.3851C23.8144 22.3929 25.9569 22.075 28.0209 22.4854C30.0849 22.8958 31.9428 24.0092 33.2779 25.6358C34.6131 27.2625 35.3429 29.3017 35.343 31.4062V31.4065C35.3467 32.6013 35.1131 33.785 34.656 34.889C34.1988 35.993 33.5271 36.9952 32.6797 37.8377ZM43.8405 47.9581L42.7998 48.9996L37.0298 43.2297L38.0706 42.1882L43.8405 47.9581Z" fill="#9783B5" stroke="#9783B5" stroke-width="0.2"/>
<path d="M26.2468 27.9635C25.5657 27.9635 24.8998 28.1655 24.3334 28.5439C23.7671 28.9223 23.3257 29.4602 23.065 30.0895C22.8043 30.7188 22.7361 31.4113 22.869 32.0794C23.0019 32.7474 23.3299 33.3611 23.8116 33.8427C24.2932 34.3244 24.9069 34.6524 25.5749 34.7853C26.243 34.9182 26.9355 34.85 27.5648 34.5893C28.1941 34.3286 28.732 33.8872 29.1104 33.3209C29.4888 32.7545 29.6908 32.0886 29.6908 31.4075C29.6908 30.4941 29.328 29.6181 28.6821 28.9722C28.0362 28.3263 27.1602 27.9635 26.2468 27.9635ZM26.2468 32.9795C25.9359 32.9795 25.632 32.8873 25.3735 32.7145C25.115 32.5418 24.9135 32.2963 24.7945 32.0091C24.6755 31.7218 24.6444 31.4057 24.705 31.1008C24.7657 30.7959 24.9154 30.5157 25.1353 30.2959C25.3551 30.0761 25.6352 29.9263 25.9401 29.8657C26.2451 29.805 26.5612 29.8362 26.8484 29.9551C27.1357 30.0741 27.3812 30.2756 27.5539 30.5341C27.7266 30.7926 27.8188 31.0966 27.8188 31.4075C27.8188 31.8244 27.6532 32.2242 27.3584 32.519C27.0636 32.8139 26.6638 32.9795 26.2468 32.9795Z" fill="#9783B5" stroke="#9783B5" stroke-width="0.2"/>
<path d="M31.1957 3.408V1.836C31.1957 1.58776 31.0971 1.34968 30.9216 1.17415C30.7461 0.998614 30.508 0.9 30.2597 0.9H11.0317C10.7835 0.9 10.5454 0.998614 10.3699 1.17415C10.1944 1.34968 10.0957 1.58776 10.0957 1.836V3.408H1.83576C1.58751 3.408 1.34944 3.50661 1.1739 3.68215C0.99837 3.85768 0.899756 4.09576 0.899756 4.344V46.98C0.899756 47.2282 0.99837 47.4663 1.1739 47.6418C1.34944 47.8174 1.58751 47.916 1.83576 47.916H35.2757H35.3757V47.816V46.144V46.044H35.2757H2.77175V5.28H10.0957V6.852C10.0957 7.10024 10.1944 7.33831 10.3699 7.51385C10.5454 7.68938 10.7835 7.788 11.0317 7.788H30.2597C30.508 7.788 30.7461 7.68938 30.9216 7.51385C31.0971 7.33831 31.1957 7.10024 31.1957 6.852V5.28H39.3557V37.784V37.884H39.4557H41.1277H41.2277V37.784V4.344C41.2277 4.09576 41.1291 3.85768 40.9536 3.68215C40.778 3.50661 40.54 3.408 40.2917 3.408H31.1957ZM11.9677 2.772H29.3237V5.916H11.9677V2.772Z" fill="#9783B5" stroke="#9783B5" stroke-width="0.2"/>
<path d="M35.3758 11.0322V10.9322H35.2758H6.85181H6.75181V11.0322V12.7042V12.8042H6.85181H35.2758H35.3758V12.7042V11.0322Z" fill="#9783B5" stroke="#9783B5" stroke-width="0.2"/>
<path d="M25.3438 16.0479V15.9479H25.2438H6.85181H6.75181V16.0479V17.7199V17.8199H6.85181H25.2438H25.3438V17.7199V16.0479Z" fill="#9783B5" stroke="#9783B5" stroke-width="0.2"/>
<path d="M12.7038 25.9801H7.68781C7.43956 25.9801 7.20149 26.0787 7.02595 26.2542C6.85042 26.4298 6.75181 26.6678 6.75181 26.9161V31.9321C6.75181 32.1803 6.85042 32.4184 7.02595 32.5939C7.20149 32.7695 7.43956 32.8681 7.68781 32.8681H12.7038C12.952 32.8681 13.1901 32.7695 13.3657 32.5939C13.5412 32.4184 13.6398 32.1803 13.6398 31.9321V26.9161C13.6398 26.6678 13.5412 26.4298 13.3657 26.2542C13.1901 26.0787 12.952 25.9801 12.7038 25.9801ZM11.7678 30.9961H8.62381V27.8521H11.7678V30.9961Z" fill="#9783B5" stroke="#9783B5" stroke-width="0.2"/>
<path d="M13.6398 36.1123V36.0123H13.5398H6.85181H6.75181V36.1123V37.7843V37.8843H6.85181H13.5398H13.6398V37.7843V36.1123Z" fill="#9783B5" stroke="#9783B5" stroke-width="0.2"/>
<path d="M16.9838 41.1279V41.0279H16.8838H6.85181H6.75181V41.1279V42.7999V42.8999H6.85181H16.8838H16.9838V42.7999V41.1279Z" fill="#9783B5" stroke="#9783B5" stroke-width="0.2"/>
</svg>
