<svg width="50" height="50" viewBox="0 0 50 50" fill="none" xmlns="http://www.w3.org/2000/svg">
<path d="M42.5545 23.312C42.4499 23.312 42.3482 23.3335 42.2582 23.3843L39.407 25.0322C39.2228 25.1386 39.1108 25.3397 39.1108 25.5534V28.8426C39.1108 29.0563 39.2228 29.2569 39.407 29.3633L40.1517 29.7925C40.5133 29.9712 40.6467 29.9684 40.8114 29.9684C41.347 29.9684 41.6526 29.6432 41.6526 29.0778V25.8324C41.6526 25.7866 41.6129 25.754 41.5681 25.754H41.2108C41.165 25.754 41.1263 25.7876 41.1263 25.8324V29.0792C41.1263 29.3297 40.8655 29.5821 40.4423 29.3703L39.6683 28.9159C39.6408 28.9009 39.6198 28.8739 39.6198 28.8431V25.5538C39.6198 25.5226 39.6408 25.4908 39.6683 25.475L42.5134 23.8332C42.54 23.8182 42.5717 23.8182 42.5978 23.8332L45.4429 25.475C45.47 25.4913 45.491 25.5216 45.491 25.5538V28.8431C45.491 28.8743 45.4756 28.9065 45.449 28.9219L42.5978 30.5637C42.5726 30.5782 42.5391 30.5782 42.5134 30.5637L41.7809 30.1275C41.759 30.1149 41.7291 30.1158 41.7081 30.1275C41.5061 30.2423 41.4683 30.2553 41.2784 30.3211C41.2318 30.3375 41.1608 30.3627 41.3027 30.4424L42.2591 31.0065C42.3501 31.0592 42.4518 31.0854 42.5559 31.0854C42.6613 31.0854 42.7611 31.0602 42.8526 31.0065L45.7033 29.3647C45.8876 29.2574 46 29.0577 46 28.844V25.5548C46 25.3411 45.8876 25.1405 45.7033 25.0336L42.8526 23.3862C42.763 23.3349 42.6604 23.3134 42.5559 23.3134L42.5545 23.312ZM43.3173 25.6625C42.5055 25.6625 42.0221 26.0083 42.0221 26.5831C42.0221 27.2059 42.5017 27.3781 43.2809 27.4551C44.2131 27.5465 44.2859 27.6837 44.2859 27.867C44.2859 28.1857 44.032 28.3215 43.4325 28.3215C42.679 28.3215 42.5134 28.1334 42.4579 27.7574C42.4513 27.7173 42.4205 27.6846 42.379 27.6846H42.009C41.9857 27.6851 41.9661 27.6939 41.9498 27.7103C41.9335 27.7266 41.9251 27.7462 41.9246 27.7695C41.9246 28.2496 42.1854 28.8174 43.4316 28.8174C44.3334 28.8174 44.8541 28.4638 44.8541 27.8423C44.8541 27.2274 44.4338 27.0613 43.5585 26.9456C42.6753 26.8275 42.5904 26.7711 42.5904 26.5639C42.5904 26.3927 42.6618 26.1641 43.3163 26.1641C43.9014 26.1641 44.1179 26.2905 44.2065 26.6848C44.214 26.7221 44.2467 26.7524 44.2849 26.7524H44.6554C44.6778 26.7524 44.6997 26.7384 44.7156 26.7221C44.7314 26.7048 44.7421 26.6848 44.7398 26.6614C44.6829 25.9817 44.2299 25.6621 43.3177 25.6621L43.3173 25.6625Z" fill="#83CD29"/>
<path d="M25.7947 19.0005C25.762 19.0005 25.7317 19.0084 25.7037 19.0248C25.6757 19.0411 25.6538 19.063 25.6375 19.0915C25.6211 19.1195 25.6132 19.1498 25.6132 19.182V23.8163C25.6132 23.8616 25.5917 23.9022 25.5525 23.925C25.5101 23.9498 25.4676 23.9498 25.4252 23.925L24.6689 23.4893C24.6124 23.4566 24.5522 23.4403 24.4869 23.4403C24.4221 23.4403 24.3619 23.4566 24.3054 23.4893L21.2854 25.2337C21.1725 25.2986 21.1039 25.4241 21.1039 25.5547V29.0437C21.1039 29.1085 21.1198 29.1692 21.1524 29.2256C21.1846 29.2821 21.2289 29.3264 21.2854 29.3586L24.3059 31.1031C24.3619 31.1357 24.4225 31.152 24.4874 31.152C24.5522 31.152 24.6129 31.1357 24.6689 31.1031L27.6894 29.3586C27.7454 29.3264 27.7897 29.2821 27.8223 29.2256C27.8545 29.1692 27.8709 29.1085 27.8709 29.0437V20.3451C27.8709 20.2126 27.7986 20.0885 27.6833 20.0241L25.8857 19.0182C25.8572 19.0024 25.8259 18.9996 25.7947 19V19.0005ZM6.36529 23.3558C6.30744 23.3582 6.25332 23.368 6.202 23.3983L3.18149 25.1428C3.12504 25.175 3.08071 25.2193 3.04852 25.2757C3.01586 25.3317 3 25.3924 3 25.4577L3.00607 30.1401C3.00607 30.2054 3.03966 30.2661 3.09704 30.2978C3.15303 30.3314 3.22255 30.3314 3.27854 30.2978L5.07012 29.2676C5.1835 29.2004 5.25768 29.0829 5.25768 28.9532V26.7659C5.25768 26.6353 5.32626 26.5158 5.43964 26.451L6.202 26.0087C6.25845 25.976 6.31864 25.9602 6.38349 25.9602C6.44881 25.9602 6.50899 25.976 6.56545 26.0087L7.3278 26.451C7.44071 26.5158 7.50929 26.6353 7.50929 26.7655V28.9522C7.50929 29.0824 7.58488 29.2009 7.69685 29.2671L9.48844 30.2973C9.54489 30.3309 9.61394 30.3309 9.66993 30.2973C9.72545 30.2651 9.76091 30.2049 9.76091 30.1396L9.76697 25.4572C9.76697 25.3924 9.75111 25.3317 9.71845 25.2753C9.68626 25.2188 9.64147 25.1745 9.58548 25.1423L6.56498 23.3983C6.51412 23.3684 6.45954 23.3582 6.40168 23.3558H6.36529ZM33.5055 23.3983C33.4407 23.3978 33.38 23.4142 33.3235 23.4468L30.3035 25.1913C30.1906 25.2566 30.1216 25.3756 30.1216 25.5062V28.9951C30.1216 29.1262 30.1957 29.2452 30.3091 29.3101L33.3054 31.0191C33.4159 31.0825 33.5512 31.0872 33.6627 31.0251L35.4781 30.0136C35.536 29.9815 35.5747 29.9217 35.5752 29.8559C35.5752 29.7902 35.5411 29.7314 35.4842 29.6987L32.4455 27.9538C32.3886 27.9216 32.3489 27.8558 32.3489 27.7905V26.6992C32.3489 26.6339 32.3895 26.5742 32.4455 26.542L33.3898 25.9966C33.4463 25.9639 33.5148 25.9639 33.5718 25.9966L34.5179 26.542C34.5459 26.5578 34.5683 26.5802 34.5847 26.6082C34.601 26.6362 34.6089 26.6665 34.6089 26.6992V27.5595C34.6085 27.5917 34.6169 27.6221 34.6332 27.6505C34.649 27.6785 34.6714 27.7009 34.6994 27.7168C34.7564 27.7494 34.8245 27.7499 34.8814 27.7168L36.6907 26.6628C36.8031 26.5975 36.8727 26.4781 36.8727 26.3479V25.5062C36.8727 25.4409 36.8563 25.3802 36.8237 25.3243C36.7915 25.2678 36.7472 25.2235 36.6907 25.1908L33.6889 23.4464C33.6324 23.4137 33.5718 23.3978 33.5069 23.3978L33.5055 23.3983ZM24.4748 26.0031C24.4916 26.0031 24.5079 26.0068 24.5233 26.0152L25.5581 26.6148C25.5861 26.6311 25.6067 26.6609 25.6067 26.6936V27.8927C25.6067 27.9253 25.5861 27.9552 25.5581 27.9715L24.5233 28.571C24.4948 28.5874 24.4603 28.5874 24.4323 28.571L23.397 27.9715C23.369 27.9552 23.349 27.9253 23.349 27.8927V26.6936C23.349 26.6614 23.369 26.6316 23.397 26.6152L24.4323 26.0152C24.4463 26.0073 24.4589 26.0036 24.4748 26.0036V26.0031Z" fill="#404137"/>
<path d="M15.4379 23.3789C15.3731 23.3789 15.3124 23.3952 15.2564 23.4274L12.2359 25.1663C12.123 25.2311 12.0544 25.3567 12.0544 25.4873V28.9762C12.0544 29.0411 12.0703 29.1017 12.103 29.1582C12.1352 29.2146 12.1795 29.259 12.2359 29.2911L15.2564 31.0356C15.3124 31.0683 15.3731 31.0846 15.4379 31.0846C15.5028 31.0846 15.5634 31.0683 15.6194 31.0356L18.6399 29.2911C18.6959 29.259 18.7402 29.2142 18.7729 29.1582C18.8051 29.1017 18.8214 29.0411 18.8214 28.9762V25.4873C18.8214 25.3567 18.7528 25.2316 18.6395 25.1663L15.6194 23.4279C15.563 23.3952 15.5028 23.3789 15.4375 23.3794L15.4379 23.3789ZM33.4994 26.4927C33.4872 26.4927 33.4742 26.4927 33.463 26.4988L32.8821 26.838C32.8583 26.851 32.8462 26.8711 32.8457 26.8986V27.5649C32.8457 27.5901 32.8602 27.6129 32.8821 27.6255L33.463 27.9587C33.4854 27.9722 33.5073 27.9722 33.5297 27.9587L34.1106 27.6255C34.132 27.6129 34.147 27.5901 34.147 27.5649V26.8986C34.147 26.8734 34.132 26.8506 34.1106 26.838L33.5297 26.4988C33.519 26.4923 33.5115 26.4927 33.4994 26.4927Z" fill="#83CD29"/>
</svg>
