<svg width="675" height="675" viewBox="0 0 675 675" fill="none" xmlns="http://www.w3.org/2000/svg">
<path d="M116.451 483.571C81.8776 434.377 2.79457 290.426 162.203 247.415C321.611 204.404 270.581 81.5408 387.032 83.3498C503.483 85.1588 617.774 182.696 603.734 275.252C589.694 367.808 461.916 360.451 426.195 456.071C390.474 551.692 177.282 570.106 116.451 483.571Z" fill="#92E3A9"/>
<path opacity="0.7" d="M116.451 484.043C81.8776 434.849 2.79457 290.899 162.203 247.888C321.611 204.877 270.581 82.013 387.032 83.8085C503.483 85.604 617.774 183.169 603.734 275.725C589.694 368.281 461.984 360.923 426.195 456.53C390.407 552.137 177.282 570.578 116.451 484.043Z" fill="white"/>
<path d="M513.702 262.117C519.395 260.778 524.563 257.78 528.552 253.504L538.07 256.73L542.808 248.509L535.275 241.88C536.967 236.272 536.967 230.289 535.275 224.681L542.808 218.053L538.07 209.818L528.552 213.044C524.566 208.767 519.396 205.773 513.702 204.445L511.731 194.59H506.979" stroke="#263238" stroke-miterlimit="10"/>
<path d="M502.2 194.59L500.229 204.445C494.536 205.776 489.367 208.77 485.379 213.044L475.929 209.818L471.19 218.053L478.723 224.681C477.031 230.289 477.031 236.272 478.723 241.88L471.15 248.509L475.888 256.73L485.338 253.504C489.33 257.778 494.497 260.775 500.188 262.117L502.159 271.958H511.609L513.58 262.117" stroke="#263238" stroke-miterlimit="10"/>
<path d="M506.371 249.116C489.442 247.928 486.27 223.277 503.185 218.943" stroke="#263238" stroke-miterlimit="10"/>
<path d="M517.05 222.346C525.474 230.054 522.814 245.12 511.65 248.522" stroke="#263238" stroke-miterlimit="10"/>
<path d="M508.95 218.605C510.423 218.78 511.861 219.176 513.216 219.78" stroke="#263238" stroke-miterlimit="10"/>
<path d="M564.138 269.609L566.136 267.219C569.857 268.239 573.797 268.141 577.462 266.936L581.944 271.782" stroke="#263238" stroke-miterlimit="10"/>
<path d="M556.753 232.201L557.631 234.564C554.888 237.274 553.009 240.736 552.231 244.513L545.792 245.985L545.94 252.235L552.461 253.369C552.947 255.224 553.702 256.998 554.702 258.634C555.701 260.271 556.939 261.749 558.373 263.022L556.416 269.34L561.911 272.323" stroke="#263238" stroke-miterlimit="10"/>
<path d="M581.944 271.784L587.25 268.517L584.982 262.307C587.721 259.593 589.599 256.132 590.382 252.357L596.821 250.899L596.659 244.649L590.152 243.515C589.179 239.783 587.121 236.424 584.239 233.862L586.197 227.544L580.702 224.561L576.45 229.637C572.735 228.603 568.796 228.702 565.137 229.92L560.641 225.074L555.309 228.341" stroke="#263238" stroke-miterlimit="10"/>
<path d="M581.148 246.132C582.997 253.881 575.626 261.347 567.837 258.201C560.412 255.191 559.332 244.296 566.23 240.111" stroke="#263238" stroke-miterlimit="10"/>
<path d="M574.776 239.166C576.329 239.717 577.72 240.645 578.826 241.866" stroke="#263238" stroke-miterlimit="10"/>
<path d="M146.907 399.601L157.059 409.74C156.628 411.552 156.668 413.444 157.176 415.236C157.683 417.027 158.641 418.66 159.958 419.976C161.275 421.293 162.907 422.251 164.699 422.759C166.491 423.266 168.383 423.306 170.194 422.875L163.822 416.517L165.55 410.064L171.99 408.336L178.362 414.708C178.793 412.896 178.753 411.004 178.245 409.212C177.738 407.42 176.78 405.788 175.463 404.471C174.146 403.155 172.514 402.197 170.722 401.689C168.93 401.182 167.038 401.142 165.226 401.572L155.884 392.23" stroke="#263238" stroke-miterlimit="10"/>
<path d="M141.048 377.433L131.746 368.132C132.159 366.324 132.105 364.44 131.589 362.658C131.074 360.876 130.113 359.255 128.798 357.947C127.483 356.638 125.857 355.686 124.072 355.179C122.288 354.673 120.404 354.628 118.597 355.051L124.969 361.423L123.241 367.862L116.802 369.59L110.43 363.151C110.003 364.964 110.047 366.856 110.556 368.647C111.066 370.439 112.025 372.07 113.342 373.387C114.659 374.705 116.291 375.663 118.082 376.173C119.874 376.683 121.766 376.726 123.579 376.3L132.88 385.601" stroke="#263238" stroke-miterlimit="10"/>
<path d="M151.497 387.221L164.47 374.247C165.111 373.61 165.844 373.073 166.644 372.654L169.249 371.304L178.699 360.504L172.8 354.699L162 364.149L160.65 366.755C160.239 367.56 159.701 368.294 159.057 368.928L148.77 379.229" stroke="#263238" stroke-miterlimit="10"/>
<path d="M116.964 421.201C117.845 421.76 118.895 421.989 119.929 421.845C120.963 421.702 121.912 421.196 122.607 420.418L145.084 397.94C145.621 397.457 146.027 396.846 146.263 396.164C146.499 395.481 146.558 394.75 146.434 394.039L150.336 390.137L150.579 390.367C150.712 390.502 150.871 390.609 151.046 390.682C151.221 390.755 151.408 390.793 151.598 390.793C151.788 390.793 151.976 390.755 152.15 390.682C152.325 390.609 152.484 390.502 152.617 390.367C152.884 390.094 153.033 389.728 153.033 389.347C153.033 388.966 152.884 388.601 152.617 388.328L144.922 380.633C144.65 380.363 144.282 380.212 143.898 380.213C143.515 380.214 143.147 380.368 142.877 380.64C142.607 380.912 142.456 381.28 142.457 381.664C142.458 382.047 142.612 382.415 142.884 382.685L143.127 382.915L139.225 386.816C138.514 386.691 137.782 386.75 137.1 386.986C136.417 387.222 135.806 387.628 135.324 388.166L112.873 410.738C112.356 411.198 111.957 411.775 111.708 412.421C111.459 413.067 111.368 413.763 111.442 414.451" stroke="#263238" stroke-miterlimit="10"/>
<path d="M112.347 416.826C112.874 417.667 113.499 418.442 114.21 419.135C115.002 419.969 115.911 420.683 116.91 421.254" stroke="#263238" stroke-miterlimit="10"/>
<path d="M119.259 414.438L123.187 410.51" stroke="#263238" stroke-miterlimit="10"/>
<path d="M128.493 405.204L145.098 388.248" stroke="#263238" stroke-miterlimit="10"/>
<path d="M490.806 118.477H130.896V352.297H490.806V118.477Z" fill="white"/>
<path d="M490.806 118.477H130.896V352.297H168.952H229.284H490.806V118.477Z" fill="#BFBFBF"/>
<path d="M490.806 118.477H130.896V149.068H490.806V118.477Z" fill="white"/>
<path d="M490.806 118.477H130.896V149.068H490.806V118.477Z" fill="#757575"/>
<path d="M479.776 123.35H466.006C464.053 123.35 462.469 124.933 462.469 126.887V140.657C462.469 142.61 464.053 144.194 466.006 144.194H479.776C481.73 144.194 483.313 142.61 483.313 140.657V126.887C483.313 124.933 481.73 123.35 479.776 123.35Z" fill="white"/>
<path d="M454.208 123.35H440.492C438.523 123.35 436.927 124.945 436.927 126.914V140.63C436.927 142.598 438.523 144.194 440.492 144.194H454.208C456.176 144.194 457.771 142.598 457.771 140.63V126.914C457.771 124.945 456.176 123.35 454.208 123.35Z" fill="white"/>
<path d="M428.692 123.35H414.922C412.969 123.35 411.385 124.933 411.385 126.887V140.657C411.385 142.61 412.969 144.194 414.922 144.194H428.692C430.646 144.194 432.23 142.61 432.23 140.657V126.887C432.23 124.933 430.646 123.35 428.692 123.35Z" fill="white"/>
<path d="M470.259 162.568H151.443C147.551 162.568 144.396 165.723 144.396 169.615V331.75C144.396 335.642 147.551 338.797 151.443 338.797H470.259C474.151 338.797 477.306 335.642 477.306 331.75V169.615C477.306 165.723 474.151 162.568 470.259 162.568Z" fill="#263238" stroke="#263238" stroke-linecap="round" stroke-linejoin="round"/>
<path d="M468.423 138.24L477.36 129.303" stroke="#263238" stroke-linecap="round" stroke-linejoin="round"/>
<path d="M468.423 129.303L477.36 138.24" stroke="#263238" stroke-linecap="round" stroke-linejoin="round"/>
<path d="M453.303 131.855H441.383V139.726H453.303V131.855Z" stroke="#263238" stroke-linecap="round" stroke-linejoin="round"/>
<path d="M427.761 139.725H415.841" stroke="#263238" stroke-linecap="round" stroke-linejoin="round"/>
<path d="M456.381 282.367H432.716C432 282.367 431.313 282.082 430.806 281.576C430.3 281.07 430.016 280.383 430.016 279.667C430.016 278.951 430.3 278.264 430.806 277.758C431.313 277.251 432 276.967 432.716 276.967H456.381C457.097 276.967 457.784 277.251 458.29 277.758C458.797 278.264 459.081 278.951 459.081 279.667C459.081 280.383 458.797 281.07 458.29 281.576C457.784 282.082 457.097 282.367 456.381 282.367Z" fill="#757575"/>
<path d="M456.381 301.05H390.325C389.609 301.05 388.923 300.766 388.416 300.26C387.91 299.753 387.625 299.066 387.625 298.35C387.625 297.634 387.91 296.948 388.416 296.441C388.923 295.935 389.609 295.65 390.325 295.65H456.381C457.097 295.65 457.784 295.935 458.29 296.441C458.797 296.948 459.081 297.634 459.081 298.35C459.081 299.066 458.797 299.753 458.29 300.26C457.784 300.766 457.097 301.05 456.381 301.05Z" fill="#757575"/>
<path d="M456.381 319.72H310.851C310.135 319.72 309.448 319.436 308.942 318.93C308.435 318.423 308.151 317.736 308.151 317.02C308.151 316.304 308.435 315.617 308.942 315.111C309.448 314.605 310.135 314.32 310.851 314.32H456.381C457.097 314.32 457.784 314.605 458.29 315.111C458.796 315.617 459.081 316.304 459.081 317.02C459.081 317.736 458.796 318.423 458.29 318.93C457.784 319.436 457.097 319.72 456.381 319.72Z" fill="#757575"/>
<path d="M169.371 263.697H158.342C157.626 263.697 156.939 263.412 156.432 262.906C155.926 262.4 155.642 261.713 155.642 260.997C155.642 260.281 155.926 259.594 156.432 259.088C156.939 258.581 157.626 258.297 158.342 258.297H169.371C170.087 258.297 170.774 258.581 171.28 259.088C171.787 259.594 172.071 260.281 172.071 260.997C172.071 261.713 171.787 262.4 171.28 262.906C170.774 263.412 170.087 263.697 169.371 263.697Z" fill="#BFBFBF"/>
<path d="M169.371 282.367H158.342C157.626 282.367 156.939 282.082 156.432 281.576C155.926 281.07 155.642 280.383 155.642 279.667C155.642 278.951 155.926 278.264 156.432 277.758C156.939 277.251 157.626 276.967 158.342 276.967H169.371C170.087 276.967 170.774 277.251 171.28 277.758C171.787 278.264 172.071 278.951 172.071 279.667C172.071 280.383 171.787 281.07 171.28 281.576C170.774 282.082 170.087 282.367 169.371 282.367Z" fill="#BFBFBF"/>
<path d="M169.371 301.05H158.342C157.626 301.05 156.939 300.766 156.432 300.26C155.926 299.753 155.642 299.066 155.642 298.35C155.642 297.634 155.926 296.948 156.432 296.441C156.939 295.935 157.626 295.65 158.342 295.65H169.371C170.087 295.65 170.774 295.935 171.28 296.441C171.787 296.948 172.071 297.634 172.071 298.35C172.071 299.066 171.787 299.753 171.28 300.26C170.774 300.766 170.087 301.05 169.371 301.05Z" fill="#BFBFBF"/>
<path d="M169.371 319.72H158.342C157.626 319.72 156.939 319.436 156.432 318.93C155.926 318.423 155.642 317.736 155.642 317.02C155.642 316.304 155.926 315.617 156.432 315.111C156.939 314.605 157.626 314.32 158.342 314.32H169.371C170.087 314.32 170.774 314.605 171.28 315.111C171.787 315.617 172.071 316.304 172.071 317.02C172.071 317.736 171.787 318.423 171.28 318.93C170.774 319.436 170.087 319.72 169.371 319.72Z" fill="#BFBFBF"/>
<g opacity="0.7">
<path d="M169.371 263.697H158.342C157.626 263.697 156.939 263.412 156.432 262.906C155.926 262.4 155.642 261.713 155.642 260.997C155.642 260.281 155.926 259.594 156.432 259.088C156.939 258.581 157.626 258.297 158.342 258.297H169.371C170.087 258.297 170.774 258.581 171.28 259.088C171.787 259.594 172.071 260.281 172.071 260.997C172.071 261.713 171.787 262.4 171.28 262.906C170.774 263.412 170.087 263.697 169.371 263.697Z" fill="#BFBFBF"/>
</g>
<g opacity="0.7">
<path d="M169.371 282.367H158.342C157.626 282.367 156.939 282.082 156.432 281.576C155.926 281.07 155.642 280.383 155.642 279.667C155.642 278.951 155.926 278.264 156.432 277.758C156.939 277.251 157.626 276.967 158.342 276.967H169.371C170.087 276.967 170.774 277.251 171.28 277.758C171.787 278.264 172.071 278.951 172.071 279.667C172.071 280.383 171.787 281.07 171.28 281.576C170.774 282.082 170.087 282.367 169.371 282.367Z" fill="#BFBFBF"/>
</g>
<g opacity="0.7">
<path d="M169.371 301.05H158.342C157.626 301.05 156.939 300.766 156.432 300.26C155.926 299.753 155.642 299.066 155.642 298.35C155.642 297.634 155.926 296.948 156.432 296.441C156.939 295.935 157.626 295.65 158.342 295.65H169.371C170.087 295.65 170.774 295.935 171.28 296.441C171.787 296.948 172.071 297.634 172.071 298.35C172.071 299.066 171.787 299.753 171.28 300.26C170.774 300.766 170.087 301.05 169.371 301.05Z" fill="#BFBFBF"/>
</g>
<g opacity="0.7">
<path d="M169.371 319.72H158.342C157.626 319.72 156.939 319.436 156.432 318.93C155.926 318.423 155.642 317.736 155.642 317.02C155.642 316.304 155.926 315.617 156.432 315.111C156.939 314.605 157.626 314.32 158.342 314.32H169.371C170.087 314.32 170.774 314.605 171.28 315.111C171.787 315.617 172.071 316.304 172.071 317.02C172.071 317.736 171.787 318.423 171.28 318.93C170.774 319.436 170.087 319.72 169.371 319.72Z" fill="#BFBFBF"/>
</g>
<path d="M390.326 245.011H158.342C157.626 245.011 156.939 244.727 156.432 244.221C155.926 243.714 155.642 243.027 155.642 242.311C155.642 241.595 155.926 240.908 156.432 240.402C156.939 239.896 157.626 239.611 158.342 239.611H390.326C391.042 239.611 391.728 239.896 392.235 240.402C392.741 240.908 393.026 241.595 393.026 242.311C393.026 243.027 392.741 243.714 392.235 244.221C391.728 244.727 391.042 245.011 390.326 245.011Z" fill="#BFBFBF"/>
<path d="M456.381 207.671H432.716C432 207.671 431.313 207.387 430.806 206.881C430.3 206.374 430.016 205.688 430.016 204.971C430.016 204.255 430.3 203.569 430.806 203.062C431.313 202.556 432 202.271 432.716 202.271H456.381C457.097 202.271 457.784 202.556 458.29 203.062C458.797 203.569 459.081 204.255 459.081 204.971C459.081 205.688 458.797 206.374 458.29 206.881C457.784 207.387 457.097 207.671 456.381 207.671Z" fill="#BFBFBF"/>
<path d="M422.82 207.671H400.221C399.505 207.671 398.818 207.387 398.312 206.881C397.805 206.374 397.521 205.688 397.521 204.971C397.521 204.255 397.805 203.569 398.312 203.062C398.818 202.556 399.505 202.271 400.221 202.271H422.82C423.536 202.271 424.223 202.556 424.729 203.062C425.236 203.569 425.52 204.255 425.52 204.971C425.52 205.688 425.236 206.374 424.729 206.881C424.223 207.387 423.536 207.671 422.82 207.671Z" fill="#BFBFBF"/>
<path d="M390.326 207.671H158.342C157.626 207.671 156.939 207.387 156.432 206.881C155.926 206.374 155.642 205.688 155.642 204.971C155.642 204.255 155.926 203.569 156.432 203.062C156.939 202.556 157.626 202.271 158.342 202.271H390.326C391.042 202.271 391.728 202.556 392.235 203.062C392.741 203.569 393.026 204.255 393.026 204.971C393.026 205.688 392.741 206.374 392.235 206.881C391.728 207.387 391.042 207.671 390.326 207.671Z" fill="#BFBFBF"/>
<path d="M456.381 263.697H432.716C432 263.697 431.313 263.412 430.806 262.906C430.3 262.4 430.016 261.713 430.016 260.997C430.016 260.281 430.3 259.594 430.806 259.088C431.313 258.581 432 258.297 432.716 258.297H456.381C457.097 258.297 457.784 258.581 458.29 259.088C458.797 259.594 459.081 260.281 459.081 260.997C459.081 261.713 458.797 262.4 458.29 262.906C457.784 263.412 457.097 263.697 456.381 263.697Z" fill="#999999"/>
<path d="M422.82 263.697H181.521C180.805 263.697 180.118 263.412 179.612 262.906C179.106 262.4 178.821 261.713 178.821 260.997C178.821 260.281 179.106 259.594 179.612 259.088C180.118 258.581 180.805 258.297 181.521 258.297H422.82C423.536 258.297 424.223 258.581 424.729 259.088C425.236 259.594 425.52 260.281 425.52 260.997C425.52 261.713 425.236 262.4 424.729 262.906C424.223 263.412 423.536 263.697 422.82 263.697Z" fill="#999999"/>
<path d="M250.817 282.367H181.521C180.805 282.367 180.118 282.082 179.612 281.576C179.106 281.07 178.821 280.383 178.821 279.667C178.821 278.951 179.106 278.264 179.612 277.758C180.118 277.251 180.805 276.967 181.521 276.967H250.817C251.533 276.967 252.219 277.251 252.726 277.758C253.232 278.264 253.517 278.951 253.517 279.667C253.517 280.383 253.232 281.07 252.726 281.576C252.219 282.082 251.533 282.367 250.817 282.367Z" fill="#999999"/>
<path d="M250.817 301.05H181.521C180.805 301.05 180.118 300.766 179.612 300.26C179.106 299.753 178.821 299.066 178.821 298.35C178.821 297.634 179.106 296.948 179.612 296.441C180.118 295.935 180.805 295.65 181.521 295.65H250.817C251.533 295.65 252.219 295.935 252.726 296.441C253.232 296.948 253.517 297.634 253.517 298.35C253.517 299.066 253.232 299.753 252.726 300.26C252.219 300.766 251.533 301.05 250.817 301.05Z" fill="#999999"/>
<path d="M250.817 319.72H181.521C180.805 319.72 180.118 319.436 179.612 318.93C179.106 318.423 178.821 317.736 178.821 317.02C178.821 316.304 179.106 315.617 179.612 315.111C180.118 314.605 180.805 314.32 181.521 314.32H250.817C251.533 314.32 252.219 314.605 252.726 315.111C253.232 315.617 253.517 316.304 253.517 317.02C253.517 317.736 253.232 318.423 252.726 318.93C252.219 319.436 251.533 319.72 250.817 319.72Z" fill="#999999"/>
<path d="M205.308 559.225C205.308 559.225 198.234 571.375 201.015 571.847C203.796 572.32 209.641 561.749 209.641 561.749L225.639 557.551L213.583 556.309L205.308 559.225Z" fill="white" stroke="#263238" stroke-linecap="round" stroke-linejoin="round"/>
<path opacity="0.3" d="M205.308 559.225C205.308 559.225 198.234 571.375 201.015 571.847C203.796 572.32 209.641 561.749 209.641 561.749L225.639 557.551L213.583 556.309L205.308 559.225Z" fill="black" stroke="#263238" stroke-linecap="round" stroke-linejoin="round"/>
<path d="M210.694 550.909C210.694 550.909 200.785 548.56 198.058 553.204C195.331 557.848 187.258 571.631 190.309 573.197C193.36 574.763 195.939 569.687 195.939 569.687L210.694 550.909Z" fill="white" stroke="#263238" stroke-linecap="round" stroke-linejoin="round"/>
<path d="M251.221 565.028C244.722 567.275 237.796 568.004 230.971 567.161L219.699 570.914C219.699 570.914 209.79 575.788 205.173 573.331C200.556 570.874 216.918 565.447 216.918 565.447C216.918 565.447 227.92 560.681 224.64 559.534C221.359 558.386 208.939 558.616 206.509 560.479C204.079 562.342 197.667 574.478 193.009 573.776C188.352 573.074 194.953 566.486 196.614 563.948C198.274 561.41 202.014 551.285 209.52 550.853C217.026 550.421 242.419 551.731 242.419 551.731L272.241 548.545L279.274 565.514L251.221 565.028Z" fill="white" stroke="#263238" stroke-linecap="round" stroke-linejoin="round"/>
<path d="M266.787 569.228C267.618 569.824 268.619 570.138 269.642 570.124C270.665 570.109 271.657 569.767 272.47 569.147C273.369 569.529 274.361 569.639 275.321 569.461C276.281 569.283 277.168 568.826 277.87 568.148C280.044 565.758 280.233 544.792 274.212 542.43C272.47 541.755 268.123 541.823 267.462 544.253C266.998 544.064 266.496 543.988 265.997 544.03C265.498 544.072 265.016 544.231 264.59 544.494C264.164 544.757 263.806 545.116 263.545 545.544C263.284 545.971 263.128 546.453 263.088 546.953C262.494 550.733 266.247 554.256 264.991 565.123C264.882 565.907 264.992 566.705 265.309 567.429C265.626 568.154 266.138 568.776 266.787 569.228Z" fill="#92E3A9" stroke="#263238" stroke-linecap="round" stroke-linejoin="round"/>
<path opacity="0.3" d="M266.787 569.228C267.618 569.824 268.619 570.138 269.642 570.124C270.665 570.109 271.657 569.767 272.47 569.147C273.369 569.529 274.361 569.639 275.321 569.461C276.281 569.283 277.168 568.826 277.87 568.148C280.044 565.758 280.233 544.792 274.212 542.43C272.47 541.755 268.123 541.823 267.462 544.253C266.998 544.064 266.496 543.988 265.997 544.03C265.498 544.072 265.016 544.231 264.59 544.494C264.164 544.757 263.806 545.116 263.545 545.544C263.284 545.971 263.128 546.453 263.088 546.953C262.494 550.733 266.247 554.256 264.991 565.123C264.882 565.907 264.992 566.705 265.309 567.429C265.626 568.154 266.138 568.776 266.787 569.228Z" fill="black" stroke="#263238" stroke-linecap="round" stroke-linejoin="round"/>
<path d="M273.672 564.301C273.665 558.59 272.451 552.945 270.108 547.736" stroke="#263238" stroke-linecap="round" stroke-linejoin="round"/>
<path d="M415.597 556.727C414.598 564.408 413.464 572.724 412.168 581.756H296.284L296.838 566.825C289.912 568.499 276.453 567.473 276.453 567.473V545.4C284.634 540.77 285.903 542.066 285.903 542.066C285.903 542.066 286.321 488.201 291.222 474.755C293.091 469.692 296.428 465.301 300.807 462.146C301.973 461.278 303.195 460.489 304.465 459.783L304.641 459.675C305.991 458.96 307.624 458.204 309.487 457.421L310 457.218C328.144 449.807 367.74 441.207 404.635 456.975C407.214 458.082 428.274 468.14 430.069 482.625C431.041 490.955 425.398 532.184 415.597 556.727Z" fill="#92E3A9"/>
<path opacity="0.2" d="M397.237 490.32L385.681 543.956C383.886 542.538 378.715 542.444 372.181 543.065C373.602 541.503 374.78 539.738 375.678 537.827C393.106 500.027 396.9 491.076 397.237 490.32Z" fill="black"/>
<path opacity="0.2" d="M418.351 549.248C415.537 559.927 413.471 570.79 412.168 581.756H296.284L297.351 564.557C304.573 563.531 317.25 562.478 330.412 560.143C331.422 564.261 331.528 568.548 330.723 572.711C330.723 572.711 384.021 579.326 401.908 575.02C407.011 573.791 411.628 566.663 415.584 556.849C416.542 554.459 417.46 551.908 418.351 549.248Z" fill="black"/>
<path opacity="0.3" d="M287.239 543.079C287.239 543.079 284.634 540.771 276.439 545.401V567.474C276.439 567.474 289.939 567.001 295.231 564.125C299.794 566.947 298.984 515.282 299.794 487.459C293.179 489.281 292.653 501.863 291.627 513.703C290.78 523.577 289.314 533.388 287.239 543.079Z" fill="black"/>
<path d="M415.597 556.727C414.598 564.408 413.464 572.724 412.168 581.756H296.284L296.838 566.825C289.912 568.499 276.453 567.473 276.453 567.473V545.4C284.634 540.77 285.903 542.066 285.903 542.066C285.903 542.066 286.321 488.201 291.222 474.755C293.091 469.692 296.428 465.301 300.807 462.146V462.146C301.973 461.278 303.195 460.489 304.465 459.783L304.641 459.675C305.991 458.96 307.624 458.204 309.487 457.421L310 457.218C328.144 449.807 367.74 441.207 404.635 456.975C407.214 458.082 428.274 468.14 430.069 482.625C431.041 490.955 425.398 532.184 415.597 556.727Z" stroke="#263238" stroke-linecap="round" stroke-linejoin="round"/>
<path d="M430.015 482.666C430.015 482.99 430.096 483.368 430.11 483.786C430.704 494.154 425.061 533.278 415.584 556.849C411.628 566.663 407.011 573.791 401.908 575.02C384.021 579.326 330.723 572.711 330.723 572.711C332.114 565.397 330.692 557.827 326.74 551.516C326.74 551.516 379.066 538.718 385.681 543.956L397.264 490.267" stroke="#263238" stroke-linecap="round" stroke-linejoin="round"/>
<path d="M389.326 546.885C393.057 548.678 396.254 551.414 398.601 554.823" stroke="#263238" stroke-linecap="round" stroke-linejoin="round"/>
<path d="M256.027 548.802C256.027 548.802 251.14 547.776 249.156 550.004C247.171 552.231 238.666 565.002 241.542 567.432C244.417 569.862 250.263 556.511 250.263 556.511L256.027 548.802Z" fill="white" stroke="#263238" stroke-linecap="round" stroke-linejoin="round"/>
<path d="M265.828 548.573C265.828 548.573 255.028 546.251 252.558 549.559C250.087 552.866 236.466 569.984 244.971 570.524L258.471 555.296L265.828 548.573Z" fill="white" stroke="#263238" stroke-linecap="round" stroke-linejoin="round"/>
<path d="M290.317 566.77C290.317 566.77 279.18 569.2 274.657 570.091C270.135 570.982 261.738 576.841 256.77 574.505C251.802 572.17 272.97 563.57 272.97 563.57L280.26 560.641L290.317 566.77Z" fill="#BFBFBF" stroke="#263238" stroke-linecap="round" stroke-linejoin="round"/>
<path d="M299.335 500.136C299.497 495.91 299.646 491.684 299.808 487.459" stroke="#263238" stroke-linecap="round" stroke-linejoin="round"/>
<path d="M296.284 581.755C298.35 556.199 299.119 505.885 299.119 505.885" stroke="#263238" stroke-linecap="round" stroke-linejoin="round"/>
<path d="M330.75 552.987H292.315C292.315 552.987 262.507 544.037 257.553 550.989C252.598 557.942 241.987 568.539 244.971 570.524C247.954 572.508 260.55 558.117 260.55 558.117L271.485 558.212C271.485 558.212 262.21 562.262 260.226 564.233C258.241 566.204 253.935 571.847 256.176 572.846C258.417 573.845 265.788 566.555 265.788 566.555C265.788 566.555 276.709 563.855 279.355 565.205C287.846 569.55 297.668 570.515 306.841 567.905L336.15 571.55L330.75 552.987Z" fill="white" stroke="#263238" stroke-linecap="round" stroke-linejoin="round"/>
<path d="M393.255 508.855C392.195 502.707 392.154 496.427 393.133 490.266" stroke="#263238" stroke-linecap="round" stroke-linejoin="round"/>
<path d="M401.962 476.658C401.962 476.658 420.592 452.115 430.015 482.666" stroke="#263238" stroke-linecap="round" stroke-linejoin="round"/>
<path d="M322.839 549.95C323.498 549.166 324.39 548.613 325.386 548.37C326.381 548.127 327.428 548.208 328.374 548.6C329.148 548.004 330.082 547.649 331.057 547.582C332.032 547.515 333.006 547.738 333.855 548.222C336.555 550.004 341.955 570.254 336.703 574.048C335.191 575.128 330.966 576.14 329.67 573.967C329.264 574.265 328.794 574.464 328.298 574.546C327.801 574.629 327.292 574.593 326.812 574.442C326.332 574.29 325.894 574.028 325.535 573.676C325.175 573.323 324.904 572.891 324.742 572.414C323.23 568.891 325.998 564.557 322.042 554.338C321.762 553.603 321.688 552.806 321.829 552.033C321.969 551.26 322.318 550.539 322.839 549.95Z" fill="#92E3A9"/>
<path opacity="0.3" d="M322.839 549.95C323.498 549.166 324.39 548.613 325.386 548.37C326.381 548.127 327.428 548.208 328.374 548.6C329.148 548.004 330.082 547.649 331.057 547.582C332.032 547.515 333.006 547.738 333.855 548.222C336.555 550.004 341.955 570.254 336.703 574.048C335.191 575.128 330.966 576.14 329.67 573.967C329.264 574.265 328.794 574.464 328.298 574.546C327.801 574.629 327.292 574.593 326.812 574.442C326.332 574.29 325.894 574.028 325.535 573.676C325.175 573.323 324.904 572.891 324.742 572.414C323.23 568.891 325.998 564.557 322.042 554.338C321.762 553.603 321.688 552.806 321.829 552.033C321.969 551.26 322.318 550.539 322.839 549.95Z" fill="black"/>
<path d="M322.839 549.95C323.498 549.166 324.39 548.613 325.386 548.37C326.381 548.127 327.428 548.208 328.374 548.6C329.148 548.004 330.082 547.649 331.057 547.582C332.032 547.515 333.006 547.738 333.855 548.222C336.555 550.004 341.955 570.254 336.703 574.048C335.191 575.128 330.966 576.14 329.67 573.967C329.264 574.265 328.794 574.464 328.298 574.546C327.801 574.629 327.292 574.593 326.812 574.442C326.332 574.29 325.894 574.028 325.535 573.676C325.175 573.323 324.904 572.891 324.742 572.414C323.23 568.891 325.998 564.557 322.042 554.338C321.762 553.603 321.688 552.806 321.829 552.033C321.969 551.26 322.318 550.539 322.839 549.95V549.95Z" stroke="#263238" stroke-linecap="round" stroke-linejoin="round"/>
<path d="M331.371 560.467C331.847 563.596 331.883 566.777 331.479 569.917" stroke="#263238" stroke-linecap="round" stroke-linejoin="round"/>
<path d="M348.3 499.838C348.272 500.358 348.091 500.858 347.779 501.276C347.467 501.693 347.039 502.008 346.547 502.181C346.056 502.355 345.524 502.378 345.02 502.25C344.515 502.121 344.06 501.845 343.712 501.457C343.364 501.07 343.139 500.587 343.065 500.072C342.991 499.556 343.072 499.03 343.297 498.561C343.523 498.091 343.882 497.699 344.331 497.433C344.779 497.168 345.296 497.042 345.816 497.07C346.506 497.125 347.148 497.443 347.61 497.958C348.073 498.473 348.319 499.146 348.3 499.838Z" fill="white" stroke="#263238" stroke-linecap="round" stroke-linejoin="round"/>
<path d="M346.356 540.607C346.323 541.123 346.139 541.618 345.825 542.029C345.512 542.44 345.083 542.749 344.595 542.918C344.106 543.086 343.578 543.106 343.078 542.975C342.578 542.843 342.128 542.567 341.784 542.181C341.441 541.794 341.22 541.315 341.148 540.803C341.077 540.29 341.159 539.769 341.384 539.303C341.608 538.837 341.966 538.449 342.411 538.186C342.856 537.923 343.369 537.798 343.886 537.826C344.582 537.868 345.233 538.184 345.696 538.706C346.159 539.227 346.397 539.911 346.356 540.607Z" fill="white" stroke="#263238" stroke-linecap="round" stroke-linejoin="round"/>
<path d="M370.467 449.915L368.55 422.713L340.389 429.301L338.85 451.076C337.081 451.292 335.394 451.549 333.733 451.792L340.618 468.302L354.118 470.071L375.637 450.239C373.95 450.104 372.168 449.996 370.467 449.915Z" fill="white"/>
<path d="M339.97 438.859C340.159 458.218 362.772 452.278 369.036 432.946L368.536 422.713L340.389 429.301L339.97 438.859Z" fill="#263238"/>
<path d="M370.467 449.915L368.55 422.713L340.389 429.301L338.85 451.076C337.081 451.292 335.394 451.549 333.733 451.792L340.618 468.302L354.118 470.071L375.637 450.239C373.95 450.104 372.168 449.996 370.467 449.915Z" stroke="#263238" stroke-linecap="round" stroke-linejoin="round"/>
<path d="M322.731 399.749C322.731 399.749 312.444 381.956 310.932 372.573C306.22 343.589 327.132 353.363 327.132 353.363C327.132 353.363 341.982 340.119 360.355 342.441C378.729 344.763 383.643 352.607 396.049 357.426C396.049 357.426 386.734 404.676 374.814 415.287C362.893 425.898 322.731 399.749 322.731 399.749Z" fill="#263238" stroke="#263238" stroke-linecap="round" stroke-linejoin="round"/>
<path d="M328.144 357.669C328.144 357.669 323.514 346.41 335.259 337.811" stroke="#263238" stroke-linecap="round" stroke-linejoin="round"/>
<path d="M348.367 350.905C362.124 344.83 368.266 354.955 383.616 357.655" stroke="#BFBFBF" stroke-miterlimit="10"/>
<path d="M337.743 357.67C338.993 356.096 340.505 354.749 342.211 353.688" stroke="#BFBFBF" stroke-miterlimit="10"/>
<path d="M351.864 362.084C351.864 362.084 357.817 356.373 369.63 363.798C373.195 366.145 377.208 367.726 381.415 368.442" stroke="#BFBFBF" stroke-miterlimit="10"/>
<path d="M370.062 374.45C352.944 374.896 335.259 367.16 335.259 367.16C319.302 376.786 321.678 392.432 321.678 392.432C325.323 429.827 330.25 439.79 347.719 439.79C365.188 439.79 379.39 420.89 380.538 393.958C373.95 394.268 370.062 374.45 370.062 374.45Z" fill="white" stroke="#263238" stroke-linecap="round" stroke-linejoin="round"/>
<path d="M379.066 392.432C379.458 391.852 379.979 391.371 380.588 391.027C381.197 390.682 381.878 390.484 382.576 390.447C385.681 390.447 387.976 394.497 386.883 399.56C385.789 404.622 384.358 408.659 381.253 408.659C380.544 408.633 379.859 408.392 379.29 407.967C378.721 407.543 378.294 406.955 378.067 406.283" fill="white"/>
<path d="M379.066 392.432C379.458 391.852 379.979 391.371 380.588 391.027C381.197 390.682 381.878 390.484 382.576 390.447C385.681 390.447 387.976 394.497 386.883 399.56C385.789 404.622 384.358 408.659 381.253 408.659C380.544 408.633 379.859 408.392 379.29 407.967C378.721 407.543 378.294 406.955 378.067 406.283" stroke="#263238" stroke-linecap="round" stroke-linejoin="round"/>
<path d="M345.033 410.793C345.033 410.793 347.125 413.655 343.116 415.801C339.106 417.948 335.92 417.907 334.894 415.45C333.868 412.993 338.323 392.5 338.323 392.5" stroke="#263238" stroke-linecap="round" stroke-linejoin="round"/>
<path d="M337.648 395.78C335.488 394.687 326.848 390.907 318.64 396.064L319.167 404.002C319.167 404.002 322.191 405.662 329.13 405.662C331.4 405.704 333.667 405.468 335.88 404.96" stroke="#263238" stroke-linecap="round" stroke-linejoin="round"/>
<path d="M344.817 396.062L347.328 404.338C347.328 404.338 348.354 405.688 355.306 405.688C362.259 405.688 364.54 404.027 364.54 404.027L364.338 396.089C364.338 396.089 354.253 390.149 344.817 396.062Z" stroke="#263238" stroke-linecap="round" stroke-linejoin="round"/>
<path d="M338.202 396.062H344.817" stroke="#263238" stroke-linecap="round" stroke-linejoin="round"/>
<path d="M339.606 423.307C343.22 424.337 347.064 424.219 350.608 422.97C353.336 421.94 355.711 420.15 357.453 417.812" stroke="#263238" stroke-linecap="round" stroke-linejoin="round"/>
<path d="M350.608 388.232C359.289 384.655 363.123 388.948 363.123 388.948" stroke="#263238" stroke-linecap="round" stroke-linejoin="round"/>
<path d="M327.699 387.881C329.191 387.167 330.854 386.888 332.497 387.077C334.14 387.266 335.696 387.914 336.987 388.948" stroke="#263238" stroke-linecap="round" stroke-linejoin="round"/>
<path d="M354.064 394.268C354.874 394.268 355.414 395.618 355.414 397.197C355.414 398.777 354.739 400.113 353.956 400.113C353.173 400.113 352.606 398.763 352.606 397.197C352.606 395.631 353.268 394.268 354.064 394.268Z" fill="#263238"/>
<path d="M332.505 393.902C333.301 393.902 333.855 395.252 333.855 396.832C333.855 398.411 333.18 399.748 332.397 399.748C331.614 399.748 331.047 398.398 331.047 396.832C331.047 395.266 331.722 393.902 332.505 393.902Z" fill="#263238"/>
<path d="M318.114 379C318.393 380.593 318.845 382.15 319.464 383.644" stroke="#BFBFBF" stroke-miterlimit="10"/>
<path d="M328.468 361.165C319.936 358.87 316.561 364 317.196 372.1" stroke="#BFBFBF" stroke-miterlimit="10"/>
<path d="M337.5 449.806L347.895 468.517L372.857 448.82L380.538 449.9L364.338 478.453C364.191 478.71 363.993 478.934 363.757 479.113C363.52 479.292 363.25 479.421 362.963 479.493C362.675 479.565 362.376 479.578 362.084 479.531C361.791 479.485 361.511 479.38 361.26 479.222L347.449 470.501L336.649 477.089C336.334 477.282 335.974 477.393 335.604 477.41C335.235 477.427 334.866 477.351 334.534 477.188C334.201 477.025 333.915 476.781 333.702 476.478C333.489 476.175 333.356 475.824 333.315 475.456L330.615 451.075L337.5 449.806Z" fill="#92E3A9"/>
<path opacity="0.3" d="M336.582 449.686L347.895 468.518L373.302 448.471L380.943 449.686L364.379 478.454C364.231 478.711 364.033 478.936 363.797 479.115C363.561 479.293 363.291 479.422 363.003 479.494C362.716 479.566 362.417 479.579 362.124 479.533C361.832 479.486 361.552 479.381 361.301 479.224L347.49 470.503L336.69 477.091C336.374 477.284 336.015 477.394 335.645 477.411C335.275 477.428 334.907 477.352 334.574 477.189C334.242 477.026 333.956 476.782 333.743 476.479C333.53 476.177 333.397 475.825 333.356 475.457L330.656 451.076L336.582 449.686Z" fill="black"/>
<path d="M337.5 449.806L347.895 468.517L372.857 448.82L380.538 449.9L364.338 478.453C364.191 478.71 363.993 478.934 363.757 479.113C363.52 479.292 363.25 479.421 362.963 479.493C362.675 479.565 362.376 479.578 362.084 479.531C361.791 479.485 361.511 479.38 361.26 479.222L347.449 470.501L336.649 477.089C336.334 477.282 335.974 477.393 335.604 477.41C335.235 477.427 334.866 477.351 334.534 477.188C334.201 477.025 333.915 476.781 333.702 476.478C333.489 476.175 333.356 475.824 333.315 475.456L330.615 451.075L337.5 449.806Z" stroke="#263238" stroke-linecap="round" stroke-linejoin="round"/>
<path d="M182.722 572.711H250.6V581.756H182.722C182.006 581.756 181.32 581.471 180.813 580.965C180.307 580.459 180.022 579.772 180.022 579.056V575.37C180.033 574.661 180.322 573.985 180.827 573.487C181.333 572.99 182.013 572.711 182.722 572.711Z" fill="#263238" stroke="#263238" stroke-linecap="round" stroke-linejoin="round"/>
<path d="M309.002 581.756H250.601V572.711L309.15 576.558C309.618 576.592 310.056 576.802 310.376 577.145C310.697 577.488 310.876 577.939 310.878 578.408V579.906C310.878 580.152 310.829 580.394 310.735 580.62C310.64 580.847 310.501 581.052 310.327 581.224C310.152 581.396 309.945 581.532 309.718 581.623C309.49 581.714 309.247 581.759 309.002 581.756Z" fill="#92E3A9" stroke="#263238" stroke-linecap="round" stroke-linejoin="round"/>
<path d="M364.378 397.4L379.066 392.432L377.325 394.632" stroke="#263238" stroke-linecap="round" stroke-linejoin="round"/>
<path d="M458.46 414.302C458.46 414.302 441.544 362.651 484.11 359.033C526.675 355.415 531.657 395.051 535.558 414.923C538.609 430.461 567.661 458.879 545.17 480.087C521.707 502.241 464.549 494.843 461.255 463.361C457.961 431.879 460.944 425.426 458.46 414.302Z" fill="#263238" stroke="#263238" stroke-linecap="round" stroke-linejoin="round"/>
<path d="M508.086 422.551C508.086 422.551 506.236 445.501 518.049 465.143C518.049 465.143 502.132 470.341 485.527 465.4C486.216 459.321 485.878 453.169 484.528 447.202L483.961 444.704L496.03 434.269L508.086 422.551Z" fill="white"/>
<path d="M478.872 439.789C481.073 452.115 483.084 454.801 493.533 452.601C501.269 450.967 507.87 439.357 508.248 430.92C507.868 427.088 507.684 423.241 507.695 419.391L496.031 434.241L478.872 439.789Z" fill="#263238"/>
<path d="M508.086 422.551C508.086 422.551 506.236 445.501 518.049 465.143C518.049 465.143 502.132 470.341 485.527 465.4C486.216 459.321 485.878 453.169 484.528 447.202L483.961 444.704L496.03 434.269L508.086 422.551Z" stroke="#263238" stroke-linecap="round" stroke-linejoin="round"/>
<path d="M389.65 553.595C389.65 553.595 366.093 542.795 364.77 551.732C363.447 560.669 369.211 574.466 390.784 567.675L436.05 573.642C436.05 573.642 443.799 558.212 435.523 549.801C435.51 549.801 395.631 555.998 389.65 553.595Z" fill="white" stroke="#263238" stroke-linecap="round" stroke-linejoin="round"/>
<path d="M353.349 563.26C353.349 563.26 349.623 564.461 349.07 566.932C348.516 569.402 347.315 572.899 348.746 572.912C350.177 572.926 351.918 567.998 351.918 567.998L355.55 567.053L353.349 563.26Z" fill="white" stroke="#263238" stroke-linecap="round" stroke-linejoin="round"/>
<path d="M378.025 539.812L353.535 542.377L357.189 577.259L381.679 574.694L378.025 539.812Z" fill="white" stroke="#263238" stroke-linecap="round" stroke-linejoin="round"/>
<path d="M353.526 542.375L349.874 542.758L353.527 577.64L357.18 577.257L353.526 542.375Z" fill="#92E3A9" stroke="#263238" stroke-linecap="round" stroke-linejoin="round"/>
<path d="M371.439 534.761C370.039 534.925 368.758 535.629 367.87 536.724C366.982 537.818 366.558 539.217 366.687 540.62C366.708 540.743 366.735 540.865 366.768 540.985L367.997 540.863L369.347 540.728C369.316 540.604 369.294 540.478 369.279 540.35C369.227 539.867 369.303 539.378 369.499 538.933C369.696 538.488 370.007 538.103 370.4 537.817C370.792 537.53 371.254 537.352 371.738 537.301C372.221 537.249 372.71 537.326 373.155 537.523C373.599 537.721 373.984 538.032 374.269 538.426C374.555 538.819 374.732 539.281 374.783 539.765C374.834 540.249 374.756 540.737 374.557 541.181C374.359 541.625 374.047 542.009 373.653 542.294C373.81 542.729 374.088 543.109 374.454 543.392C374.82 543.674 375.258 543.846 375.719 543.887C376.518 543.12 377.058 542.121 377.262 541.032C377.466 539.942 377.325 538.816 376.858 537.811C376.391 536.805 375.622 535.971 374.657 535.424C373.693 534.878 372.582 534.646 371.48 534.761H371.439Z" fill="white" stroke="#263238" stroke-linecap="round" stroke-linejoin="round"/>
<path d="M358.142 549.612L366.579 548.721" stroke="#263238" stroke-linecap="round" stroke-linejoin="round"/>
<path d="M358.547 553.447L374.922 551.732" stroke="#263238" stroke-linecap="round" stroke-linejoin="round"/>
<path d="M358.952 557.294L367.146 556.443" stroke="#263238" stroke-linecap="round" stroke-linejoin="round"/>
<path d="M359.356 561.142L373.032 559.711" stroke="#263238" stroke-linecap="round" stroke-linejoin="round"/>
<path d="M359.761 564.989L367.942 564.125" stroke="#263238" stroke-linecap="round" stroke-linejoin="round"/>
<path d="M360.167 568.822L378.121 566.945" stroke="#263238" stroke-linecap="round" stroke-linejoin="round"/>
<path d="M360.558 572.671L368.996 571.793" stroke="#263238" stroke-linecap="round" stroke-linejoin="round"/>
<path d="M366.903 535.234C365.505 535.4 364.228 536.106 363.343 537.2C362.458 538.295 362.035 539.692 362.165 541.093C362.18 541.22 362.203 541.346 362.232 541.471L363.474 541.336L364.824 541.201C364.783 541.079 364.756 540.952 364.743 540.823C364.716 540.117 364.959 539.427 365.422 538.893C365.886 538.36 366.535 538.023 367.238 537.951C367.941 537.878 368.645 538.077 369.207 538.505C369.769 538.933 370.147 539.559 370.265 540.256C370.317 540.739 370.238 541.227 370.036 541.669C369.834 542.111 369.517 542.49 369.117 542.767C369.274 543.201 369.552 543.582 369.918 543.864C370.284 544.146 370.722 544.318 371.183 544.36C371.982 543.592 372.521 542.594 372.726 541.504C372.93 540.415 372.789 539.289 372.322 538.283C371.855 537.278 371.085 536.444 370.121 535.897C369.157 535.35 368.046 535.119 366.944 535.234H366.903Z" fill="white" stroke="#263238" stroke-linecap="round" stroke-linejoin="round"/>
<path d="M362.367 535.708C360.97 535.874 359.692 536.58 358.807 537.674C357.922 538.769 357.499 540.165 357.629 541.567C357.629 541.702 357.629 541.81 357.629 541.945L358.871 541.81L360.221 541.675C360.187 541.555 360.16 541.433 360.14 541.31C360.084 540.824 360.159 540.331 360.355 539.883C360.551 539.434 360.862 539.045 361.257 538.755C361.652 538.466 362.116 538.285 362.603 538.232C363.09 538.179 363.582 538.256 364.029 538.454C364.477 538.653 364.865 538.966 365.152 539.362C365.44 539.758 365.619 540.223 365.669 540.71C365.72 541.197 365.641 541.689 365.44 542.136C365.24 542.582 364.925 542.968 364.527 543.254C364.68 543.688 364.955 544.068 365.319 544.348C365.683 544.629 366.121 544.797 366.579 544.834C367.17 544.28 367.623 543.597 367.904 542.838C368.185 542.079 368.286 541.265 368.199 540.46C368.036 539.065 367.336 537.788 366.247 536.901C365.158 536.014 363.766 535.586 362.367 535.708Z" fill="white" stroke="#263238" stroke-linecap="round" stroke-linejoin="round"/>
<path d="M357.845 536.179C356.445 536.342 355.164 537.046 354.276 538.141C353.388 539.236 352.963 540.634 353.093 542.038C353.112 542.166 353.139 542.292 353.174 542.416L354.402 542.281L355.752 542.146C355.723 542.026 355.701 541.904 355.685 541.781C355.632 541.298 355.708 540.809 355.905 540.364C356.102 539.919 356.412 539.534 356.805 539.248C357.198 538.961 357.66 538.783 358.143 538.732C358.627 538.68 359.116 538.757 359.56 538.955C360.004 539.152 360.389 539.463 360.675 539.857C360.961 540.25 361.138 540.712 361.189 541.196C361.239 541.68 361.161 542.168 360.963 542.612C360.765 543.056 360.453 543.44 360.059 543.725C360.217 544.158 360.495 544.537 360.861 544.817C361.227 545.097 361.665 545.266 362.124 545.305C362.71 544.747 363.16 544.064 363.441 543.306C363.721 542.547 363.825 541.735 363.744 540.931C363.581 539.523 362.871 538.236 361.767 537.347C360.664 536.458 359.255 536.038 357.845 536.179Z" fill="white" stroke="#263238" stroke-linecap="round" stroke-linejoin="round"/>
<path d="M351.108 542.254C351.051 541.767 351.124 541.273 351.32 540.823C351.516 540.373 351.827 539.983 352.222 539.692C352.617 539.401 353.083 539.22 353.57 539.167C354.058 539.114 354.551 539.191 355 539.391C355.448 539.59 355.836 539.904 356.124 540.302C356.411 540.7 356.588 541.166 356.637 541.654C356.686 542.143 356.605 542.635 356.402 543.082C356.199 543.529 355.882 543.914 355.482 544.198C355.64 544.631 355.918 545.01 356.284 545.29C356.65 545.569 357.089 545.739 357.548 545.778C358.314 545.044 358.844 544.096 359.068 543.059C359.292 542.021 359.2 540.939 358.805 539.954C358.409 538.969 357.727 538.124 356.848 537.53C355.968 536.935 354.931 536.617 353.869 536.617C352.807 536.617 351.769 536.935 350.89 537.53C350.01 538.124 349.329 538.969 348.933 539.954C348.537 540.939 348.446 542.021 348.67 543.059C348.894 544.096 349.423 545.044 350.19 545.778L349.88 542.74L351.23 542.605C351.177 542.493 351.136 542.375 351.108 542.254Z" fill="white" stroke="#263238" stroke-linecap="round" stroke-linejoin="round"/>
<path d="M347.045 552.15C347.274 552.659 347.54 553.151 347.841 553.621C347.581 554.551 347.533 555.528 347.701 556.479C347.869 557.43 348.249 558.331 348.813 559.116C348.813 559.116 348.921 562.963 350.285 563.571C351.648 564.178 353.822 564.921 353.781 563.841C353.741 562.761 353.106 559.534 350.649 558.819C350.649 558.819 353.471 559.372 353.16 557.806C352.85 556.24 352.31 553.972 350.582 553.324L349.65 552.919C349.65 552.919 351.891 553.324 351.702 551.637C351.513 549.949 351.324 547.965 350.042 547.492C349.745 547.384 349.407 547.29 349.056 547.195C347.166 546.75 345.951 549.72 347.045 552.15Z" fill="white" stroke="#263238" stroke-linecap="round" stroke-linejoin="round"/>
<path d="M387.005 553.298C387.005 553.298 384.372 547.466 380.066 544.429C375.759 541.391 374.139 535.478 372.384 536.909C370.629 538.34 372.222 544.618 374.949 546.764C377.676 548.911 374.625 553.703 381.335 559.616" fill="white"/>
<path d="M387.005 553.298C387.005 553.298 384.372 547.466 380.066 544.429C375.759 541.391 374.139 535.478 372.384 536.909C370.629 538.34 372.222 544.618 374.949 546.764C377.676 548.911 374.625 553.703 381.335 559.616" stroke="#263238" stroke-linecap="round" stroke-linejoin="round"/>
<path d="M545.589 570.322C544.995 573.994 544.361 577.806 543.686 581.757H451.103C450.954 580.515 451.832 578.017 452.669 573.657C442.355 577.153 424.319 571.726 424.319 571.726C426.56 565.827 425.007 550.842 425.007 550.842L435.51 548.614C435.51 548.614 439.871 502.957 443.192 489.876C446.715 475.998 465.993 460.851 530.834 465.319C530.834 465.319 560.75 464.752 565.394 484.584C569.768 503.092 546.831 569.472 545.589 570.322Z" fill="#92E3A9"/>
<path opacity="0.2" d="M452.669 573.669C445.5 576.099 434.633 574.222 428.666 572.845C430.218 571.657 431.19 569.227 431.555 566.095C436.415 565.339 441.275 557.617 444.474 522.517C445.23 514.282 446.85 509.112 448.929 505.629C446.833 513.528 446.749 521.827 448.686 529.767C449.847 534.478 453.492 545.818 453.816 550.516C454.464 558.251 454.078 566.037 452.669 573.669Z" fill="black"/>
<path opacity="0.2" d="M545.576 570.335C545 574.007 544.37 577.814 543.686 581.756H451.103C452.763 576.68 456.84 552.515 451.103 537.827C450.873 537.233 470.988 528.782 484.461 532.238C541.566 546.886 521.897 499.69 538.205 491.104L524.138 546.278L516.456 548.722C533.088 549.748 528.282 574.682 528.282 574.682C534.39 575.493 540.577 573.938 545.576 570.335Z" fill="black"/>
<path d="M545.589 570.322C544.995 573.994 544.361 577.806 543.686 581.757H451.103C450.954 580.515 451.832 578.017 452.669 573.657C442.355 577.153 424.319 571.726 424.319 571.726C426.56 565.827 425.007 550.842 425.007 550.842L435.51 548.614C435.51 548.614 439.871 502.957 443.192 489.876C446.715 475.998 465.993 460.851 530.834 465.319C530.834 465.319 560.75 464.752 565.394 484.584C569.768 503.092 546.831 569.472 545.589 570.322Z" stroke="#263238" stroke-linecap="round" stroke-linejoin="round"/>
<path d="M426.735 548.275C426.735 548.275 430.245 550.151 431.393 558.4C432.54 566.648 430.772 573.749 426.195 573.641C421.619 573.533 420.795 571.738 421.74 570.037C422.685 568.336 424.683 566.054 423.158 558.994C421.241 550.151 417.299 550.961 417.299 550.961C417.299 550.961 422.55 545.926 426.735 548.275Z" fill="#92E3A9" stroke="#263238" stroke-linecap="round" stroke-linejoin="round"/>
<path opacity="0.2" d="M431.555 566.149C431.19 569.227 430.205 571.657 428.666 572.899C427.962 573.449 427.087 573.731 426.195 573.695C421.605 573.587 420.795 571.792 421.74 570.091C422.685 568.39 424.683 566.108 423.158 559.048C421.241 550.205 417.299 551.015 417.299 551.015C417.299 551.015 422.564 545.98 426.749 548.315C426.749 548.315 430.259 550.192 431.406 558.44C431.772 560.994 431.821 563.583 431.555 566.149Z" fill="black"/>
<path d="M514.931 448.82C514.931 448.82 491.657 455.881 481.073 452.114L478.872 466.249C478.872 466.249 489.173 475.213 522.167 464.183L514.931 448.82Z" fill="#92E3A9" stroke="#263238" stroke-linecap="round" stroke-linejoin="round"/>
<path d="M432.23 544.159C434.997 553.163 437.467 560.359 435.024 561.155C432.58 561.952 430.569 554.527 427.802 545.509C425.034 536.491 422.564 529.309 425.007 528.526C427.451 527.743 429.462 535.141 432.23 544.159Z" fill="#92E3A9" stroke="#263238" stroke-linecap="round" stroke-linejoin="round"/>
<path d="M427.451 544.374L431.879 543.024C431.231 540.904 430.623 538.879 430.043 537.07L425.628 538.42C426.168 540.243 426.789 542.241 427.451 544.374Z" fill="#263238"/>
<path d="M427.046 532.792C427.046 532.792 429.111 528.647 431.015 531.577C432.918 534.506 433.31 543.403 434.66 543.416" stroke="#263238" stroke-linecap="round" stroke-linejoin="round"/>
<path d="M454.504 488.699C452.817 493.87 450.454 499.499 448.929 505.696C446.833 513.595 446.749 521.894 448.686 529.834C449.847 534.545 453.492 545.885 453.816 550.583C454.459 558.3 454.074 566.067 452.668 573.682C451.831 578.029 450.954 580.526 451.102 581.782" stroke="#263238" stroke-linecap="round" stroke-linejoin="round"/>
<path d="M511.812 550.26C511.812 550.26 474.147 555.404 461.443 555.66C459.499 555.66 453.667 554.985 453.667 554.985L444.636 548.951C444.636 548.951 437.683 547.925 434.268 548.694L430.38 553.784C430.38 553.784 425.534 555.35 428.301 559.022C428.013 559.883 427.981 560.81 428.208 561.689C428.436 562.568 428.914 563.363 429.583 563.976C429.583 563.976 429.8 567.176 431.933 568.458C431.933 568.458 432.351 571.442 434.7 572.292C437.049 573.143 451.751 570.794 456.233 569.525C460.715 568.256 504.185 575.06 521.235 574.641C521.235 574.668 535.842 557.55 511.812 550.26Z" fill="white" stroke="#263238" stroke-linecap="round" stroke-linejoin="round"/>
<path d="M512.393 407.7C512.393 407.7 502.457 411.574 496.571 400.855C494.019 396.211 488.862 386.532 488.862 386.532C487.391 390.325 489.2 396.103 489.2 396.103C485.825 394.632 479.318 394.281 479.318 394.281C477.009 390.42 476.334 381.645 476.334 381.645C473.135 387.045 474.053 394.659 474.053 394.659C468.83 395.161 463.888 397.253 459.891 400.653C460.742 404.095 461.039 409.468 460.755 420.632C460.391 435.199 467.397 439.195 474.255 444.649C481.113 450.103 499.784 452.911 506.237 424.399C506.237 424.399 519.737 419.364 513.149 408.793L512.393 407.7Z" fill="white" stroke="#263238" stroke-linecap="round" stroke-linejoin="round"/>
<path d="M501.323 390.15C503.333 394.491 506.264 398.342 509.913 401.435C513.561 404.529 517.839 406.791 522.45 408.065" stroke="#BFBFBF" stroke-miterlimit="10"/>
<path d="M497.772 379.35C498.088 381.123 498.539 382.87 499.122 384.574" stroke="#BFBFBF" stroke-miterlimit="10"/>
<path d="M504.522 380.012C504.522 380.012 512.19 394.646 524.178 394.997" stroke="#BFBFBF" stroke-miterlimit="10"/>
<path d="M528.026 417.23C528.026 417.23 547.533 448.82 547.533 467.18" stroke="#BFBFBF" stroke-miterlimit="10"/>
<path d="M522.869 425.654C522.869 425.654 527.688 443.272 535.451 452.114" stroke="#BFBFBF" stroke-miterlimit="10"/>
<path d="M461.565 379.85C460.981 382.449 460.597 385.089 460.417 387.747" stroke="#BFBFBF" stroke-miterlimit="10"/>
<path d="M477.535 363.299C477.535 363.299 468.45 365 462.523 375.705" stroke="#BFBFBF" stroke-miterlimit="10"/>
<path d="M466.033 445.096C466.033 445.096 465.736 459.271 472.972 467.236" stroke="#BFBFBF" stroke-miterlimit="10"/>
<path d="M478.872 401.72C488.714 399.79 493.02 404.798 493.02 404.798" stroke="#263238" stroke-linecap="round" stroke-linejoin="round"/>
<path d="M462.483 405.864C463.569 404.768 464.869 403.907 466.302 403.336C467.735 402.764 469.271 402.494 470.813 402.543" stroke="#263238" stroke-linecap="round" stroke-linejoin="round"/>
<path d="M485.285 434.7C488.322 432.972 490.01 428.463 490.01 428.463L489.375 428.814C485.415 430.931 481.1 432.304 476.645 432.864C477.685 434.073 479.094 434.908 480.655 435.239C482.215 435.571 483.842 435.382 485.285 434.7V434.7Z" stroke="#263238" stroke-linecap="round" stroke-linejoin="round"/>
<path d="M473.243 425.332C471.96 425.17 468.302 423.442 467.991 420.958C467.897 420.215 468.437 419.54 469.233 418.946C470.81 417.839 472.077 416.348 472.916 414.614C473.754 412.88 474.137 410.96 474.026 409.037C474.026 408.767 474.026 408.605 474.026 408.605" stroke="#263238" stroke-linecap="round" stroke-linejoin="round"/>
<path d="M485.825 405.675C486.756 405.553 487.715 407.106 487.958 409.117C488.201 411.129 487.661 412.843 486.716 412.965C485.771 413.086 484.839 411.534 484.583 409.522C484.326 407.511 484.893 405.783 485.825 405.675Z" fill="#263238"/>
<path d="M469.598 411.494C469.841 413.465 469.301 415.152 468.383 415.26C467.465 415.368 466.533 413.91 466.29 411.899C466.047 409.887 466.587 408.227 467.505 408.119C468.423 408.011 469.355 409.509 469.598 411.494Z" fill="#263238"/>
<path d="M499.81 407.363C499.81 407.363 498.555 403.799 499.986 401.963" stroke="#263238" stroke-linecap="round" stroke-linejoin="round"/>
<path d="M545.576 570.335C540.575 573.944 534.381 575.5 528.269 574.682C528.269 574.682 533.075 549.748 516.443 548.722L524.124 546.278L538.191 491.104" stroke="#263238" stroke-linecap="round" stroke-linejoin="round"/>
<path d="M528.269 546.277C528.269 546.277 537.179 548.626 539.676 556.294" stroke="#263238" stroke-linecap="round" stroke-linejoin="round"/>
<path d="M491.913 457.488C500.391 457.43 508.762 455.59 516.483 452.088" stroke="#263238" stroke-linecap="round" stroke-linejoin="round"/>
<path d="M480.438 456.166C482.342 456.663 484.284 457.006 486.243 457.192" stroke="#263238" stroke-linecap="round" stroke-linejoin="round"/>
<path d="M518.4 471.987C520.803 471.141 523.323 470.147 525.96 469.004" stroke="#263238" stroke-linecap="round" stroke-linejoin="round"/>
<path d="M476.698 472.189C476.698 472.189 485.757 480.789 509.72 474.646" stroke="#263238" stroke-linecap="round" stroke-linejoin="round"/>
<path d="M484.529 514.93C484.529 514.93 485.879 535.679 501.323 543.415" stroke="#263238" stroke-linecap="round" stroke-linejoin="round"/>
<path d="M511.434 550.584C511.434 550.584 514.458 543.915 523.503 547.209C523.503 547.209 532.049 550.152 534.614 558.94C537.179 567.729 533.966 575.572 527.729 575.896C521.492 576.22 520.358 575.734 521.411 573.817C522.517 571.724 523.136 569.408 523.22 567.042C523.304 564.676 522.852 562.322 521.897 560.155C518.022 550.881 511.434 550.584 511.434 550.584Z" fill="#92E3A9"/>
<g opacity="0.2">
<path d="M511.434 550.584C511.434 550.584 514.458 543.915 523.503 547.209C523.503 547.209 532.049 550.152 534.614 558.94C537.179 567.729 533.966 575.572 527.729 575.896C521.492 576.22 520.358 575.734 521.411 573.817C522.517 571.724 523.136 569.408 523.22 567.042C523.304 564.676 522.852 562.322 521.897 560.155C518.022 550.881 511.434 550.584 511.434 550.584Z" fill="black"/>
</g>
<path d="M511.434 550.584C511.434 550.584 514.458 543.915 523.503 547.209C523.503 547.209 532.049 550.152 534.614 558.94C537.179 567.729 533.966 575.572 527.729 575.896C521.492 576.22 520.358 575.734 521.411 573.817C522.517 571.724 523.136 569.408 523.22 567.042C523.304 564.676 522.852 562.322 521.897 560.155C518.022 550.881 511.434 550.584 511.434 550.584Z" stroke="#263238" stroke-linecap="round" stroke-linejoin="round"/>
<path d="M97.7939 523.14C97.7939 523.14 93.1499 483.436 52.0964 499.501C52.0964 499.501 87.0344 499.245 92.9474 529.201L98.3474 528.621L97.7939 523.14Z" fill="#92E3A9"/>
<path opacity="0.1" d="M97.7939 523.14C97.7939 523.14 93.1499 483.436 52.0964 499.501C52.0964 499.501 87.0344 499.245 92.9474 529.201L98.3474 528.621L97.7939 523.14Z" fill="black"/>
<path d="M98.361 522.45C98.361 522.45 94.8105 480.114 87.075 447.215C87.075 447.215 110.7 472.203 105.3 519.251L98.361 522.45Z" fill="#92E3A9"/>
<path opacity="0.1" d="M98.361 522.45C98.361 522.45 94.8105 480.114 87.075 447.215C87.075 447.215 110.7 472.203 105.3 519.251L98.361 522.45Z" fill="black"/>
<path d="M96.066 550.503C96.066 550.503 89.316 492.183 66.5955 472.203C66.5955 472.203 107.095 482.288 101.128 544.226L96.066 550.503Z" fill="#92E3A9"/>
<path d="M103.194 548.1C103.194 548.1 113.116 490.226 136.822 471.447C136.822 471.447 95.8094 479.331 98.4824 541.512L103.194 548.1Z" fill="#92E3A9"/>
<path d="M123.998 529.119H76.0725V537.449H77.6655V566.838C77.6655 570.783 79.2279 574.567 82.0109 577.363C84.7938 580.158 88.5709 581.738 92.5155 581.756H107.366C111.323 581.756 115.119 580.184 117.919 577.387C120.718 574.59 122.293 570.796 122.297 566.838V537.449H123.89L123.998 529.119Z" fill="white" stroke="#263238" stroke-miterlimit="10"/>
<path d="M109.147 537.057H115.519H109.147Z" fill="white"/>
<path d="M109.147 537.057H115.519" stroke="#263238" stroke-miterlimit="10"/>
<path d="M84.1589 537.057H102.6H84.1589Z" fill="white"/>
<path d="M84.1589 537.057H102.6" stroke="#263238" stroke-miterlimit="10"/>
<path d="M286.2 545.091L273.915 445.056C273.682 443.491 272.906 442.059 271.724 441.008C270.543 439.956 269.029 439.354 267.448 439.305H253.381L269.662 550.801H281.178C281.902 550.815 282.62 550.671 283.282 550.379C283.944 550.087 284.535 549.654 285.013 549.11C285.491 548.567 285.845 547.926 286.05 547.231C286.255 546.537 286.306 545.807 286.2 545.091Z" fill="#92E3A9" stroke="#263238" stroke-linecap="round" stroke-linejoin="round"/>
<path d="M278.1 550.8H136.566C134.987 550.748 133.477 550.144 132.298 549.093C131.119 548.043 130.346 546.612 130.113 545.049L117.828 445.014C117.719 444.298 117.769 443.567 117.973 442.871C118.177 442.176 118.531 441.534 119.009 440.99C119.488 440.446 120.08 440.013 120.743 439.722C121.406 439.431 122.126 439.288 122.85 439.304H264.438C266.016 439.356 267.527 439.96 268.706 441.011C269.885 442.062 270.658 443.493 270.891 445.055L283.176 545.09C283.283 545.811 283.23 546.546 283.022 547.244C282.814 547.942 282.456 548.586 281.972 549.131C281.488 549.675 280.89 550.107 280.221 550.395C279.552 550.684 278.828 550.822 278.1 550.8Z" fill="#263238"/>
<path opacity="0.1" d="M278.1 550.8H136.566C134.987 550.748 133.477 550.144 132.298 549.093C131.119 548.043 130.346 546.612 130.113 545.049L117.828 445.014C117.719 444.298 117.769 443.567 117.973 442.871C118.177 442.176 118.531 441.534 119.009 440.99C119.488 440.446 120.08 440.013 120.743 439.722C121.406 439.431 122.126 439.288 122.85 439.304H264.438C266.016 439.356 267.527 439.96 268.706 441.011C269.885 442.062 270.658 443.493 270.891 445.055L283.176 545.09C283.283 545.811 283.23 546.546 283.022 547.244C282.814 547.942 282.456 548.586 281.972 549.131C281.488 549.675 280.89 550.107 280.221 550.395C279.552 550.684 278.828 550.822 278.1 550.8Z" fill="white"/>
<path d="M278.1 550.8H136.566C134.987 550.748 133.477 550.144 132.298 549.093C131.119 548.043 130.346 546.612 130.113 545.049L117.828 445.014C117.719 444.298 117.769 443.567 117.973 442.871C118.177 442.176 118.531 441.534 119.009 440.99C119.488 440.446 120.08 440.013 120.743 439.722C121.406 439.431 122.126 439.288 122.85 439.304H264.438C266.016 439.356 267.527 439.96 268.706 441.011C269.885 442.062 270.658 443.493 270.891 445.055L283.176 545.09C283.283 545.811 283.23 546.546 283.022 547.244C282.814 547.942 282.456 548.586 281.972 549.131C281.488 549.675 280.89 550.107 280.221 550.395C279.552 550.684 278.828 550.822 278.1 550.8V550.8Z" stroke="#263238" stroke-linecap="round" stroke-linejoin="round"/>
<path d="M212.126 573.575L217.782 509.139C217.806 508.77 217.754 508.4 217.629 508.052C217.504 507.704 217.309 507.385 217.056 507.115C216.803 506.846 216.497 506.631 216.157 506.485C215.818 506.338 215.452 506.263 215.082 506.264H179.402C178.732 506.26 178.085 506.505 177.586 506.952C177.087 507.398 176.772 508.014 176.702 508.68L170.546 578.88C170.521 579.249 170.574 579.619 170.698 579.967C170.823 580.316 171.018 580.634 171.271 580.904C171.525 581.173 171.83 581.388 172.17 581.535C172.51 581.681 172.876 581.756 173.246 581.756H244.04C244.756 581.756 245.442 581.471 245.949 580.965C246.455 580.459 246.74 579.772 246.74 579.056C246.74 578.34 246.455 577.653 245.949 577.146C245.442 576.64 244.756 576.356 244.04 576.356H214.758C214.402 576.347 214.052 576.268 213.727 576.123C213.401 575.979 213.108 575.771 212.863 575.513C212.619 575.254 212.428 574.95 212.301 574.617C212.174 574.285 212.115 573.93 212.126 573.575Z" fill="#263238" stroke="#263238" stroke-linecap="round" stroke-linejoin="round"/>
<path d="M246.685 579.151C246.685 578.435 246.401 577.748 245.895 577.242C245.388 576.735 244.701 576.451 243.985 576.451H214.758C214.387 576.452 214.02 576.376 213.679 576.229C213.338 576.081 213.032 575.865 212.779 575.594C212.525 575.323 212.33 575.003 212.206 574.653C212.082 574.303 212.032 573.932 212.058 573.562L217.714 509.126C217.831 508.742 217.86 508.336 217.799 507.939C217.739 507.542 217.591 507.164 217.366 506.831C217.141 506.498 216.844 506.22 216.498 506.017C216.152 505.813 215.765 505.69 215.364 505.655C214.964 505.62 214.562 505.675 214.185 505.815C213.809 505.956 213.469 506.178 213.19 506.467C212.91 506.756 212.699 507.103 212.571 507.483C212.443 507.864 212.401 508.269 212.449 508.667L206.293 578.867C206.27 579.231 206.32 579.595 206.44 579.939C206.561 580.282 206.75 580.598 206.996 580.867C207.242 581.135 207.54 581.351 207.871 581.502C208.203 581.653 208.562 581.734 208.926 581.743H244.026C244.717 581.733 245.377 581.459 245.872 580.977C246.367 580.494 246.658 579.841 246.685 579.151Z" fill="#92E3A9" stroke="#263238" stroke-linecap="round" stroke-linejoin="round"/>
<path d="M84.375 581.756H590.625" stroke="#263238" stroke-linecap="round" stroke-linejoin="round"/>
<path d="M556.754 336.596H530.145C528.487 336.596 526.897 337.254 525.725 338.426C524.553 339.599 523.895 341.188 523.895 342.846V355.806C523.895 357.464 524.553 359.054 525.725 360.226C526.897 361.398 528.487 362.057 530.145 362.057H537.098L539.136 374.004L549.801 362.057H556.754C557.575 362.058 558.39 361.898 559.15 361.585C559.91 361.271 560.6 360.811 561.182 360.231C561.764 359.65 562.225 358.961 562.54 358.201C562.855 357.442 563.018 356.628 563.018 355.806V342.9C563.023 342.074 562.865 341.255 562.552 340.491C562.24 339.726 561.779 339.031 561.197 338.445C560.615 337.859 559.923 337.394 559.16 337.076C558.397 336.759 557.58 336.596 556.754 336.596Z" fill="white" stroke="#263238" stroke-linecap="round" stroke-linejoin="round"/>
<path d="M515.957 298.35H489.348C488.526 298.348 487.712 298.508 486.952 298.822C486.192 299.135 485.502 299.595 484.92 300.176C484.338 300.756 483.876 301.446 483.561 302.205C483.246 302.964 483.084 303.778 483.084 304.6V317.547C483.084 319.208 483.744 320.801 484.919 321.976C486.094 323.151 487.687 323.811 489.348 323.811H496.301L501.579 335.758L509.004 323.811H515.957C517.618 323.811 519.211 323.151 520.386 321.976C521.561 320.801 522.221 319.208 522.221 317.547V304.6C522.221 303.778 522.059 302.964 521.744 302.205C521.429 301.446 520.967 300.756 520.385 300.176C519.803 299.595 519.113 299.135 518.353 298.822C517.593 298.508 516.779 298.348 515.957 298.35Z" fill="white" stroke="#263238" stroke-linecap="round" stroke-linejoin="round"/>
<path d="M464.171 311.729H439.034C437.465 311.729 435.961 312.351 434.853 313.46C433.744 314.569 433.121 316.073 433.121 317.642V329.873C433.121 331.441 433.744 332.945 434.853 334.054C435.961 335.163 437.465 335.786 439.034 335.786H445.608L452.466 347.058L457.596 335.786H464.171C465.739 335.786 467.243 335.163 468.352 334.054C469.461 332.945 470.084 331.441 470.084 329.873V317.642C470.084 316.073 469.461 314.569 468.352 313.46C467.243 312.351 465.739 311.729 464.171 311.729Z" fill="white" stroke="#263238" stroke-linecap="round" stroke-linejoin="round"/>
<path d="M448.2 320.869V322.34C448.2 324.149 447.336 325.135 445.5 325.135H444.65V329.401H442.868V318.061H445.5C447.296 318.061 448.2 319.046 448.2 320.869ZM444.704 319.681V323.515H445.5C446.067 323.515 446.364 323.258 446.364 322.448V320.747C446.364 319.937 446.067 319.681 445.5 319.681H444.704Z" fill="#263238"/>
<path d="M450.9 329.401H449.118V318.061H450.9V322.921H452.925V318.061H454.734V329.401H452.925V324.541H450.9V329.401Z" fill="#263238"/>
<path d="M461.268 320.869V322.34C461.268 324.149 460.404 325.135 458.568 325.135H457.731V329.401H455.949V318.061H458.568C460.35 318.061 461.268 319.046 461.268 320.869ZM457.772 319.681V323.515H458.609C459.176 323.515 459.486 323.258 459.486 322.448V320.747C459.486 319.937 459.176 319.681 458.609 319.681H457.772Z" fill="#263238"/>
<path d="M498.839 312.767V314.279C498.839 316.088 497.934 317.128 496.139 317.128C494.343 317.128 493.439 316.088 493.439 314.279V308.38C493.439 306.571 494.343 305.531 496.139 305.531C497.934 305.531 498.839 306.571 498.839 308.38V309.487H497.151V308.272C497.151 307.462 496.8 307.151 496.233 307.151C495.666 307.151 495.315 307.462 495.315 308.272V314.387C495.315 315.197 495.666 315.494 496.233 315.494C496.8 315.494 497.151 315.197 497.151 314.387V312.767H498.839Z" fill="#263238"/>
<path d="M503.118 310.703H505.292V311.958H503.118V314.186H501.849V311.958H499.689V310.703H501.849V308.516H503.118V310.703Z" fill="#263238"/>
<path d="M509.531 310.703H511.65V311.958H509.477V314.186H508.221V311.958H506.048V310.703H508.221V308.516H509.477L509.531 310.703Z" fill="#263238"/>
<path d="M530.969 350.567V348.839L538.191 346.139V347.894L533.25 349.649L538.205 351.417V353.172L530.969 350.567Z" fill="#263238"/>
<path d="M545.292 341.955H547.385L541.35 357.453H539.244L545.292 341.955Z" fill="#263238"/>
<path d="M548.384 353.227V351.472L553.338 349.703L548.384 347.935V346.18L555.606 348.88V350.608L548.384 353.227Z" fill="#263238"/>
</svg>
