<svg width="50" height="50" viewBox="0 0 50 50" fill="none" xmlns="http://www.w3.org/2000/svg">
<path d="M41.9077 29.5089C41.6969 28.8742 41.1465 28.4328 40.4324 28.3262C40.0976 28.2766 39.7108 28.2964 39.257 28.3906C38.4636 28.5543 37.8734 28.6163 37.4444 28.6287C39.0661 25.9011 40.3852 22.7942 41.1465 19.8683C42.3739 15.1397 41.7168 12.9849 40.9506 12.008C38.9223 9.4292 35.9592 8.04311 32.3886 8.00095C30.4842 7.97864 28.8105 8.35305 27.9377 8.62085C27.1244 8.47951 26.2516 8.39769 25.3366 8.38281C23.6182 8.35553 22.0982 8.72995 20.8014 9.49615C20.0823 9.25315 18.9318 8.91344 17.6003 8.69524C14.4685 8.18444 11.9468 8.58366 10.102 9.88048C7.86539 11.4501 6.8314 14.1801 7.02233 17.9912C7.08184 19.2013 7.76373 22.8835 8.83491 26.3747C9.44985 28.3807 10.1069 30.047 10.7864 31.329C11.7484 33.144 12.7799 34.2127 13.9354 34.5971C14.5851 34.8128 15.7629 34.964 17.0002 33.9375C17.1589 34.1259 17.3672 34.3144 17.6449 34.488C17.9995 34.7111 18.4309 34.8921 18.8624 34.9988C20.4171 35.3856 21.8726 35.2889 23.1149 34.7458C23.1223 34.9665 23.1273 35.1773 23.1322 35.3583C23.1422 35.6534 23.1496 35.941 23.1595 36.2113C23.2339 38.0338 23.3579 39.4521 23.7273 40.4439C23.7497 40.4985 23.7769 40.5828 23.8042 40.6696C23.9877 41.23 24.2976 42.1722 25.0812 42.9086C25.8945 43.6699 26.8764 43.903 27.774 43.903C28.2253 43.903 28.6568 43.8459 29.0337 43.7641C30.3801 43.479 31.9075 43.0401 33.0134 41.473C34.0598 39.9926 34.5681 37.7635 34.6599 34.2474C34.6723 34.1483 34.6822 34.054 34.6921 33.9623C34.6995 33.9028 34.707 33.8408 34.7144 33.7763L34.9624 33.7986L35.0244 33.8036C36.3956 33.8656 38.0718 33.5779 39.1008 33.1019C39.9141 32.725 42.5202 31.3562 41.9077 29.5089Z" fill="black"/>
<path d="M39.5645 29.8648C35.4881 30.7029 35.2079 29.3292 35.2079 29.3292C39.51 22.974 41.3101 14.9104 39.7579 12.9366C35.5228 7.55092 28.1906 10.0975 28.0691 10.1644L28.0295 10.1719C27.2236 10.0057 26.3235 9.90653 25.3093 9.88918C23.4645 9.85942 22.066 10.3702 21.0048 11.1711C21.0048 11.1711 7.9274 5.81025 8.5349 17.9131C8.66384 20.4894 12.2444 37.3978 16.5142 32.2898C18.0739 30.4227 19.5815 28.8432 19.5815 28.8432C20.3303 29.3391 21.2279 29.592 22.1677 29.5003L22.2396 29.4383C22.2173 29.6714 22.2272 29.897 22.2694 30.1673C21.1684 31.3897 21.4933 31.603 19.2939 32.0542C17.0697 32.5105 18.3764 33.3213 19.2294 33.5346C20.2634 33.7924 22.6587 34.1569 24.2754 31.903L24.2109 32.1609C24.6399 32.5055 24.9448 34.395 24.8928 36.1084C24.8432 37.8243 24.8085 38.9996 25.1482 39.9195C25.4879 40.8394 25.8251 42.9049 28.7163 42.29C31.1314 41.7742 32.3836 40.4402 32.5572 38.2136C32.6812 36.6316 32.9614 36.8647 32.9787 35.4513L33.2019 34.7793C33.4622 32.6345 33.244 31.9427 34.7318 32.265L35.0938 32.2972C36.1873 32.3468 37.623 32.1212 38.4636 31.7319C40.2762 30.8938 41.3498 29.4978 39.562 29.8648H39.5645Z" fill="#336791"/>
<path d="M21.7713 19.067C21.4043 19.0149 21.072 19.0621 20.9034 19.1885C20.8067 19.2604 20.7794 19.3447 20.772 19.3993C20.7497 19.5505 20.8563 19.7167 20.9208 19.8035C21.1043 20.0465 21.3745 20.2151 21.6423 20.2498C21.682 20.2572 21.7192 20.2597 21.7564 20.2597C22.2027 20.2597 22.6069 19.915 22.6416 19.6596C22.6862 19.3423 22.2201 19.129 21.7713 19.067Z" fill="white"/>
<path d="M33.9386 19.0784C33.9039 18.828 33.4576 18.7586 33.0336 18.8156C32.6096 18.8751 32.2004 19.0635 32.2327 19.314C32.26 19.5099 32.6145 19.8421 33.0336 19.8421C33.0683 19.8421 33.103 19.8397 33.1402 19.8347C33.4179 19.795 33.6237 19.619 33.7204 19.5173C33.8692 19.3636 33.9535 19.19 33.9386 19.0784Z" fill="white"/>
<path d="M40.9186 29.773C40.7649 29.3069 40.264 29.1556 39.4334 29.3267C36.9662 29.8325 36.081 29.4829 35.7909 29.2697C37.7101 26.3611 39.2871 22.8475 40.1376 19.567C40.5418 18.0148 40.7649 16.5717 40.7823 15.3963C40.8021 14.107 40.5814 13.1573 40.1252 12.5795C38.2903 10.2437 35.595 8.99155 32.3318 8.95684C30.0878 8.93204 28.1909 9.50235 27.8239 9.66352C27.0528 9.47259 26.2072 9.35357 25.2898 9.3387C23.6061 9.31142 22.1506 9.71311 20.9455 10.5314C20.4199 10.338 19.0685 9.87429 17.4121 9.60897C14.5532 9.15273 12.2794 9.49987 10.6577 10.643C8.72115 12.0067 7.8285 14.4467 8.00207 17.8908C8.0591 19.0513 8.72363 22.6169 9.7725 26.0313C11.1512 30.5268 12.6488 33.0734 14.2258 33.5965C14.4118 33.6561 14.6251 33.7007 14.8581 33.7007C15.4334 33.7007 16.1401 33.4428 16.874 32.5626C18.0915 31.1046 19.2297 29.8821 19.6512 29.4358C20.2711 29.7681 20.953 29.954 21.6473 29.9714C21.6497 29.9912 21.6497 30.0086 21.6522 30.0259C21.5134 30.1896 21.3993 30.3359 21.3001 30.4599C20.8166 31.0698 20.7174 31.1963 19.1627 31.5137C18.7213 31.6054 17.5485 31.846 17.5311 32.6642C17.5113 33.5594 18.9172 33.9338 19.0784 33.9734C19.6363 34.1123 20.1744 34.1817 20.6877 34.1817C21.9349 34.1817 23.0334 33.7751 23.9111 32.9841C23.8839 36.1728 24.0178 39.317 24.4021 40.2741C24.717 41.0576 25.4857 42.9719 27.9181 42.9719C28.2752 42.9719 28.6695 42.9322 29.1009 42.838C31.6375 42.2974 32.741 41.1816 33.1674 38.7194C33.3956 37.4052 33.7873 34.2636 33.9708 32.5799C34.3601 32.6989 34.861 32.756 35.4016 32.756C36.5298 32.756 37.8316 32.5179 38.6473 32.1385C39.5648 31.717 41.2187 30.6756 40.9186 29.773ZM34.8759 18.3892C34.866 18.8876 34.7965 19.3389 34.7246 19.81C34.6478 20.3159 34.5659 20.839 34.5461 21.4763C34.5238 22.0937 34.6031 22.7384 34.6775 23.3608C34.8288 24.6179 34.985 25.9123 34.3824 27.1918C34.2882 27.0256 34.1965 26.8446 34.1146 26.6438C34.0403 26.4628 33.8766 26.1726 33.651 25.771C32.7757 24.2063 30.7226 20.5415 31.7739 19.0463C32.0863 18.6 32.8798 18.1437 34.8759 18.3892ZM32.4558 9.96355C35.3817 10.028 37.6927 11.1166 39.3317 13.1994C40.5864 14.7963 39.2028 22.0615 35.2007 28.3299C35.161 28.2803 35.1214 28.2307 35.0792 28.1786C35.0619 28.1563 35.0445 28.1365 35.0271 28.1142C36.0636 26.4156 35.8603 24.732 35.6793 23.2418C35.6074 22.6293 35.5355 22.0516 35.5553 21.5085C35.5726 20.9333 35.6495 20.4398 35.7239 19.9613C35.8156 19.3736 35.9074 18.7661 35.8826 18.047C35.9 17.9726 35.9074 17.8834 35.8975 17.7792C35.833 17.0899 35.042 15.0318 33.4352 13.1672C32.555 12.1481 31.2706 11.0075 29.5175 10.2388C30.2713 10.0826 31.3028 9.93876 32.4558 9.96355ZM16.0955 31.9203C15.2871 32.8874 14.7292 32.7014 14.5457 32.6419C13.3481 32.2452 11.962 29.7284 10.7371 25.7387C9.67827 22.2846 9.05838 18.8132 9.00878 17.8412C8.85505 14.7616 9.60637 12.6167 11.2404 11.4637C13.8985 9.58666 18.2701 10.7099 20.0281 11.2802C20.0033 11.305 19.976 11.3273 19.9512 11.3521C17.0675 14.2508 17.1369 19.2 17.1443 19.5025C17.1443 19.6191 17.1542 19.7827 17.1666 20.0109C17.2162 20.844 17.308 22.3938 17.0625 24.1493C16.8319 25.7784 17.3377 27.3753 18.4486 28.5258C18.5626 28.6448 18.6817 28.7564 18.8056 28.863C18.3122 29.3887 17.2385 30.5541 16.0955 31.9203ZM19.1776 27.829C18.2825 26.9016 17.8758 25.6098 18.0618 24.2882C18.3221 22.4334 18.2254 20.8192 18.1758 19.9514C18.1684 19.8299 18.161 19.7232 18.1585 19.6389C18.5775 19.2695 20.5314 18.228 21.9225 18.5454C22.5573 18.6892 22.9441 19.1207 23.1053 19.8596C23.9384 23.6931 23.2144 25.2899 22.6366 26.5743C22.5151 26.8372 22.4035 27.0876 22.3044 27.3455L22.2324 27.5463C22.0415 28.0522 21.8655 28.5208 21.7564 28.9671C20.8042 28.9647 19.8793 28.5605 19.1776 27.829ZM19.3239 32.999C19.0462 32.9295 18.7957 32.8105 18.6494 32.7113C18.7709 32.6543 18.9891 32.575 19.366 32.4981C21.196 32.1237 21.4786 31.8608 22.0936 31.0798C22.2349 30.9012 22.3936 30.7004 22.6168 30.4549V30.4524C22.949 30.083 23.0978 30.1474 23.3731 30.259C23.5937 30.3508 23.8119 30.6285 23.8987 30.9335C23.9409 31.0773 23.988 31.35 23.8343 31.5633C22.5474 33.356 20.6703 33.3362 19.3239 32.999ZM28.8902 41.8561C26.6536 42.3322 25.8601 41.199 25.3394 39.8997C25.0021 39.0616 24.836 35.2827 24.955 31.112C24.955 31.0574 24.9476 31.0029 24.9327 30.9508C24.9178 30.8541 24.898 30.7574 24.8683 30.6558C24.6947 30.0507 24.2707 29.5424 23.7599 29.3316C23.5565 29.2473 23.1846 29.0936 22.7358 29.2077C22.8325 28.8184 22.9962 28.3745 23.1772 27.8984L23.2516 27.6976C23.3383 27.4695 23.4425 27.2339 23.5565 26.986C24.164 25.642 24.9947 23.8022 24.0921 19.6488C23.7549 18.0917 22.6242 17.3304 20.9133 17.509C19.8868 17.6131 18.947 18.0272 18.4783 18.2627C18.3767 18.3123 18.2849 18.3619 18.1981 18.409C18.3296 16.8419 18.823 13.9111 20.6728 12.0563C21.8357 10.8884 23.383 10.3132 25.2724 10.3429C28.9918 10.4049 31.3772 12.3043 32.7211 13.8863C33.884 15.25 34.5114 16.6237 34.7618 17.3651C32.8773 17.1742 31.5954 17.5437 30.9457 18.4686C29.5299 20.4795 31.7169 24.3849 32.7682 26.2594C32.9616 26.6016 33.1278 26.8992 33.1823 27.0281C33.522 27.8513 33.9659 28.4018 34.2907 28.806C34.3899 28.93 34.4866 29.049 34.5585 29.1531C33.9882 29.3168 32.9616 29.6961 33.0559 31.5881C32.979 32.5353 32.4434 36.9787 32.1707 38.5508C31.8111 40.6237 31.0449 41.3949 28.8902 41.8561ZM38.2209 31.2285C37.6382 31.4988 36.6612 31.6997 35.7338 31.7443C34.7073 31.7914 34.1866 31.6302 34.0651 31.5286C34.0055 30.3508 34.4469 30.2268 34.9131 30.0978C34.985 30.078 35.0594 30.0557 35.1263 30.0334C35.171 30.0681 35.2181 30.1028 35.2677 30.135C36.0934 30.6781 37.5638 30.7351 39.6367 30.3086C39.6441 30.3086 39.6516 30.3061 39.659 30.3061C39.3788 30.5665 38.9027 30.9136 38.2209 31.2285Z" fill="white"/>
</svg>
