<svg width="50" height="50" viewBox="0 0 50 50" fill="none" xmlns="http://www.w3.org/2000/svg">
<path d="M43.9992 30.9997C43.9992 30.4234 42.4738 29.9565 40.5893 29.9565C38.9499 29.9565 37.5855 30.3103 37.2571 30.7807C34.0127 29.2481 30.7674 27.7155 27.5229 26.1819C26.3938 25.6481 25.1046 25.6535 23.9782 26.1946C20.5239 27.8566 17.0695 29.5186 13.6152 31.1806C12.8335 31.0666 11.8899 30.9988 10.872 30.9988C8.17862 30.9997 6 31.4665 6 32.0428V35.1733C6 35.2031 6.02986 35.2312 6.04071 35.2601C5.90862 35.7622 6.10405 36.3503 6.62789 36.5973C11.7316 39.0085 16.8343 41.4187 21.938 43.8299C23.2336 44.4424 24.7137 44.4369 26.0057 43.8154C31.8341 41.0107 37.6624 38.2069 43.4917 35.4022C43.9296 35.1914 44.0807 34.691 43.9522 34.2739C43.973 34.226 43.9992 34.1789 43.9992 34.1292V30.9997Z" fill="#B71C1C"/>
<path d="M21.938 39.9037C16.8344 37.622 11.7316 35.3402 6.62797 33.0584C5.79379 32.6857 5.79018 31.4959 6.62163 31.1168C12.4075 28.4822 18.1924 25.8476 23.9782 23.213C25.1037 22.7 26.3939 22.6955 27.523 23.2003C32.8438 25.5798 38.1655 27.9584 43.4863 30.3379C44.1685 30.6428 44.1721 31.6172 43.4918 31.9266C37.6634 34.5811 31.835 37.2356 26.0058 39.8892C24.7138 40.4773 23.2336 40.4828 21.938 39.9037Z" fill="#E53935"/>
<path d="M43.9992 24.0861C43.9992 23.5098 42.4738 23.0429 40.5893 23.0429C38.9499 23.0429 37.5855 23.3967 37.2571 23.8672C34.0127 22.3345 30.7674 20.8019 27.5229 19.2683C26.3938 18.7345 25.1046 18.74 23.9782 19.281C20.5239 20.943 17.0695 22.605 13.6152 24.267C12.8335 24.1531 11.8899 24.0852 10.872 24.0852C8.17862 24.0861 6 24.5539 6 25.1302V28.2606C6 28.2904 6.02986 28.3185 6.04071 28.3474C5.90862 28.8496 6.10405 29.4377 6.62789 29.6847C11.7316 32.0958 16.8343 34.506 21.938 36.9172C23.2336 37.5297 24.7137 37.5243 26.0057 36.9027C31.8341 34.098 37.6624 31.2942 43.4917 28.4895C43.9296 28.2787 44.0807 27.7784 43.9522 27.3613C43.973 27.3133 43.9992 27.2663 43.9992 27.2165V24.0861Z" fill="#B71C1C"/>
<path d="M21.938 32.9911C16.8344 30.7094 11.7316 28.4276 6.62797 26.1458C5.79379 25.7731 5.79018 24.5833 6.62163 24.2042C12.4075 21.5696 18.1924 18.935 23.9782 16.3004C25.1037 15.7874 26.3939 15.7829 27.523 16.2877C32.8438 18.6672 38.1655 21.0458 43.4863 23.4253C44.1685 23.7302 44.1721 24.7046 43.4918 25.014C37.6634 27.6685 31.835 30.323 26.0058 32.9766C24.7138 33.5656 23.2336 33.5711 21.938 32.9911Z" fill="#E53935"/>
<path d="M43.9992 17.1752C43.9992 16.5989 42.4738 16.132 40.5893 16.132C38.9499 16.132 37.5855 16.4858 37.2571 16.9563C34.0127 15.4236 30.7674 13.891 27.5229 12.3575C26.3938 11.8237 25.1046 11.8291 23.9782 12.3701C20.5239 14.0321 17.0695 15.6941 13.6152 17.3562C12.8335 17.2422 11.8899 17.1743 10.872 17.1743C8.17862 17.1752 6 17.6421 6 18.2184V21.3488C6 21.3787 6.02986 21.4067 6.04071 21.4357C5.90862 21.9378 6.10405 22.5259 6.62789 22.7729C11.7316 25.184 16.8343 27.5942 21.938 30.0054C23.2336 30.6179 24.7137 30.6125 26.0057 29.9909C31.8341 27.1862 37.6624 24.3824 43.4917 21.5777C43.9296 21.3669 44.0807 20.8666 43.9522 20.4495C43.973 20.4015 43.9992 20.3545 43.9992 20.3047V17.1752Z" fill="#B71C1C"/>
<path d="M21.9381 26.0788C16.8344 23.797 11.7317 21.5152 6.628 19.2335C5.79382 18.8607 5.79021 17.671 6.62167 17.2919C12.4075 14.6573 18.1924 12.0227 23.9783 9.38805C25.1038 8.87506 26.3939 8.87054 27.5231 9.37538C32.8439 11.7549 38.1656 14.1334 43.4864 16.5129C44.1685 16.8178 44.1722 17.7922 43.4918 18.1016C37.6634 20.7562 31.8351 23.4107 26.0058 26.0643C24.7138 26.6533 23.2337 26.6578 21.9381 26.0788Z" fill="#E53935"/>
<path d="M20.2479 17.8127C20.246 18.7555 17.7489 19.6738 15.64 19.7C13.4514 19.7272 10.8693 18.8016 10.8611 17.8444C10.853 16.8845 13.4324 15.8892 15.6662 15.9128C17.777 15.9345 20.2506 16.8736 20.2479 17.8127Z" fill="white"/>
<path d="M18.7006 21.1886C20.8657 22.1132 23.0298 23.0388 25.1949 23.9634C26.1485 22.552 27.1021 21.1406 28.0557 19.7292C24.937 20.216 21.8193 20.7028 18.7006 21.1886Z" fill="white"/>
<path d="M23.0635 13.3199C22.0673 13.6827 21.0703 14.0446 20.0742 14.4074C21.4376 14.5268 22.802 14.6462 24.1654 14.7647C24.5997 15.4849 25.0331 16.2051 25.4674 16.9244C25.7343 16.2711 26.0012 15.6179 26.2681 14.9647C27.4316 14.8742 28.5951 14.7837 29.7586 14.6933C28.8565 14.3142 27.9545 13.9342 27.0525 13.5542C27.2823 13.0041 27.5121 12.454 27.7419 11.903C26.8643 12.1654 25.9876 12.4278 25.11 12.6902C24.1419 12.3084 23.1738 11.9275 22.2058 11.5457C22.4917 12.1374 22.7776 12.7291 23.0635 13.3199Z" fill="white"/>
<path d="M27.9553 17.7037C30.01 16.884 32.0655 16.0634 34.1202 15.2437C35.8953 15.9982 37.6704 16.7528 39.4455 17.5073C37.4533 18.2999 35.462 19.0924 33.4697 19.8859C31.6322 19.1576 29.7937 18.4311 27.9553 17.7037Z" fill="#B71C1C"/>
<path d="M34.1213 15.301C34.1168 16.745 34.1123 18.1881 34.1077 19.632C35.8874 18.9236 37.667 18.2161 39.4466 17.5077C37.6715 16.7721 35.8964 16.0366 34.1213 15.301Z" fill="#A01C1C"/>
</svg>
