<?xml version="1.0" encoding="utf-8"?>
<!-- Generator: Adobe Illustrator 19.0.0, SVG Export Plug-In . SVG Version: 6.00 Build 0)  -->
<svg version="1.1" id="Layer_5" xmlns="http://www.w3.org/2000/svg" xmlns:xlink="http://www.w3.org/1999/xlink" x="0px" y="0px"
	 viewBox="-219 86.1 171.3 621.9" style="enable-background:new -219 86.1 171.3 621.9;" xml:space="preserve">
<style type="text/css">
	.st0{fill:#E6E4ED;stroke:#283653;stroke-width:3;stroke-linejoin:round;stroke-miterlimit:10;}
	.st1{fill:none;stroke:#283653;stroke-width:3;stroke-linecap:round;stroke-linejoin:round;stroke-miterlimit:10;}
	.st2{opacity:0.15;fill:#2F2442;enable-background:new    ;}
	.st3{fill:#00C73C;stroke:#283653;stroke-width:3;stroke-linejoin:round;stroke-miterlimit:10;}
	.st4{fill:url(#SVGID_1_);stroke:#283653;stroke-width:3;stroke-linejoin:round;stroke-miterlimit:10;}
	.st5{fill:url(#SVGID_2_);stroke:#283653;stroke-width:3;stroke-linejoin:round;stroke-miterlimit:10;}
	.st6{fill:none;stroke:#283653;stroke-width:3;stroke-miterlimit:10;}
	.st7{fill:none;stroke:#283653;stroke-width:3;stroke-linejoin:round;stroke-miterlimit:10;}
	.st8{fill:#283653;stroke:#283653;stroke-width:3;stroke-linejoin:round;stroke-miterlimit:10;}
	.st9{fill:url(#SVGID_3_);}
	.st10{fill:url(#SVGID_4_);}
	.st11{fill:url(#SVGID_5_);}
	.st12{fill:#EDC0B2;stroke:#2F2442;stroke-width:3;stroke-linejoin:round;stroke-miterlimit:10;}
	.st13{fill:#F26688;stroke:#2F2442;stroke-width:3;stroke-linejoin:round;stroke-miterlimit:10;}
	.st14{fill:#EF3752;stroke:#2F2442;stroke-width:3;stroke-linejoin:round;stroke-miterlimit:10;}
	.st15{fill:#F7F7F7;stroke:#283653;stroke-width:2;stroke-miterlimit:10;}
	.st16{fill:#05AA21;}
	.st17{font-family:'Calibri-BoldItalic';}
	.st18{font-size:37.9565px;}
</style>
<path class="st0" d="M-119.3,367h-28v10.5l-3,5.3c0,2.1,1.7,3.8,3.8,3.8h26.5c2.1,0,3.8-1.7,3.8-3.8l-3-5.3V367H-119.3z"/>
<g>
	<path class="st0" d="M-71.2,389.9v-7.3h-19.3v7.3l-3,5.3c0,2.1,1.7,3.8,3.8,3.8h17.9c2.1,0,3.8-1.7,3.8-3.8L-71.2,389.9z"/>
	<line class="st1" x1="-90.5" y1="389.9" x2="-71.2" y2="389.9"/>
</g>
<g>
	<path class="st0" d="M-176.2,389.9v-7.3h-19.3v7.3l-3,5.3c0,2.1,1.7,3.8,3.8,3.8h17.9c2.1,0,3.8-1.7,3.8-3.8L-176.2,389.9z"/>
	<line class="st1" x1="-195.5" y1="389.9" x2="-176.2" y2="389.9"/>
</g>
<rect x="-90.5" y="382.6" class="st2" width="19.3" height="7.3"/>
<rect x="-195.5" y="382.6" class="st2" width="19.3" height="7.3"/>
<rect x="-147.3" y="367" class="st2" width="28" height="6"/>
<path class="st0" d="M-98.3,359.7l6.1-198.1c0-35.6-29.9-74-41.1-74s-44.1,41.4-44.1,77.1l9.1,195H-98.3z"/>
<path class="st2" d="M-92.3,159.3l-6,200.4h-14v-211c0-25.6-11.4-45.5-24.6-60.2c1.3-0.6,2.5-0.9,3.6-0.9
	C-122.1,87.6-92.3,123.7-92.3,159.3z"/>
<path class="st3" d="M-111.3,366.9l5.6-132.8c0-26.2-16.8-63.2-27.6-63.2s-27.4,36.8-27.4,62.9l5.4,133H-111.3z"/>
<path class="st2" d="M-107.5,228.1l-3.8,138.8h-9.7V223.1c0-26.4-7.4-44.5-15.8-51.2c1.5-1.1,2-1,3.6-1
	C-122.5,170.9-107.5,201.9-107.5,228.1z"/>
<linearGradient id="SVGID_1_" gradientUnits="userSpaceOnUse" x1="-80.75" y1="148.7" x2="-80.75" y2="382.6">
	<stop  offset="0" style="stop-color:#335998"/>
	<stop  offset="1" style="stop-color:#283653"/>
</linearGradient>
<path class="st4" d="M-80.8,148.7c-9.7,0-17.5,26.3-17.5,46.7v181.3c0,3.3,2.7,5.9,6,5.9h23.1c3.3,0,6-2.7,6-5.9V195.4
	C-63.3,175-71.2,148.7-80.8,148.7z"/>
<path class="st2" d="M-62.9,195.4v181.3c0,3.3-2.7,6-6,6h-2.5V191.2c0-17.4-5.3-32.4-10.3-42.4c0.4-0.1,0.9-0.2,1.3-0.2
	C-70.7,148.7-62.9,175-62.9,195.4z"/>
<linearGradient id="SVGID_2_" gradientUnits="userSpaceOnUse" x1="-185.75" y1="148.7" x2="-185.75" y2="382.6">
	<stop  offset="0" style="stop-color:#335998"/>
	<stop  offset="1" style="stop-color:#283653"/>
</linearGradient>
<path class="st5" d="M-185.8,148.7c-9.7,0-17.5,26.3-17.5,46.7v181.3c0,3.3,2.7,5.9,6,5.9h23.1c3.3,0,6-2.7,6-5.9V195.4
	C-168.3,175-176.2,148.7-185.8,148.7z"/>
<path class="st2" d="M-168.3,195.4v181.3c0,3.3-2.7,6-6,6h-2.5V191.2c0-17.4-5.3-32.4-10.3-42.4c0.4-0.1,0.9-0.2,1.3-0.2
	C-176.2,148.7-168.3,175-168.3,195.4z"/>
<g>
	<line class="st6" x1="-203.3" y1="191.2" x2="-168.5" y2="191.2"/>
	<line class="st6" x1="-203.3" y1="227" x2="-168.5" y2="227"/>
	<line class="st6" x1="-203.3" y1="262.8" x2="-168.5" y2="262.8"/>
	<line class="st6" x1="-203.3" y1="298.5" x2="-168.5" y2="298.5"/>
</g>
<g>
	<line class="st6" x1="-98.6" y1="191.2" x2="-63.8" y2="191.2"/>
	<line class="st6" x1="-98.6" y1="227" x2="-63.8" y2="227"/>
	<line class="st6" x1="-98.6" y1="262.8" x2="-63.8" y2="262.8"/>
	<line class="st6" x1="-98.6" y1="298.5" x2="-63.8" y2="298.5"/>
</g>
<path class="st0" d="M-160.7,236.3l5.3,130.5l-57.1-12.7c-0.1,0-0.2,0-0.3-0.1c-2.7-0.7-4.7-3.2-4.7-6.1v-17.1
	C-217.5,301.3-178.6,312-160.7,236.3z"/>
<path class="st7" d="M-207.7,355.3v-19.4c0-25.2,27.9-20.5,48.5-64.4"/>
<path class="st0" d="M-105.8,237.5l-5.5,129.4l57.1-12.7c0.1,0,0.2,0,0.3-0.1c2.7-0.7,4.7-3.2,4.7-6.1v-17.1
	C-49.2,301.3-87.9,313.2-105.8,237.5z"/>
<path class="st2" d="M-98.6,261.5l-5.1,103.8l-7.6,1.7l5.1-129.5C-104,246.7-101.4,254.6-98.6,261.5z"/>
<path class="st7" d="M-59,355.3v-19.4c0-25.2-27.9-20.5-48.5-64.4"/>
<path class="st1" d="M-122.3,208.1c-2.2-2.6-6.3-4.3-11-4.3s-8.8,1.7-11,4.3"/>
<path class="st8" d="M-129,344.3c0,10.2-4.3,31.4-4.3,31.4s-4.3-21.2-4.3-31.4c0-10.2,1.1-13.2,4.3-13.2S-129,334.1-129,344.3z"/>
<linearGradient id="SVGID_3_" gradientUnits="userSpaceOnUse" x1="-133.35" y1="871.9" x2="-133.35" y2="576.4" gradientTransform="matrix(1 0 0 1 0 -168)">
	<stop  offset="0.3745" style="stop-color:#EDC0B2;stop-opacity:0"/>
	<stop  offset="1" style="stop-color:#EDC0B2"/>
</linearGradient>
<rect x="-155.4" y="408.4" class="st9" width="44.1" height="295.5"/>
<linearGradient id="SVGID_4_" gradientUnits="userSpaceOnUse" x1="-185.7" y1="875.9" x2="-185.7" y2="580.4" gradientTransform="matrix(1 0 0 1 0 -168)">
	<stop  offset="0.3745" style="stop-color:#EDC0B2;stop-opacity:0"/>
	<stop  offset="1" style="stop-color:#EDC0B2"/>
</linearGradient>
<rect x="-196.7" y="412.4" class="st10" width="22" height="295.5"/>
<linearGradient id="SVGID_5_" gradientUnits="userSpaceOnUse" x1="-80.2" y1="875.9" x2="-80.2" y2="580.4" gradientTransform="matrix(1 0 0 1 0 -168)">
	<stop  offset="0.3745" style="stop-color:#EDC0B2;stop-opacity:0"/>
	<stop  offset="1" style="stop-color:#EDC0B2"/>
</linearGradient>
<rect x="-91.2" y="412.4" class="st11" width="22" height="295.5"/>
<path class="st12" d="M-133.3,392.3c-20.1,0-22.8,9.1-22.8,17.6c0,25.9,22.8,48.6,22.8,48.6s22.8-22.7,22.8-48.6
	C-110.5,401.4-113.2,392.3-133.3,392.3z"/>
<path class="st13" d="M-133.3,392.3c-14.2,0-16.1,6.4-16.1,12.4c0,18.3,16.1,27.9,16.1,27.9s16.1-9.6,16.1-27.9
	C-117.2,398.7-119.2,392.3-133.3,392.3z"/>
<path class="st14" d="M-133.3,398c-7.4,0-8.4,3.3-8.4,6.4c0,9.5,8.4,14.5,8.4,14.5s8.4-5,8.4-14.5C-125,401.3-126,398-133.3,398z"/>
<g>
	<path class="st13" d="M-80.8,404.7c-9.8,0-11.1,4.5-11.1,8.6c0,12.6,11.1,19.3,11.1,19.3s11.1-6.7,11.1-19.3
		C-69.7,409.1-71,404.7-80.8,404.7z"/>
</g>
<g>
	<path class="st13" d="M-185.8,404.7c-9.8,0-11.1,4.5-11.1,8.6c0,12.6,11.1,19.3,11.1,19.3s11.1-6.7,11.1-19.3
		C-174.7,409.1-176,404.7-185.8,404.7z"/>
</g>
<circle class="st15" cx="-133.4" cy="231" r="18.8"/>
<text id="e" transform="matrix(1 0 0 1 -144.166 239.6463)" class="st16 st17 st18">e</text>
<circle id="Ellipse_1_copy" class="st16" cx="-126.6" cy="236.4" r="1.7"/>
</svg>
