<svg width="65" height="47" viewBox="0 0 65 47" fill="none" xmlns="http://www.w3.org/2000/svg">
<mask id="path-1-outside-1_113_3905" maskUnits="userSpaceOnUse" x="0" y="-0.408203" width="65" height="48" fill="black">
<rect fill="white" y="-0.408203" width="65" height="48"/>
<path d="M63.9201 40.7038L62.9505 34.7582C62.9172 31.8469 61.01 29.3663 58.2747 28.6883L56.3244 27.9303C56.3117 27.9244 56.2985 27.9194 56.285 27.9156L53.6727 26.9103L53.5103 26.8475C53.1627 26.7142 52.8625 26.4808 52.6476 26.1768C52.4327 25.8727 52.3129 25.5118 52.3032 25.1396V25.0732L52.3118 25.067C53.3195 24.2061 54.1302 23.1385 54.6891 21.9367C55.4421 21.7337 56.0734 21.2095 56.5053 20.4159C56.8314 19.7936 57.0305 19.1126 57.091 18.4127C57.1087 18.1097 57.0546 17.8068 56.9329 17.5288C56.8112 17.2508 56.6255 17.0055 56.3908 16.8131C56.173 11.6697 52.5764 7.56609 48.1885 7.56609C46.1816 7.56609 44.3125 8.44465 42.8655 9.91383C41.56 4.53545 37.3912 0.591797 32.4631 0.591797C27.6188 0.591797 23.3909 4.49607 22.0521 9.93475C20.6125 8.45818 18.7373 7.56609 16.6898 7.56609C12.6083 7.56609 9.10391 11.2009 8.53913 16.0219C8.50221 16.3406 8.4776 16.663 8.46653 16.9853C8.15645 17.3274 7.80331 17.8467 7.8513 18.4102C7.96696 19.9335 8.73969 21.495 10.2163 21.8875C10.7983 23.1492 11.6636 24.2596 12.7449 25.1323L12.7621 25.1458C12.7567 25.5062 12.6384 25.8558 12.4238 26.1454C12.2093 26.435 11.9093 26.65 11.5661 26.7602L11.5267 26.7737L8.92426 27.624L8.84305 27.6498L6.56423 28.3942C3.88426 29.1128 2.01272 31.5898 1.98442 34.4518L1.01112 40.7112C0.99049 40.8428 0.998632 40.9773 1.03499 41.1055C1.07134 41.2336 1.13504 41.3524 1.2217 41.4535C1.30836 41.5547 1.41592 41.6359 1.53698 41.6915C1.65803 41.7471 1.78969 41.7758 1.9229 41.7756H12.0423L11.4898 45.3439C11.4696 45.4755 11.478 45.6098 11.5146 45.7378C11.5511 45.8658 11.6148 45.9843 11.7014 46.0854C11.788 46.1865 11.8953 46.2676 12.0162 46.3234C12.137 46.3791 12.2685 46.4081 12.4016 46.4083H52.5985C52.7323 46.4083 52.8644 46.3792 52.9859 46.323C53.1073 46.2668 53.215 46.1849 53.3016 46.083C53.3882 45.981 53.4516 45.8615 53.4874 45.7326C53.5233 45.6037 53.5306 45.4686 53.5091 45.3366L52.9258 41.7756H63.0157C63.1494 41.7753 63.2814 41.7461 63.4027 41.6898C63.524 41.6336 63.6317 41.5517 63.7182 41.4498C63.8048 41.3479 63.8682 41.2285 63.9041 41.0997C63.9401 40.9709 63.9476 40.8358 63.9262 40.7038H63.9201ZM52.708 29.8413L53.6001 28.8655L54.4036 29.1744L51.0223 32.9753C50.718 32.4583 50.3573 31.9767 49.9469 31.5393C51.0078 31.2422 51.9643 30.654 52.708 29.8413ZM48.2783 29.9163C48.0837 29.913 47.8896 29.8953 47.6976 29.8634C47.2213 29.6272 46.7225 29.4397 46.2087 29.3036C45.8538 29.0821 45.535 28.8074 45.2637 28.489L44.7715 27.9082C45.3304 27.4594 45.7412 26.8527 45.9503 26.1671C46.6688 26.4837 47.444 26.6511 48.2291 26.6593C49.0502 26.6555 49.8615 26.4807 50.6113 26.1462C50.8275 26.8897 51.2706 27.547 51.8787 28.0263L51.3521 28.6022C50.9628 29.0277 50.487 29.3652 49.9567 29.5918C49.4264 29.8185 48.8537 29.9291 48.2771 29.9163H48.2783ZM48.1873 9.41795C50.9017 9.41795 53.2248 11.5356 54.1391 14.5084C52.5801 13.0121 50.962 12.0918 48.3091 12.2677C46.7243 12.1693 45.3141 12.8829 44.5156 13.588C44.3586 13.7263 44.2129 13.8769 44.08 14.0384C43.9083 13.6254 43.6328 13.2639 43.2802 12.9888C43.2728 12.7784 43.2617 12.5704 43.247 12.3625C44.4356 10.5598 46.2235 9.41795 48.1861 9.41795H48.1873ZM43.4697 17.5637C43.5398 17.4345 43.6026 17.3053 43.6604 17.1773L44.4134 16.8487C44.6725 16.735 44.8946 16.5511 45.0546 16.3178C45.2146 16.0845 45.3062 15.8111 45.3191 15.5285C45.3609 15.147 46.6652 13.9916 48.2365 14.1122C48.2828 14.1153 48.3293 14.1153 48.3756 14.1122C51.2229 13.9042 52.4422 15.2737 54.6509 17.7605L54.7063 17.8221C54.8072 17.9722 54.9496 18.0898 55.1161 18.1604C55.1665 18.1929 55.2104 18.2346 55.2453 18.2835C55.2012 18.7188 55.076 19.142 54.8761 19.5312C54.5685 20.0947 54.2277 20.1722 53.9988 20.1821C53.8216 20.1893 53.6503 20.2475 53.5054 20.3496C53.3605 20.4518 53.2481 20.5935 53.1818 20.7579C52.7369 21.873 52.0299 22.8644 51.1207 23.6483C51.0555 23.7037 50.9866 23.7578 50.9165 23.8095C50.8482 23.8463 50.7853 23.8922 50.7294 23.9461C50.0001 24.4833 49.1224 24.7816 48.2168 24.8C47.4146 24.8 46.5655 24.5109 45.7559 23.9621C45.7196 23.9317 45.6805 23.9049 45.639 23.8821C45.5504 23.8194 45.463 23.7591 45.3794 23.6877C44.4112 22.9024 43.6633 21.8794 43.2088 20.7186C43.1433 20.5519 43.0307 20.4079 42.8847 20.3041C42.7388 20.2003 42.5658 20.1413 42.3869 20.1341C41.9304 20.1156 41.6486 19.7711 41.464 19.3835C42.2897 19.0956 42.9701 18.4779 43.4684 17.5637H43.4697ZM24.5463 30.107L24.1772 29.6653L23.7859 29.1891L25.3855 28.6649L25.5528 28.6096L26.8153 30.0861C27.9134 31.3768 29.407 32.2688 31.0641 32.6234C31.5496 32.728 32.0441 32.7849 32.5406 32.7932H32.6785C33.0302 32.7956 33.3817 32.7743 33.7305 32.7292C35.51 32.4836 37.1478 31.624 38.3608 30.299L38.4407 30.2116C38.4777 30.1993 38.5146 30.1895 38.5515 30.1796L38.6044 30.1636L40.3357 29.5976L41.1207 29.3417L41.7913 29.1227L41.4751 29.4783L40.8328 30.2018L34.9893 36.7725L32.7277 39.3159L32.4151 39.6678L32.2133 39.4217L29.8828 36.5916L24.5463 30.107ZM27.4551 24.0876C27.4589 24.6573 27.2812 25.2133 26.9478 25.6752C26.6144 26.1372 26.1427 26.481 25.6008 26.6568L25.5565 26.6716L23.3872 27.3803L22.1789 26.9152L22.0165 26.8525C21.6691 26.719 21.3691 26.4854 21.1544 26.1814C20.9398 25.8774 20.8201 25.5166 20.8106 25.1446V25.0794L20.8192 25.072C21.8261 24.2106 22.6364 23.1431 23.1952 21.9417C23.7902 21.7734 24.3129 21.413 24.6816 20.9167C25.381 22.0418 26.266 23.0403 27.2989 23.8698C27.3481 23.9092 27.3985 23.9486 27.4502 23.9928L27.4551 24.0876ZM29.1975 25.0646C30.2313 25.5752 31.3668 25.8465 32.5197 25.8582C33.7227 25.8501 34.9075 25.5633 35.981 25.0203C36.2276 26.2356 36.9428 27.3049 37.9719 27.9968L37.4047 28.612L37.0085 29.0464C36.8181 29.2553 36.6124 29.4498 36.3932 29.6284L36.3047 29.6998C36.2099 29.7748 36.1127 29.8462 36.0143 29.9126C35.965 29.9471 35.9158 29.9803 35.8654 30.0123C35.6534 30.1504 35.4322 30.2737 35.2034 30.3814L35.089 30.4344L34.9733 30.4848C34.9327 30.5033 34.8908 30.5205 34.8502 30.5365C33.7153 30.9869 32.4678 31.0703 31.283 30.775C30.0983 30.4796 29.0358 29.8205 28.2451 28.8901L27.3321 27.8381C28.2848 27.1862 28.9508 26.1934 29.1925 25.0646H29.1975ZM41.1761 27.3828L39.5765 26.7676C39.0429 26.5635 38.5819 26.2056 38.252 25.7392C37.9221 25.2728 37.7381 24.719 37.7234 24.1479L37.716 23.9018L37.8514 23.7898C38.8062 22.9808 39.6269 22.0256 40.2828 20.9597C40.6456 21.4168 41.1447 21.7461 41.7076 21.8998C42.2905 23.161 43.1557 24.2712 44.2363 25.1446L44.2547 25.1593C44.2481 25.5193 44.1293 25.8682 43.9149 26.1574C43.7005 26.4466 43.4012 26.6616 43.0587 26.7725L43.0193 26.786L41.1761 27.3828ZM23.5484 12.0093C23.5484 11.997 23.5484 11.9847 23.5484 11.9724C24.2005 6.53742 28.0236 2.44365 32.4557 2.44365C36.648 2.44365 40.1782 5.99848 41.1625 10.7887C38.8099 8.31545 36.5827 6.70969 32.6206 6.97424C30.5596 6.83643 28.725 7.76297 27.6877 8.68336C26.9063 9.37611 26.4474 10.1599 26.3895 10.8982L23.6234 12.1041L23.5275 12.1459C23.5373 12.1053 23.5422 12.0573 23.5484 12.0093ZM22.7141 14.7643C22.7363 14.7311 22.7633 14.6967 22.7916 14.661C22.8679 14.5699 22.9565 14.4715 23.0464 14.3841L24.3507 13.8144L27.2004 12.5716C27.496 12.4416 27.7493 12.2316 27.932 11.9652C28.1146 11.6989 28.2192 11.3869 28.234 11.0643C28.234 10.9154 28.3903 10.5401 28.9169 10.0726C29.6478 9.4241 31.037 8.70797 32.553 8.82732C32.5993 8.8304 32.6457 8.8304 32.692 8.82732C36.4068 8.55539 38.1356 10.1501 40.7873 13.1044L41.4911 13.8944L41.5858 14.0002C41.692 14.1644 41.8475 14.2907 42.03 14.3607C42.1011 14.4089 42.1674 14.4637 42.2281 14.5244C42.2737 14.5627 42.3107 14.61 42.337 14.6634C42.3633 14.7168 42.3781 14.775 42.3807 14.8345C42.3516 15.1616 42.2906 15.4851 42.1986 15.8004C42.1122 16.1058 41.9934 16.4012 41.8442 16.6814L41.8233 16.7183C41.2721 17.7027 40.6002 17.7298 40.3763 17.7396C40.2671 17.7445 40.1596 17.7686 40.0588 17.811C39.9461 17.8575 39.8439 17.9261 39.7581 18.0127C39.6723 18.0994 39.6047 18.2023 39.5592 18.3155C39.5018 18.4582 39.4403 18.5997 39.3747 18.74C38.7508 20.135 37.8264 21.3749 36.6676 22.3711C36.568 22.4535 36.4646 22.536 36.3588 22.6172C36.2724 22.6606 36.1939 22.718 36.1262 22.787C34.9881 23.5905 33.7404 24.0175 32.5111 24.0175C31.352 24.0175 30.1314 23.6028 28.9735 22.8153C28.9253 22.7739 28.8729 22.7377 28.8173 22.707H28.8099C28.6868 22.6196 28.5638 22.5286 28.4493 22.4363C27.2018 21.4268 26.213 20.1344 25.5651 18.6662C25.5061 18.5333 25.4507 18.3991 25.3978 18.265C25.3471 18.1349 25.2673 18.0181 25.1645 17.9236C25.0617 17.8291 24.9386 17.7595 24.8047 17.7199C24.7309 17.6968 24.6543 17.6835 24.5771 17.6805C23.776 17.6473 23.2986 17.0653 23.0156 16.4328C22.8106 15.9493 22.6787 15.438 22.6243 14.9157C22.6495 14.8626 22.6796 14.8119 22.7141 14.7643ZM16.6848 9.42164C18.6942 9.42164 20.4894 10.5807 21.6559 12.3895C21.6338 12.659 21.6202 12.9309 21.6129 13.2016C21.5378 13.2804 21.4578 13.3678 21.3803 13.4637C20.1584 12.6024 18.7643 12.141 16.8066 12.2714C15.2218 12.173 13.8117 12.8866 13.0143 13.5917C12.4422 14.0987 12.0866 14.6757 11.9955 15.2393L10.4131 15.9259C10.9742 12.1951 13.6283 9.41795 16.6873 9.41795L16.6848 9.42164ZM11.715 20.7247C11.6494 20.5581 11.5368 20.4141 11.3909 20.3103C11.2449 20.2065 11.072 20.1474 10.893 20.1403C9.99846 20.1033 9.7536 18.8113 9.69823 18.4004C9.75863 18.3164 9.8257 18.2374 9.8988 18.1641L12.9134 16.8487C13.1725 16.735 13.3946 16.5511 13.5546 16.3178C13.7146 16.0845 13.8062 15.8111 13.8191 15.5285C13.8609 15.147 15.1664 13.9916 16.7365 14.1122C16.7828 14.1153 16.8293 14.1153 16.8756 14.1122C18.5884 13.9891 19.7056 14.4321 20.8131 15.35C21.0062 16.7565 21.7408 18.7104 23.4832 19.3245C23.4512 19.397 23.418 19.4684 23.3798 19.5373C23.0722 20.1009 22.7326 20.1784 22.5025 20.1882C22.3254 20.1956 22.1541 20.2539 22.0093 20.356C21.8644 20.4581 21.752 20.5998 21.6855 20.7641C21.2405 21.8791 20.5336 22.8705 19.6244 23.6545C19.5592 23.7086 19.4928 23.7615 19.4239 23.8132C19.3537 23.8509 19.2891 23.8981 19.2319 23.9535C18.503 24.4905 17.6257 24.7884 16.7205 24.8062C15.9195 24.8062 15.0692 24.517 14.2596 23.9682C14.2209 23.9363 14.1797 23.9076 14.1365 23.8821C14.0504 23.823 13.9655 23.7591 13.8831 23.6938C12.9157 22.9083 12.1687 21.8853 11.715 20.7247ZM20.3738 28.0202L19.9259 28.5124L18.7914 28.8815C17.9791 29.0954 17.2067 29.439 16.504 29.8991C15.438 29.808 14.451 29.3 13.7575 28.4853L13.2654 27.9045C13.8248 27.4562 14.2357 26.8493 14.4441 26.1634C15.1626 26.4801 15.9379 26.6475 16.723 26.6556C17.544 26.6518 18.3553 26.477 19.1052 26.1425C19.3224 26.8851 19.7659 27.5415 20.3738 28.0202ZM11.5316 28.7166L12.3548 29.6838C13.0136 30.4577 13.8614 31.0482 14.8157 31.3978C14.4501 31.8277 14.1289 32.2936 13.8572 32.7882L10.7207 28.9824L11.5316 28.7166ZM13.0783 34.7521C12.9071 35.4242 12.8179 36.1146 12.8125 36.8082L12.329 39.9299H8.73231V35.5076C8.73231 35.2628 8.63508 35.0281 8.46201 34.855C8.28895 34.682 8.05422 34.5847 7.80946 34.5847C7.5647 34.5847 7.32997 34.682 7.15691 34.855C6.98384 35.0281 6.88661 35.2628 6.88661 35.5076V39.9299H2.99956L3.81536 34.6647C3.82276 34.6179 3.82646 34.5706 3.82643 34.5232C3.82643 32.4622 5.15288 30.6743 7.05149 30.1784L7.1044 30.1624L8.83567 29.5964L13.0783 34.7508V34.7521ZM45.5246 44.5564V38.6416C45.5246 38.3968 45.4273 38.1621 45.2543 37.989C45.0812 37.816 44.8465 37.7187 44.6017 37.7187C44.3569 37.7187 44.1222 37.816 43.9492 37.989C43.7761 38.1621 43.6789 38.3968 43.6789 38.6416V44.5564H21.3212V38.2183C21.3212 37.9735 21.224 37.7388 21.0509 37.5657C20.8779 37.3927 20.6431 37.2954 20.3984 37.2954C20.1536 37.2954 19.9189 37.3927 19.7458 37.5657C19.5728 37.7388 19.4755 37.9735 19.4755 38.2183V44.5564H13.4795L13.9101 41.7756L14.1968 39.9299L14.6472 37.0223C14.6541 36.9759 14.6574 36.929 14.657 36.882C14.657 36.8119 14.657 36.743 14.657 36.6741C14.6819 35.8798 14.8486 35.0964 15.1492 34.3608C15.5601 33.3394 16.2292 32.4423 17.0909 31.7571C17.7391 31.2431 18.487 30.8693 19.2873 30.6595C19.3057 30.6595 19.323 30.6497 19.3414 30.6448L20.941 30.123L21.9106 29.8056L22.1223 30.0627L23.3048 31.4987L30.2397 39.925L31.6732 41.6673C31.6815 41.6781 31.6906 41.6884 31.7002 41.6981C31.7138 41.7128 31.7273 41.7276 31.7421 41.7411C31.7514 41.7515 31.7617 41.761 31.7728 41.7694C31.795 41.7891 31.8171 41.8076 31.8405 41.8248L31.9082 41.8703L31.918 41.8765L31.9857 41.9122C32.0206 41.9294 32.0568 41.9438 32.094 41.9552C32.1128 41.9627 32.1322 41.9688 32.1518 41.9737L32.2035 41.9848H32.2146H32.2318L32.2982 41.9934H32.3807C32.4078 41.9934 32.4361 41.9934 32.4631 41.9934C32.4784 41.9925 32.4937 41.9905 32.5087 41.9872L32.5505 41.9811L32.5886 41.9725C32.6116 41.9675 32.635 41.9614 32.6588 41.954C32.6822 41.9466 32.7043 41.938 32.7277 41.9282H32.7388C32.7519 41.923 32.7647 41.9168 32.7769 41.9097C32.7991 41.9003 32.8205 41.8892 32.8409 41.8765C32.8609 41.8653 32.8802 41.853 32.8987 41.8396L32.9307 41.8162C32.9413 41.8103 32.9512 41.8033 32.9602 41.7953L32.991 41.7682C33.0131 41.7473 33.0353 41.7251 33.0562 41.7018C33.0567 41.6997 33.0567 41.6976 33.0562 41.6956L33.0808 41.6673L34.6288 39.9274L38.3657 35.7254L39.3784 34.5872L41.9993 31.6341L43.2408 30.2387L43.2949 30.1772L45.4495 31.0065L45.4667 31.0127C45.9677 31.2906 46.5066 31.4937 47.0663 31.6156C48.2225 32.2552 49.1448 33.2465 49.6995 34.4457C50.1131 35.3406 50.3276 36.3145 50.3283 37.3004C50.3287 37.3498 50.3328 37.3992 50.3406 37.448L50.7442 39.925L51.0457 41.7707L51.4985 44.5515L45.5246 44.5564ZM58.0458 39.9299V35.8201C58.0458 35.5754 57.9486 35.3406 57.7755 35.1676C57.6024 34.9945 57.3677 34.8973 57.123 34.8973C56.8782 34.8973 56.6435 34.9945 56.4704 35.1676C56.2973 35.3406 56.2001 35.5754 56.2001 35.8201V39.9299H52.6317L52.1912 37.2228C52.1848 36.4157 52.0656 35.6135 51.8369 34.8394L56.2481 29.8831L57.6754 30.4319C57.7156 30.4467 57.7567 30.4591 57.7985 30.4688C59.7488 30.9315 61.1121 32.7267 61.1121 34.8357C61.1122 34.8852 61.1159 34.9345 61.1232 34.9834L61.9304 39.9299H58.0458Z"/>
</mask>
<path d="M63.9201 40.7038L62.9505 34.7582C62.9172 31.8469 61.01 29.3663 58.2747 28.6883L56.3244 27.9303C56.3117 27.9244 56.2985 27.9194 56.285 27.9156L53.6727 26.9103L53.5103 26.8475C53.1627 26.7142 52.8625 26.4808 52.6476 26.1768C52.4327 25.8727 52.3129 25.5118 52.3032 25.1396V25.0732L52.3118 25.067C53.3195 24.2061 54.1302 23.1385 54.6891 21.9367C55.4421 21.7337 56.0734 21.2095 56.5053 20.4159C56.8314 19.7936 57.0305 19.1126 57.091 18.4127C57.1087 18.1097 57.0546 17.8068 56.9329 17.5288C56.8112 17.2508 56.6255 17.0055 56.3908 16.8131C56.173 11.6697 52.5764 7.56609 48.1885 7.56609C46.1816 7.56609 44.3125 8.44465 42.8655 9.91383C41.56 4.53545 37.3912 0.591797 32.4631 0.591797C27.6188 0.591797 23.3909 4.49607 22.0521 9.93475C20.6125 8.45818 18.7373 7.56609 16.6898 7.56609C12.6083 7.56609 9.10391 11.2009 8.53913 16.0219C8.50221 16.3406 8.4776 16.663 8.46653 16.9853C8.15645 17.3274 7.80331 17.8467 7.8513 18.4102C7.96696 19.9335 8.73969 21.495 10.2163 21.8875C10.7983 23.1492 11.6636 24.2596 12.7449 25.1323L12.7621 25.1458C12.7567 25.5062 12.6384 25.8558 12.4238 26.1454C12.2093 26.435 11.9093 26.65 11.5661 26.7602L11.5267 26.7737L8.92426 27.624L8.84305 27.6498L6.56423 28.3942C3.88426 29.1128 2.01272 31.5898 1.98442 34.4518L1.01112 40.7112C0.99049 40.8428 0.998632 40.9773 1.03499 41.1055C1.07134 41.2336 1.13504 41.3524 1.2217 41.4535C1.30836 41.5547 1.41592 41.6359 1.53698 41.6915C1.65803 41.7471 1.78969 41.7758 1.9229 41.7756H12.0423L11.4898 45.3439C11.4696 45.4755 11.478 45.6098 11.5146 45.7378C11.5511 45.8658 11.6148 45.9843 11.7014 46.0854C11.788 46.1865 11.8953 46.2676 12.0162 46.3234C12.137 46.3791 12.2685 46.4081 12.4016 46.4083H52.5985C52.7323 46.4083 52.8644 46.3792 52.9859 46.323C53.1073 46.2668 53.215 46.1849 53.3016 46.083C53.3882 45.981 53.4516 45.8615 53.4874 45.7326C53.5233 45.6037 53.5306 45.4686 53.5091 45.3366L52.9258 41.7756H63.0157C63.1494 41.7753 63.2814 41.7461 63.4027 41.6898C63.524 41.6336 63.6317 41.5517 63.7182 41.4498C63.8048 41.3479 63.8682 41.2285 63.9041 41.0997C63.9401 40.9709 63.9476 40.8358 63.9262 40.7038H63.9201ZM52.708 29.8413L53.6001 28.8655L54.4036 29.1744L51.0223 32.9753C50.718 32.4583 50.3573 31.9767 49.9469 31.5393C51.0078 31.2422 51.9643 30.654 52.708 29.8413ZM48.2783 29.9163C48.0837 29.913 47.8896 29.8953 47.6976 29.8634C47.2213 29.6272 46.7225 29.4397 46.2087 29.3036C45.8538 29.0821 45.535 28.8074 45.2637 28.489L44.7715 27.9082C45.3304 27.4594 45.7412 26.8527 45.9503 26.1671C46.6688 26.4837 47.444 26.6511 48.2291 26.6593C49.0502 26.6555 49.8615 26.4807 50.6113 26.1462C50.8275 26.8897 51.2706 27.547 51.8787 28.0263L51.3521 28.6022C50.9628 29.0277 50.487 29.3652 49.9567 29.5918C49.4264 29.8185 48.8537 29.9291 48.2771 29.9163H48.2783ZM48.1873 9.41795C50.9017 9.41795 53.2248 11.5356 54.1391 14.5084C52.5801 13.0121 50.962 12.0918 48.3091 12.2677C46.7243 12.1693 45.3141 12.8829 44.5156 13.588C44.3586 13.7263 44.2129 13.8769 44.08 14.0384C43.9083 13.6254 43.6328 13.2639 43.2802 12.9888C43.2728 12.7784 43.2617 12.5704 43.247 12.3625C44.4356 10.5598 46.2235 9.41795 48.1861 9.41795H48.1873ZM43.4697 17.5637C43.5398 17.4345 43.6026 17.3053 43.6604 17.1773L44.4134 16.8487C44.6725 16.735 44.8946 16.5511 45.0546 16.3178C45.2146 16.0845 45.3062 15.8111 45.3191 15.5285C45.3609 15.147 46.6652 13.9916 48.2365 14.1122C48.2828 14.1153 48.3293 14.1153 48.3756 14.1122C51.2229 13.9042 52.4422 15.2737 54.6509 17.7605L54.7063 17.8221C54.8072 17.9722 54.9496 18.0898 55.1161 18.1604C55.1665 18.1929 55.2104 18.2346 55.2453 18.2835C55.2012 18.7188 55.076 19.142 54.8761 19.5312C54.5685 20.0947 54.2277 20.1722 53.9988 20.1821C53.8216 20.1893 53.6503 20.2475 53.5054 20.3496C53.3605 20.4518 53.2481 20.5935 53.1818 20.7579C52.7369 21.873 52.0299 22.8644 51.1207 23.6483C51.0555 23.7037 50.9866 23.7578 50.9165 23.8095C50.8482 23.8463 50.7853 23.8922 50.7294 23.9461C50.0001 24.4833 49.1224 24.7816 48.2168 24.8C47.4146 24.8 46.5655 24.5109 45.7559 23.9621C45.7196 23.9317 45.6805 23.9049 45.639 23.8821C45.5504 23.8194 45.463 23.7591 45.3794 23.6877C44.4112 22.9024 43.6633 21.8794 43.2088 20.7186C43.1433 20.5519 43.0307 20.4079 42.8847 20.3041C42.7388 20.2003 42.5658 20.1413 42.3869 20.1341C41.9304 20.1156 41.6486 19.7711 41.464 19.3835C42.2897 19.0956 42.9701 18.4779 43.4684 17.5637H43.4697ZM24.5463 30.107L24.1772 29.6653L23.7859 29.1891L25.3855 28.6649L25.5528 28.6096L26.8153 30.0861C27.9134 31.3768 29.407 32.2688 31.0641 32.6234C31.5496 32.728 32.0441 32.7849 32.5406 32.7932H32.6785C33.0302 32.7956 33.3817 32.7743 33.7305 32.7292C35.51 32.4836 37.1478 31.624 38.3608 30.299L38.4407 30.2116C38.4777 30.1993 38.5146 30.1895 38.5515 30.1796L38.6044 30.1636L40.3357 29.5976L41.1207 29.3417L41.7913 29.1227L41.4751 29.4783L40.8328 30.2018L34.9893 36.7725L32.7277 39.3159L32.4151 39.6678L32.2133 39.4217L29.8828 36.5916L24.5463 30.107ZM27.4551 24.0876C27.4589 24.6573 27.2812 25.2133 26.9478 25.6752C26.6144 26.1372 26.1427 26.481 25.6008 26.6568L25.5565 26.6716L23.3872 27.3803L22.1789 26.9152L22.0165 26.8525C21.6691 26.719 21.3691 26.4854 21.1544 26.1814C20.9398 25.8774 20.8201 25.5166 20.8106 25.1446V25.0794L20.8192 25.072C21.8261 24.2106 22.6364 23.1431 23.1952 21.9417C23.7902 21.7734 24.3129 21.413 24.6816 20.9167C25.381 22.0418 26.266 23.0403 27.2989 23.8698C27.3481 23.9092 27.3985 23.9486 27.4502 23.9928L27.4551 24.0876ZM29.1975 25.0646C30.2313 25.5752 31.3668 25.8465 32.5197 25.8582C33.7227 25.8501 34.9075 25.5633 35.981 25.0203C36.2276 26.2356 36.9428 27.3049 37.9719 27.9968L37.4047 28.612L37.0085 29.0464C36.8181 29.2553 36.6124 29.4498 36.3932 29.6284L36.3047 29.6998C36.2099 29.7748 36.1127 29.8462 36.0143 29.9126C35.965 29.9471 35.9158 29.9803 35.8654 30.0123C35.6534 30.1504 35.4322 30.2737 35.2034 30.3814L35.089 30.4344L34.9733 30.4848C34.9327 30.5033 34.8908 30.5205 34.8502 30.5365C33.7153 30.9869 32.4678 31.0703 31.283 30.775C30.0983 30.4796 29.0358 29.8205 28.2451 28.8901L27.3321 27.8381C28.2848 27.1862 28.9508 26.1934 29.1925 25.0646H29.1975ZM41.1761 27.3828L39.5765 26.7676C39.0429 26.5635 38.5819 26.2056 38.252 25.7392C37.9221 25.2728 37.7381 24.719 37.7234 24.1479L37.716 23.9018L37.8514 23.7898C38.8062 22.9808 39.6269 22.0256 40.2828 20.9597C40.6456 21.4168 41.1447 21.7461 41.7076 21.8998C42.2905 23.161 43.1557 24.2712 44.2363 25.1446L44.2547 25.1593C44.2481 25.5193 44.1293 25.8682 43.9149 26.1574C43.7005 26.4466 43.4012 26.6616 43.0587 26.7725L43.0193 26.786L41.1761 27.3828ZM23.5484 12.0093C23.5484 11.997 23.5484 11.9847 23.5484 11.9724C24.2005 6.53742 28.0236 2.44365 32.4557 2.44365C36.648 2.44365 40.1782 5.99848 41.1625 10.7887C38.8099 8.31545 36.5827 6.70969 32.6206 6.97424C30.5596 6.83643 28.725 7.76297 27.6877 8.68336C26.9063 9.37611 26.4474 10.1599 26.3895 10.8982L23.6234 12.1041L23.5275 12.1459C23.5373 12.1053 23.5422 12.0573 23.5484 12.0093ZM22.7141 14.7643C22.7363 14.7311 22.7633 14.6967 22.7916 14.661C22.8679 14.5699 22.9565 14.4715 23.0464 14.3841L24.3507 13.8144L27.2004 12.5716C27.496 12.4416 27.7493 12.2316 27.932 11.9652C28.1146 11.6989 28.2192 11.3869 28.234 11.0643C28.234 10.9154 28.3903 10.5401 28.9169 10.0726C29.6478 9.4241 31.037 8.70797 32.553 8.82732C32.5993 8.8304 32.6457 8.8304 32.692 8.82732C36.4068 8.55539 38.1356 10.1501 40.7873 13.1044L41.4911 13.8944L41.5858 14.0002C41.692 14.1644 41.8475 14.2907 42.03 14.3607C42.1011 14.4089 42.1674 14.4637 42.2281 14.5244C42.2737 14.5627 42.3107 14.61 42.337 14.6634C42.3633 14.7168 42.3781 14.775 42.3807 14.8345C42.3516 15.1616 42.2906 15.4851 42.1986 15.8004C42.1122 16.1058 41.9934 16.4012 41.8442 16.6814L41.8233 16.7183C41.2721 17.7027 40.6002 17.7298 40.3763 17.7396C40.2671 17.7445 40.1596 17.7686 40.0588 17.811C39.9461 17.8575 39.8439 17.9261 39.7581 18.0127C39.6723 18.0994 39.6047 18.2023 39.5592 18.3155C39.5018 18.4582 39.4403 18.5997 39.3747 18.74C38.7508 20.135 37.8264 21.3749 36.6676 22.3711C36.568 22.4535 36.4646 22.536 36.3588 22.6172C36.2724 22.6606 36.1939 22.718 36.1262 22.787C34.9881 23.5905 33.7404 24.0175 32.5111 24.0175C31.352 24.0175 30.1314 23.6028 28.9735 22.8153C28.9253 22.7739 28.8729 22.7377 28.8173 22.707H28.8099C28.6868 22.6196 28.5638 22.5286 28.4493 22.4363C27.2018 21.4268 26.213 20.1344 25.5651 18.6662C25.5061 18.5333 25.4507 18.3991 25.3978 18.265C25.3471 18.1349 25.2673 18.0181 25.1645 17.9236C25.0617 17.8291 24.9386 17.7595 24.8047 17.7199C24.7309 17.6968 24.6543 17.6835 24.5771 17.6805C23.776 17.6473 23.2986 17.0653 23.0156 16.4328C22.8106 15.9493 22.6787 15.438 22.6243 14.9157C22.6495 14.8626 22.6796 14.8119 22.7141 14.7643ZM16.6848 9.42164C18.6942 9.42164 20.4894 10.5807 21.6559 12.3895C21.6338 12.659 21.6202 12.9309 21.6129 13.2016C21.5378 13.2804 21.4578 13.3678 21.3803 13.4637C20.1584 12.6024 18.7643 12.141 16.8066 12.2714C15.2218 12.173 13.8117 12.8866 13.0143 13.5917C12.4422 14.0987 12.0866 14.6757 11.9955 15.2393L10.4131 15.9259C10.9742 12.1951 13.6283 9.41795 16.6873 9.41795L16.6848 9.42164ZM11.715 20.7247C11.6494 20.5581 11.5368 20.4141 11.3909 20.3103C11.2449 20.2065 11.072 20.1474 10.893 20.1403C9.99846 20.1033 9.7536 18.8113 9.69823 18.4004C9.75863 18.3164 9.8257 18.2374 9.8988 18.1641L12.9134 16.8487C13.1725 16.735 13.3946 16.5511 13.5546 16.3178C13.7146 16.0845 13.8062 15.8111 13.8191 15.5285C13.8609 15.147 15.1664 13.9916 16.7365 14.1122C16.7828 14.1153 16.8293 14.1153 16.8756 14.1122C18.5884 13.9891 19.7056 14.4321 20.8131 15.35C21.0062 16.7565 21.7408 18.7104 23.4832 19.3245C23.4512 19.397 23.418 19.4684 23.3798 19.5373C23.0722 20.1009 22.7326 20.1784 22.5025 20.1882C22.3254 20.1956 22.1541 20.2539 22.0093 20.356C21.8644 20.4581 21.752 20.5998 21.6855 20.7641C21.2405 21.8791 20.5336 22.8705 19.6244 23.6545C19.5592 23.7086 19.4928 23.7615 19.4239 23.8132C19.3537 23.8509 19.2891 23.8981 19.2319 23.9535C18.503 24.4905 17.6257 24.7884 16.7205 24.8062C15.9195 24.8062 15.0692 24.517 14.2596 23.9682C14.2209 23.9363 14.1797 23.9076 14.1365 23.8821C14.0504 23.823 13.9655 23.7591 13.8831 23.6938C12.9157 22.9083 12.1687 21.8853 11.715 20.7247ZM20.3738 28.0202L19.9259 28.5124L18.7914 28.8815C17.9791 29.0954 17.2067 29.439 16.504 29.8991C15.438 29.808 14.451 29.3 13.7575 28.4853L13.2654 27.9045C13.8248 27.4562 14.2357 26.8493 14.4441 26.1634C15.1626 26.4801 15.9379 26.6475 16.723 26.6556C17.544 26.6518 18.3553 26.477 19.1052 26.1425C19.3224 26.8851 19.7659 27.5415 20.3738 28.0202ZM11.5316 28.7166L12.3548 29.6838C13.0136 30.4577 13.8614 31.0482 14.8157 31.3978C14.4501 31.8277 14.1289 32.2936 13.8572 32.7882L10.7207 28.9824L11.5316 28.7166ZM13.0783 34.7521C12.9071 35.4242 12.8179 36.1146 12.8125 36.8082L12.329 39.9299H8.73231V35.5076C8.73231 35.2628 8.63508 35.0281 8.46201 34.855C8.28895 34.682 8.05422 34.5847 7.80946 34.5847C7.5647 34.5847 7.32997 34.682 7.15691 34.855C6.98384 35.0281 6.88661 35.2628 6.88661 35.5076V39.9299H2.99956L3.81536 34.6647C3.82276 34.6179 3.82646 34.5706 3.82643 34.5232C3.82643 32.4622 5.15288 30.6743 7.05149 30.1784L7.1044 30.1624L8.83567 29.5964L13.0783 34.7508V34.7521ZM45.5246 44.5564V38.6416C45.5246 38.3968 45.4273 38.1621 45.2543 37.989C45.0812 37.816 44.8465 37.7187 44.6017 37.7187C44.3569 37.7187 44.1222 37.816 43.9492 37.989C43.7761 38.1621 43.6789 38.3968 43.6789 38.6416V44.5564H21.3212V38.2183C21.3212 37.9735 21.224 37.7388 21.0509 37.5657C20.8779 37.3927 20.6431 37.2954 20.3984 37.2954C20.1536 37.2954 19.9189 37.3927 19.7458 37.5657C19.5728 37.7388 19.4755 37.9735 19.4755 38.2183V44.5564H13.4795L13.9101 41.7756L14.1968 39.9299L14.6472 37.0223C14.6541 36.9759 14.6574 36.929 14.657 36.882C14.657 36.8119 14.657 36.743 14.657 36.6741C14.6819 35.8798 14.8486 35.0964 15.1492 34.3608C15.5601 33.3394 16.2292 32.4423 17.0909 31.7571C17.7391 31.2431 18.487 30.8693 19.2873 30.6595C19.3057 30.6595 19.323 30.6497 19.3414 30.6448L20.941 30.123L21.9106 29.8056L22.1223 30.0627L23.3048 31.4987L30.2397 39.925L31.6732 41.6673C31.6815 41.6781 31.6906 41.6884 31.7002 41.6981C31.7138 41.7128 31.7273 41.7276 31.7421 41.7411C31.7514 41.7515 31.7617 41.761 31.7728 41.7694C31.795 41.7891 31.8171 41.8076 31.8405 41.8248L31.9082 41.8703L31.918 41.8765L31.9857 41.9122C32.0206 41.9294 32.0568 41.9438 32.094 41.9552C32.1128 41.9627 32.1322 41.9688 32.1518 41.9737L32.2035 41.9848H32.2146H32.2318L32.2982 41.9934H32.3807C32.4078 41.9934 32.4361 41.9934 32.4631 41.9934C32.4784 41.9925 32.4937 41.9905 32.5087 41.9872L32.5505 41.9811L32.5886 41.9725C32.6116 41.9675 32.635 41.9614 32.6588 41.954C32.6822 41.9466 32.7043 41.938 32.7277 41.9282H32.7388C32.7519 41.923 32.7647 41.9168 32.7769 41.9097C32.7991 41.9003 32.8205 41.8892 32.8409 41.8765C32.8609 41.8653 32.8802 41.853 32.8987 41.8396L32.9307 41.8162C32.9413 41.8103 32.9512 41.8033 32.9602 41.7953L32.991 41.7682C33.0131 41.7473 33.0353 41.7251 33.0562 41.7018C33.0567 41.6997 33.0567 41.6976 33.0562 41.6956L33.0808 41.6673L34.6288 39.9274L38.3657 35.7254L39.3784 34.5872L41.9993 31.6341L43.2408 30.2387L43.2949 30.1772L45.4495 31.0065L45.4667 31.0127C45.9677 31.2906 46.5066 31.4937 47.0663 31.6156C48.2225 32.2552 49.1448 33.2465 49.6995 34.4457C50.1131 35.3406 50.3276 36.3145 50.3283 37.3004C50.3287 37.3498 50.3328 37.3992 50.3406 37.448L50.7442 39.925L51.0457 41.7707L51.4985 44.5515L45.5246 44.5564ZM58.0458 39.9299V35.8201C58.0458 35.5754 57.9486 35.3406 57.7755 35.1676C57.6024 34.9945 57.3677 34.8973 57.123 34.8973C56.8782 34.8973 56.6435 34.9945 56.4704 35.1676C56.2973 35.3406 56.2001 35.5754 56.2001 35.8201V39.9299H52.6317L52.1912 37.2228C52.1848 36.4157 52.0656 35.6135 51.8369 34.8394L56.2481 29.8831L57.6754 30.4319C57.7156 30.4467 57.7567 30.4591 57.7985 30.4688C59.7488 30.9315 61.1121 32.7267 61.1121 34.8357C61.1122 34.8852 61.1159 34.9345 61.1232 34.9834L61.9304 39.9299H58.0458Z" fill="#6AADE4"/>
<path d="M63.9201 40.7038L62.9505 34.7582C62.9172 31.8469 61.01 29.3663 58.2747 28.6883L56.3244 27.9303C56.3117 27.9244 56.2985 27.9194 56.285 27.9156L53.6727 26.9103L53.5103 26.8475C53.1627 26.7142 52.8625 26.4808 52.6476 26.1768C52.4327 25.8727 52.3129 25.5118 52.3032 25.1396V25.0732L52.3118 25.067C53.3195 24.2061 54.1302 23.1385 54.6891 21.9367C55.4421 21.7337 56.0734 21.2095 56.5053 20.4159C56.8314 19.7936 57.0305 19.1126 57.091 18.4127C57.1087 18.1097 57.0546 17.8068 56.9329 17.5288C56.8112 17.2508 56.6255 17.0055 56.3908 16.8131C56.173 11.6697 52.5764 7.56609 48.1885 7.56609C46.1816 7.56609 44.3125 8.44465 42.8655 9.91383C41.56 4.53545 37.3912 0.591797 32.4631 0.591797C27.6188 0.591797 23.3909 4.49607 22.0521 9.93475C20.6125 8.45818 18.7373 7.56609 16.6898 7.56609C12.6083 7.56609 9.10391 11.2009 8.53913 16.0219C8.50221 16.3406 8.4776 16.663 8.46653 16.9853C8.15645 17.3274 7.80331 17.8467 7.8513 18.4102C7.96696 19.9335 8.73969 21.495 10.2163 21.8875C10.7983 23.1492 11.6636 24.2596 12.7449 25.1323L12.7621 25.1458C12.7567 25.5062 12.6384 25.8558 12.4238 26.1454C12.2093 26.435 11.9093 26.65 11.5661 26.7602L11.5267 26.7737L8.92426 27.624L8.84305 27.6498L6.56423 28.3942C3.88426 29.1128 2.01272 31.5898 1.98442 34.4518L1.01112 40.7112C0.99049 40.8428 0.998632 40.9773 1.03499 41.1055C1.07134 41.2336 1.13504 41.3524 1.2217 41.4535C1.30836 41.5547 1.41592 41.6359 1.53698 41.6915C1.65803 41.7471 1.78969 41.7758 1.9229 41.7756H12.0423L11.4898 45.3439C11.4696 45.4755 11.478 45.6098 11.5146 45.7378C11.5511 45.8658 11.6148 45.9843 11.7014 46.0854C11.788 46.1865 11.8953 46.2676 12.0162 46.3234C12.137 46.3791 12.2685 46.4081 12.4016 46.4083H52.5985C52.7323 46.4083 52.8644 46.3792 52.9859 46.323C53.1073 46.2668 53.215 46.1849 53.3016 46.083C53.3882 45.981 53.4516 45.8615 53.4874 45.7326C53.5233 45.6037 53.5306 45.4686 53.5091 45.3366L52.9258 41.7756H63.0157C63.1494 41.7753 63.2814 41.7461 63.4027 41.6898C63.524 41.6336 63.6317 41.5517 63.7182 41.4498C63.8048 41.3479 63.8682 41.2285 63.9041 41.0997C63.9401 40.9709 63.9476 40.8358 63.9262 40.7038H63.9201ZM52.708 29.8413L53.6001 28.8655L54.4036 29.1744L51.0223 32.9753C50.718 32.4583 50.3573 31.9767 49.9469 31.5393C51.0078 31.2422 51.9643 30.654 52.708 29.8413ZM48.2783 29.9163C48.0837 29.913 47.8896 29.8953 47.6976 29.8634C47.2213 29.6272 46.7225 29.4397 46.2087 29.3036C45.8538 29.0821 45.535 28.8074 45.2637 28.489L44.7715 27.9082C45.3304 27.4594 45.7412 26.8527 45.9503 26.1671C46.6688 26.4837 47.444 26.6511 48.2291 26.6593C49.0502 26.6555 49.8615 26.4807 50.6113 26.1462C50.8275 26.8897 51.2706 27.547 51.8787 28.0263L51.3521 28.6022C50.9628 29.0277 50.487 29.3652 49.9567 29.5918C49.4264 29.8185 48.8537 29.9291 48.2771 29.9163H48.2783ZM48.1873 9.41795C50.9017 9.41795 53.2248 11.5356 54.1391 14.5084C52.5801 13.0121 50.962 12.0918 48.3091 12.2677C46.7243 12.1693 45.3141 12.8829 44.5156 13.588C44.3586 13.7263 44.2129 13.8769 44.08 14.0384C43.9083 13.6254 43.6328 13.2639 43.2802 12.9888C43.2728 12.7784 43.2617 12.5704 43.247 12.3625C44.4356 10.5598 46.2235 9.41795 48.1861 9.41795H48.1873ZM43.4697 17.5637C43.5398 17.4345 43.6026 17.3053 43.6604 17.1773L44.4134 16.8487C44.6725 16.735 44.8946 16.5511 45.0546 16.3178C45.2146 16.0845 45.3062 15.8111 45.3191 15.5285C45.3609 15.147 46.6652 13.9916 48.2365 14.1122C48.2828 14.1153 48.3293 14.1153 48.3756 14.1122C51.2229 13.9042 52.4422 15.2737 54.6509 17.7605L54.7063 17.8221C54.8072 17.9722 54.9496 18.0898 55.1161 18.1604C55.1665 18.1929 55.2104 18.2346 55.2453 18.2835C55.2012 18.7188 55.076 19.142 54.8761 19.5312C54.5685 20.0947 54.2277 20.1722 53.9988 20.1821C53.8216 20.1893 53.6503 20.2475 53.5054 20.3496C53.3605 20.4518 53.2481 20.5935 53.1818 20.7579C52.7369 21.873 52.0299 22.8644 51.1207 23.6483C51.0555 23.7037 50.9866 23.7578 50.9165 23.8095C50.8482 23.8463 50.7853 23.8922 50.7294 23.9461C50.0001 24.4833 49.1224 24.7816 48.2168 24.8C47.4146 24.8 46.5655 24.5109 45.7559 23.9621C45.7196 23.9317 45.6805 23.9049 45.639 23.8821C45.5504 23.8194 45.463 23.7591 45.3794 23.6877C44.4112 22.9024 43.6633 21.8794 43.2088 20.7186C43.1433 20.5519 43.0307 20.4079 42.8847 20.3041C42.7388 20.2003 42.5658 20.1413 42.3869 20.1341C41.9304 20.1156 41.6486 19.7711 41.464 19.3835C42.2897 19.0956 42.9701 18.4779 43.4684 17.5637H43.4697ZM24.5463 30.107L24.1772 29.6653L23.7859 29.1891L25.3855 28.6649L25.5528 28.6096L26.8153 30.0861C27.9134 31.3768 29.407 32.2688 31.0641 32.6234C31.5496 32.728 32.0441 32.7849 32.5406 32.7932H32.6785C33.0302 32.7956 33.3817 32.7743 33.7305 32.7292C35.51 32.4836 37.1478 31.624 38.3608 30.299L38.4407 30.2116C38.4777 30.1993 38.5146 30.1895 38.5515 30.1796L38.6044 30.1636L40.3357 29.5976L41.1207 29.3417L41.7913 29.1227L41.4751 29.4783L40.8328 30.2018L34.9893 36.7725L32.7277 39.3159L32.4151 39.6678L32.2133 39.4217L29.8828 36.5916L24.5463 30.107ZM27.4551 24.0876C27.4589 24.6573 27.2812 25.2133 26.9478 25.6752C26.6144 26.1372 26.1427 26.481 25.6008 26.6568L25.5565 26.6716L23.3872 27.3803L22.1789 26.9152L22.0165 26.8525C21.6691 26.719 21.3691 26.4854 21.1544 26.1814C20.9398 25.8774 20.8201 25.5166 20.8106 25.1446V25.0794L20.8192 25.072C21.8261 24.2106 22.6364 23.1431 23.1952 21.9417C23.7902 21.7734 24.3129 21.413 24.6816 20.9167C25.381 22.0418 26.266 23.0403 27.2989 23.8698C27.3481 23.9092 27.3985 23.9486 27.4502 23.9928L27.4551 24.0876ZM29.1975 25.0646C30.2313 25.5752 31.3668 25.8465 32.5197 25.8582C33.7227 25.8501 34.9075 25.5633 35.981 25.0203C36.2276 26.2356 36.9428 27.3049 37.9719 27.9968L37.4047 28.612L37.0085 29.0464C36.8181 29.2553 36.6124 29.4498 36.3932 29.6284L36.3047 29.6998C36.2099 29.7748 36.1127 29.8462 36.0143 29.9126C35.965 29.9471 35.9158 29.9803 35.8654 30.0123C35.6534 30.1504 35.4322 30.2737 35.2034 30.3814L35.089 30.4344L34.9733 30.4848C34.9327 30.5033 34.8908 30.5205 34.8502 30.5365C33.7153 30.9869 32.4678 31.0703 31.283 30.775C30.0983 30.4796 29.0358 29.8205 28.2451 28.8901L27.3321 27.8381C28.2848 27.1862 28.9508 26.1934 29.1925 25.0646H29.1975ZM41.1761 27.3828L39.5765 26.7676C39.0429 26.5635 38.5819 26.2056 38.252 25.7392C37.9221 25.2728 37.7381 24.719 37.7234 24.1479L37.716 23.9018L37.8514 23.7898C38.8062 22.9808 39.6269 22.0256 40.2828 20.9597C40.6456 21.4168 41.1447 21.7461 41.7076 21.8998C42.2905 23.161 43.1557 24.2712 44.2363 25.1446L44.2547 25.1593C44.2481 25.5193 44.1293 25.8682 43.9149 26.1574C43.7005 26.4466 43.4012 26.6616 43.0587 26.7725L43.0193 26.786L41.1761 27.3828ZM23.5484 12.0093C23.5484 11.997 23.5484 11.9847 23.5484 11.9724C24.2005 6.53742 28.0236 2.44365 32.4557 2.44365C36.648 2.44365 40.1782 5.99848 41.1625 10.7887C38.8099 8.31545 36.5827 6.70969 32.6206 6.97424C30.5596 6.83643 28.725 7.76297 27.6877 8.68336C26.9063 9.37611 26.4474 10.1599 26.3895 10.8982L23.6234 12.1041L23.5275 12.1459C23.5373 12.1053 23.5422 12.0573 23.5484 12.0093ZM22.7141 14.7643C22.7363 14.7311 22.7633 14.6967 22.7916 14.661C22.8679 14.5699 22.9565 14.4715 23.0464 14.3841L24.3507 13.8144L27.2004 12.5716C27.496 12.4416 27.7493 12.2316 27.932 11.9652C28.1146 11.6989 28.2192 11.3869 28.234 11.0643C28.234 10.9154 28.3903 10.5401 28.9169 10.0726C29.6478 9.4241 31.037 8.70797 32.553 8.82732C32.5993 8.8304 32.6457 8.8304 32.692 8.82732C36.4068 8.55539 38.1356 10.1501 40.7873 13.1044L41.4911 13.8944L41.5858 14.0002C41.692 14.1644 41.8475 14.2907 42.03 14.3607C42.1011 14.4089 42.1674 14.4637 42.2281 14.5244C42.2737 14.5627 42.3107 14.61 42.337 14.6634C42.3633 14.7168 42.3781 14.775 42.3807 14.8345C42.3516 15.1616 42.2906 15.4851 42.1986 15.8004C42.1122 16.1058 41.9934 16.4012 41.8442 16.6814L41.8233 16.7183C41.2721 17.7027 40.6002 17.7298 40.3763 17.7396C40.2671 17.7445 40.1596 17.7686 40.0588 17.811C39.9461 17.8575 39.8439 17.9261 39.7581 18.0127C39.6723 18.0994 39.6047 18.2023 39.5592 18.3155C39.5018 18.4582 39.4403 18.5997 39.3747 18.74C38.7508 20.135 37.8264 21.3749 36.6676 22.3711C36.568 22.4535 36.4646 22.536 36.3588 22.6172C36.2724 22.6606 36.1939 22.718 36.1262 22.787C34.9881 23.5905 33.7404 24.0175 32.5111 24.0175C31.352 24.0175 30.1314 23.6028 28.9735 22.8153C28.9253 22.7739 28.8729 22.7377 28.8173 22.707H28.8099C28.6868 22.6196 28.5638 22.5286 28.4493 22.4363C27.2018 21.4268 26.213 20.1344 25.5651 18.6662C25.5061 18.5333 25.4507 18.3991 25.3978 18.265C25.3471 18.1349 25.2673 18.0181 25.1645 17.9236C25.0617 17.8291 24.9386 17.7595 24.8047 17.7199C24.7309 17.6968 24.6543 17.6835 24.5771 17.6805C23.776 17.6473 23.2986 17.0653 23.0156 16.4328C22.8106 15.9493 22.6787 15.438 22.6243 14.9157C22.6495 14.8626 22.6796 14.8119 22.7141 14.7643ZM16.6848 9.42164C18.6942 9.42164 20.4894 10.5807 21.6559 12.3895C21.6338 12.659 21.6202 12.9309 21.6129 13.2016C21.5378 13.2804 21.4578 13.3678 21.3803 13.4637C20.1584 12.6024 18.7643 12.141 16.8066 12.2714C15.2218 12.173 13.8117 12.8866 13.0143 13.5917C12.4422 14.0987 12.0866 14.6757 11.9955 15.2393L10.4131 15.9259C10.9742 12.1951 13.6283 9.41795 16.6873 9.41795L16.6848 9.42164ZM11.715 20.7247C11.6494 20.5581 11.5368 20.4141 11.3909 20.3103C11.2449 20.2065 11.072 20.1474 10.893 20.1403C9.99846 20.1033 9.7536 18.8113 9.69823 18.4004C9.75863 18.3164 9.8257 18.2374 9.8988 18.1641L12.9134 16.8487C13.1725 16.735 13.3946 16.5511 13.5546 16.3178C13.7146 16.0845 13.8062 15.8111 13.8191 15.5285C13.8609 15.147 15.1664 13.9916 16.7365 14.1122C16.7828 14.1153 16.8293 14.1153 16.8756 14.1122C18.5884 13.9891 19.7056 14.4321 20.8131 15.35C21.0062 16.7565 21.7408 18.7104 23.4832 19.3245C23.4512 19.397 23.418 19.4684 23.3798 19.5373C23.0722 20.1009 22.7326 20.1784 22.5025 20.1882C22.3254 20.1956 22.1541 20.2539 22.0093 20.356C21.8644 20.4581 21.752 20.5998 21.6855 20.7641C21.2405 21.8791 20.5336 22.8705 19.6244 23.6545C19.5592 23.7086 19.4928 23.7615 19.4239 23.8132C19.3537 23.8509 19.2891 23.8981 19.2319 23.9535C18.503 24.4905 17.6257 24.7884 16.7205 24.8062C15.9195 24.8062 15.0692 24.517 14.2596 23.9682C14.2209 23.9363 14.1797 23.9076 14.1365 23.8821C14.0504 23.823 13.9655 23.7591 13.8831 23.6938C12.9157 22.9083 12.1687 21.8853 11.715 20.7247ZM20.3738 28.0202L19.9259 28.5124L18.7914 28.8815C17.9791 29.0954 17.2067 29.439 16.504 29.8991C15.438 29.808 14.451 29.3 13.7575 28.4853L13.2654 27.9045C13.8248 27.4562 14.2357 26.8493 14.4441 26.1634C15.1626 26.4801 15.9379 26.6475 16.723 26.6556C17.544 26.6518 18.3553 26.477 19.1052 26.1425C19.3224 26.8851 19.7659 27.5415 20.3738 28.0202ZM11.5316 28.7166L12.3548 29.6838C13.0136 30.4577 13.8614 31.0482 14.8157 31.3978C14.4501 31.8277 14.1289 32.2936 13.8572 32.7882L10.7207 28.9824L11.5316 28.7166ZM13.0783 34.7521C12.9071 35.4242 12.8179 36.1146 12.8125 36.8082L12.329 39.9299H8.73231V35.5076C8.73231 35.2628 8.63508 35.0281 8.46201 34.855C8.28895 34.682 8.05422 34.5847 7.80946 34.5847C7.5647 34.5847 7.32997 34.682 7.15691 34.855C6.98384 35.0281 6.88661 35.2628 6.88661 35.5076V39.9299H2.99956L3.81536 34.6647C3.82276 34.6179 3.82646 34.5706 3.82643 34.5232C3.82643 32.4622 5.15288 30.6743 7.05149 30.1784L7.1044 30.1624L8.83567 29.5964L13.0783 34.7508V34.7521ZM45.5246 44.5564V38.6416C45.5246 38.3968 45.4273 38.1621 45.2543 37.989C45.0812 37.816 44.8465 37.7187 44.6017 37.7187C44.3569 37.7187 44.1222 37.816 43.9492 37.989C43.7761 38.1621 43.6789 38.3968 43.6789 38.6416V44.5564H21.3212V38.2183C21.3212 37.9735 21.224 37.7388 21.0509 37.5657C20.8779 37.3927 20.6431 37.2954 20.3984 37.2954C20.1536 37.2954 19.9189 37.3927 19.7458 37.5657C19.5728 37.7388 19.4755 37.9735 19.4755 38.2183V44.5564H13.4795L13.9101 41.7756L14.1968 39.9299L14.6472 37.0223C14.6541 36.9759 14.6574 36.929 14.657 36.882C14.657 36.8119 14.657 36.743 14.657 36.6741C14.6819 35.8798 14.8486 35.0964 15.1492 34.3608C15.5601 33.3394 16.2292 32.4423 17.0909 31.7571C17.7391 31.2431 18.487 30.8693 19.2873 30.6595C19.3057 30.6595 19.323 30.6497 19.3414 30.6448L20.941 30.123L21.9106 29.8056L22.1223 30.0627L23.3048 31.4987L30.2397 39.925L31.6732 41.6673C31.6815 41.6781 31.6906 41.6884 31.7002 41.6981C31.7138 41.7128 31.7273 41.7276 31.7421 41.7411C31.7514 41.7515 31.7617 41.761 31.7728 41.7694C31.795 41.7891 31.8171 41.8076 31.8405 41.8248L31.9082 41.8703L31.918 41.8765L31.9857 41.9122C32.0206 41.9294 32.0568 41.9438 32.094 41.9552C32.1128 41.9627 32.1322 41.9688 32.1518 41.9737L32.2035 41.9848H32.2146H32.2318L32.2982 41.9934H32.3807C32.4078 41.9934 32.4361 41.9934 32.4631 41.9934C32.4784 41.9925 32.4937 41.9905 32.5087 41.9872L32.5505 41.9811L32.5886 41.9725C32.6116 41.9675 32.635 41.9614 32.6588 41.954C32.6822 41.9466 32.7043 41.938 32.7277 41.9282H32.7388C32.7519 41.923 32.7647 41.9168 32.7769 41.9097C32.7991 41.9003 32.8205 41.8892 32.8409 41.8765C32.8609 41.8653 32.8802 41.853 32.8987 41.8396L32.9307 41.8162C32.9413 41.8103 32.9512 41.8033 32.9602 41.7953L32.991 41.7682C33.0131 41.7473 33.0353 41.7251 33.0562 41.7018C33.0567 41.6997 33.0567 41.6976 33.0562 41.6956L33.0808 41.6673L34.6288 39.9274L38.3657 35.7254L39.3784 34.5872L41.9993 31.6341L43.2408 30.2387L43.2949 30.1772L45.4495 31.0065L45.4667 31.0127C45.9677 31.2906 46.5066 31.4937 47.0663 31.6156C48.2225 32.2552 49.1448 33.2465 49.6995 34.4457C50.1131 35.3406 50.3276 36.3145 50.3283 37.3004C50.3287 37.3498 50.3328 37.3992 50.3406 37.448L50.7442 39.925L51.0457 41.7707L51.4985 44.5515L45.5246 44.5564ZM58.0458 39.9299V35.8201C58.0458 35.5754 57.9486 35.3406 57.7755 35.1676C57.6024 34.9945 57.3677 34.8973 57.123 34.8973C56.8782 34.8973 56.6435 34.9945 56.4704 35.1676C56.2973 35.3406 56.2001 35.5754 56.2001 35.8201V39.9299H52.6317L52.1912 37.2228C52.1848 36.4157 52.0656 35.6135 51.8369 34.8394L56.2481 29.8831L57.6754 30.4319C57.7156 30.4467 57.7567 30.4591 57.7985 30.4688C59.7488 30.9315 61.1121 32.7267 61.1121 34.8357C61.1122 34.8852 61.1159 34.9345 61.1232 34.9834L61.9304 39.9299H58.0458Z" stroke="#6AADE4" stroke-width="0.5" mask="url(#path-1-outside-1_113_3905)"/>
</svg>
