<svg width="100" height="100" viewBox="0 0 100 100" fill="none" xmlns="http://www.w3.org/2000/svg">
<path d="M91.3334 16.6771C91.4382 16.6989 91.545 16.7096 91.6521 16.709C91.8616 16.7094 92.069 16.6685 92.2626 16.5886C92.4562 16.5088 92.6322 16.3915 92.7805 16.2436L99.5412 9.48295C99.7453 9.27909 99.8902 9.02366 99.9606 8.74389C100.031 8.46412 100.024 8.17051 99.9405 7.89437C99.8571 7.61823 99.7003 7.36991 99.4868 7.17589C99.2733 6.98187 99.0112 6.84943 98.7284 6.7927L94.1352 5.8747L93.2076 1.27513C93.1513 0.992038 93.0192 0.729542 92.8254 0.515671C92.6316 0.301799 92.3833 0.144581 92.1071 0.0608015C91.8309 -0.0229782 91.5371 -0.0301746 91.2571 0.0399808C90.9771 0.110136 90.7214 0.255009 90.5174 0.459134L83.7439 7.22938C83.5586 7.41463 83.4217 7.64273 83.3456 7.89348C83.2694 8.14423 83.2562 8.40989 83.3072 8.66695L84.2635 13.4673L81.5956 16.1353C72.4036 7.5345 60.2 2.89029 47.6156 3.20384C35.0312 3.5174 23.074 8.76361 14.3218 17.8115C5.56953 26.8593 0.7233 38.9842 0.827828 51.572C0.932357 64.1599 5.97927 76.2026 14.8805 85.1038C23.7818 94.0051 35.8245 99.052 48.4124 99.1565C61.0002 99.2611 73.125 94.4148 82.1729 85.6626C91.2208 76.9104 96.467 64.9532 96.7805 52.3688C97.0941 39.7844 92.4499 27.5808 83.8491 18.3888L86.5171 15.7209L91.3334 16.6771ZM90.6672 4.82282L91.2091 7.53857C91.2703 7.84746 91.4216 8.13128 91.644 8.35423C91.8664 8.57718 92.1498 8.72925 92.4586 8.79126L95.1743 9.33313L91.1198 13.3876L87.3617 12.6386L86.6127 8.87732L90.6672 4.82282ZM93.6252 51.0001C93.6626 61.3013 90.1482 71.3006 83.674 79.3131C77.1999 87.3257 68.1618 92.8618 58.0825 94.9886C48.0032 97.1155 37.4988 95.7031 28.3393 90.9894C19.1798 86.2757 11.9249 78.5489 7.79714 69.1108C3.66937 59.6728 2.92097 49.1004 5.67805 39.1749C8.43512 29.2495 14.5291 20.5777 22.9333 14.6208C31.3375 8.66382 41.5381 5.78576 51.8165 6.47154C62.0949 7.15731 71.8228 11.365 79.3611 18.3856L72.5877 25.1463C65.7963 18.9438 56.847 15.6458 47.6548 15.9582C38.4626 16.2705 29.7578 20.1683 23.4031 26.8175C17.0484 33.4667 13.5487 42.339 13.6528 51.5359C13.757 60.7328 17.4567 69.5237 23.9603 76.0273C30.4639 82.5309 39.2547 86.2306 48.4516 86.3347C57.6485 86.4389 66.5209 82.9391 73.1701 76.5844C79.8193 70.2298 83.7171 61.5249 84.0294 52.3327C84.3417 43.1406 81.0438 34.1912 74.8412 27.3999L81.5987 20.6424C89.3171 28.8673 93.6168 39.7208 93.6252 51.0001ZM47.8718 52.1285C48.1707 52.4273 48.576 52.5951 48.9986 52.5951C49.4212 52.5951 49.8265 52.4273 50.1254 52.1285L54.4699 47.7839C55.0554 48.7551 55.3682 49.8662 55.3752 51.0001C55.3752 52.261 55.0013 53.4935 54.3008 54.5419C53.6003 55.5903 52.6047 56.4074 51.4398 56.8899C50.2749 57.3724 48.9931 57.4986 47.7565 57.2526C46.5199 57.0067 45.3839 56.3995 44.4924 55.5079C43.6008 54.6164 42.9937 53.4805 42.7477 52.2438C42.5017 51.0072 42.6279 49.7254 43.1105 48.5605C43.593 47.3956 44.4101 46.4 45.4584 45.6995C46.5068 44.999 47.7393 44.6251 49.0002 44.6251C50.135 44.6305 51.2472 44.9421 52.2196 45.5272L47.875 49.8718C47.7264 50.0196 47.6084 50.1953 47.5277 50.3888C47.4471 50.5823 47.4055 50.7898 47.4052 50.9995C47.4049 51.2091 47.4459 51.4167 47.526 51.6105C47.6061 51.8042 47.7236 51.9803 47.8718 52.1285ZM54.5241 43.2226C52.5588 41.8226 50.1392 41.2123 47.745 41.5127C45.3509 41.8131 43.157 43.0022 41.5985 44.8443C40.04 46.6864 39.2307 49.047 39.331 51.4578C39.4314 53.8687 40.4341 56.1538 42.1403 57.86C43.8465 59.5662 46.1316 60.5689 48.5425 60.6693C50.9533 60.7696 53.3139 59.9603 55.156 58.4018C56.9981 56.8433 58.1873 54.6494 58.4876 52.2553C58.788 49.8611 58.1777 47.4415 56.7777 45.4762L63.5894 38.6645C66.7839 42.4405 68.3953 47.3051 68.0868 52.2415C67.7783 57.1779 65.5737 61.804 61.9339 65.1529C58.2941 68.5018 53.5007 70.3142 48.5557 70.2113C43.6108 70.1084 38.8969 68.0981 35.3996 64.6008C31.9022 61.1034 29.892 56.3896 29.7891 51.4446C29.6862 46.4996 31.4986 41.7063 34.8474 38.0664C38.1963 34.4266 42.8224 32.222 47.7588 31.9135C52.6952 31.605 57.5598 33.2164 61.3358 36.4109L54.5241 43.2226ZM63.5894 34.1574C59.2067 30.3585 53.5209 28.4087 47.7293 28.7184C41.9377 29.0281 36.4923 31.5732 32.5398 35.8178C28.5873 40.0624 26.4362 45.6752 26.5394 51.4741C26.6427 57.2731 28.9923 62.8057 33.0935 66.9068C37.1946 71.008 42.7272 73.3576 48.5262 73.4609C54.3252 73.5642 59.9379 71.4131 64.1825 67.4606C68.4271 63.5081 70.9722 58.0626 71.2819 52.271C71.5917 46.4794 69.6418 40.7936 65.8429 36.4109L72.5877 29.6439C78.195 35.8334 81.1608 43.9696 80.8519 52.3157C80.5431 60.6618 76.9841 68.5565 70.9347 74.3147C64.8853 80.0729 56.8247 83.2384 48.4735 83.1354C40.1224 83.0325 32.1423 79.6692 26.2367 73.7636C20.3311 67.858 16.9678 59.8779 16.8649 51.5268C16.7619 43.1756 19.9274 35.115 25.6856 29.0656C31.4438 23.0162 39.3386 19.4572 47.6846 19.1484C56.0307 18.8396 64.1669 21.8053 70.3564 27.4126L63.5894 34.1574Z" fill="#40BA77"/>
</svg>
