<svg width="102" height="96" viewBox="0 0 102 96" fill="none" xmlns="http://www.w3.org/2000/svg">
<path d="M96.1509 74.9975C100.533 66.6653 102.518 57.2804 101.883 47.8874C101.248 38.4943 98.0192 29.4617 92.5554 21.795C92.5193 21.7436 92.4799 21.6946 92.4375 21.6483L92.4056 21.6101C90.8129 19.3685 89.0321 17.2667 87.0825 15.3275C77.5182 5.76357 64.5464 0.390625 51.0207 0.390625C37.495 0.390625 24.5232 5.76357 14.9589 15.3275C13.5704 16.7095 12.2715 18.1787 11.0702 19.7263C10.901 19.8613 10.7611 20.0294 10.659 20.2203C10.659 20.2426 10.659 20.265 10.6399 20.2873C4.67746 27.989 1.05639 37.2433 0.208626 46.9462C-0.639141 56.6492 1.32218 66.3913 5.85863 75.0103C4.02038 76.6458 2.54828 78.6512 1.53868 80.895C0.529075 83.1389 0.0047425 85.5707 0 88.0312L0 94.4062C0 94.8289 0.167912 95.2343 0.466799 95.5332C0.765685 95.832 1.17106 96 1.59375 96H100.406C100.829 96 101.234 95.832 101.533 95.5332C101.832 95.2343 102 94.8289 102 94.4062V88.0312C101.998 85.5693 101.476 83.1355 100.468 80.8893C99.4603 78.6432 97.989 76.6354 96.1509 74.9975ZM93.5181 73.0436C91.2534 71.6642 88.7031 70.8214 86.0625 70.5796C86.0625 70.5509 86.0625 70.5255 86.0625 70.5V65.7187C86.0549 65.664 86.0442 65.6097 86.0306 65.5561C88.2505 64.366 90.0457 62.5154 91.1678 60.2603C92.2899 58.0053 92.6835 55.4572 92.2941 52.9687H98.7615C98.5169 59.9674 96.7262 66.8251 93.5181 73.0499V73.0436ZM79.6875 64.125C77.1514 64.125 74.7191 63.1175 72.9258 61.3242C71.1325 59.5308 70.125 57.0986 70.125 54.5625C70.3292 54.5627 70.5316 54.5238 70.7211 54.4477L76.5988 52.0762C77.5812 51.6779 78.6688 51.6207 79.6875 51.9136L88.8069 54.5051C88.9492 54.5359 89.0952 54.5466 89.2404 54.537V54.5625C89.2404 57.0969 88.2343 59.5277 86.443 61.3208C84.6518 63.1138 82.222 64.1224 79.6875 64.125ZM82.875 66.8598V70.5C82.875 71.3453 82.5392 72.1561 81.9414 72.7539C81.3436 73.3516 80.5329 73.6875 79.6875 73.6875C78.8421 73.6875 78.0314 73.3516 77.4336 72.7539C76.8358 72.1561 76.5 71.3453 76.5 70.5V66.8598C78.5821 67.4635 80.7929 67.4635 82.875 66.8598ZM73.3125 70.6466C72.1509 70.7516 71.0029 70.9737 69.8859 71.3096C68.4227 69.3068 66.5506 67.6378 64.3938 66.4129C62.237 65.1881 59.8446 64.4354 57.375 64.2046C57.375 64.1759 57.375 64.1505 57.375 64.125V59.3437C57.3674 59.289 57.3567 59.2347 57.3431 59.1811C59.7994 57.7729 61.717 55.5873 62.7938 52.9687H67.0905C67.0056 53.4961 66.9544 54.0285 66.9375 54.5625C66.9446 56.7964 67.5407 58.989 68.6655 60.9191C69.7904 62.8493 71.4042 64.4487 73.3444 65.5561C73.3308 65.6097 73.3201 65.664 73.3125 65.7187V70.5C73.3125 70.5509 73.3125 70.5956 73.3125 70.6434V70.6466ZM51 57.75C48.4639 57.75 46.0316 56.7425 44.2383 54.9492C42.445 53.1558 41.4375 50.7236 41.4375 48.1875C41.6417 48.1877 41.8441 48.1488 42.0336 48.0727L47.9113 45.7012C48.8937 45.3032 49.9812 45.2459 51 45.5386L60.1194 48.1301C60.2618 48.1607 60.4077 48.1715 60.5529 48.162V48.1875C60.5529 50.7219 59.5468 53.1527 57.7555 54.9458C55.9643 56.7388 53.5345 57.7474 51 57.75ZM54.1875 60.4848V64.125C54.1875 64.9703 53.8517 65.7811 53.2539 66.3789C52.6561 66.9766 51.8454 67.3125 51 67.3125C50.1546 67.3125 49.3439 66.9766 48.7461 66.3789C48.1483 65.7811 47.8125 64.9703 47.8125 64.125V60.4848C49.8946 61.0885 52.1054 61.0885 54.1875 60.4848ZM44.625 64.2046C42.1515 64.4323 39.7548 65.1836 37.5939 66.4085C35.433 67.6335 33.5575 69.3042 32.0918 71.3096C30.9822 70.9741 29.8417 70.751 28.6875 70.6434C28.6875 70.5924 28.6875 70.5478 28.6875 70.5V65.7187C28.6799 65.664 28.6692 65.6097 28.6556 65.5561C30.5958 64.4487 32.2096 62.8493 33.3345 60.9191C34.4593 58.989 35.0554 56.7964 35.0625 54.5625C35.0424 54.0283 34.9881 53.4959 34.8999 52.9687H39.2062C40.2854 55.5887 42.2066 57.7746 44.6664 59.1811C44.6496 59.2345 44.6358 59.2888 44.625 59.3437V64.125C44.625 64.1536 44.625 64.1791 44.625 64.2046ZM22.3125 64.125C19.9946 64.1179 17.7585 63.2674 16.0217 61.7324C14.2849 60.1974 13.1662 58.0827 12.8743 55.7833C16.6602 55.6897 20.3973 54.9077 23.9031 53.4755C26.4059 54.5632 29.0634 55.2526 31.7794 55.5187C31.5473 57.8709 30.4506 60.0532 28.7017 61.6432C26.9528 63.2331 24.6761 64.1174 22.3125 64.125ZM25.5 66.8598V70.5C25.5 71.3453 25.1642 72.1561 24.5664 72.7539C23.9686 73.3516 23.1579 73.6875 22.3125 73.6875C21.4671 73.6875 20.6564 73.3516 20.0586 72.7539C19.4608 72.1561 19.125 71.3453 19.125 70.5V66.8598C20.1638 67.1463 21.235 67.2985 22.3125 67.3125C23.39 67.2985 24.4612 67.1463 25.5 66.8598ZM38.4126 49.7812H34.1063C32.862 46.7314 30.4895 44.279 27.4826 42.9345C27.9128 37.8203 28.8351 32.7596 30.2366 27.8225C36.5802 28.7942 42.9806 29.35 49.3967 29.4864V35.5968C46.3252 35.9806 43.499 37.4709 41.4472 39.7885C39.3953 42.1061 38.2587 45.0921 38.25 48.1875C38.2701 48.7216 38.3244 49.254 38.4126 49.7812ZM31.5562 52.2611C29.1819 52.0318 26.8698 51.3684 24.735 50.304C24.4842 50.1501 24.1957 50.0686 23.9015 50.0686C23.6072 50.0686 23.3187 50.1501 23.0679 50.304C19.8936 51.7743 16.4456 52.5606 12.9476 52.6117C13.3874 50.4934 14.5338 48.5874 16.1989 47.2062C17.864 45.825 19.949 45.0505 22.112 45.0098C24.275 44.969 26.3877 45.6644 28.1037 46.9819C29.8197 48.2994 31.037 50.1609 31.5562 52.2611ZM12.4313 46.5937C11.8048 45.9143 11.3902 45.0668 11.2382 44.1552C11.0863 43.2436 11.2036 42.3075 11.5758 41.4615C11.948 40.6156 12.5589 39.8967 13.3337 39.3928C14.1084 38.889 15.0133 38.6221 15.9375 38.625C16.9527 38.6293 17.9397 38.9597 18.7529 39.5674C19.5661 40.1752 20.1625 41.0281 20.4542 42.0005C17.2968 42.4665 14.4316 44.1068 12.4313 46.5937ZM70.8422 50.9606C71.5597 49.1858 72.7949 47.6681 74.3869 46.6051C75.9789 45.5421 77.8541 44.983 79.7684 45.0005C81.6826 45.0181 83.5472 45.6115 85.1195 46.7035C86.6918 47.7955 87.8989 49.3355 88.5838 51.1231L80.5672 48.8505C78.8645 48.3672 77.0495 48.4625 75.4067 49.1214L70.8422 50.9606ZM98.7519 49.7812H91.4813C90.6805 47.8133 89.4015 46.0761 87.7602 44.727C86.1189 43.3779 84.167 42.4594 82.0813 42.0547C81.8419 41.9022 81.5651 41.8184 81.2812 41.8125H80.4525C80.3662 41.822 80.2809 41.8391 80.1975 41.8634C80.0254 41.8634 79.8628 41.8125 79.6875 41.8125C78.9933 41.8256 78.3014 41.896 77.6188 42.0228C77.1772 37.3129 76.3327 32.6495 75.0943 28.0839C76.5574 27.8735 78.0236 27.6631 79.4102 27.4081C83.2041 26.757 86.944 25.8226 90.5983 24.6127C95.6484 32.059 98.4763 40.7882 98.7519 49.7812ZM84.8066 17.5683C86.1649 18.9377 87.436 20.3909 88.6125 21.9193C85.4155 22.9172 82.1561 23.7031 78.8556 24.2716C77.3638 24.5458 75.7892 24.7753 74.205 24.9984C72.1116 17.3337 67.959 10.3887 62.1977 4.91714C70.7614 6.95588 78.5894 11.3362 84.8066 17.5683ZM52.5938 3.6772C59.9919 4.70039 66.8483 12.7903 70.9792 25.3968C65.2096 26.0509 59.4076 26.3777 53.601 26.3754C53.2631 26.3754 52.9316 26.3595 52.5938 26.3563V3.6772ZM52.5938 29.547C52.9316 29.547 53.2631 29.5661 53.601 29.5661C59.7206 29.5706 65.8351 29.2162 71.9132 28.5046C73.221 33.2243 74.0896 38.0548 74.5078 42.9345C71.5045 44.281 69.1357 46.7332 67.8937 49.7812H63.5874C63.6756 49.254 63.7299 48.7216 63.75 48.1875C63.7461 45.2231 62.7094 42.3527 60.8182 40.0699C58.9269 37.7872 56.2994 36.2348 53.3874 35.6797C53.1498 35.5283 52.8754 35.4445 52.5938 35.4375V29.547ZM59.8963 44.745L51.8797 42.4723C50.1768 41.9905 48.3623 42.0857 46.7192 42.7432L42.1547 44.5856C42.8722 42.8108 44.1074 41.2931 45.6994 40.2301C47.2914 39.1671 49.1666 38.608 51.0809 38.6255C52.9951 38.6431 54.8597 39.2365 56.432 40.3285C58.0043 41.4205 59.2115 42.9605 59.8963 44.7481V44.745ZM49.4062 3.68039V26.3116C43.3126 26.1764 37.2336 25.6558 31.2056 24.753C35.3462 12.5257 42.1324 4.68764 49.4062 3.68039ZM17.1934 17.5683C23.4099 11.3435 31.2342 6.96896 39.7928 4.93308C34.2119 10.1835 30.1488 16.8407 28.0309 24.2047C26.2969 23.886 24.6107 23.5353 23.0297 23.1465C20.1468 22.4793 17.3278 21.561 14.6051 20.402C15.3956 19.4617 16.2339 18.5246 17.1934 17.5683ZM12.6002 22.9871C15.7091 24.3928 18.9496 25.4872 22.2743 26.2543C23.8011 26.6304 25.4299 26.9683 27.1001 27.2838C25.7499 32.1079 24.8388 37.0442 24.378 42.0324C24.1421 41.9941 23.8999 41.9846 23.6608 41.9591C23.6818 41.7813 23.6721 41.6013 23.6321 41.4268C23.1321 39.5681 21.9762 37.9532 20.378 36.8805C18.7799 35.8078 16.8475 35.3498 14.9379 35.5911C13.0283 35.8324 11.2706 36.7568 9.98953 38.1933C8.70848 39.6299 7.99067 41.4815 7.96875 43.4062C7.98394 44.533 8.23549 45.6441 8.70714 46.6676C9.1788 47.691 9.86004 48.6041 10.7068 49.3477C10.6399 49.4943 10.5729 49.6346 10.5124 49.7812H3.25444C3.58515 40.1072 6.84277 30.7611 12.597 22.9775L12.6002 22.9871ZM3.2385 52.9687H9.72506C9.63691 53.4959 9.58261 54.0283 9.5625 54.5625C9.56964 56.7964 10.1657 58.989 11.2905 60.9191C12.4154 62.8493 14.0292 64.4487 15.9694 65.5561C15.9558 65.6097 15.9451 65.664 15.9375 65.7187V70.5C15.9375 70.5286 15.9375 70.5541 15.9375 70.5796C13.2936 70.82 10.7399 71.6628 8.47237 73.0436C5.26843 66.8199 3.48109 59.9645 3.2385 52.9687ZM28.6875 81.6562V92.8125H3.1875V88.0312C3.20066 84.3518 4.62729 80.8181 7.1724 78.1609C9.7175 75.5036 13.1864 73.9261 16.8619 73.7544C17.4195 74.7051 18.216 75.4935 19.1724 76.0414C20.1289 76.5892 21.2119 76.8774 22.3141 76.8774C23.4163 76.8774 24.4993 76.5892 25.4557 76.0414C26.4122 75.4935 27.2087 74.7051 27.7663 73.7544C28.6571 73.7972 29.5419 73.9242 30.4088 74.1337C29.2789 76.4807 28.6907 79.0514 28.6875 81.6562ZM70.125 92.8125H31.875V81.6562C31.8882 77.9768 33.3148 74.4431 35.8599 71.7859C38.405 69.1286 41.8739 67.5511 45.5494 67.3794C46.1078 68.3286 46.9045 69.1155 47.8605 69.6622C48.8165 70.209 49.8987 70.4966 51 70.4966C52.1013 70.4966 53.1835 70.209 54.1395 69.6622C55.0955 69.1155 55.8922 68.3286 56.4506 67.3794C60.1261 67.5511 63.595 69.1286 66.1401 71.7859C68.6852 74.4431 70.1118 77.9768 70.125 81.6562V92.8125ZM98.8125 92.8125H73.3125V81.6562C73.3098 79.0504 72.7216 76.4784 71.5912 74.1305C72.4581 73.921 73.3429 73.794 74.2337 73.7512C74.7913 74.7019 75.5878 75.4903 76.5443 76.0382C77.5007 76.586 78.5837 76.8742 79.6859 76.8742C80.7881 76.8742 81.8711 76.586 82.8276 76.0382C83.784 75.4903 84.5805 74.7019 85.1381 73.7512C88.8141 73.9229 92.2835 75.5009 94.8287 78.1588C97.3739 80.8167 98.8002 84.3512 98.8125 88.0312V92.8125Z" fill="#40BA77"/>
</svg>
