<svg width="102" height="102" viewBox="0 0 102 102" fill="none" xmlns="http://www.w3.org/2000/svg">
<path d="M94.0312 0H7.96875C5.85531 0 3.82842 0.839562 2.33399 2.33399C0.839562 3.82842 0 5.85531 0 7.96875L0 49.4062C0 51.5197 0.839562 53.5466 2.33399 55.041C3.82842 56.5354 5.85531 57.375 7.96875 57.375H94.0312C96.1447 57.375 98.1716 56.5354 99.666 55.041C101.16 53.5466 102 51.5197 102 49.4062V7.96875C102 5.85531 101.16 3.82842 99.666 2.33399C98.1716 0.839562 96.1447 0 94.0312 0V0ZM22.3125 54.1875H12.75V36.6562C12.75 36.2336 12.9179 35.8282 13.2168 35.5293C13.5157 35.2304 13.9211 35.0625 14.3438 35.0625H20.7188C21.1414 35.0625 21.5468 35.2304 21.8457 35.5293C22.1446 35.8282 22.3125 36.2336 22.3125 36.6562V54.1875ZM44.625 54.1875H35.0625V30.2812C35.0625 29.8586 35.2304 29.4532 35.5293 29.1543C35.8282 28.8554 36.2336 28.6875 36.6562 28.6875H43.0312C43.4539 28.6875 43.8593 28.8554 44.1582 29.1543C44.4571 29.4532 44.625 29.8586 44.625 30.2812V54.1875ZM66.9375 54.1875H57.375V20.7188C57.375 20.2961 57.5429 19.8907 57.8418 19.5918C58.1407 19.2929 58.5461 19.125 58.9688 19.125H65.3438C65.7664 19.125 66.1718 19.2929 66.4707 19.5918C66.7696 19.8907 66.9375 20.2961 66.9375 20.7188V54.1875ZM89.25 54.1875H79.6875V14.3438C79.6875 13.9211 79.8554 13.5157 80.1543 13.2168C80.4532 12.9179 80.8586 12.75 81.2812 12.75H87.6562C88.0789 12.75 88.4843 12.9179 88.7832 13.2168C89.0821 13.5157 89.25 13.9211 89.25 14.3438V54.1875ZM98.8125 49.4062C98.8125 50.6743 98.3088 51.8904 97.4121 52.7871C96.5154 53.6838 95.2993 54.1875 94.0312 54.1875H92.4375V14.3438C92.4375 13.0757 91.9338 11.8596 91.0371 10.9629C90.1404 10.0662 88.9243 9.5625 87.6562 9.5625H81.2812C80.0132 9.5625 78.7971 10.0662 77.9004 10.9629C77.0037 11.8596 76.5 13.0757 76.5 14.3438V54.1875H70.125V20.7188C70.125 19.4507 69.6213 18.2346 68.7246 17.3379C67.8279 16.4412 66.6118 15.9375 65.3438 15.9375H58.9688C57.7007 15.9375 56.4846 16.4412 55.5879 17.3379C54.6912 18.2346 54.1875 19.4507 54.1875 20.7188V54.1875H47.8125V30.2812C47.8125 29.0132 47.3088 27.7971 46.4121 26.9004C45.5154 26.0037 44.2993 25.5 43.0312 25.5H36.6562C35.3882 25.5 34.1721 26.0037 33.2754 26.9004C32.3787 27.7971 31.875 29.0132 31.875 30.2812V54.1875H25.5V36.6562C25.5 35.3882 24.9963 34.1721 24.0996 33.2754C23.2029 32.3787 21.9868 31.875 20.7188 31.875H14.3438C13.0757 31.875 11.8596 32.3787 10.9629 33.2754C10.0662 34.1721 9.5625 35.3882 9.5625 36.6562V54.1875H7.96875C6.70068 54.1875 5.48455 53.6838 4.5879 52.7871C3.69124 51.8904 3.1875 50.6743 3.1875 49.4062V7.96875C3.1875 6.70068 3.69124 5.48455 4.5879 4.5879C5.48455 3.69124 6.70068 3.1875 7.96875 3.1875H94.0312C95.2993 3.1875 96.5154 3.69124 97.4121 4.5879C98.3088 5.48455 98.8125 6.70068 98.8125 7.96875V49.4062ZM23.9062 89.25H22.3125V87.2259C23.5766 86.3366 24.6416 85.1936 25.4395 83.8699C26.2375 82.5462 26.7509 81.0708 26.9471 79.5377C26.9994 79.3578 27.0189 79.1699 27.0045 78.9831C27.03 78.6866 27.0938 78.3997 27.0938 78.0969C27.0938 75.1381 25.9184 72.3005 23.8262 70.2083C21.734 68.1161 18.8963 66.9407 15.9375 66.9407C12.9787 66.9407 10.141 68.1161 8.04884 70.2083C5.95664 72.3005 4.78125 75.1381 4.78125 78.0969C4.78125 78.4157 4.84819 78.6866 4.8705 78.9831C4.85613 79.1699 4.87557 79.3578 4.92788 79.5377C5.12408 81.0708 5.63753 82.5462 6.43548 83.8699C7.23343 85.1936 8.2984 86.3366 9.5625 87.2259V89.25H7.96875C5.85531 89.25 3.82842 90.0896 2.33399 91.584C0.839562 93.0784 0 95.1053 0 97.2188L0 100.406C0 100.829 0.167912 101.234 0.466799 101.533C0.765685 101.832 1.17106 102 1.59375 102H30.2812C30.7039 102 31.1093 101.832 31.4082 101.533C31.7071 101.234 31.875 100.829 31.875 100.406V97.2188C31.875 95.1053 31.0354 93.0784 29.541 91.584C28.0466 90.0896 26.0197 89.25 23.9062 89.25ZM15.9375 70.125C18.0296 70.1247 20.0378 70.9472 21.5288 72.4149C23.0197 73.8825 23.8736 75.8776 23.9062 77.9694C18.7391 79.6736 13.1614 79.6736 7.99425 77.9694C8.02681 75.882 8.87723 73.8907 10.3627 72.4238C11.8481 70.9569 13.8498 70.1314 15.9375 70.125ZM8.80069 81.5681C13.479 82.7989 18.396 82.7989 23.0743 81.5681C22.4293 82.9137 21.417 84.0494 20.1542 84.8444C18.8914 85.6394 17.4297 86.0613 15.9375 86.0613C14.4453 86.0613 12.9836 85.6394 11.7208 84.8444C10.458 84.0494 9.44575 82.9137 8.80069 81.5681ZM19.125 88.7304V90.8438C19.125 91.2664 18.9571 91.6718 18.6582 91.9707C18.3593 92.2696 17.9539 92.4375 17.5312 92.4375H14.3438C13.9211 92.4375 13.5157 92.2696 13.2168 91.9707C12.9179 91.6718 12.75 91.2664 12.75 90.8438V88.7304C13.7811 89.0595 14.8552 89.2346 15.9375 89.25C17.0198 89.2346 18.0939 89.0595 19.125 88.7304ZM28.6875 98.8125H3.1875V97.2188C3.1875 95.9507 3.69124 94.7346 4.5879 93.8379C5.48455 92.9412 6.70068 92.4375 7.96875 92.4375H9.85575C10.1842 93.3665 10.7917 94.1714 11.595 94.7419C12.3984 95.3125 13.3584 95.6209 14.3438 95.625H17.5312C18.5166 95.6209 19.4766 95.3125 20.28 94.7419C21.0833 94.1714 21.6908 93.3665 22.0193 92.4375H23.9062C25.1743 92.4375 26.3904 92.9412 27.2871 93.8379C28.1838 94.7346 28.6875 95.9507 28.6875 97.2188V98.8125ZM58.9688 89.25H57.375V87.2259C58.6391 86.3366 59.7041 85.1936 60.502 83.8699C61.3 82.5462 61.8134 81.0708 62.0096 79.5377C62.0619 79.3578 62.0814 79.1699 62.067 78.9831C62.0925 78.6866 62.1562 78.3997 62.1562 78.0969C62.1562 75.1381 60.9809 72.3005 58.8887 70.2083C56.7965 68.1161 53.9588 66.9407 51 66.9407C48.0412 66.9407 45.2035 68.1161 43.1113 70.2083C41.0191 72.3005 39.8438 75.1381 39.8438 78.0969C39.8438 78.4157 39.9107 78.6866 39.933 78.9831C39.9186 79.1699 39.9381 79.3578 39.9904 79.5377C40.1866 81.0708 40.7 82.5462 41.498 83.8699C42.2959 85.1936 43.3609 86.3366 44.625 87.2259V89.25H43.0312C40.9178 89.25 38.8909 90.0896 37.3965 91.584C35.9021 93.0784 35.0625 95.1053 35.0625 97.2188V100.406C35.0625 100.829 35.2304 101.234 35.5293 101.533C35.8282 101.832 36.2336 102 36.6562 102H65.3438C65.7664 102 66.1718 101.832 66.4707 101.533C66.7696 101.234 66.9375 100.829 66.9375 100.406V97.2188C66.9375 95.1053 66.0979 93.0784 64.6035 91.584C63.1091 90.0896 61.0822 89.25 58.9688 89.25ZM51 70.125C53.0921 70.1247 55.1003 70.9472 56.5913 72.4149C58.0822 73.8825 58.9361 75.8776 58.9688 77.9694C53.8016 79.6736 48.2239 79.6736 43.0568 77.9694C43.0893 75.882 43.9397 73.8907 45.4251 72.4238C46.9106 70.9569 48.9123 70.1314 51 70.125ZM43.8632 81.5681C48.5415 82.7989 53.4585 82.7989 58.1368 81.5681C57.4918 82.9137 56.4795 84.0494 55.2167 84.8444C53.9539 85.6394 52.4922 86.0613 51 86.0613C49.5078 86.0613 48.0461 85.6394 46.7833 84.8444C45.5205 84.0494 44.5082 82.9137 43.8632 81.5681ZM54.1875 88.7304V90.8438C54.1875 91.2664 54.0196 91.6718 53.7207 91.9707C53.4218 92.2696 53.0164 92.4375 52.5938 92.4375H49.4062C48.9836 92.4375 48.5782 92.2696 48.2793 91.9707C47.9804 91.6718 47.8125 91.2664 47.8125 90.8438V88.7304C49.8809 89.4241 52.1191 89.4241 54.1875 88.7304ZM63.75 98.8125H38.25V97.2188C38.25 95.9507 38.7537 94.7346 39.6504 93.8379C40.5471 92.9412 41.7632 92.4375 43.0312 92.4375H44.9183C45.2467 93.3665 45.8541 94.1714 46.6575 94.7419C47.4609 95.3125 48.4209 95.6209 49.4062 95.625H52.5938C53.5791 95.6209 54.5391 95.3125 55.3425 94.7419C56.1459 94.1714 56.7533 93.3665 57.0818 92.4375H58.9688C60.2368 92.4375 61.4529 92.9412 62.3496 93.8379C63.2463 94.7346 63.75 95.9507 63.75 97.2188V98.8125ZM94.0312 89.25H92.4375V87.2259C93.7016 86.3366 94.7666 85.1936 95.5645 83.8699C96.3625 82.5462 96.8759 81.0708 97.0721 79.5377C97.1244 79.3578 97.1439 79.1699 97.1295 78.9831C97.155 78.6866 97.2188 78.3997 97.2188 78.0969C97.2188 75.1381 96.0434 72.3005 93.9512 70.2083C91.859 68.1161 89.0213 66.9407 86.0625 66.9407C83.1037 66.9407 80.266 68.1161 78.1738 70.2083C76.0816 72.3005 74.9062 75.1381 74.9062 78.0969C74.9062 78.4157 74.9732 78.6866 74.9955 78.9831C74.9811 79.1699 75.0006 79.3578 75.0529 79.5377C75.2491 81.0708 75.7625 82.5462 76.5605 83.8699C77.3584 85.1936 78.4234 86.3366 79.6875 87.2259V89.25H78.0938C75.9803 89.25 73.9534 90.0896 72.459 91.584C70.9646 93.0784 70.125 95.1053 70.125 97.2188V100.406C70.125 100.829 70.2929 101.234 70.5918 101.533C70.8907 101.832 71.2961 102 71.7188 102H100.406C100.829 102 101.234 101.832 101.533 101.533C101.832 101.234 102 100.829 102 100.406V97.2188C102 95.1053 101.16 93.0784 99.666 91.584C98.1716 90.0896 96.1447 89.25 94.0312 89.25ZM86.0625 70.125C88.1546 70.1247 90.1628 70.9472 91.6538 72.4149C93.1447 73.8825 93.9986 75.8776 94.0312 77.9694C88.8641 79.6736 83.2864 79.6736 78.1192 77.9694C78.1518 75.882 79.0022 73.8907 80.4877 72.4238C81.9731 70.9569 83.9748 70.1314 86.0625 70.125ZM78.9257 81.5681C83.604 82.7989 88.521 82.7989 93.1993 81.5681C92.5543 82.9137 91.542 84.0494 90.2792 84.8444C89.0164 85.6394 87.5547 86.0613 86.0625 86.0613C84.5703 86.0613 83.1086 85.6394 81.8458 84.8444C80.583 84.0494 79.5707 82.9137 78.9257 81.5681ZM89.25 88.7304V90.8438C89.25 91.2664 89.0821 91.6718 88.7832 91.9707C88.4843 92.2696 88.0789 92.4375 87.6562 92.4375H84.4688C84.0461 92.4375 83.6407 92.2696 83.3418 91.9707C83.0429 91.6718 82.875 91.2664 82.875 90.8438V88.7304C84.9434 89.4241 87.1816 89.4241 89.25 88.7304ZM98.8125 98.8125H73.3125V97.2188C73.3125 95.9507 73.8162 94.7346 74.7129 93.8379C75.6096 92.9412 76.8257 92.4375 78.0938 92.4375H79.9807C80.3092 93.3665 80.9166 94.1714 81.72 94.7419C82.5234 95.3125 83.4834 95.6209 84.4688 95.625H87.6562C88.6416 95.6209 89.6016 95.3125 90.405 94.7419C91.2084 94.1714 91.8158 93.3665 92.1443 92.4375H94.0312C95.2993 92.4375 96.5154 92.9412 97.4121 93.8379C98.3088 94.7346 98.8125 95.9507 98.8125 97.2188V98.8125Z" fill="#40BA77"/>
</svg>
