<svg width="126" height="126" viewBox="0 0 126 126" fill="none" xmlns="http://www.w3.org/2000/svg">
<path d="M24.8476 28.7124L21.7212 26.3164C20.4678 27.9518 19.3554 29.6905 18.396 31.5139L21.8787 33.3468C22.7365 31.7214 23.7296 30.1711 24.8476 28.7124Z" fill="#40BA77"/>
<path d="M25.8652 21.7529L28.5467 24.6332C29.8934 23.3796 31.3421 22.2404 32.8779 21.2273L30.7123 17.9395C28.9936 19.074 27.3723 20.3495 25.8652 21.7529Z" fill="#40BA77"/>
<path d="M32.3685 79.7676L28.8247 81.4863C29.6516 83.1991 30.3997 84.9454 31.0297 86.6799L34.729 85.3313C34.0372 83.4378 33.2493 81.5808 32.3685 79.7676Z" fill="#40BA77"/>
<path d="M18.1772 49.2656L14.2397 49.37C14.2951 51.4298 14.5243 53.4813 14.9249 55.5026L18.7856 54.7348C18.4282 52.9323 18.2247 51.1026 18.1772 49.2656Z" fill="#40BA77"/>
<path d="M16.644 61.435C17.3863 63.357 18.2906 65.2123 19.3471 66.981L22.7275 64.969C21.7845 63.3913 20.9777 61.7361 20.3158 60.0215L16.644 61.435Z" fill="#40BA77"/>
<path d="M14.5981 43.2118L18.4982 43.7729C18.7581 41.9549 19.1737 40.1627 19.7405 38.4159L15.9999 37.2012C15.3628 39.1613 14.8939 41.1721 14.5981 43.2118Z" fill="#40BA77"/>
<path d="M37.7133 18.5817C39.3961 17.8389 41.1371 17.2358 42.9187 16.7783L41.9343 12.9648C39.9432 13.4753 37.998 14.1502 36.1187 14.9828L37.7133 18.5817Z" fill="#40BA77"/>
<path d="M25.9676 69.4766L22.9121 71.9572C24.0779 73.4119 25.1497 74.9395 26.1212 76.5306L29.468 74.4654C28.4107 72.7282 27.2414 71.0618 25.9676 69.4766Z" fill="#40BA77"/>
<path d="M64.9688 110.25H37.4062V114.188H64.9688V110.25Z" fill="#40BA77"/>
<path d="M61.0312 118.125H41.3438V122.062H61.0312V118.125Z" fill="#40BA77"/>
<path d="M112.219 29.6887V25.4363C112.212 24.3731 111.784 23.3559 111.029 22.6073C110.275 21.8587 109.254 21.4396 108.191 21.4417C107.804 20.2544 107.339 19.0943 106.799 17.9688C107.169 17.6005 107.463 17.1627 107.663 16.6806C107.863 16.1985 107.967 15.6815 107.967 15.1594C107.967 14.6372 107.863 14.1203 107.663 13.6381C107.463 13.156 107.169 12.7182 106.799 12.35L103.808 9.35944C103.048 8.61495 102.028 8.19554 100.963 8.19C99.8943 8.19956 98.8704 8.62294 98.1068 9.37125C97.0058 8.80602 95.8663 8.31919 94.6969 7.91438C94.6953 6.86012 94.2758 5.8495 93.5304 5.10403C92.7849 4.35855 91.7743 3.93906 90.72 3.9375H86.4675C85.9425 3.93766 85.4228 4.0425 84.9388 4.24587C84.4548 4.44924 84.0162 4.74707 83.6487 5.12194C83.2812 5.49681 82.992 5.9412 82.7983 6.42912C82.6045 6.91705 82.51 7.4387 82.5202 7.96359C81.3155 8.34509 80.1393 8.81086 79 9.35747C78.2442 8.63287 77.2377 8.22831 76.1906 8.22831C75.1436 8.22831 74.137 8.63287 73.3812 9.35747L70.3907 12.348C70.0153 12.7198 69.7184 13.1632 69.5175 13.6518C69.3166 14.1405 69.2159 14.6645 69.2212 15.1928C69.2276 15.6877 69.3237 16.1773 69.5048 16.6379C65.1649 14.1595 60.3637 12.5958 55.3967 12.0428C53.9989 11.8894 52.5937 11.8125 51.1875 11.8125C50.1375 11.8125 49.0993 11.8552 48.0729 11.9405L48.3997 15.8642C49.3185 15.7881 50.2477 15.75 51.1875 15.75C52.4497 15.75 53.7109 15.8191 54.9655 15.9567C62.3791 16.7723 69.2948 20.0854 74.5763 25.3515C79.8578 30.6176 83.191 37.5236 84.0282 44.9347C84.5044 49.3013 84.0833 53.7192 82.7907 57.9172C81.4981 62.1152 79.3614 66.0047 76.5115 69.3472C70.7111 76.6436 66.8731 85.3022 65.3625 94.5H59.0625V61.0312H61.0312V63C61.0312 63.5221 61.2387 64.0229 61.6079 64.3921C61.9771 64.7613 62.4779 64.9688 63 64.9688H70.875C71.3971 64.9688 71.8979 64.7613 72.2671 64.3921C72.6363 64.0229 72.8438 63.5221 72.8438 63V55.125C72.8438 54.6029 72.6363 54.1021 72.2671 53.7329C71.8979 53.3637 71.3971 53.1562 70.875 53.1562H63C62.4779 53.1562 61.9771 53.3637 61.6079 53.7329C61.2387 54.1021 61.0312 54.6029 61.0312 55.125V57.0938H57.0938C56.5716 57.0938 56.0708 57.3012 55.7016 57.6704C55.3324 58.0396 55.125 58.5404 55.125 59.0625V94.5H53.1562V47.25C53.1562 46.7279 52.9488 46.2271 52.5796 45.8579C52.2104 45.4887 51.7096 45.2812 51.1875 45.2812H47.25V43.3125C47.25 42.7904 47.0426 42.2896 46.6734 41.9204C46.3042 41.5512 45.8034 41.3438 45.2812 41.3438H37.4062C36.8841 41.3438 36.3833 41.5512 36.0141 41.9204C35.6449 42.2896 35.4375 42.7904 35.4375 43.3125V51.1875C35.4375 51.7096 35.6449 52.2104 36.0141 52.5796C36.3833 52.9488 36.8841 53.1562 37.4062 53.1562H45.2812C45.8034 53.1562 46.3042 52.9488 46.6734 52.5796C47.0426 52.2104 47.25 51.7096 47.25 51.1875V49.2188H49.2188V94.5H47.25V64.9688C47.25 64.4466 47.0426 63.9458 46.6734 63.5766C46.3042 63.2074 45.8034 63 45.2812 63H41.3438V61.0312C41.3438 60.5091 41.1363 60.0083 40.7671 59.6391C40.3979 59.2699 39.8971 59.0625 39.375 59.0625H31.5C30.9779 59.0625 30.4771 59.2699 30.1079 59.6391C29.7387 60.0083 29.5312 60.5091 29.5312 61.0312V68.9062C29.5312 69.4284 29.7387 69.9292 30.1079 70.2984C30.4771 70.6676 30.9779 70.875 31.5 70.875H39.375C39.8971 70.875 40.3979 70.6676 40.7671 70.2984C41.1363 69.9292 41.3438 69.4284 41.3438 68.9062V66.9375H43.3125V94.5H37.107C37.0932 94.4016 37.0893 94.3031 37.0735 94.2126L35.1264 94.5L37.0735 94.2086C36.9239 93.2085 36.727 92.1867 36.4829 91.1531L32.6497 92.0489C32.8637 92.9755 33.0396 93.8897 33.1774 94.7914C33.3625 95.9981 33.4599 97.2167 33.4688 98.4375V104.344C33.4688 104.866 33.6762 105.367 34.0454 105.736C34.4146 106.105 34.9154 106.312 35.4375 106.312H66.9375C67.4596 106.312 67.9604 106.105 68.3296 105.736C68.6988 105.367 68.9062 104.866 68.9062 104.344V98.5222C69.7654 88.7989 73.4545 79.5405 79.5178 71.8909C84.4718 66.0652 87.4436 58.8143 88.0031 51.1875H90.72C91.7831 51.1807 92.8003 50.7531 93.549 49.9982C94.2976 49.2433 94.7167 48.2226 94.7146 47.1594C95.9018 46.773 97.062 46.308 98.1875 45.7675C98.9437 46.4912 99.9501 46.8952 100.997 46.8952C102.044 46.8952 103.05 46.4912 103.806 45.7675L106.797 42.777C107.172 42.4052 107.469 41.9618 107.67 41.4732C107.871 40.9845 107.972 40.4605 107.966 39.9322C107.957 38.863 107.533 37.8392 106.785 37.0755C107.348 35.9736 107.835 34.8343 108.242 33.6656C109.296 33.6641 110.307 33.2446 111.052 32.4991C111.798 31.7536 112.217 30.743 112.219 29.6887ZM64.9688 57.0938H68.9062V61.0312H64.9688V57.0938ZM43.3125 49.2188H39.375V45.2812H43.3125V49.2188ZM37.4062 66.9375H33.4688V63H37.4062V66.9375ZM64.9688 102.375H37.4062V98.4375H64.9688V102.375ZM79.2402 24.6094C79.7889 22.878 80.8065 21.3326 82.1803 20.1446C83.554 18.9565 85.2301 18.1724 87.0224 17.8792C88.8148 17.586 90.6534 17.7952 92.334 18.4835C94.0147 19.1719 95.4718 20.3125 96.5435 21.7788C97.6152 23.2451 98.2597 24.9796 98.4054 26.79C98.5511 28.6003 98.1923 30.4156 97.3688 32.0344C96.5453 33.6532 95.2894 35.0121 93.7404 35.9603C92.1914 36.9086 90.4099 37.4091 88.5938 37.4062C87.8271 37.3975 87.0643 37.2963 86.3218 37.105C84.8128 32.5116 82.4056 28.264 79.2402 24.6094ZM104.44 32.4844C104.145 33.4353 103.765 34.3577 103.304 35.2406C102.998 35.8115 102.837 36.4492 102.836 37.0972C102.848 38.1779 103.27 39.2137 104.017 39.9952L100.973 42.9896C100.374 42.3822 99.595 41.9835 98.7517 41.8523C97.9084 41.7212 97.0452 41.8645 96.2896 42.2612C95.4135 42.7188 94.5 43.1009 93.5589 43.4031C92.7423 43.6659 92.0288 44.1786 91.5194 44.8689C91.01 45.5592 90.7303 46.3921 90.72 47.25H88.0897C88.0622 46.3444 88.0366 45.4388 87.9421 44.5272C87.8259 43.4188 87.6547 42.3262 87.4381 41.2492C87.8318 41.2808 88.202 41.3438 88.5938 41.3438C91.0578 41.3542 93.4796 40.7037 95.6069 39.4602C97.7342 38.2166 99.4892 36.4254 100.689 34.2732C101.889 32.121 102.49 29.6864 102.429 27.223C102.368 24.7597 101.648 22.3577 100.344 20.2672C99.0394 18.1766 97.1983 16.4741 95.0123 15.3369C92.8263 14.1996 90.3754 13.6693 87.9148 13.8011C85.4543 13.9329 83.074 14.722 81.0221 16.0862C78.9701 17.4505 77.3214 19.3399 76.2477 21.5578C75.5193 20.8911 74.7653 20.2532 73.9856 19.6442C74.2234 19.1401 74.3509 18.5911 74.3597 18.0337C74.3472 16.953 73.9251 15.9172 73.1784 15.1358L76.2221 12.1413C76.8216 12.7487 77.6004 13.1474 78.4437 13.2786C79.287 13.4097 80.1501 13.2664 80.9058 12.8697C81.7975 12.4051 82.7292 12.0216 83.6896 11.7239C84.4971 11.4537 85.1995 10.9369 85.6978 10.2464C86.1962 9.55595 86.4654 8.72653 86.4675 7.875L90.7594 7.91438C90.758 8.7615 91.0263 9.58708 91.5254 10.2716C92.0244 10.9561 92.7284 11.4641 93.5353 11.7219C94.4766 12.0218 95.3903 12.4025 96.266 12.8599C97.036 13.2442 97.906 13.3814 98.7569 13.2528C99.6079 13.1242 100.398 12.736 101.021 12.1413L104.015 15.185C103.408 15.7844 103.009 16.5633 102.878 17.4066C102.747 18.2499 102.89 19.113 103.287 19.8686C103.744 20.7447 104.126 21.6582 104.428 22.5993C104.692 23.4165 105.206 24.1302 105.897 24.6394C106.589 25.1485 107.423 25.4273 108.281 25.4363L108.202 29.7281C107.363 29.7285 106.545 29.9957 105.868 30.4912C105.19 30.9866 104.687 31.6846 104.432 32.4844H104.44Z" fill="#40BA77"/>
</svg>
