<svg width="25" height="24" viewBox="0 0 25 24" fill="none" xmlns="http://www.w3.org/2000/svg">
<path fill-rule="evenodd" clip-rule="evenodd" d="M23.7982 20.4227C23.0702 22.6347 20.2192 23.7375 18.1822 23.5545C15.2438 23.1258 12.458 21.9736 10.0752 20.2015C6.49482 17.6112 3.61334 14.1729 1.68921 10.1946C0.389209 7.42364 0.0892109 4.01544 2.03221 1.49444C2.32446 1.0527 2.7179 0.68718 3.17984 0.428034C3.64178 0.168888 4.15889 0.0238483 4.68821 0.00469391C6.30421 -0.0743061 6.53021 0.850362 7.08821 2.28936C7.50121 3.36636 8.05321 4.46435 8.36121 5.58135C8.93821 7.66435 6.92121 7.75045 6.66721 9.45245C6.51021 10.5254 7.81021 11.9663 8.39821 12.7303C9.53179 14.2209 10.9198 15.4999 12.4982 16.5076C13.3982 17.0706 14.8372 18.0886 15.8622 17.5276C17.4402 16.6636 17.2922 14.0026 19.4982 14.9026C20.6411 15.4185 21.756 15.9944 22.8382 16.6277C24.5252 17.5347 24.4462 18.4745 23.8032 20.4275" fill="#40BA77"/>
</svg>
