<svg width="60" height="45" viewBox="0 0 60 45" fill="none" xmlns="http://www.w3.org/2000/svg">
<path d="M18.7541 36.8877L17.1148 38.5264C16.8962 38.7449 16.6448 38.8541 16.3607 38.8541C16.0765 38.8541 15.8251 38.7449 15.6066 38.5264L0.327869 23.2538C0.10929 23.0353 0 22.784 0 22.5C0 22.216 0.10929 21.9647 0.327869 21.7462L15.6066 6.47361C15.8251 6.25512 16.0765 6.14587 16.3607 6.14587C16.6448 6.14587 16.8962 6.25512 17.1148 6.47361L18.7541 8.1123C18.9727 8.33079 19.082 8.58206 19.082 8.8661C19.082 9.15014 18.9727 9.4014 18.7541 9.61989L5.86885 22.5L18.7541 35.3801C18.9727 35.5986 19.082 35.8499 19.082 36.1339C19.082 36.4179 18.9727 36.6692 18.7541 36.8877ZM38.1311 1.91805L25.9016 44.229C25.8142 44.5131 25.6448 44.7261 25.3934 44.8681C25.1421 45.0101 24.8852 45.0375 24.6229 44.9501L22.5902 44.3929C22.306 44.3055 22.0929 44.1362 21.9508 43.8849C21.8087 43.6336 21.7814 43.366 21.8689 43.082L34.0984 0.770965C34.1858 0.486925 34.3552 0.273895 34.6066 0.131876C34.8579 -0.0101443 35.1148 -0.0374558 35.377 0.049941L37.4098 0.607096C37.694 0.694493 37.9071 0.863824 38.0492 1.11509C38.1913 1.36636 38.2186 1.63401 38.1311 1.91805ZM59.6721 23.2538L44.3934 38.5264C44.1749 38.7449 43.9235 38.8541 43.6393 38.8541C43.3552 38.8541 43.1038 38.7449 42.8852 38.5264L41.2459 36.8877C41.0273 36.6692 40.918 36.4179 40.918 36.1339C40.918 35.8499 41.0273 35.5986 41.2459 35.3801L54.1311 22.5L41.2459 9.61989C41.0273 9.4014 40.918 9.15014 40.918 8.8661C40.918 8.58206 41.0273 8.33079 41.2459 8.1123L42.8852 6.47361C43.1038 6.25512 43.3552 6.14587 43.6393 6.14587C43.9235 6.14587 44.1749 6.25512 44.3934 6.47361L59.6721 21.7462C59.8907 21.9647 60 22.216 60 22.5C60 22.784 59.8907 23.0353 59.6721 23.2538Z" fill="#FFB956"/>
</svg>
