<svg width="84" height="86" viewBox="0 0 84 86" fill="none" xmlns="http://www.w3.org/2000/svg">
<path d="M81.8654 45.3146H79.4654C79.0138 28.3916 70.5649 14.2404 57.9679 7.92589H73.7037V10.6752C73.6747 10.8803 73.6902 11.0892 73.7493 11.2878C73.8084 11.4864 73.9096 11.67 74.0461 11.8264C74.1826 11.9827 74.3512 12.108 74.5406 12.1939C74.7299 12.2798 74.9356 12.3243 75.1437 12.3243C75.3518 12.3243 75.5575 12.2798 75.7468 12.1939C75.9362 12.108 76.1048 11.9827 76.2413 11.8264C76.3778 11.67 76.479 11.4864 76.5381 11.2878C76.5971 11.0892 76.6127 10.8803 76.5837 10.6752V1.87973C76.6127 1.67463 76.5971 1.46574 76.5381 1.26714C76.479 1.06855 76.3778 0.884891 76.2413 0.728568C76.1048 0.572245 75.9362 0.446902 75.7468 0.361004C75.5575 0.275107 75.3518 0.230657 75.1437 0.230657C74.9356 0.230657 74.7299 0.275107 74.5406 0.361004C74.3512 0.446902 74.1826 0.572245 74.0461 0.728568C73.9096 0.884891 73.8084 1.06855 73.7493 1.26714C73.6902 1.46574 73.6747 1.67463 73.7037 1.87973V4.62904H47.7802V1.87973C47.8069 1.47145 47.6706 1.0692 47.4009 0.76038C47.1313 0.451561 46.7501 0.261129 46.3402 0.230469H38.6602C38.2502 0.261129 37.869 0.451561 37.5994 0.76038C37.3298 1.0692 37.1935 1.47145 37.2201 1.87973V4.62904H11.295V1.87973C11.3217 1.47145 11.1854 1.0692 10.9157 0.76038C10.6461 0.451561 10.2649 0.261129 9.85499 0.230469C9.44478 0.260713 9.06316 0.450965 8.79317 0.759831C8.52318 1.0687 8.38666 1.47118 8.41331 1.87973V10.6769C8.38664 11.0851 8.52294 11.4874 8.79257 11.7962C9.06221 12.105 9.44341 12.2955 9.85332 12.3261C10.2632 12.2955 10.6444 12.105 10.9141 11.7962C11.1837 11.4874 11.32 11.0851 11.2933 10.6769V7.92755H26.9832C13.4963 14.5129 4.69767 29.6238 4.57329 46.4146H2.17328C1.76337 46.4453 1.38217 46.6357 1.11253 46.9445C0.842895 47.2534 0.706601 47.6556 0.73327 48.0639V56.861C0.706601 57.2693 0.842895 57.6715 1.11253 57.9804C1.38217 58.2892 1.76337 58.4796 2.17328 58.5103H9.85332C10.2632 58.4796 10.6444 58.2892 10.9141 57.9804C11.1837 57.6715 11.32 57.2693 11.2933 56.861V48.0639C11.32 47.6556 11.1837 47.2534 10.9141 46.9445C10.6444 46.6357 10.2632 46.4453 9.85332 46.4146H7.45414C7.65282 26.9293 20.3449 10.5838 37.2185 8.08209V10.6769C37.1918 11.0851 37.3281 11.4874 37.5977 11.7962C37.8674 12.105 38.2486 12.2955 38.6585 12.3261H41.137L26.1868 55.7726C26.0605 56.1547 26.0605 56.567 26.1868 56.9491L31.5444 73.6494L31.4609 84.3375C31.4542 84.7658 31.6023 85.1821 31.8783 85.5107C32.0032 85.6606 32.1591 85.7817 32.3355 85.8658C32.5119 85.9498 32.7046 85.9948 32.9001 85.9976H51.1411C51.551 85.9669 51.9322 85.7765 52.2018 85.4677C52.4714 85.1589 52.6077 84.7566 52.5811 84.3483V73.7067L59.12 57.0471C59.2719 56.6318 59.2719 56.1763 59.12 55.761L43.8625 12.3261H46.3394C46.7493 12.2955 47.1305 12.105 47.4001 11.7962C47.6697 11.4874 47.806 11.0851 47.7794 10.6769V8.08209C64.102 10.6445 75.9952 26.0062 76.5795 45.3154H74.1845C73.7746 45.3461 73.3934 45.5365 73.1238 45.8453C72.8541 46.1541 72.7178 46.5564 72.7445 46.9647V55.761C72.7178 56.1692 72.8541 56.5715 73.1238 56.8803C73.3934 57.1891 73.7746 57.3796 74.1845 57.4102H81.8646C82.2745 57.3796 82.6557 57.1891 82.9253 56.8803C83.1949 56.5715 83.3312 56.1692 83.3046 55.761V46.9647C83.3312 46.5564 83.1949 46.1541 82.9253 45.8453C82.6557 45.5365 82.2745 45.3461 81.8646 45.3154L81.8654 45.3146ZM8.41331 55.2118H3.61329V49.7131H8.41331V55.2118ZM34.3385 82.7016L34.3961 75.0078H49.7002V82.7049L34.3385 82.7016ZM50.2094 71.7052H33.9828L29.0668 56.3966L41.0593 21.552V51.3624C41.0303 51.5675 41.0459 51.7764 41.105 51.975C41.164 52.1736 41.2652 52.3572 41.4017 52.5135C41.5383 52.6699 41.7069 52.7952 41.8962 52.8811C42.0856 52.967 42.2912 53.0115 42.4993 53.0115C42.7074 53.0115 42.9131 52.967 43.1024 52.8811C43.2918 52.7952 43.4604 52.6699 43.5969 52.5135C43.7334 52.3572 43.8346 52.1736 43.8937 51.975C43.9528 51.7764 43.9683 51.5675 43.9393 51.3624V21.3875L56.2391 56.3135L50.2094 71.7052ZM44.9002 9.02678H40.0993V3.52898H44.9002V9.02678ZM80.4254 54.1117H75.6245V48.6139H80.4254V54.1117Z" fill="#40BA77"/>
</svg>
