<svg width="50" height="50" viewBox="0 0 50 50" fill="none" xmlns="http://www.w3.org/2000/svg">
<path d="M28.6624 43.6211C26.6672 44.0122 25.0024 42.3268 25.0024 40.2936V40.2936C25.0024 38.2604 26.6918 36.6693 28.6235 36.0348C34.526 34.0961 38.3716 27.5536 35.8609 20.6785C34.7622 17.6637 32.3274 15.2318 29.2907 14.1331C22.4092 11.6426 15.8615 15.4754 13.9233 21.3712C13.2897 23.2985 11.7022 24.9843 9.67342 24.9843V24.9843C7.64465 24.9843 5.96295 23.3232 6.35316 21.3323C8.42679 10.7523 19.3315 3.28146 31.0568 6.94217C36.7439 8.7286 41.2902 13.2501 43.0577 18.9343C46.7191 30.6497 39.2469 41.546 28.6624 43.6211Z" fill="#0080FF"/>
<path fill-rule="evenodd" clip-rule="evenodd" d="M21.3508 36.654C19.3232 36.654 17.6774 35.0103 17.6774 32.9828V32.9828C17.6774 30.9552 19.3232 29.3115 21.3508 29.3115V29.3115C23.3783 29.3115 25.0242 30.9552 25.0242 32.9828V32.9828C25.0242 35.0103 23.3783 36.654 21.3508 36.654V36.654ZM14.8658 42.2741C13.3139 42.2741 12.0543 41.016 12.0543 39.4641V39.4641C12.0543 37.9121 13.3139 36.654 14.8658 36.654V36.654C16.4178 36.654 17.6774 37.9121 17.6774 39.4641V39.4641C17.6774 41.016 16.4178 42.2741 14.8658 42.2741V42.2741ZM12.0543 34.2964C12.0543 35.5984 10.9973 36.654 9.69521 36.654V36.654C8.39313 36.654 7.33612 35.5984 7.33612 34.2964V34.2964C7.33612 32.9943 8.39313 31.9387 9.69521 31.9387V31.9387C10.9973 31.9387 12.0543 32.9943 12.0543 34.2964V34.2964Z" fill="#0080FF"/>
</svg>
