<svg width="50" height="50" viewBox="0 0 50 50" fill="none" xmlns="http://www.w3.org/2000/svg">
<path fill-rule="evenodd" clip-rule="evenodd" d="M29.0053 19.1524H33.0475V23.8302H35.0865C36.0348 23.8166 36.9756 23.6382 37.8765 23.3013C38.3486 23.1222 38.8039 22.8905 39.2358 22.6097C38.6818 21.7418 38.359 20.711 38.3059 19.6403C38.1985 18.2167 38.4491 16.3454 39.3076 15.247L39.737 14.6775L40.2378 15.1249C41.5257 16.3045 42.563 17.8901 42.7776 19.7621C43.548 19.4854 44.3592 19.386 45.1637 19.4699C45.9683 19.5537 46.7501 19.8191 47.4634 20.2504L48 20.6166L47.7137 21.2673C46.5689 23.7893 44.1738 24.6028 41.8474 24.44C38.3416 34.3246 30.7583 39.0014 21.5294 39.0014C16.7718 39.0014 12.4079 36.9677 9.90382 32.1677L9.86811 32.0865L9.51043 31.2324C8.68586 29.113 8.3652 26.7845 8.58052 24.4799L8.65193 23.7882H12.0856V19.1524H16.1278V14.5967H24.1763V10H29.0053V19.1524Z" fill="#3A4D54"/>
<path d="M42.0977 20.902C42.3839 18.5022 40.8098 16.6316 39.8085 15.7358C38.7003 17.2004 38.5206 21.1054 40.2736 22.7323C39.2719 23.7086 37.233 24.6442 35.0869 24.6442H9.26116C9.03327 26.9921 9.40584 29.3649 10.3342 31.478L10.6205 32.0881C10.7993 32.4542 11.0139 32.7797 11.2287 33.1455C12.2045 33.2312 13.1836 33.2583 14.1619 33.2267C15.6144 33.2301 17.0599 32.9972 18.4544 32.5351C18.5303 32.5026 18.6144 32.5057 18.6882 32.5437C18.7621 32.5818 18.8197 32.6516 18.8482 32.7379C18.8768 32.8242 18.8741 32.9199 18.8406 33.0039C18.8072 33.0878 18.7457 33.1533 18.6698 33.1858C18.5267 33.2264 18.3836 33.3079 18.2047 33.3485C17.2359 33.6522 16.2399 33.8296 15.2359 33.8774H15.0204C14.5553 33.918 14.0545 33.918 13.5179 33.918C12.9457 33.918 12.4098 33.918 11.7652 33.8774C13.9116 36.6427 17.2751 38.2707 21.495 38.2707C30.4376 38.2707 38.0213 33.7553 41.3491 23.6676C43.7457 23.9522 46.0349 23.2609 47.0726 20.9423C45.463 19.8438 43.3172 20.21 42.1004 20.9017L42.0977 20.902Z" fill="#00AADA"/>
<path d="M42.0972 20.902C42.3835 18.5022 40.8093 16.6316 39.808 15.7358C38.6999 17.2004 38.5201 21.1054 40.2731 22.7323C39.2715 23.7086 37.2325 24.6442 35.0864 24.6442H10.7616C10.6542 28.5086 11.9064 31.4374 14.1599 33.1851C15.6124 33.1884 17.0579 32.9555 18.4524 32.4934C18.49 32.4773 18.53 32.4698 18.5701 32.4713C18.6102 32.4728 18.6497 32.4832 18.6863 32.5021C18.7228 32.5209 18.7558 32.5478 18.7832 32.5811C18.8107 32.6144 18.8321 32.6535 18.8463 32.6963C18.8604 32.739 18.867 32.7845 18.8657 32.8301C18.8644 32.8757 18.8552 32.9206 18.8386 32.9622C18.8221 33.0038 18.7985 33.0413 18.7692 33.0725C18.7399 33.1037 18.7054 33.128 18.6679 33.1441C18.5247 33.1847 18.3816 33.2663 18.2028 33.3069C17.2115 33.6255 16.1921 33.817 15.1634 33.8778L15.1277 33.8372C18.1683 35.6269 22.5682 35.5874 27.6475 33.3898C33.2993 30.9084 38.5934 26.19 42.2779 20.8204C42.2053 20.861 42.1339 20.861 42.0972 20.902Z" fill="#28B8EB"/>
<path d="M9.29578 27.6946C9.43916 29.0161 9.79054 30.2975 10.3331 31.4774L10.6194 32.0879C10.7982 32.454 11.0128 32.7795 11.2276 33.1453C12.2029 33.2305 13.1815 33.2571 14.1593 33.2251C15.6122 33.2292 17.0582 32.9969 18.4533 32.5352C18.5292 32.5027 18.6133 32.5058 18.6872 32.5439C18.761 32.5819 18.8186 32.6518 18.8471 32.7381C18.8757 32.8243 18.873 32.92 18.8395 33.004C18.8061 33.088 18.7446 33.1534 18.6688 33.1859C18.5256 33.2265 18.3825 33.3081 18.2036 33.3487C17.212 33.6669 16.1921 33.858 15.163 33.9182H15.0199C14.5548 33.9588 14.054 33.9588 13.5532 33.9588C12.9809 33.9588 12.4084 33.9588 11.8005 33.9182C13.9469 36.6835 17.3448 38.3115 21.5659 38.3115C29.221 38.3115 35.8744 35.0166 39.7375 27.7352H9.29578V27.6946Z" fill="#028BB8"/>
<path d="M11.0128 27.6946C11.3998 29.9182 12.5276 31.8858 14.1605 33.1859C15.613 33.1893 17.0585 32.9564 18.453 32.4943C18.4906 32.4782 18.5306 32.4707 18.5707 32.4721C18.6108 32.4736 18.6503 32.4841 18.6869 32.5029C18.7235 32.5218 18.7564 32.5486 18.7839 32.5819C18.8113 32.6152 18.8327 32.6544 18.8469 32.6971C18.861 32.7398 18.8676 32.7853 18.8663 32.8309C18.865 32.8766 18.8558 32.9215 18.8393 32.963C18.8227 33.0046 18.7991 33.0421 18.7698 33.0733C18.7405 33.1045 18.7061 33.1289 18.6685 33.145C18.5254 33.1856 18.3822 33.2671 18.2034 33.3077C17.2002 33.6291 16.1681 33.8201 15.1271 33.8772C18.1677 35.667 22.5676 35.6274 27.6111 33.4299C30.7324 32.021 33.6502 30.0877 36.2672 27.6946H11.0128Z" fill="#019BC6"/>
<path fill-rule="evenodd" clip-rule="evenodd" d="M12.7653 19.9253H16.271V23.9105H12.7653V19.9253ZM13.0516 20.2509H13.3379V23.5457H13.0516V20.2509ZM13.5524 20.2509H13.8387V23.5457H13.5524V20.2509ZM14.0889 20.2509H14.3752V23.5457H14.0889V20.2509ZM14.6254 20.2509H14.9117V23.5457H14.6254V20.2509ZM15.162 20.2509H15.4482V23.5457H15.162V20.2509ZM15.6985 20.2509H15.9848V23.5457H15.6985V20.2509ZM16.7715 15.3696H20.276V19.3562H16.7715V15.3696ZM17.0935 15.6952H17.3798V18.99H17.0935V15.6952ZM17.5943 15.6952H17.8806V18.99H17.5943V15.6952ZM18.1308 15.6952H18.4171V18.99H18.1308V15.6952ZM18.6674 15.6952H18.9536V18.99H18.6674V15.6952ZM19.1682 15.6952H19.4545V18.99H19.1679L19.1682 15.6952ZM19.7047 15.6952H19.991V18.99H19.7047V15.6952Z" fill="#00ACD3"/>
<path fill-rule="evenodd" clip-rule="evenodd" d="M16.772 19.9248H20.2777V23.9113H16.772V19.9248ZM17.094 20.2503H17.3803V23.5452H17.094V20.2503ZM17.5948 20.2503H17.8811V23.5452H17.5948V20.2503ZM18.1313 20.2503H18.4176V23.5452H18.1313V20.2503ZM18.6679 20.2503H18.9541V23.5452H18.6679V20.2503ZM19.1687 20.2503H19.455V23.5452H19.1687V20.2503ZM19.7052 20.2503H19.9915V23.5452H19.7052V20.2503Z" fill="#23C2EE"/>
<path fill-rule="evenodd" clip-rule="evenodd" d="M20.814 19.9248H24.3197V23.9113H20.814V19.9248ZM21.1002 20.2503H21.3865V23.5452H21.1002V20.2503ZM21.6368 20.2503H21.923V23.5452H21.6368V20.2503ZM22.1733 20.2503H22.4595V23.5452H22.1733V20.2503ZM22.6741 20.2503H22.9604V23.5452H22.6741V20.2503ZM23.2106 20.2503H23.4969V23.5452H23.2106V20.2503ZM23.7471 20.2503H24.0334V23.5452H23.7471V20.2503Z" fill="#00ACD3"/>
<path fill-rule="evenodd" clip-rule="evenodd" d="M20.814 15.3696H24.3197V19.3562H20.814V15.3696ZM21.1002 15.6952H21.3865V18.99H21.1002V15.6952ZM21.6368 15.6952H21.923V18.99H21.6368V15.6952ZM22.1733 15.6952H22.4595V18.99H22.1733V15.6952ZM22.6741 15.6952H22.9604V18.99H22.6741V15.6952ZM23.2106 15.6952H23.4969V18.99H23.2106V15.6952ZM23.7471 15.6952H24.0334V18.99H23.7471V15.6952ZM24.8553 19.9257H28.3616V23.9105H24.8562L24.8553 19.9257ZM25.1415 20.2512H25.4278V23.5461H25.1415V20.2512ZM25.6781 20.2512H25.9643V23.5461H25.6774L25.6781 20.2512ZM26.1789 20.2512H26.4651V23.5461H26.1789V20.2512ZM26.7154 20.2512H27.0011V23.5461H26.7148L26.7154 20.2512ZM27.2519 20.2512H27.5382V23.5461H27.2519V20.2512ZM27.7884 20.2512H28.0747V23.5461H27.7884V20.2512Z" fill="#23C2EE"/>
<path fill-rule="evenodd" clip-rule="evenodd" d="M24.8561 15.3696H28.3618V19.3562H24.8561V15.3696ZM25.1424 15.6952H25.4287V18.99H25.1424V15.6952ZM25.6789 15.6952H25.9652V18.99H25.6789V15.6952ZM26.1797 15.6952H26.466V18.99H26.1797V15.6952ZM26.7163 15.6952H27.0025V18.99H26.7163V15.6952ZM27.2528 15.6952H27.5391V18.99H27.2528V15.6952ZM27.7893 15.6952H28.0756V18.99H27.7893V15.6952Z" fill="#00ACD3"/>
<path fill-rule="evenodd" clip-rule="evenodd" d="M24.8561 10.7727H28.3618V14.7593H24.8561V10.7727ZM25.1424 11.0982H25.4287V14.3931H25.1424V11.0982ZM25.6789 11.0982H25.9652V14.3931H25.6789V11.0982ZM26.1797 11.0982H26.466V14.3931H26.1797V11.0982ZM26.7163 11.0982H27.0025V14.3931H26.7163V11.0982ZM27.2528 11.0982H27.5391V14.3931H27.2528V11.0982ZM27.7893 11.0982H28.0756V14.3931H27.7893V11.0982Z" fill="#23C2EE"/>
<path fill-rule="evenodd" clip-rule="evenodd" d="M28.8983 19.9248H32.404V23.9113H28.8983V19.9248ZM29.1846 20.2503H29.4709V23.5452H29.1846V20.2503ZM29.6854 20.2503H29.9717V23.5452H29.6854V20.2503ZM30.2219 20.2503H30.5082V23.5452H30.2219V20.2503ZM30.7584 20.2503H31.0447V23.5452H30.7584V20.2503ZM31.295 20.2503H31.5812V23.5452H31.295V20.2503ZM31.8315 20.2503H32.1178V23.5452H31.8315V20.2503Z" fill="#00ACD3"/>
<path fill-rule="evenodd" clip-rule="evenodd" d="M20.0629 30.3396C20.2539 30.3396 20.4407 30.404 20.5995 30.5247C20.7583 30.6454 20.8821 30.817 20.9553 31.0177C21.0284 31.2184 21.0475 31.4392 21.0102 31.6523C20.973 31.8654 20.881 32.0611 20.7459 32.2147C20.6108 32.3683 20.4387 32.4729 20.2513 32.5153C20.0639 32.5577 19.8697 32.536 19.6932 32.4528C19.5167 32.3697 19.3659 32.2289 19.2597 32.0483C19.1536 31.8676 19.0969 31.6553 19.0969 31.438C19.0964 31.2936 19.121 31.1505 19.1694 31.017C19.2177 30.8834 19.2889 30.7621 19.3787 30.66C19.4685 30.5579 19.5752 30.477 19.6926 30.422C19.81 30.367 19.9359 30.339 20.0629 30.3396Z" fill="#D4EEF1"/>
<path fill-rule="evenodd" clip-rule="evenodd" d="M20.0628 30.6642C20.1478 30.6577 20.2331 30.6715 20.3131 30.7048C20.2702 30.7348 20.2346 30.7766 20.2096 30.8263C20.1846 30.8761 20.171 30.9321 20.1699 30.9894C20.175 31.0738 20.2068 31.1533 20.2594 31.2132C20.312 31.273 20.3819 31.3092 20.4562 31.3149C20.5066 31.3137 20.5559 31.2982 20.5996 31.2698C20.6433 31.2414 20.6801 31.2009 20.7065 31.1521C20.7357 31.2431 20.7479 31.3401 20.7422 31.4367C20.7422 31.5896 20.7023 31.739 20.6276 31.8661C20.5529 31.9932 20.4468 32.0923 20.3226 32.1508C20.1984 32.2093 20.0618 32.2246 19.9299 32.1947C19.7981 32.1649 19.677 32.0913 19.5819 31.9832C19.4869 31.8751 19.4221 31.7374 19.3959 31.5875C19.3697 31.4376 19.3832 31.2822 19.4346 31.141C19.486 30.9997 19.5731 30.879 19.6849 30.7941C19.7967 30.7092 19.9281 30.6638 20.0625 30.6638L20.0628 30.6642ZM3 28.1016H47.857C46.8911 27.817 44.7807 27.4509 45.1027 25.9863C43.3143 28.305 39.0575 27.6133 37.9484 26.4746C36.7323 28.4677 29.7211 27.6948 29.256 26.1491C27.7536 28.1828 23.0689 28.1828 21.5653 26.1491C21.0645 27.6948 14.0546 28.4677 12.8729 26.4746C11.7998 27.6133 7.50703 28.305 5.71863 25.9863C6.11201 27.4099 3.96592 27.8167 3 28.1016" fill="#3A4D54"/>
<path d="M22.6384 38.2709C20.2417 36.9691 18.9538 35.22 18.2027 33.3081C17.1622 33.6253 16.095 33.8162 15.019 33.8776C14.5539 33.9182 14.0531 33.9182 13.5523 33.9182C12.944 33.9182 12.3361 33.9182 11.6921 33.8776C13.8388 36.3184 16.5559 38.2299 21.5296 38.2709H22.6377H22.6384Z" fill="#BFDBE0"/>
<path d="M19.0969 35.0583C18.757 34.5038 18.4579 33.9185 18.2027 33.3081C17.1621 33.6253 16.0949 33.8162 15.019 33.8776C15.8418 34.3656 17.058 34.8539 19.0969 35.0583Z" fill="#D4EEF1"/>
</svg>
