<svg width="50" height="50" viewBox="0 0 50 50" fill="none" xmlns="http://www.w3.org/2000/svg">
<path d="M41.9409 14.2222H39.3094L33.25 23.2631L27.1906 14.2222H24.5591L31.9331 25.2275L24.6509 36.0972H27.2825L33.25 27.1919L39.2175 36.0972H41.8491L34.5669 25.2275L41.9409 14.2222Z" fill="#66798F"/>
<path d="M21.8969 29.5347C21.8859 29.5631 21.8837 29.5937 21.8728 29.62C20.8994 32.1859 18.4384 33.9097 15.6778 33.9097C12.0991 33.9097 9.1875 30.9303 9.1875 27.2684V25.1597H18.8978H24.5V22.9722H24.4934C24.4519 18.1422 20.5822 14.2222 15.6778 14.2222C10.8916 14.2222 7 18.1837 7 23.0509V27.2706C7 32.1378 10.8916 36.0972 15.75 36.0972C19.3463 36.0972 22.6275 33.8047 23.9181 30.3944C24.0253 30.1144 24.0844 29.8212 24.1609 29.5347H21.8969ZM15.8222 16.4097C19.3747 16.4097 22.2622 19.3475 22.3037 22.9722H9.19406C9.23563 19.3475 12.1253 16.4097 15.8222 16.4097Z" fill="#66798F"/>
</svg>
