<svg width="711" height="691" viewBox="0 0 711 691" fill="none" xmlns="http://www.w3.org/2000/svg">
<path d="M52.7016 583.545C118.276 629.557 290.524 719.728 430.641 680.482C570.775 641.235 647.066 587.741 674.075 451.907C701.085 316.073 697.029 141.22 612.417 82.2365C525.725 21.7843 426.69 -16.3435 377.042 6.88983C327.795 29.9484 300.087 150.188 279.616 235.972C238.953 406.402 -135.805 451.33 52.6841 583.563L52.7016 583.545Z" fill="#E7F9EC"/>
<path d="M394.069 667.998L314.108 649.363V562.023H394.069V667.998Z" fill="url(#paint0_linear_1_4)"/>
<path d="M394.069 600.64L375.626 611.951L332.533 565.799L315.348 503.459C314.614 500.784 315.733 497.935 318.11 496.466L329.421 489.526C331.344 488.337 333.756 488.302 335.732 489.421L388.859 519.507C392.076 521.325 394.069 524.752 394.069 528.44V600.64Z" fill="url(#paint1_linear_1_4)"/>
<path d="M375.625 611.952L314.089 577.111V504.124C314.089 501.799 316.589 500.348 318.599 501.484L370.398 530.819C373.615 532.637 375.607 536.063 375.607 539.752V611.952H375.625Z" fill="url(#paint2_linear_1_4)"/>
<path d="M352.269 552.758C352.269 547.339 348.808 540.993 344.542 538.563C340.277 536.151 336.815 538.581 336.815 544C336.815 547.829 338.564 552.112 341.081 555.153L338.598 567.6L350.451 574.313L347.969 559.069C350.486 558.877 352.234 556.587 352.234 552.758H352.269Z" fill="#2C2C3D"/>
<path d="M75.6021 300.585C62.6831 318.189 63.0677 337.262 65.113 348.992L59.8161 334.01C57.7882 328.259 57.3337 322.07 58.505 316.092C59.7986 309.449 61.5643 302.963 61.4594 296.599C61.2321 283.401 44.974 269.538 43.4705 260.395C43.4705 260.395 32.9465 283.733 38.3484 302.054C42.4741 316.004 52.2115 329.605 56.6169 335.304C57.3861 336.301 57.9805 337.384 58.4001 338.573L64.0991 354.709C57.7007 344.779 46.46 332.682 28.0342 327.804C28.0342 327.804 29.4502 334.08 33.7158 343.905C40.9183 360.478 59.5014 359.551 67.9801 365.722L81.5809 404.235L84.2732 403.291L70.7771 365.076C68.522 358.712 69.3612 351.685 73.0149 346.02C78.0846 338.154 84.6752 329.046 81.2662 316.686C78.4167 306.372 75.5846 300.585 75.5846 300.585H75.6021Z" fill="url(#paint3_linear_1_4)"/>
<path d="M59.8346 334.01C57.8067 328.259 57.3522 322.07 58.5235 316.092C59.8171 309.449 61.5827 302.963 61.4778 296.599C61.2505 283.401 44.9925 269.538 43.489 260.395C41.3038 279.625 49.9049 307.281 59.852 334.01H59.8346Z" fill="url(#paint4_linear_1_4)"/>
<path d="M50.0611 454.11C50.0611 454.11 43.7327 384.584 56.2846 377.627C68.8366 370.669 75.6545 395.755 86.5457 391.228C97.4368 386.7 81.2312 313.993 105.129 308.906C123.729 304.955 138.834 350.775 138.834 350.775C138.834 350.775 146.246 238.262 164.724 239.957C183.203 241.653 190.597 312.717 190.597 312.717C190.597 312.717 206.558 175.117 235.316 172.128C264.074 169.139 266.311 319.605 266.311 319.605C266.311 319.605 110.059 427.362 50.0436 454.092L50.0611 454.11Z" fill="url(#paint5_linear_1_4)"/>
<path d="M407.057 518.478L241.032 422.782V350.984L324.045 398.841L407.057 446.697V518.478Z" fill="url(#paint6_linear_1_4)"/>
<path d="M496.111 119.981C554.08 153.441 600.879 234.522 600.705 301.128C600.512 367.733 553.399 394.655 495.429 361.195C437.459 327.735 390.591 246.549 390.783 179.944C390.975 113.338 438.141 86.5207 496.111 119.981Z" fill="url(#paint7_linear_1_4)"/>
<path d="M228.856 566.221C266.097 554.949 291.723 530.732 286.092 512.13C280.462 493.528 245.708 487.586 208.467 498.858C171.226 510.13 145.601 534.347 151.231 552.949C156.861 571.551 191.615 577.493 228.856 566.221Z" fill="url(#paint8_linear_1_4)"/>
<path d="M325.139 20.5963C337.691 27.8337 348.197 43.5674 351.484 58.6542C354.141 58.2346 357.288 58.9164 360.662 60.8569C369.682 66.0665 377.06 78.4086 377.619 88.9676L384.804 93.1108C392.584 97.6037 398.859 108.477 398.842 117.428C398.824 126.344 392.496 129.98 384.717 125.487L286.714 68.916C278.934 64.4232 272.658 53.5145 272.676 44.5988C272.693 35.6481 279.022 32.0468 286.801 36.5397L287.43 36.9068C287.36 36.225 287.291 35.5607 287.291 34.8964C287.308 27.2393 292.483 23.9528 299.003 27.1345C302.692 16.7153 312.989 13.586 325.121 20.5963" fill="url(#paint9_linear_1_4)"/>
<path d="M207.135 110.156L194.286 102.796L181.594 110.121C179.776 111.17 178.15 110.785 177.573 109.159C177.014 107.498 176.315 105.978 175.51 104.631C174.706 103.25 175.021 100.803 176.297 98.6002L179.863 92.4291L183.709 93.548L192.398 85.7686L179.706 78.601L179.671 78.6535C177.399 77.3074 174.934 76.2934 172.294 75.6641L163.308 91.1879C162.504 92.5865 161.438 93.7053 160.336 94.3346C159.707 94.7018 159.06 94.9115 158.466 94.9115C157.312 94.9115 156.106 95.0164 154.882 95.2087L163.43 85.2441L150.581 77.8843C147.609 79.0206 144.568 80.4016 141.438 82.2197C138.327 84.0204 135.285 86.1357 132.295 88.4608L132.33 103.041C132.33 105.138 131.212 107.638 129.481 109.299C127.785 110.925 126.124 112.673 124.533 114.509C123.939 115.19 123.292 115.732 122.663 116.1C121.562 116.729 120.495 116.851 119.674 116.397L110.653 111.257C105.636 118.232 101.283 125.767 97.7688 133.564L106.789 138.721C108.066 139.438 108.415 141.501 107.611 143.808C106.807 146.098 106.125 148.406 105.548 150.731C104.971 153.021 103.363 155.276 101.58 156.308L88.8706 163.65C88.3811 167.356 88.0664 171.045 88.0664 174.646C88.0664 178.212 88.416 181.534 88.923 184.681L101.772 192.041L107.506 187.618C107.331 188.037 107.174 188.457 106.929 188.859L97.9786 204.365C99.8491 206.341 101.964 207.932 104.272 209.208L116.894 216.428L123.869 202.844L117.89 199.733L119.901 196.236C120.722 194.82 121.789 193.719 122.89 193.072C123.52 192.705 124.166 192.495 124.761 192.495C126.352 192.495 128.012 192.338 129.726 192.023C131.456 191.656 132.593 192.897 132.593 194.96L132.628 209.54L145.477 216.9L154.445 204.26L150.896 194.453L150.861 184.383C150.861 182.321 151.997 179.768 153.711 178.16C156.385 175.59 158.903 172.776 161.28 169.769L172.556 176.167C177.538 169.227 181.909 161.675 185.44 153.86L176.419 148.721C175.126 147.986 174.794 145.941 175.598 143.598C176.402 141.308 177.084 139.001 177.626 136.693C178.203 134.403 179.811 132.165 181.629 131.116L194.321 123.792C194.338 123.617 194.356 123.459 194.373 123.285L198.184 123.424L207.118 110.138L207.135 110.156ZM117.768 174.506H117.681V174.366C117.716 174.419 117.751 174.454 117.785 174.506H117.768ZM141.666 166.535C130.722 172.845 121.806 167.776 121.771 155.189C121.736 142.584 130.6 127.235 141.543 120.924C152.504 114.596 161.403 119.683 161.438 132.288C161.473 144.857 152.627 160.206 141.666 166.535Z" fill="#2E4456"/>
<path d="M190.492 144.072C191.069 141.782 192.677 139.544 194.495 138.495L207.187 131.17C207.676 127.429 207.991 123.758 207.991 120.174C207.991 116.573 207.641 113.269 207.135 110.14L194.443 117.464C192.625 118.513 190.999 118.129 190.422 116.503C189.862 114.842 189.163 113.321 188.359 111.975C187.555 110.594 187.869 108.147 189.146 105.944L198.096 90.4026C194.53 86.679 190.142 84.1966 185.125 83.0078L176.139 98.5317C175.335 99.9302 174.269 101.049 173.167 101.678C172.538 102.046 171.891 102.255 171.297 102.255C169.706 102.255 168.045 102.413 166.314 102.78C164.601 103.094 163.447 101.906 163.447 99.8253L163.412 85.2455C160.441 86.3818 157.399 87.7629 154.269 89.581C151.158 91.3816 148.116 93.4969 145.126 95.822L145.161 110.402C145.161 112.5 144.043 115 142.312 116.66C140.616 118.286 138.955 120.034 137.365 121.87C136.77 122.552 136.123 123.094 135.494 123.461C134.393 124.09 133.326 124.212 132.505 123.758L123.484 118.618C118.467 125.594 114.114 133.128 110.6 140.925L119.62 146.082C120.897 146.799 121.246 148.862 120.442 151.169C119.638 153.46 118.956 155.767 118.379 158.092C117.802 160.382 116.194 162.637 114.411 163.669L101.702 171.011C101.212 174.717 100.897 178.406 100.897 182.007C100.897 185.574 101.247 188.895 101.754 192.042L114.463 184.7C116.264 183.668 117.872 184.035 118.467 185.661C119.044 187.322 119.743 188.825 120.565 190.189C121.369 191.605 121.036 194.017 119.778 196.238L110.827 211.744C114.376 215.485 118.764 217.985 123.799 219.139L132.749 203.632C133.571 202.216 134.637 201.115 135.739 200.468C136.368 200.101 137.015 199.891 137.609 199.891C139.2 199.891 140.861 199.734 142.574 199.419C144.305 199.052 145.441 200.293 145.441 202.356L145.476 216.936C148.465 215.817 151.507 214.436 154.619 212.635C157.748 210.835 160.79 208.702 163.762 206.377L163.727 191.797C163.727 189.734 164.863 187.182 166.577 185.574C169.251 183.004 171.769 180.189 174.146 177.182L185.422 183.581C190.404 176.64 194.775 169.088 198.306 161.274L189.285 156.134C187.992 155.4 187.66 153.355 188.464 151.012C189.268 148.722 189.95 146.414 190.492 144.107V144.072ZM154.374 128.268C165.335 121.94 174.234 127.027 174.269 139.631C174.304 152.201 165.458 167.55 154.497 173.878C143.553 180.189 134.637 175.119 134.602 162.533C134.567 149.928 143.431 134.579 154.374 128.268ZM130.599 181.85H130.512V181.71C130.547 181.745 130.582 181.798 130.617 181.85H130.599Z" fill="#989898"/>
<path d="M154.55 183.419C139.044 192.37 126.387 185.15 126.334 167.336C126.282 149.487 138.869 127.704 154.375 118.754C169.899 109.785 182.573 117.005 182.626 134.854C182.678 152.668 170.091 174.468 154.567 183.436M154.375 115.939C137.505 125.676 123.834 149.382 123.887 168.787C123.939 188.156 137.715 196.006 154.585 186.286C171.472 176.531 185.161 152.826 185.108 133.456C185.056 114.051 171.28 106.202 154.393 115.957" fill="url(#paint10_radial_1_4)"/>
<path d="M135.826 482.064L35.7078 540.121C33.7324 541.275 31.25 539.841 31.25 537.551V456.75L135.826 396.123V482.064Z" fill="url(#paint11_linear_1_4)"/>
<path d="M140.337 573.981L35.8836 634.538C33.8208 635.727 31.2334 634.241 31.2334 631.863V551.237C31.2334 548.982 32.4396 546.884 34.3976 545.748L137.82 485.785C138.921 485.138 140.32 485.943 140.32 487.219V573.981H140.337Z" fill="url(#paint12_linear_1_4)"/>
<path d="M136.982 481.592L35.2031 540.593V463.97L65.5865 446.348L77.4392 453.865L139.779 417.73V476.732C139.779 478.742 138.713 480.578 136.982 481.592Z" fill="url(#paint13_linear_1_4)"/>
<path d="M528.976 554.702L421.357 492.362V269.066L528.976 331.407V554.702Z" fill="#2C2C3D"/>
<path d="M528.976 357.122L421.357 294.782V269.066L528.976 331.407V357.122Z" fill="#489977"/>
<g filter="url(#filter0_d_1_4)">
<path d="M509.135 413.378L441.2 374.026V341.213L509.135 380.564V413.378Z" fill="#2C2C3D"/>
</g>
<path d="M465.255 364.833C465.342 364.885 465.429 364.973 465.499 365.112C465.569 365.235 465.604 365.375 465.604 365.497V376.353C465.604 376.476 465.569 376.563 465.499 376.616C465.429 376.668 465.342 376.668 465.255 376.616L464.223 376.021C464.136 375.969 464.048 375.881 463.978 375.741C463.908 375.619 463.874 375.479 463.874 375.357V370.916L460.01 368.679V373.119C460.01 373.242 459.975 373.329 459.905 373.381C459.835 373.434 459.765 373.434 459.66 373.381L458.629 372.787C458.542 372.735 458.454 372.647 458.384 372.525C458.314 372.402 458.279 372.28 458.279 372.14V361.284C458.279 361.162 458.314 361.074 458.384 361.022C458.454 360.969 458.524 360.969 458.629 361.022L459.66 361.616C459.748 361.669 459.835 361.756 459.905 361.896C459.975 362.018 460.01 362.158 460.01 362.28V366.598L463.874 368.836V364.518C463.874 364.396 463.908 364.308 463.978 364.256C464.048 364.203 464.136 364.203 464.223 364.256L465.255 364.85V364.833Z" fill="white"/>
<path d="M473.873 369.832C473.961 369.884 474.048 369.972 474.118 370.111C474.188 370.251 474.223 370.374 474.223 370.496V371.685C474.223 371.807 474.188 371.895 474.118 371.947C474.048 371.999 473.961 371.999 473.873 371.947L471.566 370.618V379.831C471.566 379.954 471.531 380.041 471.461 380.094C471.391 380.146 471.303 380.146 471.216 380.094L470.185 379.499C470.097 379.447 470.01 379.359 469.94 379.219C469.87 379.097 469.835 378.957 469.835 378.835V369.622L467.527 368.293C467.44 368.241 467.352 368.153 467.283 368.014C467.213 367.874 467.178 367.751 467.178 367.629V366.44C467.178 366.318 467.213 366.23 467.283 366.178C467.352 366.126 467.422 366.126 467.527 366.178L473.856 369.849L473.873 369.832Z" fill="white"/>
<path d="M480.027 379.394L482.457 375.251C482.457 375.251 482.544 375.164 482.632 375.076C482.719 375.006 482.841 375.006 483.016 375.111L483.89 375.618C483.978 375.671 484.065 375.758 484.135 375.898C484.205 376.02 484.24 376.16 484.24 376.283V387.139C484.24 387.261 484.205 387.348 484.135 387.401C484.065 387.453 483.978 387.453 483.89 387.401L482.859 386.807C482.771 386.754 482.684 386.667 482.614 386.527C482.544 386.404 482.509 386.265 482.509 386.142V379.569L480.848 382.384C480.848 382.384 480.744 382.506 480.674 382.559C480.604 382.611 480.499 382.593 480.376 382.524L479.712 382.139C479.59 382.069 479.502 381.964 479.415 381.824C479.345 381.684 479.275 381.562 479.24 381.44L477.579 376.685V383.258C477.579 383.38 477.544 383.468 477.475 383.52C477.405 383.572 477.335 383.572 477.23 383.52L476.198 382.926C476.111 382.873 476.024 382.786 475.954 382.646C475.884 382.524 475.849 382.384 475.849 382.261V371.405C475.849 371.283 475.884 371.195 475.954 371.143C476.024 371.09 476.093 371.09 476.198 371.143L477.072 371.65C477.247 371.755 477.37 371.877 477.457 372.052C477.544 372.227 477.597 372.349 477.632 372.419L480.062 379.377L480.027 379.394Z" fill="white"/>
<path d="M492.492 390.269C492.579 390.321 492.666 390.409 492.736 390.549C492.806 390.671 492.841 390.811 492.841 390.933V392.122C492.841 392.244 492.806 392.332 492.736 392.384C492.666 392.437 492.579 392.437 492.492 392.384L486.88 389.133C486.793 389.08 486.705 388.993 486.635 388.853C486.565 388.731 486.53 388.591 486.53 388.468V377.612C486.53 377.49 486.565 377.402 486.635 377.35C486.705 377.297 486.775 377.297 486.88 377.35L487.911 377.944C487.999 377.997 488.086 378.084 488.156 378.224C488.226 378.346 488.261 378.486 488.261 378.609V387.821L492.492 390.269Z" fill="white"/>
<g filter="url(#filter1_d_1_4)">
<path d="M509.135 464.372L441.2 425.02V392.207L509.135 431.559V464.372Z" fill="#2C2C3D"/>
</g>
<path d="M468.525 425.754C468.542 425.614 468.594 425.527 468.664 425.509C468.734 425.474 468.822 425.492 468.909 425.544L469.941 426.138C470.028 426.191 470.115 426.278 470.185 426.401C470.255 426.523 470.29 426.663 470.29 426.785C470.273 427.222 470.185 427.642 470.028 428.009C469.871 428.376 469.643 428.656 469.346 428.848C469.032 429.04 468.647 429.11 468.175 429.075C467.703 429.04 467.143 428.831 466.479 428.446C465.885 428.096 465.378 427.694 464.923 427.205C464.469 426.715 464.084 426.173 463.769 425.579C463.455 424.985 463.21 424.355 463.035 423.673C462.86 423.009 462.756 422.31 462.721 421.628C462.703 421.191 462.686 420.719 462.686 420.195C462.686 419.67 462.686 419.216 462.721 418.796C462.756 418.149 462.86 417.59 463.035 417.118C463.21 416.646 463.455 416.296 463.769 416.069C464.084 415.842 464.469 415.754 464.923 415.772C465.378 415.789 465.902 415.999 466.479 416.331C467.143 416.716 467.72 417.17 468.175 417.677C468.647 418.184 469.032 418.709 469.346 419.268C469.661 419.81 469.888 420.369 470.028 420.911C470.168 421.471 470.273 421.978 470.29 422.432C470.29 422.572 470.273 422.66 470.185 422.712C470.115 422.747 470.028 422.747 469.941 422.694L468.909 422.1C468.909 422.1 468.734 421.96 468.664 421.855C468.594 421.733 468.542 421.611 468.525 421.453C468.507 421.209 468.437 420.964 468.35 420.702C468.262 420.439 468.122 420.177 467.965 419.915C467.808 419.653 467.598 419.39 467.353 419.146C467.109 418.901 466.811 418.674 466.479 418.481C466.147 418.289 465.85 418.184 465.605 418.184C465.36 418.184 465.151 418.237 464.993 418.359C464.818 418.481 464.696 418.674 464.609 418.936C464.521 419.198 464.469 419.495 464.451 419.827C464.451 420.247 464.434 420.702 464.434 421.226C464.434 421.75 464.434 422.222 464.451 422.66C464.451 423.027 464.521 423.394 464.609 423.743C464.696 424.111 464.818 424.443 464.993 424.757C465.151 425.072 465.36 425.369 465.605 425.649C465.85 425.929 466.147 426.156 466.479 426.348C466.811 426.54 467.109 426.663 467.353 426.698C467.598 426.733 467.808 426.715 467.983 426.645C468.14 426.575 468.28 426.453 468.367 426.296C468.455 426.138 468.524 425.964 468.542 425.736L468.525 425.754Z" fill="white"/>
<path d="M475.166 421.404C475.743 421.736 476.25 422.121 476.67 422.575C477.107 423.03 477.474 423.484 477.754 423.956C478.051 424.428 478.261 424.883 478.418 425.337C478.575 425.792 478.645 426.176 478.663 426.509C478.663 426.648 478.646 426.736 478.576 426.788C478.506 426.823 478.418 426.823 478.331 426.771L477.439 426.246C477.299 426.159 477.177 426.071 477.107 425.949C477.037 425.827 476.967 425.704 476.915 425.547C476.792 425.197 476.6 424.83 476.338 424.481C476.076 424.114 475.691 423.799 475.184 423.502C474.957 423.379 474.747 423.274 474.555 423.222C474.362 423.169 474.187 423.152 474.03 423.187C473.873 423.222 473.768 423.292 473.681 423.414C473.593 423.537 473.558 423.694 473.558 423.904C473.558 424.166 473.593 424.393 473.681 424.603C473.768 424.813 473.89 425.023 474.083 425.267C474.275 425.495 474.537 425.757 474.852 426.037C475.167 426.316 475.569 426.666 476.023 427.068C476.53 427.505 476.985 427.942 477.352 428.344C477.719 428.764 478.034 429.166 478.261 429.568C478.488 429.987 478.663 430.389 478.785 430.827C478.908 431.246 478.96 431.701 478.96 432.155C478.96 432.662 478.873 433.082 478.698 433.414C478.523 433.746 478.278 433.973 477.964 434.096C477.649 434.218 477.264 434.235 476.792 434.148C476.338 434.061 475.813 433.851 475.236 433.519C474.764 433.239 474.31 432.907 473.873 432.505C473.436 432.103 473.051 431.666 472.719 431.176C472.387 430.687 472.107 430.197 471.897 429.673C471.688 429.148 471.583 428.641 471.548 428.134C471.548 427.994 471.565 427.907 471.635 427.855C471.705 427.82 471.792 427.82 471.88 427.872L472.771 428.397C472.911 428.484 473.034 428.571 473.104 428.694C473.174 428.799 473.244 428.939 473.296 429.113C473.348 429.288 473.436 429.48 473.523 429.673C473.611 429.865 473.716 430.057 473.873 430.267C474.013 430.459 474.205 430.669 474.415 430.862C474.625 431.054 474.904 431.246 475.219 431.438C475.481 431.596 475.726 431.701 475.953 431.788C476.198 431.875 476.408 431.91 476.583 431.893C476.757 431.893 476.915 431.823 477.02 431.701C477.125 431.596 477.177 431.403 477.177 431.141C477.177 430.879 477.125 430.652 477.002 430.442C476.88 430.215 476.705 429.97 476.46 429.725C476.215 429.48 475.918 429.183 475.551 428.886C475.201 428.571 474.782 428.204 474.31 427.785C473.89 427.4 473.506 427.033 473.191 426.648C472.876 426.281 472.614 425.897 472.404 425.512C472.195 425.127 472.037 424.708 471.932 424.288C471.828 423.869 471.775 423.397 471.775 422.89C471.775 422.383 471.862 421.963 472.037 421.649C472.212 421.316 472.439 421.089 472.736 420.967C473.034 420.844 473.383 420.809 473.803 420.879C474.222 420.949 474.659 421.124 475.131 421.386L475.166 421.404Z" fill="white"/>
<path d="M483.768 426.386C484.345 426.718 484.852 427.103 485.272 427.558C485.709 428.012 486.076 428.467 486.356 428.939C486.653 429.411 486.863 429.865 487.02 430.32C487.177 430.774 487.247 431.159 487.265 431.491C487.265 431.631 487.247 431.718 487.16 431.771C487.072 431.823 487.002 431.806 486.915 431.753L486.023 431.229C485.883 431.141 485.761 431.054 485.691 430.932C485.621 430.809 485.551 430.687 485.499 430.529C485.377 430.18 485.184 429.813 484.922 429.463C484.66 429.096 484.275 428.781 483.768 428.484C483.541 428.362 483.331 428.257 483.139 428.204C482.947 428.152 482.772 428.134 482.614 428.169C482.457 428.204 482.352 428.274 482.265 428.397C482.177 428.519 482.142 428.676 482.142 428.886C482.142 429.148 482.177 429.376 482.265 429.585C482.352 429.795 482.475 430.005 482.667 430.25C482.859 430.495 483.104 430.739 483.436 431.019C483.751 431.299 484.153 431.648 484.607 432.05C485.114 432.487 485.569 432.924 485.936 433.327C486.303 433.746 486.618 434.148 486.845 434.55C487.072 434.97 487.247 435.372 487.369 435.809C487.492 436.229 487.544 436.683 487.544 437.138C487.544 437.645 487.457 438.064 487.282 438.396C487.107 438.728 486.862 438.956 486.548 439.078C486.233 439.2 485.848 439.218 485.376 439.131C484.922 439.043 484.398 438.833 483.821 438.501C483.349 438.221 482.894 437.889 482.457 437.487C482.02 437.085 481.635 436.648 481.303 436.159C480.971 435.669 480.691 435.18 480.499 434.655C480.289 434.131 480.184 433.624 480.149 433.117C480.149 432.977 480.167 432.889 480.254 432.837C480.324 432.802 480.412 432.802 480.499 432.855L481.391 433.379C481.531 433.466 481.653 433.554 481.723 433.676C481.793 433.781 481.863 433.921 481.915 434.096C481.968 434.271 482.055 434.463 482.142 434.655C482.23 434.847 482.335 435.04 482.492 435.25C482.632 435.442 482.824 435.652 483.034 435.844C483.244 436.036 483.523 436.229 483.838 436.421C484.1 436.578 484.345 436.683 484.572 436.77C484.817 436.858 485.027 436.893 485.202 436.875C485.377 436.875 485.534 436.805 485.639 436.683C485.744 436.578 485.796 436.386 485.796 436.124C485.796 435.861 485.744 435.634 485.621 435.424C485.499 435.197 485.324 434.952 485.079 434.708C484.835 434.463 484.537 434.166 484.17 433.869C483.821 433.554 483.401 433.187 482.929 432.767C482.51 432.383 482.125 432.015 481.81 431.631C481.496 431.264 481.233 430.879 481.024 430.494C480.814 430.11 480.656 429.69 480.551 429.271C480.447 428.851 480.394 428.379 480.394 427.872C480.394 427.365 480.482 426.946 480.656 426.631C480.831 426.299 481.059 426.072 481.356 425.949C481.653 425.827 482.003 425.792 482.422 425.862C482.842 425.932 483.279 426.107 483.751 426.369L483.768 426.386Z" fill="white"/>
<g filter="url(#filter2_d_1_4)">
<path d="M509.135 515.366L441.2 476.015V443.201L509.135 482.553V515.366Z" fill="#2C2C3D"/>
</g>
<path d="M457.965 463.586C457.965 463.586 458.052 463.446 458.122 463.411C458.192 463.359 458.28 463.376 458.402 463.446L459.136 463.866C459.136 463.866 459.241 463.953 459.294 464.041C459.346 464.128 459.363 464.198 459.363 464.285C459.363 464.32 459.364 464.355 459.346 464.39L456.007 472.956C456.007 472.956 455.937 473.096 455.867 473.131C455.797 473.184 455.71 473.166 455.57 473.096L454.871 472.694C454.871 472.694 454.766 472.607 454.713 472.519C454.661 472.432 454.643 472.362 454.643 472.275C454.643 472.24 454.643 472.205 454.661 472.17L457.982 463.586H457.965Z" fill="white"/>
<path d="M462.808 466.995C463.245 467.258 463.647 467.555 463.979 467.904C464.311 468.254 464.591 468.621 464.818 468.971C465.046 469.338 465.22 469.688 465.325 470.037C465.448 470.387 465.5 470.684 465.518 470.946C465.518 471.051 465.518 471.121 465.448 471.156C465.395 471.191 465.325 471.191 465.255 471.156L464.556 470.754C464.451 470.684 464.364 470.614 464.311 470.527C464.259 470.439 464.207 470.334 464.154 470.212C464.049 469.932 463.909 469.67 463.7 469.39C463.507 469.111 463.193 468.866 462.808 468.639C462.633 468.534 462.476 468.464 462.319 468.429C462.161 468.394 462.021 468.377 461.916 468.411C461.794 468.429 461.707 468.499 461.637 468.586C461.567 468.674 461.532 468.814 461.532 468.971C461.532 469.163 461.567 469.355 461.619 469.513C461.689 469.67 461.794 469.845 461.934 470.02C462.074 470.195 462.284 470.387 462.528 470.614C462.773 470.841 463.07 471.104 463.437 471.418C463.839 471.75 464.172 472.083 464.469 472.415C464.748 472.729 464.993 473.044 465.168 473.376C465.343 473.691 465.483 474.023 465.57 474.338C465.658 474.67 465.71 475.002 465.71 475.369C465.71 475.754 465.64 476.086 465.518 476.331C465.378 476.593 465.203 476.768 464.958 476.855C464.714 476.96 464.416 476.96 464.067 476.908C463.717 476.838 463.315 476.68 462.878 476.418C462.511 476.208 462.161 475.946 461.811 475.631C461.479 475.317 461.182 474.985 460.92 474.6C460.658 474.233 460.448 473.848 460.291 473.429C460.133 473.027 460.046 472.625 460.028 472.24C460.028 472.135 460.028 472.065 460.098 472.03C460.151 471.995 460.221 471.995 460.291 472.03L460.99 472.432C461.095 472.502 461.182 472.572 461.252 472.66C461.305 472.747 461.357 472.852 461.392 472.974C461.444 473.114 461.497 473.254 461.567 473.411C461.637 473.569 461.724 473.708 461.829 473.866C461.934 474.023 462.074 474.163 462.249 474.32C462.423 474.478 462.633 474.618 462.878 474.775C463.07 474.897 463.263 474.985 463.455 475.055C463.647 475.125 463.804 475.159 463.944 475.142C464.084 475.142 464.189 475.09 464.276 475.002C464.364 474.915 464.399 474.775 464.399 474.583C464.399 474.39 464.346 474.215 464.259 474.041C464.172 473.866 464.032 473.673 463.839 473.481C463.647 473.289 463.42 473.062 463.14 472.834C462.86 472.607 462.546 472.31 462.179 471.978C461.847 471.681 461.567 471.401 461.322 471.104C461.077 470.824 460.867 470.527 460.71 470.23C460.553 469.932 460.43 469.618 460.343 469.286C460.256 468.953 460.221 468.604 460.221 468.202C460.221 467.8 460.291 467.485 460.413 467.24C460.535 466.995 460.728 466.803 460.955 466.716C461.182 466.611 461.462 466.593 461.777 466.646C462.091 466.698 462.441 466.838 462.808 467.048V466.995Z" fill="white"/>
<path d="M471.338 478.269C471.338 478.164 471.391 478.094 471.443 478.076C471.496 478.059 471.566 478.077 471.618 478.094L472.422 478.566C472.422 478.566 472.562 478.671 472.615 478.776C472.667 478.881 472.702 478.968 472.684 479.073C472.667 479.423 472.597 479.737 472.475 480.017C472.352 480.314 472.178 480.524 471.95 480.664C471.706 480.821 471.408 480.874 471.059 480.839C470.692 480.804 470.255 480.646 469.748 480.349C469.293 480.087 468.891 479.772 468.541 479.388C468.192 479.003 467.895 478.583 467.65 478.129C467.405 477.674 467.213 477.185 467.073 476.66C466.933 476.136 466.863 475.612 466.828 475.087C466.828 474.755 466.811 474.388 466.811 473.986C466.811 473.584 466.811 473.234 466.828 472.902C466.846 472.395 466.933 471.958 467.073 471.608C467.213 471.241 467.405 470.979 467.65 470.804C467.895 470.629 468.192 470.559 468.541 470.577C468.891 470.594 469.293 470.752 469.748 471.014C470.255 471.311 470.709 471.661 471.059 472.045C471.408 472.43 471.723 472.849 471.95 473.269C472.195 473.689 472.37 474.126 472.475 474.545C472.597 474.965 472.649 475.367 472.684 475.716C472.684 475.821 472.667 475.891 472.615 475.926C472.562 475.961 472.492 475.961 472.422 475.926L471.618 475.454C471.618 475.454 471.496 475.349 471.426 475.262C471.373 475.175 471.321 475.07 471.321 474.947C471.304 474.772 471.251 474.563 471.181 474.37C471.111 474.161 471.006 473.951 470.884 473.758C470.762 473.549 470.604 473.356 470.412 473.164C470.22 472.972 469.992 472.797 469.748 472.657C469.485 472.5 469.276 472.43 469.083 472.43C468.891 472.43 468.734 472.465 468.611 472.57C468.489 472.675 468.384 472.814 468.314 473.024C468.244 473.234 468.209 473.461 468.192 473.724C468.192 474.038 468.174 474.405 468.174 474.807C468.174 475.209 468.174 475.577 468.192 475.909C468.192 476.188 468.244 476.468 468.314 476.748C468.384 477.028 468.489 477.29 468.611 477.535C468.734 477.779 468.891 478.007 469.083 478.234C469.276 478.444 469.503 478.636 469.748 478.776C469.992 478.916 470.237 479.021 470.412 479.038C470.604 479.073 470.762 479.038 470.884 479.003C471.006 478.951 471.111 478.863 471.181 478.741C471.251 478.618 471.304 478.479 471.321 478.321L471.338 478.269Z" fill="white"/>
<path d="M476.915 475.301C477.737 475.773 478.366 476.385 478.786 477.137C479.223 477.888 479.432 478.71 479.432 479.602C479.432 480.231 479.327 480.703 479.1 481.018C478.873 481.332 478.558 481.472 478.121 481.455L479.485 485.458C479.485 485.458 479.52 485.58 479.52 485.615C479.52 485.685 479.502 485.755 479.45 485.773C479.415 485.808 479.362 485.808 479.292 485.773L478.453 485.283C478.314 485.213 478.226 485.108 478.156 484.986C478.086 484.864 478.051 484.759 478.016 484.689L476.723 480.913L475.412 480.144V483.168C475.412 483.255 475.377 483.325 475.342 483.36C475.289 483.395 475.219 483.395 475.149 483.36L474.345 482.888C474.345 482.888 474.205 482.783 474.153 482.678C474.1 482.574 474.065 482.486 474.065 482.381V473.99C474.065 473.903 474.083 473.833 474.153 473.798C474.205 473.763 474.275 473.763 474.345 473.798L476.897 475.284L476.915 475.301ZM475.429 478.535L476.862 479.357C477.247 479.567 477.544 479.654 477.772 479.619C477.999 479.567 478.104 479.304 478.104 478.832C478.104 478.36 477.999 477.958 477.772 477.661C477.544 477.364 477.247 477.102 476.862 476.892L475.429 476.053V478.518V478.535Z" fill="white"/>
<path d="M481.233 486.89C481.233 486.89 481.093 486.785 481.04 486.68C480.988 486.576 480.953 486.488 480.953 486.383V477.992C480.953 477.905 480.97 477.835 481.04 477.8C481.093 477.765 481.163 477.765 481.233 477.8L482.037 478.272C482.037 478.272 482.177 478.377 482.229 478.481C482.282 478.586 482.299 478.674 482.299 478.779V487.17C482.299 487.257 482.264 487.327 482.229 487.362C482.177 487.397 482.107 487.397 482.037 487.362L481.233 486.89Z" fill="white"/>
<path d="M487.02 481.137C487.824 481.591 488.436 482.203 488.873 482.955C489.31 483.707 489.537 484.563 489.537 485.507C489.537 486.451 489.31 487.063 488.873 487.308C488.436 487.553 487.807 487.448 487.02 486.976L485.447 486.067V488.969C485.447 489.056 485.412 489.126 485.377 489.161C485.324 489.196 485.254 489.196 485.184 489.161L484.38 488.689C484.38 488.689 484.241 488.584 484.188 488.479C484.136 488.374 484.101 488.287 484.101 488.182V479.791C484.101 479.703 484.118 479.633 484.188 479.598C484.241 479.564 484.31 479.564 484.38 479.598L487.038 481.137H487.02ZM485.447 484.441L486.985 485.333C487.37 485.542 487.667 485.63 487.877 485.56C488.104 485.49 488.209 485.228 488.209 484.738C488.209 484.249 488.104 483.847 487.877 483.532C487.649 483.217 487.352 482.955 486.985 482.728L485.447 481.836V484.441Z" fill="white"/>
<path d="M495.464 486.032C495.464 486.032 495.603 486.154 495.656 486.242C495.708 486.347 495.743 486.434 495.743 486.539V487.465C495.743 487.553 495.726 487.623 495.656 487.658C495.603 487.693 495.534 487.693 495.464 487.658L493.68 486.626V493.742C493.68 493.829 493.646 493.899 493.593 493.934C493.541 493.969 493.471 493.969 493.401 493.934L492.597 493.462C492.597 493.462 492.457 493.357 492.404 493.252C492.352 493.147 492.335 493.06 492.335 492.955V485.84L490.551 484.808C490.551 484.808 490.412 484.703 490.359 484.598C490.307 484.494 490.289 484.406 490.289 484.301V483.375C490.289 483.287 490.324 483.217 490.359 483.182C490.412 483.148 490.481 483.148 490.551 483.182L495.446 486.015L495.464 486.032Z" fill="white"/>
<path d="M433.998 289.242C433.998 290.955 432.948 291.724 431.637 290.973C430.344 290.221 429.277 288.228 429.277 286.515C429.277 284.802 430.326 284.032 431.637 284.784C432.931 285.536 433.998 287.529 433.998 289.242Z" fill="white"/>
<path d="M442.511 294.17C442.511 295.883 441.462 296.652 440.151 295.9C438.857 295.149 437.791 293.156 437.791 291.443C437.791 289.729 438.84 288.96 440.151 289.712C441.445 290.464 442.511 292.457 442.511 294.17Z" fill="white"/>
<path d="M451.025 299.117C451.025 300.83 449.976 301.599 448.665 300.848C447.371 300.096 446.305 298.103 446.305 296.39C446.305 294.677 447.354 293.907 448.665 294.659C449.958 295.411 451.025 297.404 451.025 299.117Z" fill="white"/>
<path d="M598.884 258.173V194.731C598.884 186.62 602.346 181.148 607.73 178.893C614.251 176.166 618.412 168.998 618.412 158.421C618.412 149.768 615.632 140.38 611.052 131.867C610.283 130.433 609.041 129.681 608.167 129.944L608.132 129.891L603.202 132.496L603.972 134.157L601.944 136.342C601.402 136.919 601.454 138.073 601.979 139.244C604.514 144.926 605.563 151.044 604.007 156.149C602.398 161.411 597.905 163.806 592.486 162.267C582.049 159.296 572.819 145.188 572.819 133.597C572.819 129.192 574.148 125.888 576.385 123.93C577.015 123.37 577.12 122.199 576.543 120.94L570.949 108.843C570.302 107.427 569.061 106.518 568.152 106.658V106.588L567.924 106.693C567.872 106.71 567.802 106.693 567.767 106.728C567.679 106.78 567.609 106.85 567.522 106.903L563.292 109.053L563.606 110.591C560.792 114.297 559.131 119.542 559.131 126.15C559.131 136.727 563.292 148.422 569.812 158.247C575.197 166.358 578.658 175.624 578.658 183.718V247.159C578.658 255.271 575.197 260.743 569.812 262.998C563.292 265.725 559.131 272.892 559.131 283.469C559.131 292.717 562.33 302.821 567.487 311.789L565.791 316.3L570.162 313.975C570.459 313.94 570.739 313.852 570.949 313.625L576.543 307.611C577.12 306.982 577.015 305.706 576.385 304.465C573.676 299.133 572.277 293.241 573.011 288.119C574.06 280.672 579.882 277.385 586.857 280.235C596.542 284.186 604.741 297.367 604.741 308.293C604.741 312.104 603.71 315.041 601.979 317.017C601.454 317.611 601.419 318.73 601.944 319.884L606.629 330.023L605.65 336.841L610.475 334.516L610.44 334.463C610.667 334.446 610.877 334.411 611.052 334.289C615.632 330.757 618.412 324.394 618.412 315.74C618.412 305.164 614.251 293.469 607.73 283.644C602.346 275.532 598.884 266.267 598.884 258.173Z" fill="url(#paint14_linear_1_4)"/>
<path d="M594.41 260.498V197.056C594.41 188.945 597.871 183.473 603.256 181.218C609.777 178.491 613.937 171.323 613.937 160.747C613.937 152.093 611.158 142.705 606.577 134.192C605.651 132.479 604.008 131.639 603.203 132.513L597.469 138.685C596.927 139.261 596.98 140.415 597.504 141.587C600.039 147.268 601.088 153.387 599.532 158.491C597.924 163.753 593.431 166.148 588.012 164.61C577.575 161.638 568.345 147.53 568.345 135.94C568.345 131.534 569.673 128.23 571.911 126.272C572.54 125.713 572.645 124.542 572.068 123.283L566.474 111.186C565.722 109.577 564.202 108.511 563.292 109.07C557.961 112.357 554.674 119.07 554.674 128.493C554.674 139.069 558.834 150.764 565.355 160.589C570.74 168.701 574.201 177.966 574.201 186.06V249.502C574.201 257.613 570.74 263.085 565.355 265.34C558.834 268.067 554.674 275.235 554.674 285.812C554.674 295.234 557.978 305.531 563.292 314.622C564.202 316.16 565.722 316.789 566.474 315.985L572.068 309.971C572.645 309.342 572.54 308.066 571.911 306.825C569.201 301.493 567.803 295.601 568.537 290.479C569.586 283.032 575.407 279.745 582.382 282.595C592.067 286.546 600.267 299.727 600.267 310.653C600.267 314.464 599.235 317.401 597.504 319.377C596.98 319.971 596.945 321.09 597.469 322.244L603.203 334.638C604.008 336.386 605.668 337.348 606.577 336.631C611.158 333.1 613.937 326.736 613.937 318.083C613.937 307.506 609.777 295.811 603.256 285.986C597.871 277.875 594.41 268.609 594.41 260.515V260.498Z" fill="url(#paint15_linear_1_4)"/>
<path d="M529.448 307.871L421.357 245.024V115.676L529.448 178.523V307.871Z" fill="#2C2C3D"/>
<path d="M529.448 210.043L421.357 147.196V115.676L529.448 178.523V210.043Z" fill="#489977"/>
<path d="M430.659 170.709L426.812 168.472V160.535L430.659 162.773V170.709Z" fill="#489977"/>
<path d="M432.477 163.82L479.905 191.407" stroke="#BFBFBF" stroke-width="0.25" stroke-miterlimit="10"/>
<path d="M432.477 169.242L479.905 196.811" stroke="#BFBFBF" stroke-width="0.25" stroke-miterlimit="10"/>
<path d="M432.477 174.66L479.905 202.229" stroke="#BFBFBF" stroke-width="0.25" stroke-miterlimit="10"/>
<path d="M432.477 180.062L502.002 220.48" stroke="#BFBFBF" stroke-width="0.25" stroke-miterlimit="10"/>
<path d="M454.084 207.996L435.798 197.367C433.98 196.301 432.494 193.958 432.494 192.123V189.238C432.494 187.403 433.98 186.773 435.798 187.84L454.084 198.469C455.902 199.535 457.388 201.878 457.388 203.713V206.598C457.388 208.433 455.902 209.063 454.084 207.996Z" fill="#92E3A9"/>
<path d="M430.659 215.288L426.812 213.05V205.113L430.659 207.351V215.288Z" fill="#489977"/>
<path d="M432.477 208.418L501.425 248.504" stroke="#BFBFBF" stroke-width="0.25" stroke-miterlimit="10"/>
<path d="M432.477 213.838L479.905 241.407" stroke="#BFBFBF" stroke-width="0.25" stroke-miterlimit="10"/>
<path d="M432.477 219.238L479.905 246.807" stroke="#BFBFBF" stroke-width="0.25" stroke-miterlimit="10"/>
<path d="M432.477 224.658L502.002 265.076" stroke="#BFBFBF" stroke-width="0.25" stroke-miterlimit="10"/>
<path d="M454.084 252.576L435.798 241.947C433.98 240.881 432.494 238.538 432.494 236.703V233.818C432.494 231.983 433.98 231.353 435.798 232.42L454.084 243.049C455.902 244.115 457.388 246.458 457.388 248.293V251.178C457.388 253.013 455.902 253.643 454.084 252.576Z" fill="#92E3A9"/>
<path d="M523.574 212.141V292.977" stroke="white" stroke-width="0.25" stroke-miterlimit="10"/>
<path d="M525.742 249.361C525.742 251.826 524.78 253.259 523.574 252.577C522.385 251.878 521.406 249.326 521.406 246.861C521.406 244.396 522.368 242.962 523.574 243.644C524.78 244.326 525.742 246.896 525.742 249.361Z" fill="#489977"/>
<path d="M432.476 137.912C432.476 140.01 431.654 141.216 430.64 140.639C429.626 140.045 428.805 137.877 428.805 135.779C428.805 133.682 429.626 132.475 430.64 133.052C431.654 133.647 432.476 135.814 432.476 137.912Z" fill="white"/>
<path d="M439.119 141.762C439.119 143.86 438.298 145.066 437.284 144.489C436.27 143.912 435.448 141.727 435.448 139.629C435.448 137.531 436.27 136.325 437.284 136.902C438.298 137.479 439.119 139.664 439.119 141.762Z" fill="white"/>
<path d="M445.745 145.623C445.745 147.721 444.924 148.927 443.91 148.35C442.896 147.756 442.074 145.588 442.074 143.49C442.074 141.392 442.896 140.186 443.91 140.763C444.924 141.358 445.745 143.525 445.745 145.623Z" fill="white"/>
<g filter="url(#filter3_d_1_4)">
<path d="M407.057 436.733L241.032 340.828V67.0626L407.057 162.968V436.733Z" fill="#2C2C3D"/>
<path d="M407.057 194.488L241.032 98.5823V67.0626L407.057 162.968V194.488Z" fill="#489977"/>
<path d="M263.322 247.003C263.322 249.573 262.133 250.954 260.664 250.097C259.196 249.241 258.007 246.479 258.007 243.926C258.007 241.374 259.196 239.975 260.664 240.832C262.133 241.689 263.322 244.451 263.322 247.003Z" fill="#40BA77"/>
<path d="M306.729 276.723L266.311 253.368V245.641L306.729 268.979V276.723Z" fill="#9E9E9E"/>
<path d="M342.671 307.21L266.311 263.103V260.219L342.671 304.325V307.21Z" fill="#BFBFBF"/>
<path d="M382.32 330.113L345.94 309.099V306.215L382.32 327.228V330.113Z" fill="#40BA77"/>
<path d="M304.998 291.968L266.311 269.627V266.725L304.998 289.066V291.968Z" fill="#2323C4"/>
<path d="M382.32 336.63L309.665 294.656V291.772L382.32 333.728V336.63Z" fill="#BFBFBF"/>
<path d="M342.671 321.353L266.311 277.246V274.361L342.671 318.468V321.353Z" fill="#BFBFBF"/>
<path d="M382.32 344.255L345.94 323.259V320.357L382.32 341.371V344.255Z" fill="#BFBFBF"/>
<path d="M272.604 287.404L266.311 283.767V280.883L272.604 284.519V287.404Z" fill="#FFE519"/>
<path d="M281.624 292.612L275.314 288.976V286.074L281.624 289.71V292.612Z" fill="#FFE519"/>
<path d="M290.629 297.804L284.335 294.168V291.283L290.629 294.919V297.804Z" fill="#FFE519"/>
<path d="M299.631 303.015L293.338 299.379V296.477L299.631 300.113V303.015Z" fill="#92E3A9"/>
<path d="M308.634 308.208L302.341 304.572V301.688L308.634 305.324V308.208Z" fill="#92E3A9"/>
<path d="M317.637 313.415L311.344 309.779V306.895L317.637 310.531V313.415Z" fill="#92E3A9"/>
<path d="M263.321 301.599C263.321 304.169 262.133 305.55 260.664 304.693C259.196 303.837 258.007 301.075 258.007 298.522C258.007 295.97 259.196 294.571 260.664 295.428C262.133 296.285 263.321 299.047 263.321 301.599Z" fill="#40BA77"/>
<path d="M306.729 331.319L266.311 307.981V300.254L306.729 323.592V331.319Z" fill="#9E9E9E"/>
<path d="M342.671 361.808L266.311 317.701V314.816L342.671 358.923V361.808Z" fill="#7F7F7F"/>
<path d="M382.32 384.706L345.94 363.711V360.809L382.32 381.822V384.706Z" fill="#40BA77"/>
<path d="M304.998 346.56L266.311 324.219V321.334L304.998 343.676V346.56Z" fill="#7F7F7F"/>
<path d="M382.32 391.228L309.665 349.254V346.369L382.32 388.343V391.228Z" fill="#7F7F7F"/>
<path d="M342.671 375.968L266.311 331.861V328.959L342.671 373.066V375.968Z" fill="#40BA77"/>
<path d="M382.32 398.868L345.94 377.855V374.971L382.32 395.966V398.868Z" fill="#40BA77"/>
<path d="M272.604 341.997L266.311 338.361V335.477L272.604 339.113V341.997Z" fill="#92E3A9"/>
<path d="M281.624 347.208L275.314 343.572V340.688L281.624 344.324V347.208Z" fill="#92E3A9"/>
<path d="M290.629 352.419L284.335 348.783V345.881L290.629 349.517V352.419Z" fill="#92E3A9"/>
<path d="M299.631 357.613L293.338 353.976V351.092L299.631 354.728V357.613Z" fill="#92E3A9"/>
<path d="M308.634 362.82L302.341 359.183V356.281L308.634 359.918V362.82Z" fill="#92E3A9"/>
<path d="M317.637 368.013L311.344 364.377V361.492L317.637 365.128V368.013Z" fill="#92E3A9"/>
<path d="M252.71 89.5619C252.71 91.6597 251.732 92.796 250.543 92.0968C249.337 91.3975 248.375 89.1423 248.375 87.062C248.375 84.9817 249.354 83.8279 250.543 84.5271C251.749 85.2264 252.71 87.4816 252.71 89.5619Z" fill="white"/>
<path d="M260.578 94.1066C260.578 96.2044 259.599 97.3408 258.41 96.6415C257.221 95.9422 256.242 93.6871 256.242 91.6067C256.242 89.5264 257.221 88.3726 258.41 89.0719C259.616 89.7711 260.578 92.0263 260.578 94.1066Z" fill="white"/>
<path d="M268.444 98.6532C268.444 100.751 267.465 101.887 266.276 101.188C265.07 100.489 264.109 98.2336 264.109 96.1358C264.109 94.0379 265.088 92.9016 266.276 93.6009C267.483 94.3002 268.444 96.5553 268.444 98.6532Z" fill="white"/>
<g filter="url(#filter4_d_1_4)">
<path d="M386.935 298.033L335.748 268.454V168.877L386.935 198.439V298.033Z" fill="#2C2C3D"/>
<path d="M386.935 218.123L335.748 188.562V168.877L386.935 198.439V218.123Z" fill="#489977"/>
<path d="M342.041 182.356C342.041 183.79 341.377 184.559 340.555 184.087C339.734 183.615 339.07 182.059 339.07 180.626C339.07 179.192 339.734 178.423 340.555 178.895C341.377 179.367 342.041 180.923 342.041 182.356Z" fill="white"/>
<path d="M347.426 185.466C347.426 186.899 346.762 187.668 345.94 187.196C345.119 186.724 344.454 185.169 344.454 183.735C344.454 182.301 345.119 181.532 345.94 182.004C346.762 182.476 347.426 184.032 347.426 185.466Z" fill="white"/>
<path d="M352.828 188.579C352.828 190.012 352.164 190.782 351.343 190.31C350.521 189.838 349.857 188.282 349.857 186.848C349.857 185.415 350.521 184.646 351.343 185.118C352.164 185.59 352.828 187.145 352.828 188.579Z" fill="white"/>
</g>
<path d="M345.626 227.495C345.626 227.145 345.678 226.883 345.783 226.691C345.888 226.516 346.046 226.376 346.255 226.254L353.44 221.936C353.44 221.936 353.545 221.918 353.58 221.936C353.615 221.936 353.65 221.953 353.685 221.971C353.807 222.04 353.93 222.18 354.017 222.39C354.105 222.6 354.14 222.81 354.14 223.037V224.75C354.14 225.135 354.07 225.414 353.912 225.607C353.755 225.799 353.598 225.939 353.44 226.026L347.689 229.505L353.44 239.627C353.598 239.889 353.755 240.222 353.912 240.589C354.07 240.956 354.14 241.323 354.14 241.707V243.421C354.14 243.648 354.087 243.805 354.017 243.91C353.93 244.015 353.825 244.033 353.685 243.945C353.65 243.945 353.615 243.91 353.58 243.875C353.545 243.84 353.493 243.788 353.44 243.7L346.255 231.079C346.046 230.729 345.888 230.414 345.783 230.1C345.678 229.802 345.626 229.47 345.626 229.121V227.53V227.495Z" fill="white"/>
<path d="M363.947 223.455C364.017 223.21 364.122 223.018 364.279 222.86C364.419 222.703 364.629 222.703 364.908 222.86L365.625 223.28C365.747 223.35 365.87 223.507 365.957 223.717C366.045 223.944 366.097 224.154 366.097 224.381C366.097 224.486 366.097 224.591 366.045 224.696L358.685 251.146C358.632 251.373 358.528 251.565 358.388 251.723C358.248 251.898 358.02 251.898 357.741 251.723L357.094 251.338C356.972 251.268 356.849 251.111 356.762 250.901C356.674 250.674 356.622 250.464 356.622 250.237C356.622 250.132 356.622 250.027 356.674 249.922L363.964 223.437L363.947 223.455Z" fill="white"/>
<path d="M377.059 247.229C377.059 247.579 377.006 247.841 376.901 248.033C376.796 248.208 376.639 248.348 376.429 248.47L369.244 252.788C369.244 252.788 369.139 252.806 369.104 252.788C369.069 252.788 369.034 252.771 369 252.753C368.877 252.683 368.755 252.544 368.667 252.334C368.58 252.124 368.545 251.914 368.545 251.687V249.974C368.545 249.589 368.615 249.309 368.772 249.117C368.93 248.925 369.087 248.785 369.244 248.698L374.996 245.219L369.244 235.097C369.087 234.834 368.93 234.502 368.772 234.135C368.615 233.768 368.545 233.401 368.545 233.016V231.303C368.545 231.076 368.58 230.919 368.667 230.814C368.755 230.709 368.86 230.691 369 230.779C369.034 230.779 369.069 230.814 369.104 230.849C369.139 230.884 369.192 230.936 369.244 231.023L376.429 243.645C376.639 243.995 376.796 244.31 376.901 244.624C377.006 244.921 377.059 245.254 377.059 245.603V247.194V247.229Z" fill="white"/>
</g>
<path d="M238.253 522.099C238.253 522.099 256.435 517.554 257.728 520.316C259.022 523.078 238.9 538.008 233.219 538.008C227.537 538.008 232.24 523.568 232.24 523.568L238.253 522.099Z" fill="#1C1C75"/>
<path d="M166.841 529.912C166.841 529.912 185.022 525.367 186.316 528.129C187.609 530.891 167.488 545.82 161.806 545.82C156.124 545.82 162.348 531.013 162.348 531.013L166.841 529.912Z" fill="#1C1C75"/>
<path d="M224.828 339.709C224.828 339.709 204.059 456.453 172.452 532.166C172.452 532.166 159.463 539.072 162.068 528.722C164.673 518.373 172.032 458.201 178.081 446.505C178.081 446.505 170.075 347.803 173.868 334.395L224.828 339.726V339.709Z" fill="#263238"/>
<path d="M247.781 334.395C247.781 334.395 262.938 403.658 259.476 432.66C256.015 461.662 241.295 524.859 241.295 524.859C241.295 524.859 226.366 537.848 227.555 529.194C228.743 520.541 232.205 443.481 232.205 443.481C232.205 443.481 198.902 367.575 197.573 342.191L247.781 334.395Z" fill="#263238"/>
<path d="M247.781 334.394L218.027 339.01L173.868 334.394C172.557 339.027 172.662 353.817 173.343 371.194C211.768 371.736 240.071 353.52 250.141 345.95C248.742 338.852 247.781 334.394 247.781 334.394Z" fill="url(#paint16_linear_1_4)"/>
<path d="M321.729 266.441L250.403 225.429V127.426L321.729 168.438V266.441Z" fill="#3B3B52"/>
<path d="M268.986 196.901C269.336 197.915 269.196 198.789 268.636 199.104L264.738 201.324C266.259 204.698 268.147 207.967 270.297 210.956L275.157 208.194C276.171 209.488 277.272 210.712 278.426 211.813C279.16 212.512 279.65 213.614 279.65 214.505V220.799C280.908 221.795 282.22 222.722 283.583 223.508C284.929 224.278 286.24 224.889 287.534 225.361V219.068C287.552 218.176 288.041 217.652 288.793 217.809C289.527 217.949 290.244 218.019 290.925 218.019C291.188 218.019 291.468 218.106 291.73 218.264C292.202 218.543 292.674 219.015 293.023 219.627L296.887 226.323C299.055 225.833 300.96 224.75 302.481 223.141L298.618 216.446C298.076 215.484 297.918 214.453 298.268 213.841C298.618 213.246 298.915 212.6 299.177 211.883C299.422 211.184 300.121 211.026 300.908 211.463L306.397 214.628C306.624 213.264 306.764 211.848 306.764 210.292C306.764 208.736 306.642 207.145 306.414 205.554L300.925 202.39C300.156 201.936 299.457 200.974 299.212 199.978C298.967 198.981 298.67 197.985 298.32 196.988C297.971 195.992 298.128 195.1 298.67 194.786L302.568 192.565C301.048 189.192 299.177 185.94 297.009 182.933L293.111 185.153C292.761 185.363 292.289 185.293 291.817 185.031C291.537 184.873 291.275 184.646 291.013 184.349C290.331 183.545 289.614 182.793 288.88 182.094C288.129 181.377 287.656 180.293 287.656 179.402V173.108C286.38 172.112 285.069 171.185 283.723 170.416C282.377 169.629 281.066 169.035 279.772 168.545V174.839C279.755 175.748 279.248 176.255 278.513 176.115C277.762 175.958 277.045 175.888 276.363 175.888C276.101 175.888 275.839 175.8 275.559 175.643C275.087 175.363 274.615 174.891 274.283 174.279L270.402 167.584C268.234 168.091 266.346 169.175 264.808 170.766L268.671 177.479C269.231 178.423 269.37 179.472 269.021 180.083C268.671 180.678 268.374 181.325 268.129 182.041C267.885 182.741 267.185 182.916 266.398 182.461L260.927 179.297C260.7 180.643 260.56 182.076 260.56 183.632C260.56 185.171 260.682 186.762 260.909 188.37L266.381 191.534C267.168 191.989 267.867 192.95 268.112 193.929C268.357 194.926 268.636 195.922 268.986 196.901ZM292.219 201.901C292.219 207.32 288.356 209.523 283.636 206.796C278.898 204.069 275.087 197.443 275.105 192.024C275.105 186.587 278.968 184.384 283.688 187.111C288.408 189.838 292.237 196.464 292.219 201.901Z" fill="#92E3A9"/>
<path d="M248.637 196.41L250.403 192.302V187.162C250.403 187.162 255.455 184.558 254.319 183.596C253.183 182.635 250.403 183.421 250.403 183.421V175.17C250.403 175.17 242.956 179.296 244.249 192.32L241.819 198.595L248.637 196.428V196.41Z" fill="#FF9C9C"/>
<path d="M214.216 235.047L241.278 196.202C241.278 196.202 249.984 193.72 250.403 197.828L232.607 242.634L214.216 235.064V235.047Z" fill="#DB2F19"/>
<path d="M214.216 235.047L241.278 196.202C241.278 196.202 249.984 193.72 250.403 197.828L232.607 242.634L214.216 235.064V235.047Z" fill="url(#paint17_linear_1_4)"/>
<path d="M222.345 188.174C222.345 188.174 228.901 209.292 225.789 211.075C222.677 212.859 218.29 213.663 218.29 213.663L219.094 229.414C219.094 229.414 204.654 233.627 201.892 232.176C199.13 230.707 201.892 209.292 201.892 209.292L200.668 185.762L222.345 188.192V188.174Z" fill="#FF9C9C"/>
<path d="M218.289 213.664C218.289 213.664 220.352 213.279 222.642 212.475C213.149 213.227 210.125 208.192 210.125 208.192L204.601 207.545L218.744 222.492L218.289 213.664Z" fill="url(#paint18_linear_1_4)"/>
<path d="M215.335 226.462C215.335 226.462 236.138 237.598 243.917 242.231C251.697 246.864 250.438 267.877 250.228 283.838C250.019 299.816 250.019 325.444 251.697 332.594C253.375 339.745 244.966 348.992 231.103 351.51C217.24 354.027 189.497 347.734 183.186 344.57C176.875 341.423 169.742 335.531 173.938 315.148C178.133 294.764 173.641 255.57 175.826 249.801C175.826 249.801 162.173 243.07 165.529 234.679C168.886 226.27 189.269 215.344 215.335 226.48V226.462Z" fill="#489977"/>
<path d="M175.826 249.78C174.987 252 175.127 259.15 175.389 268.258C193.308 269.325 218.656 245.322 218.656 245.322C208.482 253.661 183.483 254.623 175.826 249.78Z" fill="url(#paint19_linear_1_4)"/>
<path d="M250.403 270.079L227.537 262.701L250.351 315.828C250.054 305.567 250.089 293.085 250.211 283.837C250.264 279.484 250.403 274.746 250.403 270.079Z" fill="url(#paint20_linear_1_4)"/>
<path d="M178.029 445.997C178.046 446.294 178.064 446.504 178.064 446.504C171.997 458.199 164.638 518.371 162.05 528.72C159.446 539.07 172.435 532.164 172.435 532.164C190.056 489.963 204.304 435.018 213.464 394.635C213.464 394.652 200.79 424.756 178.029 445.997Z" fill="url(#paint21_linear_1_4)"/>
<path d="M312.813 229.417L312.883 228.875L314.334 216.848C314.334 216.848 314.23 195.852 316.397 195.52C318.565 195.188 319.107 203.404 319.963 203.684C320.838 203.964 322.131 193.457 322.131 193.457C322.131 193.457 330.243 205.467 325.593 211.428C320.943 217.372 319.929 231.585 319.929 231.585L312.831 229.382L312.813 229.417Z" fill="#FF9C9C"/>
<path d="M291.66 265.621C291.66 265.621 253.567 247.58 242.239 241.234C230.911 234.906 223.551 245.01 224.25 258.961C224.949 272.911 255.298 288.173 272.185 294.991C289.073 301.809 307.743 295.323 312.446 275.673C317.149 256.024 322.83 226.969 322.83 226.969L311.31 224.539L291.66 265.604V265.621Z" fill="#489977"/>
<path d="M202.311 177.041C202.311 177.041 207.486 170.346 214.863 173.58C225.247 171.849 231.523 176.394 230.02 182.88C228.499 189.366 217.468 194.785 211.192 194.785C214.006 199.54 215.737 201.271 213.132 201.498C210.528 201.726 206.961 198.666 206.856 201.498C206.751 204.33 210.108 208.211 210.108 208.211C210.108 208.211 208.814 221.2 205.126 221.2C201.437 221.2 186.735 210.152 186.298 196.953C185.861 183.754 196.909 174.017 202.311 177.041Z" fill="#1C1C75"/>
<path d="M575.792 394.778C560.145 413.414 559.184 434.637 560.617 447.818L555.827 430.791C553.992 424.252 553.939 417.347 555.67 410.774C557.593 403.484 560.04 396.404 560.373 389.324C561.089 374.622 544.027 358.049 543.013 347.77C543.013 347.77 529.622 372.943 534.29 393.712C537.856 409.515 547.681 425.336 552.174 431.997C552.96 433.151 553.537 434.409 553.922 435.756L559.079 454.111C552.698 442.608 541.09 428.343 520.951 421.578C520.951 421.578 522.07 428.658 526.108 439.881C532.909 458.814 553.642 459.146 562.61 466.628L574.935 510.438L577.994 509.581L565.774 466.121C563.746 458.884 565.163 451.14 569.655 445.108C575.879 436.735 583.851 427.085 580.966 413.099C578.554 401.421 575.809 394.796 575.809 394.796L575.792 394.778Z" fill="url(#paint22_linear_1_4)"/>
<path d="M555.827 430.791C553.991 424.252 553.939 417.347 555.669 410.774C557.592 403.484 560.04 396.404 560.372 389.324C561.089 374.622 544.026 358.049 543.012 347.77C539.184 368.975 546.718 400.337 555.827 430.791Z" fill="url(#paint23_linear_1_4)"/>
<path d="M642.014 307.733C657.852 322.767 660.877 341.595 660.946 353.5L663.481 337.819C664.46 331.806 663.796 325.634 661.593 319.953C659.128 313.642 656.244 307.576 655.212 301.3C653.08 288.258 666.611 271.738 666.471 262.473C666.471 262.473 680.981 283.573 678.918 302.558C677.344 317.016 670.194 332.138 666.855 338.536C666.278 339.655 665.876 340.826 665.684 342.067L662.939 358.972C667.467 348.064 676.365 334.166 693.637 326.071C693.637 326.071 693.358 332.505 690.91 342.924C686.767 360.511 668.306 362.906 661.069 370.493L654.531 410.806L651.716 410.351L658.202 370.353C659.286 363.692 657.223 356.927 652.608 351.997C646.209 345.162 638.115 337.365 639.269 324.603C640.23 313.939 641.996 307.751 641.996 307.751L642.014 307.733Z" fill="url(#paint24_linear_1_4)"/>
<path d="M663.481 337.802C664.46 331.788 663.796 325.617 661.593 319.935C659.128 313.624 656.244 307.558 655.212 301.282C653.08 288.241 666.611 271.72 666.471 262.455C672.048 280.986 668.499 309.726 663.481 337.802Z" fill="url(#paint25_linear_1_4)"/>
<path d="M386.935 688.61C386.935 688.61 398.701 578.685 430.658 571.237C462.597 563.808 484.222 607.495 484.222 607.495C484.222 607.495 480.76 498.845 521.423 484.37C562.086 469.895 569.603 542.69 569.603 542.69C569.603 542.69 585.319 347.994 620.65 341.998C655.981 336.019 657.834 436.732 657.834 436.732C657.834 436.732 684.791 341.806 704.318 349.148C723.845 356.473 715.471 644.241 386.918 688.61H386.935Z" fill="url(#paint26_linear_1_4)"/>
<path d="M536.44 585.26L546.334 524.371L544.813 524.126L535.88 579.072C532.978 546.748 529.796 515.7 529.726 515.123L528.188 515.28C528.275 516.05 533.992 571.904 537.104 611.85C517.279 584.998 507.07 565.523 506.965 565.331L505.602 566.048C505.706 566.257 516.458 586.764 537.331 614.752C538.17 625.73 538.782 635.293 538.992 641.919C539.499 641.656 540.006 641.377 540.513 641.115C540.076 628.772 538.363 607.165 536.44 585.278V585.26Z" fill="white"/>
<path d="M616.087 585.938C622.905 540.118 625.457 499.019 626.174 467.516L626.401 467.604L642.747 426.119L641.313 425.56L626.244 463.793C626.926 427.064 625.16 404.302 625.125 403.848L623.587 403.97C623.639 404.652 627.712 456.922 621.017 531.465C608.08 501.099 599.252 458.129 599.165 457.692L597.661 457.989C597.749 458.443 607.101 504.036 620.72 534.629C619.164 551.342 617.066 569.138 614.251 587.686C614.846 587.11 615.475 586.533 616.069 585.956L616.087 585.938Z" fill="white"/>
<path d="M370.609 522.097C368.423 522.097 366.658 520.332 366.658 518.146V491.399C366.658 481.924 360.277 470.526 352.742 466.488C350.015 465.019 347.55 464.792 345.837 465.823C343.757 467.082 342.55 470.159 342.55 474.302V501.049C342.55 503.234 340.785 505 338.599 505C336.414 505 334.648 503.234 334.648 501.049V474.302C334.648 467.327 337.253 461.75 341.781 459.04C345.977 456.523 351.204 456.698 356.483 459.512C366.64 464.932 374.594 478.952 374.594 491.399V518.146C374.594 520.332 372.829 522.097 370.643 522.097H370.609Z" fill="#263238"/>
<defs>
<filter id="filter0_d_1_4" x="437.54" y="337.553" width="75.2543" height="79.485" filterUnits="userSpaceOnUse" color-interpolation-filters="sRGB">
<feFlood flood-opacity="0" result="BackgroundImageFix"/>
<feColorMatrix in="SourceAlpha" type="matrix" values="0 0 0 0 0 0 0 0 0 0 0 0 0 0 0 0 0 0 127 0" result="hardAlpha"/>
<feOffset/>
<feGaussianBlur stdDeviation="1.83"/>
<feColorMatrix type="matrix" values="0 0 0 0 0 0 0 0 0 0 0 0 0 0 0 0 0 0 0.36 0"/>
<feBlend mode="normal" in2="BackgroundImageFix" result="effect1_dropShadow_1_4"/>
<feBlend mode="normal" in="SourceGraphic" in2="effect1_dropShadow_1_4" result="shape"/>
</filter>
<filter id="filter1_d_1_4" x="437.54" y="388.547" width="75.2543" height="79.4849" filterUnits="userSpaceOnUse" color-interpolation-filters="sRGB">
<feFlood flood-opacity="0" result="BackgroundImageFix"/>
<feColorMatrix in="SourceAlpha" type="matrix" values="0 0 0 0 0 0 0 0 0 0 0 0 0 0 0 0 0 0 127 0" result="hardAlpha"/>
<feOffset/>
<feGaussianBlur stdDeviation="1.83"/>
<feColorMatrix type="matrix" values="0 0 0 0 0 0 0 0 0 0 0 0 0 0 0 0 0 0 0.36 0"/>
<feBlend mode="normal" in2="BackgroundImageFix" result="effect1_dropShadow_1_4"/>
<feBlend mode="normal" in="SourceGraphic" in2="effect1_dropShadow_1_4" result="shape"/>
</filter>
<filter id="filter2_d_1_4" x="437.54" y="439.541" width="75.2543" height="79.4849" filterUnits="userSpaceOnUse" color-interpolation-filters="sRGB">
<feFlood flood-opacity="0" result="BackgroundImageFix"/>
<feColorMatrix in="SourceAlpha" type="matrix" values="0 0 0 0 0 0 0 0 0 0 0 0 0 0 0 0 0 0 127 0" result="hardAlpha"/>
<feOffset/>
<feGaussianBlur stdDeviation="1.83"/>
<feColorMatrix type="matrix" values="0 0 0 0 0 0 0 0 0 0 0 0 0 0 0 0 0 0 0.36 0"/>
<feBlend mode="normal" in2="BackgroundImageFix" result="effect1_dropShadow_1_4"/>
<feBlend mode="normal" in="SourceGraphic" in2="effect1_dropShadow_1_4" result="shape"/>
</filter>
<filter id="filter3_d_1_4" x="237.312" y="63.3426" width="173.465" height="377.111" filterUnits="userSpaceOnUse" color-interpolation-filters="sRGB">
<feFlood flood-opacity="0" result="BackgroundImageFix"/>
<feColorMatrix in="SourceAlpha" type="matrix" values="0 0 0 0 0 0 0 0 0 0 0 0 0 0 0 0 0 0 127 0" result="hardAlpha"/>
<feOffset/>
<feGaussianBlur stdDeviation="1.86"/>
<feColorMatrix type="matrix" values="0 0 0 0 0.156863 0 0 0 0 0.156863 0 0 0 0 0.909804 0 0 0 0.36 0"/>
<feBlend mode="normal" in2="BackgroundImageFix" result="effect1_dropShadow_1_4"/>
<feBlend mode="normal" in="SourceGraphic" in2="effect1_dropShadow_1_4" result="shape"/>
</filter>
<filter id="filter4_d_1_4" x="328.308" y="161.437" width="66.0668" height="144.036" filterUnits="userSpaceOnUse" color-interpolation-filters="sRGB">
<feFlood flood-opacity="0" result="BackgroundImageFix"/>
<feColorMatrix in="SourceAlpha" type="matrix" values="0 0 0 0 0 0 0 0 0 0 0 0 0 0 0 0 0 0 127 0" result="hardAlpha"/>
<feOffset/>
<feGaussianBlur stdDeviation="3.72"/>
<feColorMatrix type="matrix" values="0 0 0 0 0 0 0 0 0 0 0 0 0 0 0 0 0 0 0.36 0"/>
<feBlend mode="normal" in2="BackgroundImageFix" result="effect1_dropShadow_1_4"/>
<feBlend mode="normal" in="SourceGraphic" in2="effect1_dropShadow_1_4" result="shape"/>
</filter>
<linearGradient id="paint0_linear_1_4" x1="376.64" y1="571.359" x2="349.001" y2="624.836" gradientUnits="userSpaceOnUse">
<stop stop-color="#3B4B50"/>
<stop offset="1" stop-color="#7D8283" stop-opacity="0"/>
</linearGradient>
<linearGradient id="paint1_linear_1_4" x1="315.121" y1="550.293" x2="394.069" y2="550.293" gradientUnits="userSpaceOnUse">
<stop stop-color="#2C4050"/>
<stop offset="0.45" stop-color="#2C3F4F"/>
</linearGradient>
<linearGradient id="paint2_linear_1_4" x1="309.748" y1="597.029" x2="391.034" y2="550.446" gradientUnits="userSpaceOnUse">
<stop stop-color="#192E35"/>
<stop offset="0.714574" stop-color="#747A7C"/>
<stop offset="1" stop-color="#999999"/>
</linearGradient>
<linearGradient id="paint3_linear_1_4" x1="44.8999" y1="266.445" x2="120.05" y2="348.444" gradientUnits="userSpaceOnUse">
<stop stop-color="#B1EBC2" stop-opacity="0.6"/>
<stop offset="0.322917" stop-color="#B1EBC2" stop-opacity="0.81"/>
<stop offset="0.520833" stop-color="#B1EBC2"/>
<stop offset="0.770833" stop-color="#66C893" stop-opacity="0.84"/>
<stop offset="0.93" stop-color="#66C893"/>
</linearGradient>
<linearGradient id="paint4_linear_1_4" x1="48.6453" y1="263.491" x2="84.8327" y2="288.645" gradientUnits="userSpaceOnUse">
<stop stop-color="#B1EBC2" stop-opacity="0.6"/>
<stop offset="0.322917" stop-color="#B1EBC2" stop-opacity="0.81"/>
<stop offset="0.520833" stop-color="#B1EBC2"/>
<stop offset="0.770833" stop-color="#66C893" stop-opacity="0.84"/>
<stop offset="0.93" stop-color="#66C893"/>
</linearGradient>
<linearGradient id="paint5_linear_1_4" x1="135.67" y1="238.436" x2="165.861" y2="399.462" gradientUnits="userSpaceOnUse">
<stop stop-color="#B1EBC2" stop-opacity="0.38"/>
<stop offset="0.255208" stop-color="#B1EBC2" stop-opacity="0.61"/>
<stop offset="0.463542" stop-color="#B1EBC2"/>
<stop offset="0.661458" stop-color="#B1EBC2"/>
<stop offset="0.822917" stop-color="#66C893"/>
<stop offset="1" stop-color="#52B680"/>
</linearGradient>
<linearGradient id="paint6_linear_1_4" x1="290.822" y1="358.03" x2="346.99" y2="513.407" gradientUnits="userSpaceOnUse">
<stop stop-color="#B1EBC2" stop-opacity="0.6"/>
<stop offset="0.322917" stop-color="#B1EBC2" stop-opacity="0.81"/>
<stop offset="0.520833" stop-color="#B1EBC2"/>
<stop offset="0.770833" stop-color="#66C893" stop-opacity="0.84"/>
<stop offset="0.93" stop-color="#66C893"/>
</linearGradient>
<linearGradient id="paint7_linear_1_4" x1="453.737" y1="116.936" x2="451.901" y2="426.225" gradientUnits="userSpaceOnUse">
<stop stop-color="#B1EBC2" stop-opacity="0.6"/>
<stop offset="0.322917" stop-color="#B1EBC2" stop-opacity="0.81"/>
<stop offset="0.520833" stop-color="#B1EBC2"/>
<stop offset="0.770833" stop-color="#66C893" stop-opacity="0.84"/>
<stop offset="0.93" stop-color="#66C893"/>
</linearGradient>
<linearGradient id="paint8_linear_1_4" x1="182.338" y1="509.86" x2="215.314" y2="574.614" gradientUnits="userSpaceOnUse">
<stop stop-color="#B1EBC2" stop-opacity="0.6"/>
<stop offset="0.322917" stop-color="#B1EBC2" stop-opacity="0.81"/>
<stop offset="0.520833" stop-color="#B1EBC2"/>
<stop offset="0.770833" stop-color="#66C893" stop-opacity="0.84"/>
<stop offset="0.93" stop-color="#66C893"/>
</linearGradient>
<linearGradient id="paint9_linear_1_4" x1="325.908" y1="99.8588" x2="375.749" y2="4.61791" gradientUnits="userSpaceOnUse">
<stop stop-color="#66C893"/>
<stop offset="0.07" stop-color="#66C893"/>
<stop offset="0.53" stop-color="#92E3A9" stop-opacity="0.47"/>
<stop offset="0.85" stop-color="#92E3A9" stop-opacity="0.22"/>
<stop offset="1" stop-color="#92E3A9" stop-opacity="0.35"/>
</linearGradient>
<radialGradient id="paint10_radial_1_4" cx="0" cy="0" r="1" gradientUnits="userSpaceOnUse" gradientTransform="translate(154.585 101.639) scale(87.8112 87.8112)">
<stop stop-color="#4E5A5F"/>
<stop offset="1" stop-color="#465358"/>
</radialGradient>
<linearGradient id="paint11_linear_1_4" x1="83.5381" y1="422.031" x2="83.5381" y2="512.36" gradientUnits="userSpaceOnUse">
<stop stop-color="#2D4356"/>
<stop offset="0.45" stop-color="#263238"/>
</linearGradient>
<linearGradient id="paint12_linear_1_4" x1="52.1941" y1="503.599" x2="87.5773" y2="562.74" gradientUnits="userSpaceOnUse">
<stop stop-color="#404F53"/>
<stop offset="1" stop-color="#9A9A9A" stop-opacity="0.01"/>
</linearGradient>
<linearGradient id="paint13_linear_1_4" x1="27.8258" y1="524.055" x2="131.371" y2="433.062" gradientUnits="userSpaceOnUse">
<stop stop-color="#192E35"/>
<stop offset="0.714574" stop-color="#747A7C"/>
<stop offset="1" stop-color="#999999"/>
</linearGradient>
<linearGradient id="paint14_linear_1_4" x1="586.035" y1="277.42" x2="598.22" y2="25.9618" gradientUnits="userSpaceOnUse">
<stop stop-color="#489977"/>
<stop offset="0.18" stop-color="#489977" stop-opacity="0.94"/>
<stop offset="0.31" stop-color="#489977" stop-opacity="0.76"/>
<stop offset="0.43" stop-color="#489977" stop-opacity="0.66"/>
<stop offset="1" stop-color="#92E3A9"/>
</linearGradient>
<linearGradient id="paint15_linear_1_4" x1="572.447" y1="118.509" x2="686.094" y2="200.966" gradientUnits="userSpaceOnUse">
<stop stop-color="#B1EBC2" stop-opacity="0.6"/>
<stop offset="0.322917" stop-color="#B1EBC2" stop-opacity="0.81"/>
<stop offset="0.520833" stop-color="#B1EBC2"/>
<stop offset="0.770833" stop-color="#66C893" stop-opacity="0.84"/>
<stop offset="0.93" stop-color="#66C893"/>
</linearGradient>
<linearGradient id="paint16_linear_1_4" x1="223.394" y1="313.958" x2="189.462" y2="392.049" gradientUnits="userSpaceOnUse">
<stop offset="0.07" stop-color="#1C1C75"/>
<stop offset="1" stop-color="#1C1C75" stop-opacity="0"/>
</linearGradient>
<linearGradient id="paint17_linear_1_4" x1="214.216" y1="219.034" x2="250.403" y2="219.034" gradientUnits="userSpaceOnUse">
<stop stop-color="#489977"/>
<stop offset="1" stop-color="#489977" stop-opacity="0.74"/>
</linearGradient>
<linearGradient id="paint18_linear_1_4" x1="204.583" y1="215.027" x2="222.624" y2="215.027" gradientUnits="userSpaceOnUse">
<stop offset="0.11" stop-color="#C65446"/>
<stop offset="1" stop-color="#C65446" stop-opacity="0"/>
</linearGradient>
<linearGradient id="paint19_linear_1_4" x1="201.367" y1="226.966" x2="189.741" y2="284.621" gradientUnits="userSpaceOnUse">
<stop stop-color="#663819"/>
<stop offset="1" stop-color="#663819" stop-opacity="0"/>
</linearGradient>
<linearGradient id="paint20_linear_1_4" x1="227.537" y1="289.256" x2="-1600.56" y2="289.256" gradientUnits="userSpaceOnUse">
<stop stop-color="#489977"/>
<stop offset="1" stop-color="#40BA77" stop-opacity="0.58"/>
</linearGradient>
<linearGradient id="paint21_linear_1_4" x1="234.652" y1="409.04" x2="171.893" y2="490.855" gradientUnits="userSpaceOnUse">
<stop offset="0.07" stop-color="#1C1C75"/>
<stop offset="1" stop-color="#1C1C75" stop-opacity="0"/>
</linearGradient>
<linearGradient id="paint22_linear_1_4" x1="539.132" y1="354.612" x2="624.376" y2="443.272" gradientUnits="userSpaceOnUse">
<stop stop-color="#B1EBC2" stop-opacity="0.6"/>
<stop offset="0.322917" stop-color="#B1EBC2" stop-opacity="0.81"/>
<stop offset="0.520833" stop-color="#B1EBC2"/>
<stop offset="0.770833" stop-color="#66C893" stop-opacity="0.84"/>
<stop offset="0.93" stop-color="#66C893"/>
</linearGradient>
<linearGradient id="paint23_linear_1_4" x1="547.511" y1="351.262" x2="586.469" y2="375.36" gradientUnits="userSpaceOnUse">
<stop stop-color="#B1EBC2" stop-opacity="0.6"/>
<stop offset="0.322917" stop-color="#B1EBC2" stop-opacity="0.81"/>
<stop offset="0.520833" stop-color="#B1EBC2"/>
<stop offset="0.770833" stop-color="#66C893" stop-opacity="0.84"/>
<stop offset="0.93" stop-color="#66C893"/>
</linearGradient>
<linearGradient id="paint24_linear_1_4" x1="655.496" y1="268.712" x2="733.265" y2="348.424" gradientUnits="userSpaceOnUse">
<stop stop-color="#B1EBC2" stop-opacity="0.6"/>
<stop offset="0.322917" stop-color="#B1EBC2" stop-opacity="0.81"/>
<stop offset="0.520833" stop-color="#B1EBC2"/>
<stop offset="0.770833" stop-color="#66C893" stop-opacity="0.84"/>
<stop offset="0.93" stop-color="#66C893"/>
</linearGradient>
<linearGradient id="paint25_linear_1_4" x1="659.278" y1="265.625" x2="691.991" y2="282.973" gradientUnits="userSpaceOnUse">
<stop stop-color="#B1EBC2" stop-opacity="0.6"/>
<stop offset="0.322917" stop-color="#B1EBC2" stop-opacity="0.81"/>
<stop offset="0.520833" stop-color="#B1EBC2"/>
<stop offset="0.770833" stop-color="#66C893" stop-opacity="0.84"/>
<stop offset="0.93" stop-color="#66C893"/>
</linearGradient>
<linearGradient id="paint26_linear_1_4" x1="483.942" y1="356.333" x2="605.738" y2="673.366" gradientUnits="userSpaceOnUse">
<stop stop-color="#B1EBC2" stop-opacity="0.6"/>
<stop offset="0.322917" stop-color="#B1EBC2" stop-opacity="0.81"/>
<stop offset="0.520833" stop-color="#B1EBC2"/>
<stop offset="0.770833" stop-color="#66C893" stop-opacity="0.84"/>
<stop offset="0.93" stop-color="#66C893"/>
</linearGradient>
</defs>
</svg>
