<svg width="44" height="48" viewBox="0 0 44 48" fill="none" xmlns="http://www.w3.org/2000/svg">
<path d="M32.0184 46.7418C32.0326 46.6471 32.0327 46.5509 32.0187 46.4562C31.9602 45.9908 32.005 45.5181 32.1499 45.0719C32.2949 44.6252 32.5367 44.2161 32.8581 43.8735C33.1212 43.5985 33.4429 43.3863 33.7994 43.2528C34.1562 43.1191 34.5385 43.0677 34.9179 43.1024L34.9215 43.1027L35.474 43.1452C36.4517 43.2848 37.4453 43.2695 38.4183 43.0999C38.7152 43.0504 38.9979 42.9373 39.2471 42.7683C39.4965 42.5992 39.7064 42.3782 39.8624 42.1204L39.8693 42.109L39.8749 42.097C40.2365 41.325 40.2893 40.4439 40.0225 39.6343L40.0198 39.626L40.0165 39.618C39.9347 39.4179 39.928 39.1956 39.9963 38.9919C40.3869 38.6567 40.6958 38.2362 40.8989 37.7626L40.899 37.7627L40.902 37.7551C41.007 37.4863 41.007 37.1878 40.902 36.919L40.9022 36.9189L40.8974 36.9081L40.8041 36.6991L41.1161 36.4926L41.1251 36.4866L41.1335 36.48C41.2936 36.353 41.419 36.1877 41.4981 35.9994C41.5773 35.8111 41.6075 35.6058 41.5862 35.4026L41.5862 35.4026L41.5857 35.3986C41.5177 34.8395 41.4937 34.276 41.514 33.7134C42.0076 33.6004 42.4895 33.4406 42.9531 33.2361C43.0895 33.1784 43.2109 33.0901 43.3078 32.9781C43.4036 32.8674 43.4731 32.7365 43.511 32.5952C43.5923 32.3388 43.5796 32.0446 43.515 31.7371C43.4492 31.4241 43.3247 31.0751 43.1604 30.6998C42.8324 29.9503 42.3298 29.0605 41.7633 28.0888C41.6741 27.9284 41.5909 27.7849 41.5125 27.6499C41.4239 27.4972 41.3415 27.3551 41.2637 27.2112C41.1052 26.9067 41.0225 26.5685 41.0225 26.2252C41.0225 25.8813 41.1055 25.5424 41.2645 25.2375L41.2647 25.2376L41.2691 25.2284C41.7991 24.1024 42.0724 22.8726 42.0691 21.6281L42.0691 21.6244C42.0408 20.0182 41.6888 18.4342 41.0341 16.9672C40.3795 15.5002 39.4356 14.1803 38.259 13.0866L38.2585 13.0862C35.5628 10.5931 32.0668 9.14264 28.398 8.995C24.3028 8.75619 18.4639 9.44976 14.0793 14.1631C10.9934 17.4718 10.1694 20.873 10.4166 23.8935C10.663 26.903 11.9708 29.5166 13.1185 31.2745L13.1185 31.2745L13.1219 31.2795C14.3928 33.1267 15.2531 35.2248 15.6449 37.4325C16.0364 39.6387 15.9508 41.9032 15.394 44.0736C15.3533 44.2118 15.3017 44.3906 15.2443 44.5897C15.0639 45.2155 14.8253 46.0429 14.6807 46.4498L14.6806 46.4501C14.6478 46.543 14.6385 46.6426 14.6536 46.7399C14.6685 46.8356 14.7065 46.9262 14.7643 47.0038C14.8192 47.0813 14.8916 47.1447 14.9757 47.1888L15.0919 46.9675L14.9757 47.1888C15.0613 47.2337 15.1564 47.2574 15.253 47.2578H15.2541H31.4619H31.4761L31.4902 47.2562C31.6231 47.2411 31.7472 47.1822 31.8429 47.0887C31.9381 46.9956 31.9999 46.8736 32.0184 46.7418ZM32.0184 46.7418C32.0185 46.7412 32.0186 46.7406 32.0187 46.7401L31.771 46.706L32.0182 46.7435C32.0182 46.7429 32.0183 46.7423 32.0184 46.7418ZM31.1136 44.5605C30.937 45.0344 30.8447 45.5348 30.8401 46.0391H16.0796C16.2539 45.4539 16.4467 44.7645 16.5392 44.3646C17.1396 42.0316 17.2336 39.5971 16.8147 37.2247C16.3958 34.8524 15.4739 32.5973 14.1109 30.611C13.0523 28.9762 11.8635 26.5758 11.6418 23.8349C11.4209 21.1034 12.1584 18.0161 14.9841 14.9855C19.0584 10.6289 24.4883 9.97069 28.3494 10.1986L28.3494 10.1987L28.354 10.1989C31.7372 10.3358 34.9616 11.6702 37.4523 13.9639L37.4523 13.9639C38.5174 14.9445 39.3737 16.1298 39.9699 17.449C40.5658 18.7674 40.8897 20.1924 40.9222 21.6387C40.9215 22.7033 40.6848 23.7545 40.2292 24.7166C39.984 25.1958 39.8561 25.7264 39.8561 26.2647C39.8561 26.8044 39.9847 27.3363 40.2311 27.8164L40.2308 27.8165L40.2365 27.8264L40.7468 28.7177L40.7477 28.7192C41.0937 29.3138 41.5502 30.0992 41.8927 30.8162C42.0642 31.175 42.2032 31.5087 42.2857 31.7876C42.3269 31.9269 42.3522 32.0466 42.3618 32.145C42.3657 32.1841 42.3668 32.2176 42.366 32.2459C41.8851 32.4401 41.385 32.5835 40.8739 32.6735C40.7414 32.6931 40.6192 32.7564 40.5267 32.8533C40.433 32.9515 40.3752 33.0784 40.3627 33.2135L40.3626 33.2135L40.3623 33.2186C40.3053 34.0084 40.3223 34.8018 40.4129 35.5885C40.4129 35.5886 40.4129 35.5886 40.4129 35.5887L39.742 36.0315C39.7418 36.0317 39.7416 36.0318 39.7413 36.0319C39.6217 36.1102 39.5337 36.2284 39.4932 36.3656C39.4527 36.503 39.4624 36.6503 39.5208 36.7812L39.5209 36.7814L39.8075 37.4229C39.6628 37.7324 39.4472 38.0038 39.178 38.2148L39.1538 38.2338L39.1349 38.2581L39.0846 38.3228L39.0749 38.3353L39.0668 38.3489C38.9152 38.605 38.822 38.8913 38.7936 39.1875C38.7653 39.4837 38.8026 39.7825 38.9028 40.0627L38.9032 40.0639C39.0816 40.5546 39.063 41.0951 38.8519 41.5722C38.7857 41.6781 38.6976 41.7686 38.5933 41.8374C38.4851 41.909 38.3623 41.9554 38.2338 41.9733L38.2306 41.9738C37.3792 42.1045 36.5128 42.1045 35.6614 41.9738L35.652 41.9724L35.6424 41.9717L35.0771 41.9287C35.0766 41.9287 35.0762 41.9287 35.0757 41.9286C34.5186 41.881 33.9579 41.9586 33.4347 42.1556C32.911 42.3528 32.4381 42.6647 32.0506 43.0685C31.6397 43.4966 31.3208 44.0044 31.1136 44.5605Z" fill="#F17300" stroke="#F17300" stroke-width="0.5"/>
<path d="M26.7178 27.4269C25.8968 27.4253 25.1017 27.1391 24.4681 26.6171C23.8344 26.0951 23.4012 25.3696 23.2425 24.564C23.0838 23.7585 23.2092 22.9229 23.5974 22.1995C23.9857 21.4761 24.6127 20.9097 25.3718 20.5967C26.1308 20.2838 26.9748 20.2436 27.7601 20.4832C28.5454 20.7227 29.2233 21.2271 29.6785 21.9105C30.1336 22.5938 30.3377 23.4138 30.2561 24.2307C30.1744 25.0476 29.8121 25.811 29.2308 26.3908C28.9008 26.7204 28.5089 26.9817 28.0776 27.1595C27.6464 27.3373 27.1843 27.4282 26.7178 27.4269ZM26.7178 27.4269C26.7177 27.4269 26.7177 27.4269 26.7176 27.4269L26.7183 27.1769L26.7178 27.4269ZM25.07 22.2284L25.0709 22.2275C25.2858 22.0091 25.5422 21.8358 25.8249 21.7178C26.1077 21.5998 26.4112 21.5395 26.7176 21.5403L26.7188 21.5403C27.2578 21.5393 27.7805 21.7251 28.1978 22.0661C28.6152 22.4072 28.9014 22.8823 29.0078 23.4107C29.1142 23.9391 29.0341 24.4881 28.7812 24.964C28.5283 25.44 28.1182 25.8136 27.6208 26.0212C27.1234 26.2288 26.5694 26.2575 26.0532 26.1025C25.537 25.9475 25.0904 25.6183 24.7896 25.1711C24.4889 24.7238 24.3524 24.1861 24.4035 23.6496C24.4547 23.113 24.6902 22.6108 25.07 22.2284ZM11.7425 11.7266L11.7424 11.7267C11.2117 12.2576 10.5815 12.6788 9.8879 12.9662C9.19432 13.2536 8.45092 13.4015 7.70017 13.4015C6.94942 13.4015 6.20602 13.2536 5.51244 12.9662C4.81892 12.6789 4.1888 12.2577 3.65806 11.7268C2.58694 10.6527 1.98544 9.1977 1.98544 7.68078C1.98544 6.1639 2.58691 4.70891 3.65799 3.6348C4.73098 2.56281 6.18586 1.96094 7.7026 1.96158C9.21943 1.96223 10.6739 2.5654 11.746 3.63842C12.8181 4.71143 13.42 6.16639 13.4194 7.68321C13.4187 9.20004 12.8155 10.6545 11.7425 11.7266ZM3.82689 13.4358C4.96473 14.1965 6.30246 14.6032 7.6712 14.6044C8.81104 14.6054 9.93351 14.3251 10.9391 13.7883C11.9446 13.2516 12.8022 12.475 13.4358 11.5275C14.0693 10.5799 14.4593 9.49069 14.571 8.35635C14.6828 7.222 14.5129 6.07761 14.0764 5.02464C13.6399 3.97168 12.9504 3.04269 12.0689 2.32006C11.1874 1.59742 10.1412 1.10347 9.02309 0.882008C7.90498 0.660546 6.74949 0.718415 5.65909 1.05048C4.5687 1.38255 3.57709 1.97856 2.77221 2.78565C1.80569 3.75483 1.14795 4.98862 0.882011 6.33128C0.616072 7.67395 0.753858 9.06531 1.27798 10.3297C1.8021 11.5942 2.68905 12.675 3.82689 13.4358Z" fill="#F17300" stroke="#F17300" stroke-width="0.5"/>
<mask id="path-3-outside-1_113_3916" maskUnits="userSpaceOnUse" x="2.68945" y="2.69531" width="34" height="31" fill="black">
<rect fill="white" x="2.68945" y="2.69531" width="34" height="31"/>
<path d="M7.67151 11.6591C7.14836 11.66 6.63018 11.5576 6.14669 11.3577C5.6632 11.1579 5.22391 10.8646 4.85401 10.4947C4.10831 9.74808 3.68945 8.736 3.68945 7.68078C3.68945 6.62556 4.10831 5.61348 4.85401 4.86687C5.3165 4.40265 5.8864 4.05974 6.51318 3.86855C7.13995 3.67737 7.80422 3.64383 8.44706 3.7709C9.08991 3.89797 9.69146 4.18172 10.1984 4.597C10.7053 5.01227 11.1018 5.54623 11.3529 6.1515C11.604 6.75678 11.7018 7.41466 11.6377 8.0668C11.5736 8.71894 11.3495 9.34518 10.9853 9.88996C10.6212 10.4347 10.1282 10.8812 9.55016 11.1898C8.97209 11.4985 8.3268 11.6596 7.67151 11.6591ZM7.67151 4.40687C7.24163 4.40479 6.81563 4.48823 6.4183 4.65235C6.02097 4.81646 5.66025 5.05797 5.35714 5.36281C5.05181 5.66669 4.80952 6.0279 4.6442 6.42568C4.47887 6.82347 4.39376 7.25 4.39376 7.68078C4.39376 8.11156 4.47887 8.53809 4.6442 8.93588C4.80952 9.33367 5.05181 9.69487 5.35714 9.99875C5.73806 10.3807 6.20738 10.6627 6.72345 10.8198C7.23951 10.9769 7.78638 11.0042 8.31551 10.8992C8.84465 10.7943 9.3397 10.5603 9.75674 10.2182C10.1738 9.87601 10.4999 9.4362 10.7062 8.93776C10.9125 8.43931 10.9926 7.89766 10.9393 7.36085C10.8861 6.82404 10.7012 6.30867 10.401 5.86047C10.1008 5.41227 9.69458 5.0451 9.21845 4.79153C8.74232 4.53796 8.21096 4.40583 7.67151 4.40687ZM27.9906 32.8406H25.4462C25.358 32.8393 25.2734 32.8056 25.2085 32.746C25.1436 32.6863 25.1028 32.6049 25.094 32.5172L24.9215 30.4759C24.3612 30.3249 23.8225 30.1027 23.3187 29.8147L21.7662 31.1228C21.7002 31.1824 21.6144 31.2154 21.5254 31.2154C21.4365 31.2154 21.3507 31.1824 21.2846 31.1228L19.4878 29.3259C19.4266 29.2607 19.3926 29.1746 19.3926 29.0852C19.3926 28.9957 19.4266 28.9096 19.4878 28.8444L20.7959 27.2919C20.5098 26.7862 20.2854 26.2481 20.1275 25.6891L18.1078 25.5166C18.02 25.5078 17.9386 25.467 17.879 25.4021C17.8193 25.3371 17.7856 25.2525 17.7843 25.1644V22.6056C17.7856 22.5175 17.8193 22.4329 17.879 22.3679C17.9386 22.303 18.02 22.2622 18.1078 22.2534L20.1275 22.0809C20.2854 21.5219 20.5098 20.9838 20.7959 20.4781L19.4878 18.9256C19.4266 18.8604 19.3926 18.7743 19.3926 18.6848C19.3926 18.5954 19.4266 18.5093 19.4878 18.4441L21.2846 16.6472C21.3507 16.5876 21.4365 16.5546 21.5254 16.5546C21.6144 16.5546 21.7002 16.5876 21.7662 16.6472L23.3187 17.9553C23.8225 17.6673 24.3612 17.4451 24.9215 17.2941L25.094 15.2672C25.1028 15.1795 25.1436 15.098 25.2085 15.0384C25.2734 14.9788 25.358 14.9451 25.4462 14.9437H27.9906C28.0792 14.9435 28.1647 14.9766 28.23 15.0365C28.2953 15.0965 28.3355 15.1789 28.3428 15.2672L28.5153 17.2941C29.0774 17.4464 29.6183 17.6685 30.1253 17.9553L31.6778 16.6472C31.7438 16.5876 31.8296 16.5546 31.9185 16.5546C32.0075 16.5546 32.0933 16.5876 32.1593 16.6472L33.9562 18.4441C34.0158 18.5101 34.0488 18.5959 34.0488 18.6848C34.0488 18.7738 34.0158 18.8596 33.9562 18.9256L32.6481 20.4781C32.9349 20.9825 33.157 21.521 33.3093 22.0809L35.3362 22.2534C35.4233 22.2637 35.5039 22.3049 35.5633 22.3695C35.6226 22.4342 35.6568 22.5179 35.6596 22.6056V25.1572C35.6568 25.2449 35.6226 25.3287 35.5633 25.3933C35.5039 25.4579 35.4233 25.4991 35.3362 25.5094L33.3093 25.6819C33.157 26.2418 32.9349 26.7803 32.6481 27.2847L33.9562 28.8372C34.0158 28.9032 34.0488 28.989 34.0488 29.078C34.0488 29.1669 34.0158 29.2527 33.9562 29.3188L32.1593 31.1156C32.0933 31.1752 32.0075 31.2082 31.9185 31.2082C31.8296 31.2082 31.7438 31.1752 31.6778 31.1156L30.1253 29.8291C29.6177 30.1164 29.0771 30.3408 28.5153 30.4975L28.3428 32.5172C28.3355 32.6055 28.2953 32.6879 28.23 32.7478C28.1647 32.8078 28.0792 32.8409 27.9906 32.8406ZM25.7768 32.1219H27.6671L27.8325 30.1669C27.8403 30.0926 27.8707 30.0225 27.9195 29.966C27.9683 29.9095 28.0333 29.8692 28.1056 29.8506C28.7666 29.699 29.3981 29.4392 29.9743 29.0816C30.0343 29.0361 30.1075 29.0115 30.1828 29.0115C30.258 29.0115 30.3312 29.0361 30.3912 29.0816L31.8862 30.3466L33.2231 29.0384L31.9653 27.5434C31.9198 27.4835 31.8952 27.4103 31.8952 27.335C31.8952 27.2597 31.9198 27.1865 31.9653 27.1266C32.3229 26.5503 32.5827 25.9189 32.7343 25.2578C32.7529 25.1855 32.7932 25.1206 32.8497 25.0718C32.9062 25.023 32.9763 24.9926 33.0506 24.9847L35.0056 24.8194V22.9363L33.0506 22.7709C32.9763 22.763 32.9062 22.7327 32.8497 22.6839C32.7932 22.635 32.7529 22.5701 32.7343 22.4978C32.5827 21.8368 32.3229 21.2053 31.9653 20.6291C31.9198 20.5691 31.8952 20.4959 31.8952 20.4206C31.8952 20.3454 31.9198 20.2722 31.9653 20.2122L33.2231 18.7172L31.8862 17.3803L30.3912 18.6381C30.3303 18.6815 30.2575 18.7047 30.1828 18.7047C30.108 18.7047 30.0352 18.6815 29.9743 18.6381C29.3981 18.2805 28.7666 18.0207 28.1056 17.8691C28.0333 17.8504 27.9683 17.8102 27.9195 17.7537C27.8707 17.6971 27.8403 17.6271 27.8325 17.5528L27.6671 15.5978H25.7625L25.59 17.5528C25.5841 17.6278 25.5545 17.6989 25.5054 17.7558C25.4562 17.8127 25.3901 17.8524 25.3168 17.8691C24.6585 18.022 24.0296 18.2818 23.4553 18.6381C23.3944 18.6815 23.3215 18.7047 23.2468 18.7047C23.1721 18.7047 23.0993 18.6815 23.0384 18.6381L21.5434 17.3803L20.1993 18.7172L21.45 20.2122C21.4954 20.2722 21.52 20.3454 21.52 20.4206C21.52 20.4959 21.4954 20.5691 21.45 20.6291C21.1099 21.2086 20.8671 21.8398 20.7312 22.4978C20.7126 22.5701 20.6723 22.635 20.6158 22.6839C20.5593 22.7327 20.4892 22.763 20.415 22.7709L18.46 22.9363V24.8266L20.415 24.9919C20.4892 24.9998 20.5593 25.0302 20.6158 25.079C20.6723 25.1278 20.7126 25.1927 20.7312 25.265C20.8828 25.926 21.1427 26.5575 21.5003 27.1337C21.5457 27.1937 21.5703 27.2669 21.5703 27.3422C21.5703 27.4175 21.5457 27.4907 21.5003 27.5506L20.2137 29.0384L21.5578 30.3825L23.0528 29.1175C23.1127 29.072 23.1859 29.0474 23.2612 29.0474C23.3365 29.0474 23.4097 29.072 23.4696 29.1175C24.0433 29.4751 24.6724 29.735 25.3312 29.8866C25.4045 29.9032 25.4706 29.9429 25.5197 29.9998C25.5689 30.0567 25.5985 30.1278 25.6043 30.2028L25.7768 32.1219Z"/>
</mask>
<path d="M7.67151 11.6591C7.14836 11.66 6.63018 11.5576 6.14669 11.3577C5.6632 11.1579 5.22391 10.8646 4.85401 10.4947C4.10831 9.74808 3.68945 8.736 3.68945 7.68078C3.68945 6.62556 4.10831 5.61348 4.85401 4.86687C5.3165 4.40265 5.8864 4.05974 6.51318 3.86855C7.13995 3.67737 7.80422 3.64383 8.44706 3.7709C9.08991 3.89797 9.69146 4.18172 10.1984 4.597C10.7053 5.01227 11.1018 5.54623 11.3529 6.1515C11.604 6.75678 11.7018 7.41466 11.6377 8.0668C11.5736 8.71894 11.3495 9.34518 10.9853 9.88996C10.6212 10.4347 10.1282 10.8812 9.55016 11.1898C8.97209 11.4985 8.3268 11.6596 7.67151 11.6591ZM7.67151 4.40687C7.24163 4.40479 6.81563 4.48823 6.4183 4.65235C6.02097 4.81646 5.66025 5.05797 5.35714 5.36281C5.05181 5.66669 4.80952 6.0279 4.6442 6.42568C4.47887 6.82347 4.39376 7.25 4.39376 7.68078C4.39376 8.11156 4.47887 8.53809 4.6442 8.93588C4.80952 9.33367 5.05181 9.69487 5.35714 9.99875C5.73806 10.3807 6.20738 10.6627 6.72345 10.8198C7.23951 10.9769 7.78638 11.0042 8.31551 10.8992C8.84465 10.7943 9.3397 10.5603 9.75674 10.2182C10.1738 9.87601 10.4999 9.4362 10.7062 8.93776C10.9125 8.43931 10.9926 7.89766 10.9393 7.36085C10.8861 6.82404 10.7012 6.30867 10.401 5.86047C10.1008 5.41227 9.69458 5.0451 9.21845 4.79153C8.74232 4.53796 8.21096 4.40583 7.67151 4.40687ZM27.9906 32.8406H25.4462C25.358 32.8393 25.2734 32.8056 25.2085 32.746C25.1436 32.6863 25.1028 32.6049 25.094 32.5172L24.9215 30.4759C24.3612 30.3249 23.8225 30.1027 23.3187 29.8147L21.7662 31.1228C21.7002 31.1824 21.6144 31.2154 21.5254 31.2154C21.4365 31.2154 21.3507 31.1824 21.2846 31.1228L19.4878 29.3259C19.4266 29.2607 19.3926 29.1746 19.3926 29.0852C19.3926 28.9957 19.4266 28.9096 19.4878 28.8444L20.7959 27.2919C20.5098 26.7862 20.2854 26.2481 20.1275 25.6891L18.1078 25.5166C18.02 25.5078 17.9386 25.467 17.879 25.4021C17.8193 25.3371 17.7856 25.2525 17.7843 25.1644V22.6056C17.7856 22.5175 17.8193 22.4329 17.879 22.3679C17.9386 22.303 18.02 22.2622 18.1078 22.2534L20.1275 22.0809C20.2854 21.5219 20.5098 20.9838 20.7959 20.4781L19.4878 18.9256C19.4266 18.8604 19.3926 18.7743 19.3926 18.6848C19.3926 18.5954 19.4266 18.5093 19.4878 18.4441L21.2846 16.6472C21.3507 16.5876 21.4365 16.5546 21.5254 16.5546C21.6144 16.5546 21.7002 16.5876 21.7662 16.6472L23.3187 17.9553C23.8225 17.6673 24.3612 17.4451 24.9215 17.2941L25.094 15.2672C25.1028 15.1795 25.1436 15.098 25.2085 15.0384C25.2734 14.9788 25.358 14.9451 25.4462 14.9437H27.9906C28.0792 14.9435 28.1647 14.9766 28.23 15.0365C28.2953 15.0965 28.3355 15.1789 28.3428 15.2672L28.5153 17.2941C29.0774 17.4464 29.6183 17.6685 30.1253 17.9553L31.6778 16.6472C31.7438 16.5876 31.8296 16.5546 31.9185 16.5546C32.0075 16.5546 32.0933 16.5876 32.1593 16.6472L33.9562 18.4441C34.0158 18.5101 34.0488 18.5959 34.0488 18.6848C34.0488 18.7738 34.0158 18.8596 33.9562 18.9256L32.6481 20.4781C32.9349 20.9825 33.157 21.521 33.3093 22.0809L35.3362 22.2534C35.4233 22.2637 35.5039 22.3049 35.5633 22.3695C35.6226 22.4342 35.6568 22.5179 35.6596 22.6056V25.1572C35.6568 25.2449 35.6226 25.3287 35.5633 25.3933C35.5039 25.4579 35.4233 25.4991 35.3362 25.5094L33.3093 25.6819C33.157 26.2418 32.9349 26.7803 32.6481 27.2847L33.9562 28.8372C34.0158 28.9032 34.0488 28.989 34.0488 29.078C34.0488 29.1669 34.0158 29.2527 33.9562 29.3188L32.1593 31.1156C32.0933 31.1752 32.0075 31.2082 31.9185 31.2082C31.8296 31.2082 31.7438 31.1752 31.6778 31.1156L30.1253 29.8291C29.6177 30.1164 29.0771 30.3408 28.5153 30.4975L28.3428 32.5172C28.3355 32.6055 28.2953 32.6879 28.23 32.7478C28.1647 32.8078 28.0792 32.8409 27.9906 32.8406ZM25.7768 32.1219H27.6671L27.8325 30.1669C27.8403 30.0926 27.8707 30.0225 27.9195 29.966C27.9683 29.9095 28.0333 29.8692 28.1056 29.8506C28.7666 29.699 29.3981 29.4392 29.9743 29.0816C30.0343 29.0361 30.1075 29.0115 30.1828 29.0115C30.258 29.0115 30.3312 29.0361 30.3912 29.0816L31.8862 30.3466L33.2231 29.0384L31.9653 27.5434C31.9198 27.4835 31.8952 27.4103 31.8952 27.335C31.8952 27.2597 31.9198 27.1865 31.9653 27.1266C32.3229 26.5503 32.5827 25.9189 32.7343 25.2578C32.7529 25.1855 32.7932 25.1206 32.8497 25.0718C32.9062 25.023 32.9763 24.9926 33.0506 24.9847L35.0056 24.8194V22.9363L33.0506 22.7709C32.9763 22.763 32.9062 22.7327 32.8497 22.6839C32.7932 22.635 32.7529 22.5701 32.7343 22.4978C32.5827 21.8368 32.3229 21.2053 31.9653 20.6291C31.9198 20.5691 31.8952 20.4959 31.8952 20.4206C31.8952 20.3454 31.9198 20.2722 31.9653 20.2122L33.2231 18.7172L31.8862 17.3803L30.3912 18.6381C30.3303 18.6815 30.2575 18.7047 30.1828 18.7047C30.108 18.7047 30.0352 18.6815 29.9743 18.6381C29.3981 18.2805 28.7666 18.0207 28.1056 17.8691C28.0333 17.8504 27.9683 17.8102 27.9195 17.7537C27.8707 17.6971 27.8403 17.6271 27.8325 17.5528L27.6671 15.5978H25.7625L25.59 17.5528C25.5841 17.6278 25.5545 17.6989 25.5054 17.7558C25.4562 17.8127 25.3901 17.8524 25.3168 17.8691C24.6585 18.022 24.0296 18.2818 23.4553 18.6381C23.3944 18.6815 23.3215 18.7047 23.2468 18.7047C23.1721 18.7047 23.0993 18.6815 23.0384 18.6381L21.5434 17.3803L20.1993 18.7172L21.45 20.2122C21.4954 20.2722 21.52 20.3454 21.52 20.4206C21.52 20.4959 21.4954 20.5691 21.45 20.6291C21.1099 21.2086 20.8671 21.8398 20.7312 22.4978C20.7126 22.5701 20.6723 22.635 20.6158 22.6839C20.5593 22.7327 20.4892 22.763 20.415 22.7709L18.46 22.9363V24.8266L20.415 24.9919C20.4892 24.9998 20.5593 25.0302 20.6158 25.079C20.6723 25.1278 20.7126 25.1927 20.7312 25.265C20.8828 25.926 21.1427 26.5575 21.5003 27.1337C21.5457 27.1937 21.5703 27.2669 21.5703 27.3422C21.5703 27.4175 21.5457 27.4907 21.5003 27.5506L20.2137 29.0384L21.5578 30.3825L23.0528 29.1175C23.1127 29.072 23.1859 29.0474 23.2612 29.0474C23.3365 29.0474 23.4097 29.072 23.4696 29.1175C24.0433 29.4751 24.6724 29.735 25.3312 29.8866C25.4045 29.9032 25.4706 29.9429 25.5197 29.9998C25.5689 30.0567 25.5985 30.1278 25.6043 30.2028L25.7768 32.1219Z" fill="#F17300"/>
<path d="M7.67151 11.6591C7.14836 11.66 6.63018 11.5576 6.14669 11.3577C5.6632 11.1579 5.22391 10.8646 4.85401 10.4947C4.10831 9.74808 3.68945 8.736 3.68945 7.68078C3.68945 6.62556 4.10831 5.61348 4.85401 4.86687C5.3165 4.40265 5.8864 4.05974 6.51318 3.86855C7.13995 3.67737 7.80422 3.64383 8.44706 3.7709C9.08991 3.89797 9.69146 4.18172 10.1984 4.597C10.7053 5.01227 11.1018 5.54623 11.3529 6.1515C11.604 6.75678 11.7018 7.41466 11.6377 8.0668C11.5736 8.71894 11.3495 9.34518 10.9853 9.88996C10.6212 10.4347 10.1282 10.8812 9.55016 11.1898C8.97209 11.4985 8.3268 11.6596 7.67151 11.6591ZM7.67151 4.40687C7.24163 4.40479 6.81563 4.48823 6.4183 4.65235C6.02097 4.81646 5.66025 5.05797 5.35714 5.36281C5.05181 5.66669 4.80952 6.0279 4.6442 6.42568C4.47887 6.82347 4.39376 7.25 4.39376 7.68078C4.39376 8.11156 4.47887 8.53809 4.6442 8.93588C4.80952 9.33367 5.05181 9.69487 5.35714 9.99875C5.73806 10.3807 6.20738 10.6627 6.72345 10.8198C7.23951 10.9769 7.78638 11.0042 8.31551 10.8992C8.84465 10.7943 9.3397 10.5603 9.75674 10.2182C10.1738 9.87601 10.4999 9.4362 10.7062 8.93776C10.9125 8.43931 10.9926 7.89766 10.9393 7.36085C10.8861 6.82404 10.7012 6.30867 10.401 5.86047C10.1008 5.41227 9.69458 5.0451 9.21845 4.79153C8.74232 4.53796 8.21096 4.40583 7.67151 4.40687ZM27.9906 32.8406H25.4462C25.358 32.8393 25.2734 32.8056 25.2085 32.746C25.1436 32.6863 25.1028 32.6049 25.094 32.5172L24.9215 30.4759C24.3612 30.3249 23.8225 30.1027 23.3187 29.8147L21.7662 31.1228C21.7002 31.1824 21.6144 31.2154 21.5254 31.2154C21.4365 31.2154 21.3507 31.1824 21.2846 31.1228L19.4878 29.3259C19.4266 29.2607 19.3926 29.1746 19.3926 29.0852C19.3926 28.9957 19.4266 28.9096 19.4878 28.8444L20.7959 27.2919C20.5098 26.7862 20.2854 26.2481 20.1275 25.6891L18.1078 25.5166C18.02 25.5078 17.9386 25.467 17.879 25.4021C17.8193 25.3371 17.7856 25.2525 17.7843 25.1644V22.6056C17.7856 22.5175 17.8193 22.4329 17.879 22.3679C17.9386 22.303 18.02 22.2622 18.1078 22.2534L20.1275 22.0809C20.2854 21.5219 20.5098 20.9838 20.7959 20.4781L19.4878 18.9256C19.4266 18.8604 19.3926 18.7743 19.3926 18.6848C19.3926 18.5954 19.4266 18.5093 19.4878 18.4441L21.2846 16.6472C21.3507 16.5876 21.4365 16.5546 21.5254 16.5546C21.6144 16.5546 21.7002 16.5876 21.7662 16.6472L23.3187 17.9553C23.8225 17.6673 24.3612 17.4451 24.9215 17.2941L25.094 15.2672C25.1028 15.1795 25.1436 15.098 25.2085 15.0384C25.2734 14.9788 25.358 14.9451 25.4462 14.9437H27.9906C28.0792 14.9435 28.1647 14.9766 28.23 15.0365C28.2953 15.0965 28.3355 15.1789 28.3428 15.2672L28.5153 17.2941C29.0774 17.4464 29.6183 17.6685 30.1253 17.9553L31.6778 16.6472C31.7438 16.5876 31.8296 16.5546 31.9185 16.5546C32.0075 16.5546 32.0933 16.5876 32.1593 16.6472L33.9562 18.4441C34.0158 18.5101 34.0488 18.5959 34.0488 18.6848C34.0488 18.7738 34.0158 18.8596 33.9562 18.9256L32.6481 20.4781C32.9349 20.9825 33.157 21.521 33.3093 22.0809L35.3362 22.2534C35.4233 22.2637 35.5039 22.3049 35.5633 22.3695C35.6226 22.4342 35.6568 22.5179 35.6596 22.6056V25.1572C35.6568 25.2449 35.6226 25.3287 35.5633 25.3933C35.5039 25.4579 35.4233 25.4991 35.3362 25.5094L33.3093 25.6819C33.157 26.2418 32.9349 26.7803 32.6481 27.2847L33.9562 28.8372C34.0158 28.9032 34.0488 28.989 34.0488 29.078C34.0488 29.1669 34.0158 29.2527 33.9562 29.3188L32.1593 31.1156C32.0933 31.1752 32.0075 31.2082 31.9185 31.2082C31.8296 31.2082 31.7438 31.1752 31.6778 31.1156L30.1253 29.8291C29.6177 30.1164 29.0771 30.3408 28.5153 30.4975L28.3428 32.5172C28.3355 32.6055 28.2953 32.6879 28.23 32.7478C28.1647 32.8078 28.0792 32.8409 27.9906 32.8406ZM25.7768 32.1219H27.6671L27.8325 30.1669C27.8403 30.0926 27.8707 30.0225 27.9195 29.966C27.9683 29.9095 28.0333 29.8692 28.1056 29.8506C28.7666 29.699 29.3981 29.4392 29.9743 29.0816C30.0343 29.0361 30.1075 29.0115 30.1828 29.0115C30.258 29.0115 30.3312 29.0361 30.3912 29.0816L31.8862 30.3466L33.2231 29.0384L31.9653 27.5434C31.9198 27.4835 31.8952 27.4103 31.8952 27.335C31.8952 27.2597 31.9198 27.1865 31.9653 27.1266C32.3229 26.5503 32.5827 25.9189 32.7343 25.2578C32.7529 25.1855 32.7932 25.1206 32.8497 25.0718C32.9062 25.023 32.9763 24.9926 33.0506 24.9847L35.0056 24.8194V22.9363L33.0506 22.7709C32.9763 22.763 32.9062 22.7327 32.8497 22.6839C32.7932 22.635 32.7529 22.5701 32.7343 22.4978C32.5827 21.8368 32.3229 21.2053 31.9653 20.6291C31.9198 20.5691 31.8952 20.4959 31.8952 20.4206C31.8952 20.3454 31.9198 20.2722 31.9653 20.2122L33.2231 18.7172L31.8862 17.3803L30.3912 18.6381C30.3303 18.6815 30.2575 18.7047 30.1828 18.7047C30.108 18.7047 30.0352 18.6815 29.9743 18.6381C29.3981 18.2805 28.7666 18.0207 28.1056 17.8691C28.0333 17.8504 27.9683 17.8102 27.9195 17.7537C27.8707 17.6971 27.8403 17.6271 27.8325 17.5528L27.6671 15.5978H25.7625L25.59 17.5528C25.5841 17.6278 25.5545 17.6989 25.5054 17.7558C25.4562 17.8127 25.3901 17.8524 25.3168 17.8691C24.6585 18.022 24.0296 18.2818 23.4553 18.6381C23.3944 18.6815 23.3215 18.7047 23.2468 18.7047C23.1721 18.7047 23.0993 18.6815 23.0384 18.6381L21.5434 17.3803L20.1993 18.7172L21.45 20.2122C21.4954 20.2722 21.52 20.3454 21.52 20.4206C21.52 20.4959 21.4954 20.5691 21.45 20.6291C21.1099 21.2086 20.8671 21.8398 20.7312 22.4978C20.7126 22.5701 20.6723 22.635 20.6158 22.6839C20.5593 22.7327 20.4892 22.763 20.415 22.7709L18.46 22.9363V24.8266L20.415 24.9919C20.4892 24.9998 20.5593 25.0302 20.6158 25.079C20.6723 25.1278 20.7126 25.1927 20.7312 25.265C20.8828 25.926 21.1427 26.5575 21.5003 27.1337C21.5457 27.1937 21.5703 27.2669 21.5703 27.3422C21.5703 27.4175 21.5457 27.4907 21.5003 27.5506L20.2137 29.0384L21.5578 30.3825L23.0528 29.1175C23.1127 29.072 23.1859 29.0474 23.2612 29.0474C23.3365 29.0474 23.4097 29.072 23.4696 29.1175C24.0433 29.4751 24.6724 29.735 25.3312 29.8866C25.4045 29.9032 25.4706 29.9429 25.5197 29.9998C25.5689 30.0567 25.5985 30.1278 25.6043 30.2028L25.7768 32.1219Z" stroke="#F17300" mask="url(#path-3-outside-1_113_3916)"/>
<path d="M11.876 2.94888C11.9082 2.91563 11.9467 2.88918 11.9893 2.87112C12.0319 2.85306 12.0777 2.84375 12.124 2.84375C12.1703 2.84375 12.2161 2.85306 12.2587 2.87112C12.3013 2.88918 12.3398 2.91563 12.372 2.94888H11.876ZM11.876 2.94888L11.6963 2.77507C11.7518 2.71771 11.8183 2.6721 11.8917 2.64095C11.9652 2.6098 12.0442 2.59375 12.124 2.59375C12.2038 2.59375 12.2828 2.6098 12.3562 2.64095C12.4297 2.6721 12.4962 2.71771 12.5516 2.77507L12.5582 2.78184L12.5581 2.78196L29.251 21.3936C29.3597 21.5058 29.4206 21.656 29.4206 21.8125C29.4206 21.9713 29.3579 22.1237 29.246 22.2365L29.244 22.2385C29.1831 22.2986 29.1096 22.3444 29.0289 22.3728C28.9525 22.3996 28.8714 22.4102 28.7907 22.4038C28.7108 22.4026 28.6318 22.3856 28.5583 22.3538C28.4806 22.3203 28.4108 22.2709 28.3533 22.2089L28.3504 22.2057L28.3505 22.2057L11.6935 3.61573C11.5848 3.50348 11.5239 3.35329 11.5239 3.19685C11.5239 3.03803 11.5867 2.88564 11.6985 2.77286L11.876 2.94888ZM24.6428 26.5654C24.7418 26.5653 24.8393 26.5407 24.9265 26.4939C25.0137 26.4471 25.0879 26.3796 25.1428 26.2974C25.1878 26.2318 25.2191 26.1578 25.235 26.0799C25.2511 26.0011 25.251 25.9198 25.2348 25.841C25.2186 25.7622 25.1865 25.6875 25.1406 25.6215C25.0951 25.5559 25.0368 25.5002 24.9693 25.4576C24.9688 25.4573 24.9683 25.457 24.9677 25.4567L5.77536 13.0833C5.77486 13.083 5.77435 13.0826 5.77385 13.0823C5.7077 13.0387 5.63366 13.0085 5.55591 12.9934C5.47756 12.9781 5.39698 12.9784 5.31875 12.9943C5.24052 13.0102 5.16619 13.0413 5.09999 13.0859L5.09999 13.0859C5.03379 13.1305 4.97703 13.1877 4.93294 13.2542C4.88884 13.3208 4.85829 13.3953 4.84302 13.4737L5.08768 13.5214L4.84302 13.4737C4.82774 13.552 4.82805 13.6326 4.84393 13.7108C4.8598 13.7891 4.89092 13.8634 4.93552 13.9296C4.98012 13.9958 5.03732 14.0526 5.10386 14.0967L5.10385 14.0967L5.10658 14.0984L24.3097 26.4669C24.4083 26.5326 24.5244 26.5669 24.6428 26.5654ZM24.6428 26.5654C24.642 26.5654 24.6412 26.5654 24.6405 26.5654L24.641 26.3154L24.6451 26.5654C24.6443 26.5654 24.6435 26.5654 24.6428 26.5654Z" fill="#F17300" stroke="#F17300" stroke-width="0.5"/>
</svg>
