<svg width="96" height="101" viewBox="0 0 96 101" fill="none" xmlns="http://www.w3.org/2000/svg">
<path d="M76.7566 93.9258H69.9604C69.5485 93.9535 69.1638 94.1146 68.8832 94.3769C68.6026 94.6392 68.4468 94.9833 68.4468 95.3406C68.4468 95.698 68.6026 96.0421 68.8832 96.3044C69.1638 96.5667 69.5485 96.7278 69.9604 96.7555H76.7566C77.1685 96.7278 77.5531 96.5667 77.8337 96.3044C78.1143 96.0421 78.2702 95.698 78.2702 95.3406C78.2702 94.9833 78.1143 94.6392 77.8337 94.3769C77.5531 94.1146 77.1685 93.9535 76.7566 93.9258ZM27.6738 93.9258H20.8776C20.4657 93.9535 20.081 94.1146 19.8004 94.3769C19.5199 94.6392 19.364 94.9833 19.364 95.3406C19.364 95.698 19.5199 96.0421 19.8004 96.3044C20.081 96.5667 20.4657 96.7278 20.8776 96.7555H27.6738C28.0857 96.7278 28.4704 96.5667 28.7509 96.3044C29.0315 96.0421 29.1874 95.698 29.1874 95.3406C29.1874 94.9833 29.0315 94.6392 28.7509 94.3769C28.4704 94.1146 28.0857 93.9535 27.6738 93.9258ZM65.1782 93.9258H32.456C32.0221 93.9258 31.606 94.0748 31.2992 94.3402C30.9924 94.6055 30.82 94.9654 30.82 95.3406C30.82 95.7159 30.9924 96.0757 31.2992 96.3411C31.606 96.6064 32.0221 96.7555 32.456 96.7555H45.4952V98.1703H39.0008C38.5669 98.1703 38.1508 98.3194 37.844 98.5847C37.5372 98.8501 37.3649 99.21 37.3649 99.5852C37.3649 99.9604 37.5372 100.32 37.844 100.586C38.1508 100.851 38.5669 101 39.0008 101H59.4498C59.8837 101 60.2998 100.851 60.6066 100.586C60.9134 100.32 61.0858 99.9604 61.0858 99.5852C61.0858 99.21 60.9134 98.8501 60.6066 98.5847C60.2998 98.3194 59.8837 98.1703 59.4498 98.1703L52.137 96.7555H65.1782C65.6121 96.7555 66.0282 96.6064 66.335 96.3411C66.6418 96.0757 66.8141 95.7159 66.8141 95.3406C66.8141 94.9654 66.6418 94.6055 66.335 94.3402C66.0282 94.0748 65.6121 93.9258 65.1782 93.9258Z" fill="#489977"/>
<path d="M3.3877 90.0391H93.7505" stroke="#2D4356" stroke-width="3" stroke-linecap="round"/>
<path d="M6.94352 42.8672L8.15985 41.484L7.39185 41.1074L6.61296 42.6567H6.58525L5.7935 41.116L5.01263 41.5037L6.21709 42.8561V42.8783L4.33667 42.6686V43.421L6.23094 43.2104V43.2327L5.01065 44.5825L5.73906 44.9814L6.57139 43.421H6.59713L7.36513 44.9702L8.17173 44.5722L6.94352 43.2438V43.2216L8.8754 43.421V42.6686L6.94352 42.8895V42.8672Z" fill="#489977"/>
<path d="M1.08866 1.22484L0.387959 2.00202L0.808578 2.23227L1.2866 1.33269H1.30144L1.74285 2.22542L2.20701 1.99518L1.50433 1.23083V1.21885L2.61675 1.33354V0.900441L1.50433 1.02712V1.01428L2.20503 0.217407L1.76363 0L1.31332 0.892737H1.29848L0.842228 0.00684737L0.391918 0.22939L1.0847 1.00743V1.02027L0 0.900441V1.33354L1.08866 1.21286V1.22484Z" fill="#489977"/>
<path d="M80.1294 4.7276L81.1587 3.55669L80.5094 3.23828L79.8493 4.54957H79.8275L79.1565 3.2477L78.4954 3.57552L79.5138 4.71904V4.73702L77.9214 4.55898V5.19665L79.5247 5.01862V5.03574L78.4954 6.17755L79.112 6.51479L79.8176 5.19494H79.8384L80.4877 6.50623L81.1696 6.16899L80.1294 5.04515V5.02718L81.7644 5.19837V4.5607L80.1294 4.74815V4.7276Z" fill="#489977"/>
<path d="M40.9564 73.8105L40.9504 79.5735H52.802L52.7951 73.8105H40.9564Z" fill="#2D4356"/>
<path d="M40.9595 71.7421H52.7942L52.7606 39.5273H40.9901L40.9595 71.7421Z" fill="#2D4356"/>
<path d="M42.1113 37.4572H51.6401L46.8757 31.6445L42.1113 37.4572Z" fill="#2D4356"/>
<path d="M40.3318 20.0059L40.2616 20.0204H16.9751V22.0892H33.7365C29.8794 23.7976 26.5235 26.2442 23.9239 29.2429C21.3244 32.2416 19.5497 35.7134 18.7348 39.3944L21.0843 39.783C22.0266 35.5295 24.3632 31.5999 27.8157 28.4628C31.2681 25.3257 35.6908 23.1132 40.5565 22.0892H40.896V20.0204H40.3378L40.3318 20.0059ZM74.8177 39.5476C74.0269 35.8356 72.2602 32.3304 69.6538 29.3028C67.0475 26.2752 63.6714 23.8062 59.7862 22.0866H76.7753V20.0204H53.2572L53.1869 20.0059V20.0204H52.8603V21.247L52.6545 22.0173C52.7238 22.031 52.7911 22.0473 52.8603 22.0618V22.0858H52.9692C57.8632 23.1139 62.3084 25.3452 65.7683 28.5103C69.2282 31.6754 71.5548 35.639 72.4671 39.9225L74.8177 39.5476Z" fill="#2D4356"/>
<path d="M78.3153 40.7109H70.1138V47.804H78.3153V40.7109Z" fill="#2D4356"/>
<path d="M23.4674 40.7109H15.2659V47.804H23.4674V40.7109Z" fill="#2D4356"/>
<path d="M46.761 24.4774C47.6969 24.4774 48.6117 24.2374 49.3898 23.7877C50.1679 23.3381 50.7744 22.699 51.1325 21.9512C51.4907 21.2035 51.5844 20.3806 51.4018 19.5868C51.2192 18.793 50.7686 18.0639 50.1068 17.4916C49.4451 16.9192 48.602 16.5295 47.6841 16.3716C46.7663 16.2137 45.8149 16.2947 44.9503 16.6045C44.0857 16.9142 43.3467 17.4387 42.8267 18.1117C42.3068 18.7846 42.0293 19.5758 42.0293 20.3852C42.0293 21.4705 42.5278 22.5114 43.4152 23.2788C44.3025 24.0463 45.5061 24.4774 46.761 24.4774Z" fill="#2D4356"/>
<path d="M15.6084 18.248H9.62769V23.5677H15.6084V18.248Z" fill="#2D4356"/>
<path d="M84.1257 18.248H78.145V23.5677H84.1257V18.248Z" fill="#2D4356"/>
</svg>
