<svg width="708" height="551" viewBox="0 0 708 551" fill="none" xmlns="http://www.w3.org/2000/svg">
<g clip-path="url(#clip0_1_633)">
<path d="M569.421 506.009C608.411 430.998 691.044 259.258 655.743 203.256C621.396 148.75 569.916 182.987 505.711 149.656C441.506 116.326 477.514 4.53373 364.622 2.93198C253.757 1.35379 239.158 185.107 195.573 203.256C151.988 221.405 48.8755 148.125 26.6647 253.699C9.39095 335.836 96.8909 456.485 136.611 506.009H569.421Z" fill="#92E3A9"/>
<path opacity="0.7" d="M569.421 506.009C608.411 430.998 691.044 259.258 655.743 203.256C621.396 148.75 569.916 182.987 505.711 149.656C441.506 116.326 477.514 4.53373 364.622 2.93198C253.757 1.35379 239.158 185.107 195.573 203.256C151.988 221.405 48.8755 148.125 26.6647 253.699C9.39095 335.836 96.8909 456.485 136.611 506.009H569.421Z" fill="white"/>
<path d="M645.091 506.01H43.0784C35.3841 509.461 29.0449 513.771 34.6536 517.222C45.812 524.1 119.985 512.641 103.159 540.153C86.3335 567.665 271.349 534.04 291.227 534.806C311.104 535.571 325.633 551 356.209 551C386.786 551 389.284 531.249 409.067 531.249C428.851 531.249 569.315 555.193 629.054 531.249C655.413 520.685 654.423 512.205 645.091 506.022V506.01Z" fill="#858585"/>
<path opacity="0.6" d="M645.091 506.01H43.0784C35.3841 509.461 29.0449 513.771 34.6536 517.222C45.812 524.1 119.985 512.641 103.159 540.153C86.3335 567.665 271.349 534.04 291.227 534.806C311.104 535.571 325.633 551 356.209 551C386.786 551 389.284 531.249 409.067 531.249C428.851 531.249 569.315 555.193 629.054 531.249C655.413 520.685 654.423 512.205 645.091 506.022V506.01Z" fill="white"/>
<path d="M26.7119 506.01H649.439" stroke="#263238" stroke-width="0.75" stroke-linecap="round" stroke-linejoin="round"/>
<path d="M444.828 80.2754H481.909" stroke="#263238" stroke-width="0.75" stroke-linecap="round" stroke-linejoin="round"/>
<path d="M438.077 80.2754H441.388" stroke="#263238" stroke-width="0.75" stroke-linecap="round" stroke-linejoin="round"/>
<path d="M432.81 24.25C417.339 24.25 404.79 36.7931 404.79 52.257C404.79 67.7209 417.339 80.2639 432.81 80.2639" stroke="#263238" stroke-width="0.75" stroke-linecap="round" stroke-linejoin="round"/>
<path d="M466.969 0.447266C452.664 0.447266 440.881 11.1766 439.185 25.0152" stroke="#263238" stroke-width="0.75" stroke-linecap="round" stroke-linejoin="round"/>
<path d="M493.35 80.2751C507.042 80.2751 518.13 69.1807 518.13 55.507C518.13 41.8332 507.843 31.6103 494.882 30.8095C494.953 30.0322 495 29.2431 495 28.454C495 15.3456 485.998 4.34536 473.826 1.2832" stroke="#263238" stroke-width="0.75" stroke-linecap="round" stroke-linejoin="round"/>
<path d="M542.108 115.395C542.733 114.5 543.286 113.558 543.746 112.569L547.411 112.628C547.953 111.214 548.365 109.73 548.601 108.187L545.396 106.409C545.443 105.867 545.466 105.326 545.466 104.772C545.466 104.218 545.443 103.677 545.396 103.135L548.601 101.356C548.365 99.8136 547.953 98.3297 547.411 96.9164L543.746 96.9753C543.286 95.9742 542.733 95.032 542.108 94.1487L543.993 91.004C543.027 89.8145 541.931 88.7192 540.741 87.7535L537.595 89.6379C536.7 89.0136 535.757 88.4601 534.767 88.0008L534.826 84.338C533.412 83.7962 531.928 83.384 530.384 83.1484L528.605 86.3519" stroke="#263238" stroke-width="0.75" stroke-linecap="round" stroke-linejoin="round"/>
<path d="M510.86 113.877C511.154 114.395 511.472 114.902 511.814 115.396L509.929 118.541C510.895 119.73 511.991 120.826 513.181 121.791L516.327 119.907C517.222 120.531 518.165 121.085 519.155 121.544L519.096 125.207C520.51 125.749 521.994 126.161 523.538 126.396L525.317 123.193C525.859 123.24 526.401 123.264 526.955 123.264C527.509 123.264 528.051 123.24 528.593 123.193L530.372 126.396C531.916 126.161 533.4 125.749 534.814 125.207L534.755 121.544C535.757 121.085 536.699 120.531 537.583 119.907L540.729 121.791C541.919 120.826 543.015 119.73 543.981 118.541" stroke="#263238" stroke-width="0.75" stroke-linecap="round" stroke-linejoin="round"/>
<path d="M507.961 96.9279L506.524 96.9043C505.982 98.3176 505.569 99.8016 505.333 101.344L508.538 103.123C508.491 103.665 508.468 104.206 508.468 104.76C508.468 105.313 508.491 105.855 508.538 106.397L505.333 108.175C505.569 109.718 505.982 111.202 506.524 112.616L510.188 112.557" stroke="#263238" stroke-width="0.75" stroke-linecap="round" stroke-linejoin="round"/>
<path d="M525.329 86.3402L523.55 83.1367C522.006 83.3723 520.521 83.7845 519.108 84.3263L519.166 87.9891C518.165 88.4484 517.222 89.0019 516.339 89.6261L513.193 87.7417C512.002 88.7075 510.907 89.8028 509.94 90.9923L511.826 94.1369C511.201 95.032 510.647 95.9742 510.188 96.9635" stroke="#263238" stroke-width="0.75" stroke-linecap="round" stroke-linejoin="round"/>
<path d="M524.563 116.444C519.131 115.337 515.042 110.532 515.042 104.761C515.042 98.177 520.38 92.8418 526.967 92.8418" stroke="#263238" stroke-width="0.75" stroke-linecap="round" stroke-linejoin="round"/>
<path d="M538.561 107.562C537.3 112.804 532.587 116.69 526.967 116.69" stroke="#263238" stroke-width="0.75" stroke-linecap="round" stroke-linejoin="round"/>
<path d="M538.844 105.809C538.821 106.091 538.785 106.374 538.738 106.645" stroke="#263238" stroke-width="0.75" stroke-linecap="round" stroke-linejoin="round"/>
<path d="M531.315 93.666C535.745 95.4091 538.891 99.7197 538.891 104.772" stroke="#263238" stroke-width="0.75" stroke-linecap="round" stroke-linejoin="round"/>
<path d="M559.064 79.2278C559.405 78.7332 559.712 78.215 559.971 77.6614L561.998 77.6968C562.304 76.9077 562.528 76.095 562.657 75.2353L560.89 74.2459C560.914 73.9515 560.937 73.6453 560.937 73.3391C560.937 73.0329 560.925 72.7384 560.89 72.4322L562.657 71.4429C562.528 70.5949 562.304 69.7705 561.998 68.9814L559.971 69.0167C559.712 68.4632 559.405 67.945 559.064 67.4503L560.101 65.719C559.57 65.0595 558.958 64.4588 558.298 63.9171L556.566 64.9535C556.071 64.6119 555.552 64.3057 554.999 64.0466L555.034 62.0209C554.244 61.7147 553.431 61.4909 552.571 61.3613L551.582 63.128" stroke="#263238" stroke-width="0.75" stroke-linecap="round" stroke-linejoin="round"/>
<path d="M541.778 78.3926C541.943 78.6752 542.12 78.9579 542.308 79.2288L541.271 80.9601C541.802 81.6196 542.414 82.2203 543.074 82.762L544.806 81.7256C545.301 82.0672 545.82 82.3734 546.374 82.6325L546.338 84.6582C547.128 84.9644 547.941 85.1882 548.801 85.3178L549.791 83.5394C550.085 83.5629 550.391 83.5865 550.698 83.5865C551.004 83.5865 551.299 83.5747 551.605 83.5394L552.595 85.3178C553.443 85.1882 554.268 84.9644 555.058 84.6582L555.022 82.6325C555.576 82.3734 556.094 82.0672 556.589 81.7256L558.321 82.762C558.981 82.2321 559.582 81.6196 560.124 80.9601" stroke="#263238" stroke-width="0.75" stroke-linecap="round" stroke-linejoin="round"/>
<path d="M540.176 69.0176H539.375C539.068 69.7831 538.844 70.6075 538.715 71.4673L540.494 72.4566C540.47 72.7511 540.447 73.0573 540.447 73.3635C540.447 73.6697 540.459 73.9641 540.494 74.2704L538.715 75.2597C538.844 76.1077 539.068 76.9321 539.375 77.7212L541.401 77.6858" stroke="#263238" stroke-width="0.75" stroke-linecap="round" stroke-linejoin="round"/>
<path d="M549.779 63.1514L548.789 61.3848C547.941 61.5143 547.116 61.7381 546.326 62.0443L546.362 64.07C545.808 64.3292 545.29 64.6354 544.795 64.9769L543.063 63.9405C542.403 64.4705 541.802 65.0829 541.26 65.7425L542.297 67.4738C541.955 67.9684 541.649 68.4866 541.389 69.0402" stroke="#263238" stroke-width="0.75" stroke-linecap="round" stroke-linejoin="round"/>
<path d="M231.51 79.2051H258.682" stroke="#263238" stroke-width="0.75" stroke-linecap="round" stroke-linejoin="round"/>
<path d="M226.562 79.2051H228.989" stroke="#263238" stroke-width="0.75" stroke-linecap="round" stroke-linejoin="round"/>
<path d="M222.709 38.1484C211.362 38.1484 202.171 47.3349 202.171 58.6767C202.171 70.0184 211.362 79.2049 222.709 79.2049" stroke="#263238" stroke-width="0.75" stroke-linecap="round" stroke-linejoin="round"/>
<path d="M247.747 20.6934C237.26 20.6934 228.624 28.549 227.375 38.7012" stroke="#263238" stroke-width="0.75" stroke-linecap="round" stroke-linejoin="round"/>
<path d="M267.071 79.205C277.098 79.205 285.229 71.0785 285.229 61.0558C285.229 51.0331 277.688 43.5426 268.191 42.9537C268.238 42.3884 268.273 41.8113 268.273 41.2224C268.273 31.612 261.675 23.5561 252.755 21.3066" stroke="#263238" stroke-width="0.75" stroke-linecap="round" stroke-linejoin="round"/>
<path d="M198.082 116.08C198.754 115.138 199.331 114.125 199.826 113.065L203.726 113.124C204.304 111.616 204.74 110.038 204.999 108.389L201.582 106.493C201.629 105.916 201.664 105.339 201.664 104.75C201.664 104.161 201.629 103.584 201.582 103.007L204.999 101.111C204.74 99.4735 204.315 97.8953 203.726 96.376L199.826 96.4349C199.331 95.3749 198.742 94.3738 198.082 93.4198L200.085 90.075C199.06 88.803 197.894 87.637 196.621 86.6124L193.275 88.6146C192.332 87.9433 191.319 87.3662 190.258 86.8715L190.317 82.9731C188.809 82.396 187.23 81.9603 185.581 81.7012L183.684 85.1166" stroke="#263238" stroke-width="0.75" stroke-linecap="round" stroke-linejoin="round"/>
<path d="M164.819 114.467C165.137 115.02 165.479 115.562 165.844 116.08L163.841 119.425C164.866 120.697 166.033 121.863 167.305 122.888L170.652 120.886C171.594 121.557 172.608 122.134 173.668 122.629L173.609 126.527C175.118 127.104 176.696 127.54 178.346 127.799L180.243 124.383C180.82 124.431 181.398 124.466 181.987 124.466C182.576 124.466 183.153 124.431 183.731 124.383L185.628 127.799C187.266 127.54 188.856 127.116 190.365 126.527L190.306 122.629C191.366 122.134 192.368 121.545 193.322 120.886L196.669 122.888C197.941 121.863 199.108 120.697 200.133 119.425" stroke="#263238" stroke-width="0.75" stroke-linecap="round" stroke-linejoin="round"/>
<path d="M161.732 96.4357L160.2 96.4121C159.623 97.9196 159.187 99.4978 158.928 101.147L162.345 103.043C162.298 103.62 162.262 104.197 162.262 104.786C162.262 105.375 162.298 105.952 162.345 106.529L158.928 108.425C159.187 110.062 159.611 111.652 160.2 113.16L164.1 113.101" stroke="#263238" stroke-width="0.75" stroke-linecap="round" stroke-linejoin="round"/>
<path d="M180.22 85.1635L178.323 81.748C176.685 82.0072 175.106 82.4311 173.586 83.02L173.645 86.9184C172.584 87.413 171.583 88.0019 170.628 88.6615L167.282 86.6593C166.009 87.6839 164.843 88.8499 163.818 90.1219L165.821 93.4667C165.149 94.4089 164.572 95.4218 164.077 96.4817" stroke="#263238" stroke-width="0.75" stroke-linecap="round" stroke-linejoin="round"/>
<path d="M179.395 117.2C173.609 116.022 169.261 110.899 169.261 104.774C169.261 97.7666 174.941 92.0898 181.951 92.0898" stroke="#263238" stroke-width="0.75" stroke-linecap="round" stroke-linejoin="round"/>
<path d="M194.3 107.742C192.957 113.313 187.937 117.459 181.952 117.459" stroke="#263238" stroke-width="0.75" stroke-linecap="round" stroke-linejoin="round"/>
<path d="M194.607 105.881C194.583 106.187 194.548 106.482 194.5 106.776" stroke="#263238" stroke-width="0.75" stroke-linecap="round" stroke-linejoin="round"/>
<path d="M186.594 92.9492C191.319 94.7983 194.654 99.3915 194.654 104.762" stroke="#263238" stroke-width="0.75" stroke-linecap="round" stroke-linejoin="round"/>
<path d="M149.513 103.678C150.008 102.971 150.456 102.205 150.821 101.416L153.743 101.463C154.179 100.333 154.509 99.1432 154.698 97.9066L152.129 96.4815C152.165 96.0457 152.188 95.61 152.188 95.1742C152.188 94.7384 152.165 94.3026 152.129 93.8669L154.698 92.4418C154.509 91.2052 154.179 90.0274 153.743 88.885L150.821 88.9321C150.456 88.1312 150.008 87.3775 149.513 86.6708L151.022 84.1622C150.244 83.2082 149.372 82.3367 148.418 81.5594L145.908 83.0669C145.201 82.5722 144.435 82.1247 143.646 81.7596L143.693 78.8388C142.562 78.403 141.371 78.0732 140.134 77.8848L138.708 80.4523" stroke="#263238" stroke-width="0.75" stroke-linecap="round" stroke-linejoin="round"/>
<path d="M124.522 102.465C124.757 102.877 125.017 103.289 125.288 103.678L123.779 106.187C124.557 107.141 125.429 108.012 126.383 108.789L128.893 107.282C129.6 107.777 130.366 108.224 131.155 108.589L131.108 111.51C132.239 111.946 133.43 112.276 134.667 112.464L136.092 109.896C136.528 109.932 136.964 109.955 137.4 109.955C137.836 109.955 138.272 109.932 138.708 109.896L140.134 112.464C141.371 112.276 142.561 111.946 143.692 111.51L143.645 108.589C144.447 108.224 145.201 107.777 145.908 107.282L148.417 108.789C149.372 108.012 150.244 107.141 151.021 106.187" stroke="#263238" stroke-width="0.75" stroke-linecap="round" stroke-linejoin="round"/>
<path d="M122.2 88.9083L121.046 88.8848C120.61 90.0154 120.28 91.2049 120.091 92.4416L122.66 93.8667C122.625 94.3024 122.601 94.7382 122.601 95.174C122.601 95.6097 122.625 96.0455 122.66 96.4813L120.091 97.9063C120.28 99.143 120.61 100.333 121.046 101.463L123.968 101.416" stroke="#263238" stroke-width="0.75" stroke-linecap="round" stroke-linejoin="round"/>
<path d="M136.092 80.4405L134.667 77.873C133.43 78.0615 132.251 78.3913 131.108 78.827L131.155 81.7479C130.354 82.113 129.6 82.5605 128.893 83.0552L126.383 81.5476C125.429 82.3249 124.557 83.1965 123.779 84.1505L125.288 86.6591C124.793 87.3657 124.345 88.1313 123.98 88.9204" stroke="#263238" stroke-width="0.75" stroke-linecap="round" stroke-linejoin="round"/>
<path d="M136.092 101.558C133.123 100.946 130.896 98.3313 130.896 95.1867C130.896 91.5946 133.806 88.6855 137.4 88.6855" stroke="#263238" stroke-width="0.75" stroke-linecap="round" stroke-linejoin="round"/>
<path d="M143.728 96.7051C143.044 99.567 140.464 101.687 137.4 101.687" stroke="#263238" stroke-width="0.75" stroke-linecap="round" stroke-linejoin="round"/>
<path d="M139.781 89.1211C142.196 90.0751 143.917 92.4306 143.917 95.1865" stroke="#263238" stroke-width="0.75" stroke-linecap="round" stroke-linejoin="round"/>
<path d="M354.242 461.831C354.242 461.831 315.629 439.525 320.778 433.306C325.927 427.099 343.625 444.459 343.625 444.459C343.625 444.459 309.514 401.683 315.629 397.338C321.744 392.992 339.112 421.293 339.112 421.293C339.112 421.293 318.198 374.124 326.245 372.781C334.293 371.439 347.16 413.579 347.16 413.579C347.16 413.579 341.693 383.664 347.16 383.028C352.627 382.38 356.492 430.409 356.492 430.409C356.492 430.409 356.221 407.808 361.017 407.961C365.812 408.114 367.745 458.604 354.23 461.82L354.242 461.831Z" fill="#92E3A9"/>
<path opacity="0.4" d="M354.242 461.831C354.242 461.831 315.629 439.525 320.778 433.306C325.927 427.099 343.625 444.459 343.625 444.459C343.625 444.459 309.514 401.683 315.629 397.338C321.744 392.992 339.112 421.293 339.112 421.293C339.112 421.293 318.198 374.124 326.245 372.781C334.293 371.439 347.16 413.579 347.16 413.579C347.16 413.579 341.693 383.664 347.16 383.028C352.627 382.38 356.492 430.409 356.492 430.409C356.492 430.409 356.221 407.808 361.017 407.961C365.812 408.114 367.745 458.604 354.23 461.82L354.242 461.831Z" fill="white"/>
<path d="M360.298 459.959C360.298 459.959 390.875 442.292 386.798 437.369C382.721 432.446 368.699 446.202 368.699 446.202C368.699 446.202 395.718 412.33 390.875 408.891C386.032 405.452 372.27 427.865 372.27 427.865C372.27 427.865 388.836 390.507 382.462 389.447C376.087 388.387 365.895 421.752 365.895 421.752C365.895 421.752 370.231 398.068 365.895 397.55C361.559 397.043 358.507 435.085 358.507 435.085C358.507 435.085 358.719 417.183 354.913 417.3C351.108 417.418 349.588 457.415 360.286 459.959H360.298Z" fill="#92E3A9"/>
<path opacity="0.2" d="M360.298 459.959C360.298 459.959 390.875 442.292 386.798 437.369C382.721 432.446 368.699 446.202 368.699 446.202C368.699 446.202 395.718 412.33 390.875 408.891C386.032 405.452 372.27 427.865 372.27 427.865C372.27 427.865 388.836 390.507 382.462 389.447C376.087 388.387 365.895 421.752 365.895 421.752C365.895 421.752 370.231 398.068 365.895 397.55C361.559 397.043 358.507 435.085 358.507 435.085C358.507 435.085 358.719 417.183 354.913 417.3C351.108 417.418 349.588 457.415 360.286 459.959H360.298Z" fill="black"/>
<path d="M327.318 453.939V456.307C327.318 458.391 328.708 460.123 330.593 460.7L334.081 497.787C334.54 502.675 338.641 506.408 343.554 506.408H369.406C374.32 506.408 378.42 502.675 378.88 497.787L382.367 460.7C384.264 460.123 385.643 458.391 385.643 456.307V453.939H327.294H327.318Z" fill="#263238"/>
<path d="M331.183 466.93C332.349 467.095 333.563 466.742 334.458 465.859L337.498 462.797C338.995 461.313 341.398 461.313 342.895 462.797L345.935 465.859C347.431 467.343 349.847 467.343 351.331 465.859L354.395 462.797C355.88 461.313 358.295 461.313 359.78 462.797L362.843 465.859C364.328 467.343 366.743 467.343 368.228 465.859L371.292 462.797C372.776 461.313 375.192 461.313 376.688 462.797L379.728 465.859C380.329 466.459 381.048 466.801 381.802 466.919" stroke="#7F7F7F" stroke-width="0.75" stroke-linecap="round" stroke-linejoin="round"/>
<path d="M457.684 113.936H233.29C226.945 113.936 221.802 119.077 221.802 125.419V349.71C221.802 356.052 226.945 361.193 233.29 361.193H457.684C464.029 361.193 469.172 356.052 469.172 349.71V125.419C469.172 119.077 464.029 113.936 457.684 113.936Z" fill="#263238"/>
<path opacity="0.8" d="M457.684 113.936H233.29C226.945 113.936 221.802 119.077 221.802 125.419V349.71C221.802 356.052 226.945 361.193 233.29 361.193H457.684C464.029 361.193 469.172 356.052 469.172 349.71V125.419C469.172 119.077 464.029 113.936 457.684 113.936Z" fill="white"/>
<path d="M457.684 113.936H233.29C226.945 113.936 221.802 119.077 221.802 125.419V349.71C221.802 356.052 226.945 361.193 233.29 361.193H457.684C464.029 361.193 469.172 356.052 469.172 349.71V125.419C469.172 119.077 464.029 113.936 457.684 113.936Z" stroke="#263238" stroke-width="0.75" stroke-linecap="round" stroke-linejoin="round"/>
<path d="M451.498 143.639H239.476C233.131 143.639 227.988 148.78 227.988 155.122V343.527C227.988 349.869 233.131 355.01 239.476 355.01H451.498C457.843 355.01 462.986 349.869 462.986 343.527V155.122C462.986 148.78 457.843 143.639 451.498 143.639Z" fill="#263238"/>
<path d="M451.498 143.639H239.476C233.131 143.639 227.988 148.78 227.988 155.122V343.527C227.988 349.869 233.131 355.01 239.476 355.01H451.498C457.843 355.01 462.986 349.869 462.986 343.527V155.122C462.986 148.78 457.843 143.639 451.498 143.639Z" stroke="#263238" stroke-width="0.75" stroke-linecap="round" stroke-linejoin="round"/>
<path d="M460.535 123.369H451.828C450.468 123.369 449.365 124.471 449.365 125.831V134.534C449.365 135.894 450.468 136.996 451.828 136.996H460.535C461.896 136.996 462.998 135.894 462.998 134.534V125.831C462.998 124.471 461.896 123.369 460.535 123.369Z" fill="#92E3A9"/>
<path opacity="0.3" d="M460.535 123.369H451.828C450.468 123.369 449.365 124.471 449.365 125.831V134.534C449.365 135.894 450.468 136.996 451.828 136.996H460.535C461.896 136.996 462.998 135.894 462.998 134.534V125.831C462.998 124.471 461.896 123.369 460.535 123.369Z" fill="black"/>
<path d="M460.535 123.369H451.828C450.468 123.369 449.365 124.471 449.365 125.831V134.534C449.365 135.894 450.468 136.996 451.828 136.996H460.535C461.896 136.996 462.998 135.894 462.998 134.534V125.831C462.998 124.471 461.896 123.369 460.535 123.369Z" stroke="#263238" stroke-width="0.75" stroke-linecap="round" stroke-linejoin="round"/>
<path d="M443.745 123.369H435.037C433.677 123.369 432.575 124.471 432.575 125.831V134.534C432.575 135.894 433.677 136.996 435.037 136.996H443.745C445.105 136.996 446.208 135.894 446.208 134.534V125.831C446.208 124.471 445.105 123.369 443.745 123.369Z" fill="#92E3A9" stroke="#263238" stroke-width="0.75" stroke-linecap="round" stroke-linejoin="round"/>
<path d="M426.954 123.369H418.246C416.886 123.369 415.784 124.471 415.784 125.831V134.534C415.784 135.894 416.886 136.996 418.246 136.996H426.954C428.314 136.996 429.417 135.894 429.417 134.534V125.831C429.417 124.471 428.314 123.369 426.954 123.369Z" fill="#92E3A9"/>
<path opacity="0.7" d="M426.954 123.369H418.246C416.886 123.369 415.784 124.471 415.784 125.831V134.534C415.784 135.894 416.886 136.996 418.246 136.996H426.954C428.314 136.996 429.417 135.894 429.417 134.534V125.831C429.417 124.471 428.314 123.369 426.954 123.369Z" fill="white"/>
<path d="M426.954 123.369H418.246C416.886 123.369 415.784 124.471 415.784 125.831V134.534C415.784 135.894 416.886 136.996 418.246 136.996H426.954C428.314 136.996 429.417 135.894 429.417 134.534V125.831C429.417 124.471 428.314 123.369 426.954 123.369Z" stroke="#263238" stroke-width="0.75" stroke-linecap="round" stroke-linejoin="round"/>
<path d="M228.506 132.638V126.867C228.506 125.112 229.425 124.111 231.122 124.111C232.819 124.111 233.738 125.112 233.738 126.867V132.638C233.738 134.393 232.807 135.394 231.122 135.394C229.437 135.394 228.506 134.393 228.506 132.638ZM232.018 132.744V126.761C232.018 125.972 231.676 125.678 231.122 125.678C230.568 125.678 230.227 125.972 230.227 126.761V132.744C230.227 133.533 230.568 133.828 231.122 133.828C231.676 133.828 232.018 133.533 232.018 132.744Z" fill="#263238"/>
<path d="M234.904 124.264H237.449C239.17 124.264 240.018 125.218 240.018 126.972V128.056C240.018 129.811 239.17 130.765 237.449 130.765H236.636V135.229H234.916V124.264H234.904ZM237.449 129.198C238.003 129.198 238.298 128.951 238.298 128.162V126.867C238.298 126.077 238.003 125.83 237.449 125.83H236.636V129.198H237.449Z" fill="#263238"/>
<path d="M240.961 124.264H245.662V125.83H242.681V128.727H245.05V130.294H242.681V133.662H245.662V135.229H240.961V124.264Z" fill="#263238"/>
<path d="M246.652 124.264H248.82L250.493 130.836H250.528V124.264H252.06V135.229H250.293L248.219 127.22H248.184V135.229H246.652V124.264Z" fill="#263238"/>
<path d="M255.572 132.638V132.014H257.198V132.768C257.198 133.557 257.54 133.828 258.093 133.828C258.647 133.828 258.989 133.545 258.989 132.732C258.989 131.826 258.647 131.249 257.516 130.259C256.078 128.987 255.607 128.092 255.607 126.844C255.607 125.124 256.503 124.111 258.176 124.111C259.849 124.111 260.686 125.112 260.686 126.867V127.327H259.06V126.761C259.06 125.972 258.741 125.678 258.199 125.678C257.657 125.678 257.339 125.972 257.339 126.726C257.339 127.527 257.704 128.104 258.824 129.093C260.261 130.365 260.721 131.237 260.721 132.603C260.721 134.393 259.814 135.394 258.117 135.394C256.42 135.394 255.572 134.393 255.572 132.638Z" fill="#263238"/>
<path d="M261.569 132.638V126.867C261.569 125.112 262.488 124.111 264.185 124.111C265.882 124.111 266.801 125.112 266.801 126.867V132.638C266.801 134.393 265.882 135.394 264.185 135.394C262.488 135.394 261.569 134.393 261.569 132.638ZM265.081 132.744V126.761C265.081 125.972 264.739 125.678 264.185 125.678C263.631 125.678 263.29 125.972 263.29 126.761V132.744C263.29 133.533 263.631 133.828 264.185 133.828C264.739 133.828 265.081 133.533 265.081 132.744Z" fill="#263238"/>
<path d="M267.908 132.637V124.264H269.629V132.755C269.629 133.544 269.958 133.815 270.5 133.815C271.042 133.815 271.384 133.533 271.384 132.755V124.264H273.046V132.637C273.046 134.392 272.174 135.393 270.477 135.393C268.78 135.393 267.908 134.392 267.908 132.637Z" fill="#263238"/>
<path d="M274.283 124.264H276.84C278.631 124.264 279.397 125.1 279.397 126.784V127.455C279.397 128.586 279.032 129.304 278.266 129.622V129.658C279.126 129.929 279.409 130.741 279.409 131.978V133.909C279.409 134.439 279.421 134.84 279.597 135.24H277.842C277.747 134.958 277.688 134.781 277.688 133.898V131.896C277.688 130.883 277.394 130.553 276.604 130.553H276.004V135.252H274.283V124.287V124.264ZM276.64 128.963C277.288 128.963 277.677 128.68 277.677 127.809V126.961C277.677 126.172 277.406 125.83 276.793 125.83H276.004V128.963H276.628H276.64Z" fill="#263238"/>
<path d="M280.493 132.697V126.808C280.493 125.112 281.376 124.111 283.038 124.111C284.699 124.111 285.583 125.112 285.583 126.808V127.963H283.957V126.691C283.957 125.972 283.615 125.666 283.097 125.666C282.578 125.666 282.237 125.96 282.237 126.691V132.815C282.237 133.533 282.578 133.816 283.097 133.816C283.615 133.816 283.957 133.533 283.957 132.815V131.143H285.583V132.697C285.583 134.393 284.711 135.394 283.038 135.394C281.365 135.394 280.493 134.393 280.493 132.697Z" fill="#263238"/>
<path d="M286.608 124.264H291.309V125.83H288.328V128.727H290.697V130.294H288.328V133.662H291.309V135.229H286.608V124.264Z" fill="#263238"/>
<path d="M534.897 431.895C534.897 431.895 536.865 444.838 536.394 449.137C534.826 463.588 527.427 477.921 524.292 505.999H644.69C644.69 505.999 645.786 454.79 641.049 431.883H534.897V431.895Z" fill="#858585" stroke="#263238" stroke-linecap="round" stroke-linejoin="round"/>
<path d="M534.202 439.256C534.202 439.256 531.244 388.896 525.424 340.419C521.936 311.341 516.092 282.521 514.748 260.992C513.004 232.832 547.399 240.652 577.351 239.403C607.303 238.155 636.395 234.268 638.481 260.45C640.554 286.631 643.418 437.596 643.418 437.596C643.418 437.596 586.671 452.8 534.202 439.256Z" fill="#92E3A9"/>
<g opacity="0.2">
<path d="M525.023 277.528C518 294.028 506.347 308.514 491.736 318.926L494.541 325.356C491.289 328.089 485.326 325.58 485.02 321.352L481.638 338.712L470.845 338.37C476.124 343.729 485.397 342.916 491.619 338.688C497.84 334.46 501.775 327.712 505.652 321.269C509.529 314.827 513.841 308.208 520.428 304.581C528.346 341.762 536.276 378.932 544.194 416.114C545.478 422.109 546.833 428.315 550.439 433.274C557.921 443.579 572.379 445.44 585.104 445.334C603.969 445.157 622.81 442.59 641.026 437.702L639.624 300.859L675.915 345.979C670.012 354.14 664.097 362.302 658.194 370.452C665.652 359.217 678.613 351.832 692.093 351.149C689.913 348.923 686.508 347.981 683.503 348.77L694.721 345.178L685.954 344.412C687.58 341.774 689.218 339.136 690.844 336.486C689.701 338.747 686.59 339.383 684.187 338.559C681.783 337.734 679.933 335.838 678.189 334.001C670.189 325.627 662.105 317.135 656.391 307.066C650.676 296.996 647.483 285.018 650.04 273.723L645.963 283.899L639.73 266.516C640.979 272.016 639.046 278.117 634.84 281.874C633.178 283.369 631.128 284.582 630.256 286.667C629.867 287.586 629.844 288.634 630.032 289.623C645.68 373.279 594.801 373.727 576.962 369.133C560.985 365.011 546.338 344.872 545.726 328.595C545.655 326.546 547.894 325.215 549.685 326.204C579.743 342.799 605.524 347.039 596.581 340.172C580.674 336.769 538.279 319.397 531.209 281.544C530.679 278.682 527.851 276.845 525.011 277.516L525.023 277.528Z" fill="black"/>
</g>
<path d="M534.202 439.256C534.202 439.256 531.244 388.896 525.424 340.419C521.936 311.341 516.092 282.521 514.748 260.992C513.004 232.832 547.399 240.652 577.351 239.403C607.303 238.155 636.395 234.268 638.481 260.45C640.554 286.631 643.418 437.596 643.418 437.596C643.418 437.596 586.671 452.8 534.202 439.256V439.256Z" stroke="#263238" stroke-width="0.75" stroke-linecap="round" stroke-linejoin="round"/>
<path d="M583.16 506.011C583.16 506.011 580.686 499.981 579.26 498.073C571.896 488.298 572.815 479.959 570.116 470.832C569.292 468.04 563.647 461.139 563.647 461.139" stroke="#263238" stroke-width="0.75" stroke-linecap="round" stroke-linejoin="round"/>
<path d="M656.485 380.992L647.73 391.38L650.429 409.588L663.767 395.561L656.485 380.992Z" fill="white" stroke="#263238" stroke-width="0.75" stroke-linecap="round" stroke-linejoin="round"/>
<path d="M649.333 392.134C648.967 390.368 648.767 385.857 647.058 385.268C643.924 384.185 637.891 389.885 635.983 392.594C635.087 393.866 633.155 396.598 633.178 398.164C633.178 398.965 633.885 400.862 634.675 400.979C636.041 401.191 637.609 398.023 638.669 397.128C640.001 396.009 644.973 393.524 644.973 393.524C644.973 393.524 641.261 398.906 639.753 400.155C637.503 402.004 628.112 407.221 634.074 410.331C634.074 410.331 631.776 413.699 635.37 414.594C638.975 415.489 644.702 410.507 644.702 410.507C644.702 410.507 643.677 412.121 641.049 414.453C638.775 416.49 635.393 416.043 636.195 417.48C637.432 419.706 640.495 419.906 643.759 418.81C647.023 417.715 649.226 416.443 651.559 412.58C654.505 407.692 650.393 397.152 649.344 392.123L649.333 392.134Z" fill="white" stroke="#1A2E35" stroke-width="0.75" stroke-linecap="round" stroke-linejoin="round"/>
<path d="M636.524 409.589C636.524 409.589 641.414 407.127 643.936 405.243C646.457 403.359 647.742 400.768 647.742 400.768" stroke="#1A2E35" stroke-width="0.75" stroke-linecap="round" stroke-linejoin="round"/>
<path d="M610.214 238.543C610.214 238.543 639.388 240.274 639.223 249.237C639.223 249.237 653.834 255.456 654.612 262.475C655.39 269.494 717.014 335.484 706.327 354.646C697.007 371.37 659.36 402.486 659.36 402.486C659.36 402.486 655.767 394.407 651.702 384.973C651.702 384.973 668.221 348.969 675.762 345.271L636.124 294.946" fill="#92E3A9"/>
<g opacity="0.2">
<path d="M525.612 277.326C518.59 293.827 506.936 308.313 492.326 318.724C493.257 320.868 494.199 323.011 495.13 325.155C491.878 327.887 485.916 325.379 485.609 321.151C484.478 326.933 483.359 332.716 482.228 338.511C478.634 338.393 475.028 338.287 471.435 338.169C476.713 343.528 485.986 342.715 492.208 338.487C498.429 334.259 502.365 327.51 506.241 321.068C510.118 314.626 514.43 308.007 521.017 304.379C528.935 341.561 536.865 378.731 544.783 415.913C546.068 421.907 547.423 428.114 551.028 433.073C558.51 443.378 572.968 445.239 585.694 445.133C604.558 444.956 623.399 442.389 641.615 437.501C641.144 391.886 640.673 346.272 640.213 300.658C652.314 315.698 664.403 330.738 676.504 345.777C670.601 353.939 664.686 362.101 658.783 370.251C666.241 359.015 679.203 351.631 692.682 350.948C690.503 348.722 687.097 347.78 684.093 348.569C687.828 347.367 691.563 346.178 695.31 344.977C692.388 344.717 689.466 344.47 686.543 344.211C688.169 341.573 689.807 338.935 691.433 336.285C690.29 338.546 687.18 339.182 684.776 338.358C682.372 337.533 680.522 335.637 678.779 333.8C670.778 325.426 662.695 316.934 656.98 306.864C651.265 296.795 648.072 284.817 650.629 273.522C649.274 276.914 647.907 280.306 646.552 283.698C644.478 277.904 642.393 272.109 640.319 266.314C641.568 271.815 639.636 277.915 635.429 281.672C633.827 283.109 631.883 284.287 630.952 286.218C629.703 288.821 630.704 291.883 631.529 294.651C636.702 311.917 634.251 331.727 623.422 346.131C612.594 360.535 593.093 368.485 575.643 363.986C558.18 359.486 544.595 341.761 546.468 323.836C565.097 330.643 584.739 334.695 604.546 335.802C587.909 332.245 571.165 327.44 557.143 317.806C543.122 308.172 532.058 292.979 531.056 276.007L525.601 277.303L525.612 277.326Z" fill="black"/>
</g>
<path d="M610.214 238.543C610.214 238.543 639.388 240.274 639.223 249.237C639.223 249.237 653.834 255.456 654.612 262.475C655.39 269.494 717.014 335.484 706.327 354.646C697.007 371.37 659.36 402.486 659.36 402.486C659.36 402.486 655.767 394.407 651.702 384.973C651.702 384.973 668.221 348.969 675.762 345.271L636.124 294.946" stroke="#263238" stroke-width="0.75" stroke-linecap="round" stroke-linejoin="round"/>
<path d="M695.746 343.882C689.253 339.312 680.039 344.117 680.039 341.114C680.039 338.111 691.127 337.84 690.196 334.742" stroke="#263238" stroke-width="0.75" stroke-linecap="round" stroke-linejoin="round"/>
<path d="M644.867 281.672C646.493 277.256 647.907 271.331 647.942 264.018" stroke="#263238" stroke-width="0.75" stroke-linecap="round" stroke-linejoin="round"/>
<path d="M640.13 260.154C640.472 266.997 640.826 276.725 640.507 284.157C640.437 285.9 642.805 286.477 643.536 284.887" stroke="#263238" stroke-width="0.75" stroke-linecap="round" stroke-linejoin="round"/>
<path d="M639.635 251.781C639.635 251.781 639.741 253.242 639.883 255.633" stroke="#263238" stroke-width="0.75" stroke-linecap="round" stroke-linejoin="round"/>
<path d="M506.489 271.402C506.489 271.402 504.756 283.521 506.489 292.178" stroke="#263238" stroke-width="0.75" stroke-linecap="round" stroke-linejoin="round"/>
<path d="M455.516 259.283L448.835 240.062C448.835 240.062 446.761 226.907 445.029 224.304C443.297 221.713 438.796 218.074 438.796 218.074C438.796 218.074 435.555 213.575 433.281 211.667C431.007 209.759 417.669 202.834 416.632 203.352C415.595 203.87 413.946 206.991 422.606 211.832C422.606 211.832 417.846 211.49 414.028 213.045C410.21 214.599 407.618 215.035 409.268 216.684C410.917 218.333 412.296 219.11 418.447 217.461C418.447 217.461 422.771 217.98 426.235 217.72L428.144 219.97C428.144 219.97 425.198 218.674 423.466 221.442C421.734 224.21 419.743 227.672 420.603 229.663C420.603 229.663 413.934 226.2 412.119 229.062C410.305 231.924 415.925 234.515 418.176 236.246C420.426 237.978 425.882 242.653 425.882 242.653C425.882 242.653 429.782 251.392 437.924 254.596C437.924 254.596 441.082 258.235 440.174 261.603L455.516 259.272V259.283Z" fill="white" stroke="#263238" stroke-width="0.75" stroke-linecap="round" stroke-linejoin="round"/>
<path d="M426.836 214.188L429.699 216.519L432.904 222.067L435.06 229.333" stroke="#263238" stroke-width="0.75" stroke-linecap="round" stroke-linejoin="round"/>
<path d="M436.887 229.334C436.887 229.334 432.35 234.787 429.122 235.564C429.122 235.564 425.716 234.092 425.033 233.491C424.456 232.985 423.584 232.007 421.828 230.606" stroke="#263238" stroke-width="0.75" stroke-linecap="round" stroke-linejoin="round"/>
<path d="M431.855 228.898L431.443 227.426C431.443 227.426 429.181 227.944 427.354 227.426L426.317 228.898C426.317 228.898 428.65 228.462 431.855 228.898V228.898Z" stroke="#263238" stroke-width="0.75" stroke-linecap="round" stroke-linejoin="round"/>
<path d="M427.272 222.762C427.272 222.762 428.05 224.21 427.873 226.483" stroke="#263238" stroke-width="0.75" stroke-linecap="round" stroke-linejoin="round"/>
<path d="M424.585 227.426C424.585 227.426 428.073 230.111 427.59 234.869" stroke="#263238" stroke-width="0.75" stroke-linecap="round" stroke-linejoin="round"/>
<path d="M429.958 221.371L431.856 223.444V225.788" stroke="#263238" stroke-width="0.75" stroke-linecap="round" stroke-linejoin="round"/>
<path d="M527.38 241.616C527.38 241.616 516.339 241.145 509.293 261.002C509.293 261.002 500.974 265.854 484.042 302.789C484.042 302.789 481.132 298.89 474.875 288.208C469.408 278.88 461.077 266.832 454.184 249.201C454.184 249.201 448.646 256.02 436.769 255.631C436.769 255.631 462.503 342.491 480.507 342.491C500.373 342.491 522.242 296.323 522.242 296.323" fill="#92E3A9"/>
<g opacity="0.2">
<path d="M525.612 277.326C518.59 293.827 506.936 308.313 492.326 318.724C493.257 320.868 494.199 323.011 495.13 325.155C491.878 327.887 485.916 325.379 485.609 321.151C484.478 326.933 483.359 332.716 482.228 338.511C478.634 338.393 475.028 338.287 471.435 338.169C476.713 343.528 485.986 342.715 492.208 338.487C498.429 334.259 502.365 327.51 506.241 321.068C510.118 314.626 514.43 308.007 521.017 304.379C528.935 341.561 536.865 378.731 544.783 415.913C546.068 421.907 547.423 428.114 551.028 433.073C558.51 443.378 572.968 445.239 585.694 445.133C604.558 444.956 623.399 442.389 641.615 437.501C641.144 391.886 640.673 346.272 640.213 300.658C652.314 315.698 664.403 330.738 676.504 345.777C670.601 353.939 664.686 362.101 658.783 370.251C666.241 359.015 679.203 351.631 692.682 350.948C690.503 348.722 687.097 347.78 684.093 348.569C687.828 347.367 691.563 346.178 695.31 344.977C692.388 344.717 689.466 344.47 686.543 344.211C688.169 341.573 689.807 338.935 691.433 336.285C690.29 338.546 687.18 339.182 684.776 338.358C682.372 337.533 680.522 335.637 678.779 333.8C670.778 325.426 662.695 316.934 656.98 306.864C651.265 296.795 648.072 284.817 650.629 273.522C649.274 276.914 647.907 280.306 646.552 283.698C644.478 277.904 642.393 272.109 640.319 266.314C641.568 271.815 639.636 277.915 635.429 281.672C633.827 283.109 631.883 284.287 630.952 286.218C629.703 288.821 630.704 291.883 631.529 294.651C636.702 311.917 634.251 331.727 623.422 346.131C612.594 360.535 593.093 368.485 575.643 363.986C558.18 359.486 544.595 341.761 546.468 323.836C565.097 330.643 584.739 334.695 604.546 335.802C587.909 332.245 571.165 327.44 557.143 317.806C543.122 308.172 532.058 292.979 531.056 276.007L525.601 277.303L525.612 277.326Z" fill="black"/>
</g>
<path d="M527.38 241.616C527.38 241.616 516.339 241.145 509.293 261.002C509.293 261.002 500.974 265.854 484.042 302.789C484.042 302.789 481.132 298.89 474.875 288.208C469.408 278.88 461.077 266.832 454.184 249.201C454.184 249.201 448.646 256.02 436.769 255.631C436.769 255.631 462.503 342.491 480.507 342.491C500.373 342.491 522.242 296.323 522.242 296.323" stroke="#263238" stroke-width="0.75" stroke-linecap="round" stroke-linejoin="round"/>
<path d="M515.031 265.371C514.914 263.97 514.819 262.509 514.749 261.002" stroke="#263238" stroke-width="0.75" stroke-linecap="round" stroke-linejoin="round"/>
<path d="M516.952 291.683C520.169 291.33 517.364 284.723 515.656 271.402" stroke="#263238" stroke-width="0.75" stroke-linecap="round" stroke-linejoin="round"/>
<path d="M508.692 267.008C508.692 267.008 511.378 282.695 514.466 289.055" stroke="#263238" stroke-width="0.75" stroke-linecap="round" stroke-linejoin="round"/>
<path d="M582.794 207.627C582.794 207.627 585.811 237.624 592.515 241.24C592.515 241.24 591.443 252.7 571.883 252.7C552.324 252.7 552.324 236.541 552.324 236.541L582.794 207.615V207.627Z" fill="white"/>
<path d="M540.541 175.168C540.541 175.168 537.371 194.059 537.89 197.981C538.408 201.903 537.442 206.013 538.243 212.42C539.045 218.816 543.923 236.647 555.564 239.379C561.632 240.804 574.794 234.892 580.238 222.761C580.603 221.937 582.795 212.621 582.795 212.621C582.795 212.621 588.191 216.272 589.923 210.371C591.655 204.471 594.577 199.076 590.83 195.555C586.919 191.88 582.017 199.665 581.322 202.492C580.615 205.319 577.857 202.115 577.857 202.115C577.857 202.115 576.125 189.124 572.072 185.674C568.019 182.223 575.583 175.557 571.742 171.022C567.901 166.5 550.804 167.513 540.553 175.168H540.541Z" fill="#263238" stroke="#263238" stroke-width="0.75" stroke-linecap="round" stroke-linejoin="round"/>
<path d="M582.794 207.627C582.794 207.627 585.811 237.624 592.515 241.24C592.515 241.24 591.443 252.7 571.883 252.7C552.324 252.7 552.324 236.541 552.324 236.541L582.794 207.615V207.627Z" stroke="#263238" stroke-width="0.75" stroke-linecap="round" stroke-linejoin="round"/>
<path d="M536.016 175.474C536.016 175.474 518.224 173.755 522.124 159.398C526.024 145.041 540.894 143.486 540.894 143.486C540.894 143.486 537.89 153.78 555.541 151.754C573.18 149.728 592.233 148.009 593.01 165.793C593.01 165.793 599.88 182.811 588.332 199.347C576.785 215.883 566.169 202.492 566.169 202.492L556.955 182.8L539.975 179.208L536.028 175.462L536.016 175.474Z" fill="#263238"/>
<path d="M561.632 165.852C561.632 165.852 582.7 168.29 592.998 165.793C603.297 163.296 606.113 191.232 606.113 191.232L603.615 208.239L575.513 213.079L562.551 201.537L557.249 185.461L561.632 165.852Z" fill="#858585" stroke="#263238" stroke-width="0.75" stroke-miterlimit="10"/>
<path d="M536.016 175.474C536.016 175.474 518.224 173.755 522.124 159.398C526.024 145.041 540.894 143.486 540.894 143.486C540.894 143.486 537.89 153.78 555.541 151.754C573.18 149.728 592.233 148.009 593.01 165.793C593.01 165.793 599.88 182.811 588.332 199.347C576.785 215.883 566.169 202.492 566.169 202.492L556.955 182.8L539.975 179.208L536.028 175.462L536.016 175.474Z" stroke="#263238" stroke-width="0.75" stroke-miterlimit="10"/>
<path d="M533.46 173.154C533.46 173.154 529.347 192.175 529.878 196.096C530.396 200.018 529.183 204.164 529.972 210.571C530.761 216.978 533.53 240.957 547.364 239.108C560.985 237.294 579.719 226.153 581.393 215.094C581.522 214.199 582.335 211.572 582.335 211.572C582.335 211.572 588.026 213.339 590.171 207.379C592.315 201.432 595.827 195.955 591.549 192.504C587.084 188.9 581.204 196.815 580.32 199.665C579.437 202.515 576.291 199.359 576.291 199.359C576.291 199.359 574.559 186.368 569.916 183C565.262 179.632 574.229 172.777 569.845 168.313C565.474 163.861 545.549 165.251 533.448 173.154H533.46Z" fill="white" stroke="#263238" stroke-width="0.75" stroke-linecap="round" stroke-linejoin="round"/>
<path d="M540.565 195.803C540.565 199.301 533.966 205.413 534.744 208.534C535.168 210.254 539.622 211.078 540.529 212.586C540.883 213.163 540.883 214.023 540.883 214.023" fill="white"/>
<path d="M540.565 195.803C540.565 199.301 533.966 205.413 534.744 208.534C535.168 210.254 539.622 211.078 540.529 212.586C540.883 213.163 540.883 214.023 540.883 214.023" stroke="#263238" stroke-width="0.75" stroke-linecap="round" stroke-linejoin="round"/>
<path d="M534.261 197.876C534.166 199.242 533.542 200.302 532.859 200.255C532.187 200.208 531.716 199.065 531.81 197.699C531.904 196.333 532.529 195.273 533.212 195.32C533.884 195.367 534.355 196.509 534.261 197.876Z" fill="#263238"/>
<path d="M549.638 195.638C549.532 197.063 548.884 198.17 548.177 198.123C547.47 198.076 546.975 196.874 547.081 195.449C547.187 194.024 547.835 192.917 548.542 192.964C549.249 193.011 549.744 194.213 549.638 195.638Z" fill="#263238"/>
<path d="M542.674 189.336C542.674 189.336 548.553 184.59 556.366 189.642" stroke="#263238" stroke-width="0.75" stroke-linecap="round" stroke-linejoin="round"/>
<path d="M559.417 216.979C559.417 216.979 546.433 228.473 540.883 218.474L559.417 216.979Z" fill="white"/>
<path d="M559.417 216.979C559.417 216.979 546.433 228.473 540.883 218.474" stroke="#263238" stroke-width="0.75" stroke-linecap="round" stroke-linejoin="round"/>
<path d="M526.944 192.67C526.944 192.67 530.856 187.323 537.466 191.268" stroke="#263238" stroke-width="0.75" stroke-linecap="round" stroke-linejoin="round"/>
<path d="M537.784 170.551C537.784 170.551 518.578 171.799 528.204 183.789C528.204 183.789 527.992 175.156 537.784 170.551Z" fill="#263238"/>
<path d="M537.784 197.793C537.784 201.067 535.451 203.729 532.576 203.729C529.701 203.729 527.368 201.079 527.368 197.793C527.368 194.507 529.701 193.117 532.576 193.117C535.451 193.117 537.784 194.519 537.784 197.793Z" stroke="#263238" stroke-width="0.75" stroke-linecap="round" stroke-linejoin="round"/>
<path d="M556.059 195.543C556.059 198.817 553.149 201.467 549.555 201.467C545.961 201.467 543.051 198.817 543.051 195.543C543.051 192.269 545.961 190.867 549.555 190.867C553.149 190.867 556.059 192.269 556.059 195.543Z" stroke="#263238" stroke-width="0.75" stroke-linecap="round" stroke-linejoin="round"/>
<path d="M537.395 195.543C537.395 194.118 543.039 193.388 543.039 194.801" stroke="#263238" stroke-width="0.75" stroke-linecap="round" stroke-linejoin="round"/>
<path d="M555.647 193.234L582.795 195.543" stroke="#263238" stroke-width="0.75" stroke-linecap="round" stroke-linejoin="round"/>
<path d="M540.105 352.148C551.452 372.253 580.226 414.475 622.739 416.89" stroke="#263238" stroke-width="0.75" stroke-linecap="round" stroke-linejoin="round"/>
<path d="M534.685 341.666C534.685 341.666 535.51 343.515 537.136 346.648" stroke="#263238" stroke-width="0.75" stroke-linecap="round" stroke-linejoin="round"/>
<path d="M597.182 238.543C595.308 238.59 593.399 238.661 591.467 238.755C590.418 247.494 580.202 250.038 570.752 250.038C561.303 250.038 556.307 247.623 555.576 239.379C553.644 239.344 551.735 239.32 549.861 239.32C550.615 250.992 558.31 255.597 570.752 255.597C583.195 255.597 596.404 250.792 597.182 238.555V238.543Z" fill="#92E3A9" stroke="#263238" stroke-miterlimit="10"/>
<path d="M483.123 325.073C483.123 325.073 482.593 310.528 484.679 309.833C486.764 309.138 486.752 317.794 492.302 317.453" stroke="#263238" stroke-width="0.75" stroke-linecap="round" stroke-linejoin="round"/>
<path d="M415.901 206.381L277.509 201.647C274.634 201.548 272.224 203.798 272.126 206.671L271.751 217.618C271.652 220.491 273.903 222.9 276.778 222.999L415.169 227.733C418.044 227.831 420.454 225.581 420.553 222.708L420.927 211.761C421.026 208.888 418.775 206.479 415.901 206.381Z" fill="white" stroke="#263238" stroke-width="0.75" stroke-linecap="round" stroke-linejoin="round"/>
<path d="M337.639 215.846V214.68L342.435 212.607V213.856L339.124 215.246L342.435 216.635V217.884L337.639 215.811V215.846Z" fill="#263238"/>
<path d="M347.761 209.781H349.245L344.921 220.746H343.437L347.761 209.781Z" fill="#263238"/>
<path d="M350.235 216.659L353.546 215.269L350.235 213.879V212.631L355.031 214.704V215.87L350.235 217.943V216.694V216.659Z" fill="#263238"/>
<path d="M264.703 208.969H261.321" stroke="#263238" stroke-width="0.75" stroke-linecap="round" stroke-linejoin="round"/>
<path d="M442.708 320.455L438.76 303.389L430.995 274.311L422.818 265.548L411.99 257.363C411.99 257.363 400.018 252.31 399.618 254.913C399.217 257.516 401.42 258.317 401.42 258.317C401.42 258.317 398.015 257.115 397.214 259.224C396.413 261.332 401.927 262.828 405.026 265.536C408.137 268.245 410.045 270.565 410.045 270.565C410.045 270.565 405.698 275.971 406.263 278.916L406.628 280.258C406.628 280.258 397.956 275.547 397.131 279.351C396.307 283.167 402.245 283.933 405.639 287.607C409.032 291.282 412.202 293.614 412.202 293.614C412.202 293.614 415.56 302.094 422.818 305.097L423.266 323.729C423.266 323.729 434.389 325.979 442.708 320.443V320.455Z" fill="white" stroke="#263238" stroke-width="0.75" stroke-linecap="round" stroke-linejoin="round"/>
<path d="M402.316 259.318C402.316 259.318 407.771 263.028 410.458 264.124C410.458 264.124 415.525 269.447 417.351 271.343C419.165 273.239 421.663 278.174 421.663 278.174" fill="white"/>
<path d="M402.316 259.318C402.316 259.318 407.771 263.028 410.458 264.124C410.458 264.124 415.525 269.447 417.351 271.343C419.165 273.239 421.663 278.174 421.663 278.174" stroke="#263238" stroke-width="0.75" stroke-linecap="round" stroke-linejoin="round"/>
<path d="M411.235 271.742C411.235 271.742 413.639 275.782 415.242 277.666C416.844 279.551 416.667 280.658 415.56 281.953" stroke="#263238" stroke-width="0.75" stroke-linecap="round" stroke-linejoin="round"/>
<path d="M408.631 281.436C408.631 281.436 410.128 282.484 411.235 283.768C412.343 285.064 415.171 285.971 416.809 284.816C418.447 283.662 422.865 280.529 422.264 279.352" stroke="#263238" stroke-width="0.75" stroke-linecap="round" stroke-linejoin="round"/>
<path d="M411.978 275.795C411.978 275.795 411.978 277.562 410.835 278.174C409.704 278.798 412.52 277.491 413.663 278.574" stroke="#263238" stroke-width="0.75" stroke-linecap="round" stroke-linejoin="round"/>
<path d="M518.048 370.792C518.048 370.792 508.221 364.562 494.223 369.626C494.223 369.626 479.529 370.121 457.978 373.713C457.978 373.713 459.569 369.508 453.878 370.462C453.878 370.462 451.757 326.638 444.534 311.857C444.534 311.857 443.674 316.086 418.482 317.134C418.482 317.134 416.691 395.49 425.905 406.985C435.12 418.468 512.38 409.552 512.38 409.552C512.38 409.552 526.166 384.219 518.06 370.792H518.048Z" fill="#263238"/>
<path opacity="0.2" d="M418.329 391.355C418.329 391.355 429.711 408.998 449.365 406.984C469.019 404.97 513.747 386.527 515.361 403.145C516.964 419.775 495.613 416.642 495.613 416.642L443.391 424.686C443.391 424.686 437.912 434.143 421.228 419.775L404.543 405.406L418.341 391.355H418.329Z" fill="black"/>
<path d="M518.048 370.792C518.048 370.792 508.221 364.562 494.223 369.626C494.223 369.626 479.529 370.121 457.978 373.713C457.978 373.713 459.569 369.508 453.878 370.462C453.878 370.462 451.757 326.638 444.534 311.857C444.534 311.857 443.674 316.086 418.482 317.134C418.482 317.134 416.691 395.49 425.905 406.985C435.12 418.468 512.38 409.552 512.38 409.552C512.38 409.552 526.166 384.219 518.06 370.792H518.048Z" stroke="#263238" stroke-width="0.75" stroke-linecap="round" stroke-linejoin="round"/>
<path d="M436.404 386.445C436.404 386.445 451.769 370.11 454.385 373.702C457 377.294 450.225 377.624 446.254 393.299" stroke="#7F7F7F" stroke-width="0.75" stroke-linecap="round" stroke-linejoin="round"/>
<path d="M511.909 506.022C511.909 506.022 514.195 461.597 511.909 427.619C509.623 393.64 491.972 381.557 511.909 371.428C531.846 361.299 597.535 363.914 618.132 374.043C638.717 384.171 625.649 430.881 626.627 451.468C627.605 472.055 631.199 506.022 631.199 506.022H511.909Z" fill="#263238"/>
<path opacity="0.2" d="M562.128 437.959C562.128 437.959 548.471 428.49 540.989 440.243C533.507 451.997 574.04 510.65 581.016 510.944C587.991 511.238 621.396 510.944 621.396 510.944L639.388 471.301C639.388 471.301 631.564 387.975 616.753 386.444C601.942 384.913 591.915 416.842 589.735 435.509C587.555 454.176 589.582 461.702 589.582 461.702L562.128 437.947V437.959Z" fill="black"/>
<path d="M511.909 506.022C511.909 506.022 514.195 461.597 511.909 427.619C509.623 393.64 491.972 381.557 511.909 371.428C531.846 361.299 597.535 363.914 618.132 374.043C638.717 384.171 625.649 430.881 626.627 451.468C627.605 472.055 631.199 506.022 631.199 506.022H511.909V506.022Z" stroke="#263238" stroke-width="0.75" stroke-linecap="round" stroke-linejoin="round"/>
<path d="M552.43 464C552.43 465.26 551.405 466.285 550.144 466.285C548.884 466.285 547.858 465.26 547.858 464C547.858 462.739 548.884 461.715 550.144 461.715C551.405 461.715 552.43 462.739 552.43 464Z" fill="#858585"/>
<path d="M552.43 490.027C552.43 491.287 551.405 492.312 550.144 492.312C548.884 492.312 547.858 491.287 547.858 490.027C547.858 488.767 548.884 487.742 550.144 487.742C551.405 487.742 552.43 488.767 552.43 490.027Z" fill="#858585"/>
<path d="M553.856 406.972C557.803 406.972 560.607 415.028 564.354 414.981C568.101 414.922 577.598 388.882 581.746 381.568C585.882 374.254 584.008 365.244 577.787 363.584C571.566 361.923 535.097 363.584 535.097 363.584C535.097 363.584 530.537 370.12 534.025 377.952C537.513 385.796 538.821 411.495 543.829 412.366C548.836 413.238 548.836 406.972 553.856 406.972Z" fill="#858585" stroke="#263238" stroke-linecap="round" stroke-linejoin="round"/>
<path d="M427.307 329.77C426.871 330.96 425.564 331.572 424.374 331.136C423.183 330.701 422.571 329.393 423.007 328.204C423.443 327.014 424.751 326.402 425.941 326.838C427.131 327.273 427.743 328.581 427.307 329.77Z" fill="#858585"/>
<path d="M427.307 339.981C426.871 341.171 425.564 341.783 424.374 341.347C423.183 340.912 422.571 339.604 423.007 338.415C423.443 337.225 424.751 336.613 425.941 337.049C427.131 337.484 427.743 338.792 427.307 339.981Z" fill="#858585"/>
<path d="M534.025 371.64C534.025 371.64 549.06 405.536 555.164 404.523C561.267 403.522 565.627 389.601 571.719 382.688C577.822 375.774 578.423 369.65 578.011 365.858L576.291 348.556L562.564 347.037L542.957 361.406L534.025 371.64Z" fill="white"/>
<path d="M518.637 316.31C518.637 316.31 517.129 336.214 518.213 340.124C519.297 344.034 518.637 348.427 520.345 354.823C522.054 361.218 528.228 385.197 542.026 381.393C555.612 377.636 575.49 362.184 574.335 350.771L573.71 348.51C573.71 348.51 579.743 349.499 581.086 343.151C582.43 336.803 585.234 330.749 580.403 327.84C575.348 324.802 570.494 333.682 569.999 336.697C569.504 339.712 565.863 336.956 565.863 336.956C565.863 336.956 562.281 323.989 557.085 321.221C551.888 318.454 560.03 310.221 554.952 306.311C549.885 302.401 529.831 306.605 518.637 316.334V316.31Z" fill="#263238" stroke="#263238" stroke-width="0.75" stroke-linecap="round" stroke-linejoin="round"/>
<path d="M534.025 371.64C534.025 371.64 549.06 405.536 555.164 404.523C561.267 403.522 565.627 389.601 571.719 382.688C577.822 375.774 578.423 369.65 578.011 365.858L576.291 348.556L562.564 347.037L542.957 361.406L534.025 371.64V371.64Z" stroke="#263238" stroke-width="0.75" stroke-linecap="round" stroke-linejoin="round"/>
<path d="M527.191 304.779C527.191 304.779 520.298 323.941 520.298 328.087C520.298 332.233 518.46 336.366 518.401 343.115C518.342 349.863 517.906 375.126 532.505 375.126C547.104 375.126 570.635 365.327 572.602 353.785V351.395C572.602 351.395 578.27 354.009 581.322 348.132C584.374 342.255 588.769 337.061 584.81 332.892C580.674 328.534 573.474 335.942 572.166 338.769C570.859 341.596 568.031 337.898 568.031 337.898C568.031 337.898 568.031 324.177 563.671 320.043C559.311 315.909 569.551 310.02 565.627 304.803C561.703 299.573 540.848 298.266 527.191 304.803V304.779Z" fill="white" stroke="#263238" stroke-width="0.75" stroke-linecap="round" stroke-linejoin="round"/>
<path d="M581.522 337.744C581.522 337.744 589.806 326.132 584.138 312.411C584.138 312.411 579.566 289.327 551.452 286.924C551.452 286.924 558.64 281.483 554.068 279.304C547.14 276.007 534.956 287.148 534.956 287.148C534.956 287.148 540.671 278.515 537.89 278.362C535.109 278.209 515.562 300.221 527.191 308.053C538.821 315.885 556.071 309.137 556.071 309.137L564.531 337.744L565.839 341.372L578.117 342.243L581.522 337.744Z" fill="#263238" stroke="#263238" stroke-width="0.75" stroke-linecap="round" stroke-linejoin="round"/>
<path d="M565.663 296.287C573.522 300.845 578.565 309.148 576.515 327.427" stroke="#7F7F7F" stroke-width="0.75" stroke-linecap="round" stroke-linejoin="round"/>
<path d="M542.544 294.627C547.658 294.12 555.223 291.623 562.139 294.544" stroke="#7F7F7F" stroke-width="0.75" stroke-linecap="round" stroke-linejoin="round"/>
<path d="M549.709 282.566C549.709 282.566 534.049 290.186 537.631 293.673" stroke="#7F7F7F" stroke-width="0.75" stroke-linecap="round" stroke-linejoin="round"/>
<path d="M528.464 296.724C532.058 299.55 536.417 296.512 544.041 296.724" stroke="#7F7F7F" stroke-width="0.75" stroke-linecap="round" stroke-linejoin="round"/>
<path d="M532.93 284.957C532.93 284.957 529.077 289.232 527.887 292.801" stroke="#7F7F7F" stroke-width="0.75" stroke-linecap="round" stroke-linejoin="round"/>
<path d="M527.191 304.779C527.191 304.779 520.298 323.941 520.298 328.087C520.298 332.233 518.46 336.366 518.401 343.115C518.342 349.863 517.906 375.126 532.505 375.126C547.104 375.126 570.635 365.327 572.602 353.785V351.395C572.602 351.395 578.27 354.009 581.322 348.132C584.374 342.255 588.769 337.061 584.81 332.892C580.674 328.534 573.474 335.942 572.166 338.769C570.859 341.596 568.031 337.898 568.031 337.898C568.031 337.898 568.031 324.177 563.671 320.043C559.311 315.909 569.551 310.02 565.627 304.803C561.703 299.573 540.848 298.266 527.191 304.803V304.779Z" fill="white" stroke="#263238" stroke-width="0.75" stroke-linecap="round" stroke-linejoin="round"/>
<path d="M534.026 329.605C534.026 329.605 526.025 337.367 526.402 340.712C526.614 342.549 531.103 344.033 531.846 345.717C532.129 346.365 531.846 348.544 531.846 348.544" fill="white"/>
<path d="M534.026 329.605C534.026 329.605 526.025 337.367 526.402 340.712C526.614 342.549 531.103 344.033 531.846 345.717C532.129 346.365 531.846 348.544 531.846 348.544" stroke="#263238" stroke-width="0.75" stroke-linecap="round" stroke-linejoin="round"/>
<path d="M528.111 330.218C527.604 331.761 526.355 332.738 525.33 332.397C524.305 332.055 523.892 330.536 524.399 328.993C524.906 327.45 526.155 326.473 527.18 326.814C528.205 327.156 528.617 328.675 528.111 330.218Z" fill="#263238"/>
<path d="M547.87 330.218C547.364 331.761 546.115 332.738 545.09 332.397C544.064 332.055 543.652 330.536 544.159 328.993C544.665 327.45 545.914 326.473 546.94 326.814C547.965 327.156 548.377 328.675 547.87 330.218Z" fill="#263238"/>
<path d="M541.001 323.706C541.001 323.706 547.753 319.595 555.164 325.908L541.001 323.706Z" fill="white"/>
<path d="M541.001 323.706C541.001 323.706 547.753 319.595 555.164 325.908" stroke="#263238" stroke-width="0.75" stroke-linecap="round" stroke-linejoin="round"/>
<path d="M527.191 350.299C527.191 350.299 537.737 353.997 548.082 351.382C548.082 351.382 531.905 362.277 527.191 350.299Z" fill="white" stroke="#263238" stroke-width="0.75" stroke-linecap="round" stroke-linejoin="round"/>
<path d="M522.914 324.813C522.914 324.813 527.71 319.807 534.025 324.813H522.914Z" fill="white"/>
<path d="M522.914 324.813C522.914 324.813 527.71 319.807 534.025 324.813" stroke="#263238" stroke-width="0.75" stroke-linecap="round" stroke-linejoin="round"/>
<path d="M564.402 376.998C562.375 383.005 559.312 391.096 556.071 396.101L564.402 376.998Z" fill="white"/>
<path d="M564.402 376.998C562.375 383.005 559.312 391.096 556.071 396.101" stroke="#263238" stroke-width="0.75" stroke-linecap="round" stroke-linejoin="round"/>
<path d="M566.864 369.131C566.864 369.131 566.405 370.768 565.604 373.3L566.864 369.131Z" fill="white"/>
<path d="M566.864 369.131C566.864 369.131 566.405 370.768 565.604 373.3" stroke="#263238" stroke-width="0.75" stroke-linecap="round" stroke-linejoin="round"/>
<path d="M560.796 420.552L553.986 412.332C553.986 412.332 545.761 400.307 542.556 390.897C539.352 381.475 538.951 376.469 533.931 376.469C528.912 376.469 511.285 375.268 511.886 381.274C511.886 381.274 510.448 384.878 511.874 388.082C511.874 388.082 512.286 392.286 514.69 395.69C517.094 399.094 518.496 398.446 518.496 398.446C518.496 398.446 520.098 401.096 521.701 401.096C521.701 401.096 523.103 408.304 533.931 414.522L541.543 422.743L549.567 437.571L564.543 425.652L560.796 420.541V420.552Z" fill="white" stroke="#263238" stroke-width="0.75" stroke-linecap="round" stroke-linejoin="round"/>
<path d="M535.934 384.631C535.934 384.631 532.93 385.985 530.373 386.586C527.816 387.187 519.097 388.541 518.496 391.097C517.895 393.652 521.347 400.118 523.162 400.413C524.964 400.719 531.433 400.413 531.728 399.058C531.728 399.058 532.034 400.86 531.728 402.662C531.421 404.464 530.078 407.326 532.329 411.978" fill="white"/>
<path d="M535.934 384.631C535.934 384.631 532.93 385.985 530.373 386.586C527.816 387.187 519.097 388.541 518.496 391.097C517.895 393.652 521.347 400.118 523.162 400.413C524.964 400.719 531.433 400.413 531.728 399.058C531.728 399.058 532.034 400.86 531.728 402.662C531.421 404.464 530.078 407.326 532.329 411.978" stroke="#263238" stroke-width="0.75" stroke-linecap="round" stroke-linejoin="round"/>
<path d="M511.862 388.093C511.862 388.093 513.075 386.138 515.338 385.691C517.588 385.243 526.614 382.982 528.04 381.934" fill="white"/>
<path d="M511.862 388.093C511.862 388.093 513.075 386.138 515.338 385.691C517.588 385.243 526.614 382.982 528.04 381.934" stroke="#263238" stroke-width="0.75" stroke-linecap="round" stroke-linejoin="round"/>
<path d="M511.886 381.274C511.886 381.274 513.535 380.426 515.338 380.12C517.141 379.813 526.391 377.187 529.513 377.529" fill="white"/>
<path d="M511.886 381.274C511.886 381.274 513.535 380.426 515.338 380.12C517.141 379.813 526.391 377.187 529.513 377.529" stroke="#263238" stroke-width="0.75" stroke-linecap="round" stroke-linejoin="round"/>
<path d="M530.526 396.927C530.526 396.927 528.346 395.196 527.18 395.702C526.013 396.209 525.613 397.504 524.104 398.305" fill="white"/>
<path d="M530.526 396.927C530.526 396.927 528.346 395.196 527.18 395.702C526.013 396.209 525.613 397.504 524.104 398.305" stroke="#263238" stroke-width="0.75" stroke-linecap="round" stroke-linejoin="round"/>
<path d="M527.18 395.702C527.18 395.702 530.726 394.701 532.329 393.1L527.18 395.702Z" fill="white"/>
<path d="M527.18 395.702C527.18 395.702 530.726 394.701 532.329 393.1" stroke="#263238" stroke-width="0.75" stroke-linecap="round" stroke-linejoin="round"/>
<path d="M622.374 375.997C611.168 369.861 595.898 392.333 595.568 419.445C595.238 446.557 594.92 451.456 594.92 451.456L561.256 415.193C561.256 415.193 558.97 424.662 542.957 432.176C542.957 432.176 550.145 453.411 563.872 473.986C577.599 494.562 590.996 512.864 599.491 512.864C607.987 512.864 623.788 492.925 629.561 466.802C641.981 410.612 645.633 388.729 622.374 375.986V375.997Z" fill="#263238" stroke="#263238" stroke-width="0.75" stroke-linecap="round" stroke-linejoin="round"/>
<path d="M601.177 456.25C600.564 455.743 601.094 454.754 601.86 455.013C606.821 456.697 615.728 461.244 621.408 473.033" stroke="#7F7F7F" stroke-width="0.75" stroke-linecap="round" stroke-linejoin="round"/>
<path d="M613.879 477.591C613.879 477.591 611.887 467.191 604.087 458.959" stroke="#7F7F7F" stroke-width="0.75" stroke-linecap="round" stroke-linejoin="round"/>
<path d="M624.565 457.18C625.414 458.004 626.262 458.899 627.111 459.9" stroke="#7F7F7F" stroke-width="0.75" stroke-linecap="round" stroke-linejoin="round"/>
<path d="M600.905 450.478C600.905 450.478 610.932 446.203 622.032 454.966" stroke="#7F7F7F" stroke-width="0.75" stroke-linecap="round" stroke-linejoin="round"/>
<path d="M597.96 422.084C597.642 423.756 597.382 425.499 597.206 427.29" stroke="#7F7F7F" stroke-width="0.75" stroke-linecap="round" stroke-linejoin="round"/>
<path d="M614.008 391.355C614.008 391.355 604.193 400.2 599.433 416.065" stroke="#7F7F7F" stroke-width="0.75" stroke-linecap="round" stroke-linejoin="round"/>
<path d="M554.728 440.244C554.728 441.504 553.703 442.529 552.442 442.529C551.181 442.529 550.156 441.504 550.156 440.244C550.156 438.984 551.181 437.959 552.442 437.959C553.703 437.959 554.728 438.984 554.728 440.244Z" fill="#858585"/>
<path d="M559.3 449.441C559.3 450.701 558.275 451.726 557.014 451.726C555.753 451.726 554.728 450.701 554.728 449.441C554.728 448.181 555.753 447.156 557.014 447.156C558.275 447.156 559.3 448.181 559.3 449.441Z" fill="#858585"/>
<path d="M589.582 445.709L561.256 415.193" stroke="#7F7F7F" stroke-width="0.75" stroke-linecap="round" stroke-linejoin="round"/>
<path d="M607.363 381.803C600.894 389.764 595.757 403.827 595.568 419.444C595.238 446.556 594.92 451.455 594.92 451.455" stroke="#7F7F7F" stroke-width="0.75" stroke-linecap="round" stroke-linejoin="round"/>
<path d="M614.727 375.785C613.207 376.433 611.687 377.446 610.202 378.788" stroke="#7F7F7F" stroke-width="0.75" stroke-linecap="round" stroke-linejoin="round"/>
<path d="M612.323 503.914C617.944 497.142 623.635 486.978 627.382 475.012" stroke="#7F7F7F" stroke-width="0.75" stroke-linecap="round" stroke-linejoin="round"/>
<path d="M542.957 432.188C542.957 432.188 550.145 453.422 563.872 473.998C571.813 485.905 579.649 497.046 586.483 504.325" stroke="#7F7F7F" stroke-width="0.75" stroke-linecap="round" stroke-linejoin="round"/>
<path d="M560.148 511.887H507.761V507.093H560.584C561.444 507.093 562.139 507.788 562.139 508.648V509.908C562.139 511.003 561.255 511.887 560.16 511.887H560.148Z" fill="#CBF2D6" stroke="#263238" stroke-linecap="round" stroke-linejoin="round"/>
<path d="M482.31 427.818H488.944C491.029 427.818 492.868 429.196 493.457 431.199L515.173 505.88C516.045 508.883 513.794 511.886 510.66 511.886H504.91L482.31 427.818Z" fill="#263238" stroke="#263238" stroke-width="0.75" stroke-linecap="round" stroke-linejoin="round"/>
<path d="M412.072 511.886H508.362C511.485 511.886 513.747 508.883 512.875 505.88L491.159 431.199C490.582 429.196 488.744 427.818 486.646 427.818H390.344C387.222 427.818 384.96 430.822 385.832 433.825L407.548 508.506C408.125 510.508 409.963 511.886 412.06 511.886H412.072Z" fill="#92E3A9" stroke="#263238" stroke-width="0.75" stroke-linecap="round" stroke-linejoin="round"/>
<path d="M399.382 257.598H260.909C258.033 257.598 255.701 259.928 255.701 262.803V273.756C255.701 276.631 258.033 278.962 260.909 278.962H399.382C402.258 278.962 404.59 276.631 404.59 273.756V262.803C404.59 259.928 402.258 257.598 399.382 257.598Z" fill="#92E3A9"/>
<path opacity="0.5" d="M399.382 257.598H260.909C258.033 257.598 255.701 259.928 255.701 262.803V273.756C255.701 276.631 258.033 278.962 260.909 278.962H399.382C402.258 278.962 404.59 276.631 404.59 273.756V262.803C404.59 259.928 402.258 257.598 399.382 257.598Z" fill="white"/>
<path d="M399.382 257.598H260.909C258.033 257.598 255.701 259.928 255.701 262.803V273.756C255.701 276.631 258.033 278.962 260.909 278.962H399.382C402.258 278.962 404.59 276.631 404.59 273.756V262.803C404.59 259.928 402.258 257.598 399.382 257.598Z" stroke="#263238" stroke-width="0.75" stroke-linecap="round" stroke-linejoin="round"/>
<path d="M324.148 270.353V264.465C324.148 262.769 325.032 261.768 326.693 261.768C328.354 261.768 329.238 262.769 329.238 264.465V265.619H327.612V264.347C327.612 263.628 327.27 263.322 326.752 263.322C326.234 263.322 325.892 263.617 325.892 264.347V270.471C325.892 271.19 326.234 271.472 326.752 271.472C327.27 271.472 327.612 271.19 327.612 270.471V268.799H329.238V270.353C329.238 272.049 328.354 273.05 326.693 273.05C325.032 273.05 324.148 272.049 324.148 270.353Z" fill="#263238"/>
<path d="M332.149 268.021H330.051V266.796H332.149V264.676H333.374V266.796H335.471V268.021H333.374V270.164H332.149V268.021Z" fill="#263238"/>
<path d="M338.417 268.021H336.32V266.796H338.417V264.676H339.643V266.796H341.74V268.021H339.643V270.164H338.417V268.021Z" fill="#263238"/>
<path d="M389.868 157.967L252.971 178.783C250.127 179.216 248.172 181.871 248.605 184.713L250.253 195.541C250.686 198.384 253.342 200.337 256.185 199.905L393.083 179.088C395.927 178.656 397.881 176.001 397.449 173.159L395.8 162.33C395.368 159.488 392.712 157.535 389.868 157.967Z" fill="#92E3A9" stroke="#263238" stroke-width="0.75" stroke-linecap="round" stroke-linejoin="round"/>
<path d="M50.9729 256.209C50.9729 256.209 38.8837 262.18 36.1383 274.193C36.1383 274.193 32.7094 270.766 31.3308 285.511C31.3308 285.511 0.789507 342.114 0.447802 366.458C0.106097 390.814 57.7599 430.257 57.7599 430.257C57.7599 430.257 63.9342 422.025 62.5673 414.475C62.5673 414.475 40.2623 372.288 28.9389 367.142C28.9389 367.142 41.6409 336.273 50.2188 330.443C58.7968 324.613 50.9847 256.209 50.9847 256.209H50.9729Z" fill="#263238"/>
<path opacity="0.2" d="M49.7592 341.018C49.7592 341.018 36.3267 302.423 31.6017 310.962C26.8768 319.501 14.6697 363.289 21.6452 369.708C28.6206 376.127 17.2855 376.48 22.5171 385.019C27.7487 393.546 61.7424 425.487 65.2184 424.544C68.7061 423.602 52.5989 369.708 52.5989 369.708L49.7592 341.018Z" fill="black"/>
<path d="M50.9729 256.209C50.9729 256.209 38.8837 262.18 36.1383 274.193C36.1383 274.193 32.7094 270.766 31.3308 285.511C31.3308 285.511 0.789507 342.114 0.447802 366.458C0.106097 390.814 57.7599 430.257 57.7599 430.257C57.7599 430.257 63.9341 422.025 62.5673 414.475C62.5673 414.475 40.2623 372.288 28.9389 367.142C28.9389 367.142 41.6409 336.273 50.2188 330.443C58.7968 324.613 50.9847 256.209 50.9847 256.209H50.9729Z" stroke="#263238" stroke-width="0.75" stroke-linecap="round" stroke-linejoin="round"/>
<path d="M35.0894 287.773C35.0894 287.773 36.2323 305.463 40.3328 315.521" stroke="#7F7F7F" stroke-width="0.75" stroke-linecap="round" stroke-linejoin="round"/>
<path d="M26.6647 370.639C26.6647 370.639 20.2312 377.54 11.3115 376.598" stroke="#7F7F7F" stroke-width="0.75" stroke-linecap="round" stroke-linejoin="round"/>
<path d="M51.9507 401.803L52.5987 422.708" stroke="#7F7F7F" stroke-width="0.75" stroke-linecap="round" stroke-linejoin="round"/>
<path d="M154.875 438.491C154.875 438.491 169.285 483.669 172.031 506.011H54.6609C54.6609 506.011 53.624 453 58.0897 436.088L154.863 438.491H154.875Z" fill="#92E3A9" stroke="#263238" stroke-width="0.75" stroke-linecap="round" stroke-linejoin="round"/>
<path d="M105.516 494.057C108.155 496.459 113.293 506.011 113.293 506.011" stroke="#263238" stroke-width="0.75" stroke-linecap="round" stroke-linejoin="round"/>
<path d="M80.748 463.529C80.748 463.529 90.0094 478.016 100.697 489.299" stroke="#263238" stroke-width="0.75" stroke-linecap="round" stroke-linejoin="round"/>
<path d="M112.656 166.818C112.656 166.818 121.576 158.809 119.514 153.78C116.827 147.22 109.911 156.984 109.911 156.984C109.911 156.984 112.656 146.926 106.788 144.405C100.508 141.708 95.2647 153.556 95.2647 153.556C95.2647 153.556 93.6387 143.392 84.7426 145.548C77.1897 147.373 83.364 155.841 77.1897 158.585C71.0155 161.329 50.6546 168.42 54.543 182.14C54.543 182.14 49.0521 171.388 46.9901 175.733C44.9281 180.079 52.0214 186.027 54.7668 186.71C54.7668 186.71 50.419 195.861 53.8478 198.37C57.2766 200.89 56.5932 191.739 56.5932 191.739C56.5932 191.739 58.832 216.943 83.1283 230.157C107.425 243.372 106.777 199.512 106.777 199.512L112.868 179.844L112.645 166.806L112.656 166.818Z" fill="#263238" stroke="#263238" stroke-width="0.75" stroke-linecap="round" stroke-linejoin="round"/>
<path d="M81.7146 164.992C71.487 168.196 56.0986 172.082 62.7677 192.434" stroke="#7F7F7F" stroke-width="0.75" stroke-linecap="round" stroke-linejoin="round"/>
<path d="M86.1216 149.67C86.1216 149.67 89.9392 157.62 85.9448 162.343" stroke="#7F7F7F" stroke-width="0.75" stroke-linecap="round" stroke-linejoin="round"/>
<path d="M74.4565 205.012C74.9986 206.307 75.6113 207.65 76.2947 209.051" stroke="#7F7F7F" stroke-width="0.75" stroke-linecap="round" stroke-linejoin="round"/>
<path d="M101.604 157.926C99.8958 160.694 97.1503 163.555 92.7553 165.675C82.1743 170.763 65.4543 176.617 72.4769 199.606" stroke="#7F7F7F" stroke-width="0.75" stroke-linecap="round" stroke-linejoin="round"/>
<path d="M104.42 148.752C104.42 148.752 104.456 150.683 103.654 153.357" stroke="#7F7F7F" stroke-width="0.75" stroke-linecap="round" stroke-linejoin="round"/>
<path d="M86.0272 176.652C80.5953 180.81 88.4427 186.345 91.6241 193.341" stroke="#7F7F7F" stroke-width="0.75" stroke-linecap="round" stroke-linejoin="round"/>
<path d="M116.321 156.076C116.321 156.076 106.258 169.797 91.6123 174.143" stroke="#7F7F7F" stroke-width="0.75" stroke-linecap="round" stroke-linejoin="round"/>
<path d="M55.6977 439.173C55.6977 439.173 55.0143 414.475 51.5855 376.057C48.1567 337.639 28.9387 260.802 55.6977 253.948C82.4685 247.081 135.869 242.771 153.849 260.119C173.751 279.328 158.657 386.351 157.973 404.877C157.29 423.403 160.719 444.661 160.719 444.661C160.719 444.661 89.6797 460.102 55.7095 439.173H55.6977Z" fill="#263238"/>
<path opacity="0.2" d="M45.7413 364.526C45.7413 364.526 35.443 297.583 70.8154 293.743C106.188 289.892 152.801 291.517 157.703 321.044C162.604 350.582 173.409 421.271 173.409 421.271L180.726 453.223L123.344 464.105L46.6368 455.885L45.7413 364.526Z" fill="black"/>
<path d="M55.6977 439.173C55.6977 439.173 55.0143 414.475 51.5855 376.057C48.1567 337.639 28.9387 260.802 55.6977 253.948C82.4685 247.081 135.869 242.771 153.849 260.119C173.751 279.328 158.657 386.351 157.973 404.877C157.29 423.403 160.719 444.661 160.719 444.661C160.719 444.661 89.6797 460.102 55.7095 439.173H55.6977Z" stroke="#263238" stroke-width="0.75" stroke-linecap="round" stroke-linejoin="round"/>
<path d="M111.513 243.655V235.882C111.513 235.882 124.805 237.943 126.619 234.504C128.434 231.077 125.464 216.896 125.464 216.896C125.464 216.896 131.874 217.12 131.874 214.152C131.874 211.184 124.321 198.606 124.321 198.606C124.321 198.606 125.241 188.548 124.321 185.344C123.402 182.141 114.023 164.074 114.023 164.074C114.023 164.074 100.296 171.612 100.756 175.734C101.215 179.856 105.104 183.743 101.899 187.17C98.6936 190.597 94.3457 199.854 95.7243 204.259L93.6623 205.696C93.6623 205.696 92.5194 197.464 87.9476 196.086C83.3758 194.719 79.7113 203.859 82.9163 210.266C86.1212 216.673 89.7739 215.53 89.7739 215.53C89.7739 215.53 87.9476 226.507 83.1402 230.17L81.7026 241.606L111.513 243.667V243.655Z" fill="white" stroke="#263238" stroke-width="0.75" stroke-linecap="round" stroke-linejoin="round"/>
<path d="M120.327 198.83C121.147 198.83 121.812 197.602 121.812 196.086C121.812 194.57 121.147 193.342 120.327 193.342C119.507 193.342 118.843 194.57 118.843 196.086C118.843 197.602 119.507 198.83 120.327 198.83Z" fill="#263238"/>
<path d="M110.147 214.846C110.147 214.846 111.219 217.814 119.833 218.273" stroke="#263238" stroke-width="0.75" stroke-linecap="round" stroke-linejoin="round"/>
<path d="M120.327 188.324C120.327 188.324 115.638 187.629 114.035 192.423" stroke="#263238" stroke-width="0.75" stroke-linecap="round" stroke-linejoin="round"/>
<path d="M72.6301 254.466C72.6301 254.466 63.4747 242.064 72.6301 240.686C81.7854 239.32 119.302 236.117 125.253 240.686C131.203 245.256 116.097 243.89 115.19 251.663C114.271 259.436 72.6419 254.466 72.6419 254.466H72.6301Z" fill="#263238" stroke="#263238" stroke-width="0.75" stroke-linecap="round" stroke-linejoin="round"/>
<path d="M129.093 198.346C129.093 202.751 127.809 206.332 126.218 206.332C124.628 206.332 123.343 202.751 123.343 198.346C123.343 193.942 124.628 190.361 126.218 190.361C127.809 190.361 129.093 193.942 129.093 198.346Z" stroke="#263238" stroke-width="0.75" stroke-linecap="round" stroke-linejoin="round"/>
<path d="M128.457 193.342L96.8319 195.65C94.5578 195.815 92.4133 196.663 90.6694 198.029" stroke="#263238" stroke-linecap="round" stroke-linejoin="round"/>
<path d="M223.875 223.703L231.346 207.073C231.346 207.073 235.706 189.042 239.158 185.108C242.61 181.175 248.219 174.096 249.998 176.063C251.294 177.476 249.68 182.305 246.84 186.015C243.753 190.043 246.263 193.824 247.394 195.414C248.525 197.004 255.242 200.337 260.509 201.02C265.764 201.703 276.251 195.06 279.844 197.392C283.438 199.724 276.097 202.292 276.097 202.292C276.097 202.292 281.765 201.538 282.955 204.718C283.662 206.602 277.829 206.567 275.002 206.85C272.162 207.144 266.388 207.98 266.388 207.98C266.388 207.98 276.745 209.299 276.604 212.126C276.474 214.952 268.851 212.303 263.042 212.526C263.042 212.526 271.361 214.67 270.889 217.39C270.43 220.123 266.035 217.249 259.059 216.048L242.952 214.01L237.874 232.784L223.875 223.703Z" fill="white" stroke="#263238" stroke-width="0.75" stroke-linecap="round" stroke-linejoin="round"/>
<path d="M271.891 203.27C271.891 203.27 267.001 206.614 259.79 204.812C259.79 204.812 260.473 207.038 259.79 207.981C259.106 208.923 259.189 210.807 257.469 212.008C255.748 213.21 254.723 213.728 254.723 213.728" stroke="#263238" stroke-width="0.75" stroke-linecap="round" stroke-linejoin="round"/>
<path d="M129.094 249.72C129.094 249.72 154.439 249.826 164.089 257.717C164.089 257.717 164.136 253.607 171.689 257.717C171.689 257.717 194.677 254.973 205.317 257.717C205.317 257.717 218.361 225.471 226.256 216.896C226.256 216.896 237.579 217.58 240.666 222.726C242.139 225.176 238.663 238.626 235.435 252.323C231.864 267.446 228.282 282.874 225.231 284.134C219.398 286.537 157.974 292.025 157.974 292.025L129.106 276.938V249.732L129.094 249.72Z" fill="#263238"/>
<path opacity="0.2" d="M164.089 294.793C164.089 294.793 158.351 274.289 167.565 276.208C176.779 278.128 213.377 281.873 220.129 276.079C226.892 270.284 231.193 221.137 239.936 223.492C248.679 225.848 242.61 268.847 242.61 268.847C242.61 268.847 248.078 280.743 230.945 289.882L213.813 299.033L183.531 301.648L164.077 294.793H164.089Z" fill="black"/>
<path d="M129.094 249.72C129.094 249.72 154.439 249.826 164.089 257.717C164.089 257.717 164.136 253.607 171.689 257.717C171.689 257.717 194.677 254.973 205.317 257.717C205.317 257.717 218.361 225.471 226.256 216.896C226.256 216.896 237.579 217.58 240.666 222.726C242.139 225.176 238.663 238.626 235.435 252.323C231.864 267.446 228.282 282.874 225.231 284.134C219.398 286.537 157.974 292.025 157.974 292.025L129.106 276.938V249.732L129.094 249.72Z" stroke="#263238" stroke-width="0.75" stroke-linecap="round" stroke-linejoin="round"/>
<path d="M208.405 259.094C208.405 259.094 213.554 260.118 219.728 268.351" stroke="#7F7F7F" stroke-width="0.75" stroke-linecap="round" stroke-linejoin="round"/>
<path d="M166.881 263.723C166.881 263.723 169.957 275.583 166.881 287.56" stroke="#7F7F7F" stroke-width="0.75" stroke-linecap="round" stroke-linejoin="round"/>
<path d="M145.284 254.467C145.284 254.467 161.733 263.159 162.911 287.573" stroke="#7F7F7F" stroke-width="0.75" stroke-linecap="round" stroke-linejoin="round"/>
<path d="M146.309 412.744C147.428 411.319 148.347 409.776 149.042 408.08" stroke="#7F7F7F" stroke-width="0.75" stroke-linecap="round" stroke-linejoin="round"/>
<path d="M67.5869 425.911C67.5869 425.911 122 433.071 142.656 416.406" stroke="#7F7F7F" stroke-width="0.75" stroke-linecap="round" stroke-linejoin="round"/>
<path d="M315.157 182.565L314.203 176.747C313.932 175.074 314.627 173.944 316.265 173.673C317.903 173.402 318.94 174.25 319.211 175.922L319.399 177.065L317.785 177.336L317.573 176.087C317.455 175.369 317.066 175.133 316.56 175.227C316.053 175.31 315.758 175.663 315.876 176.37L316.878 182.412C316.996 183.118 317.384 183.342 317.891 183.26C318.398 183.177 318.692 182.847 318.575 182.129L318.304 180.48L319.906 180.221L320.153 181.752C320.424 183.425 319.729 184.555 318.091 184.826C316.454 185.097 315.417 184.249 315.146 182.577L315.157 182.565Z" fill="#263238"/>
<path d="M320.931 181.551L320.825 180.927L322.439 180.656L322.557 181.398C322.687 182.175 323.076 182.387 323.618 182.305C324.16 182.222 324.454 181.881 324.325 181.08C324.171 180.185 323.747 179.666 322.463 178.877C320.837 177.853 320.224 177.052 320.024 175.815C319.741 174.119 320.46 172.977 322.121 172.706C323.783 172.435 324.761 173.283 325.043 175.014L325.114 175.462L323.512 175.721L323.417 175.167C323.288 174.39 322.934 174.155 322.392 174.237C321.85 174.331 321.591 174.673 321.709 175.415C321.838 176.204 322.286 176.722 323.559 177.511C325.185 178.524 325.774 179.325 325.998 180.667C326.292 182.434 325.55 183.565 323.889 183.847C322.216 184.118 321.214 183.27 320.931 181.539V181.551Z" fill="#263238"/>
<path d="M326.681 180.598L326.575 179.973L328.178 179.714L328.296 180.456C328.425 181.234 328.814 181.446 329.356 181.363C329.898 181.269 330.193 180.939 330.063 180.138C329.91 179.243 329.486 178.725 328.201 177.936C326.575 176.911 325.963 176.11 325.762 174.874C325.479 173.178 326.198 172.035 327.86 171.764C329.521 171.494 330.499 172.342 330.782 174.073L330.852 174.52L329.238 174.78L329.144 174.226C329.014 173.449 328.661 173.213 328.119 173.296C327.577 173.39 327.318 173.731 327.435 174.473C327.565 175.262 328.013 175.781 329.285 176.57C330.911 177.583 331.5 178.383 331.724 179.726C332.019 181.493 331.277 182.623 329.615 182.906C327.942 183.177 326.941 182.329 326.658 180.598H326.681Z" fill="#263238"/>
<path d="M134.031 315.874C134.031 315.874 106.789 323.73 107.885 343.975C108.98 364.221 114.2 363.067 102.653 369.744C91.1057 376.422 102.005 389.06 98.7293 394.713C95.4654 400.378 74.7628 416.054 83.6943 424.11C92.6257 432.165 137.519 416.054 153.202 424.11C168.885 432.165 181.269 415.076 185.44 410.636C189.611 406.208 177.392 399.93 177.828 391.003C178.264 382.076 186.111 332.739 176.084 326.156C166.057 319.572 142.691 312.247 134.031 315.85V315.874Z" fill="#263238" stroke="#263238" stroke-width="0.75" stroke-linecap="round" stroke-linejoin="round"/>
<path d="M230.957 348.556L235.953 330.431C235.953 330.431 237.909 318.017 239.547 315.567C241.185 313.118 245.426 309.69 245.426 309.69C245.426 309.69 248.49 305.439 250.635 303.649C252.779 301.847 265.363 295.322 266.341 295.805C267.319 296.299 268.874 299.232 260.709 303.813C260.709 303.813 265.198 303.484 268.804 304.956C272.398 306.428 274.848 306.829 273.293 308.383C271.738 309.938 270.43 310.668 264.633 309.113C264.633 309.113 260.544 309.608 257.28 309.361L255.477 311.481C255.477 311.481 258.258 310.256 259.884 312.87C261.522 315.485 263.395 318.747 262.582 320.632C262.582 320.632 268.874 317.369 270.595 320.055C272.315 322.752 267.001 325.201 264.88 326.839C262.759 328.476 257.61 332.88 257.61 332.88C257.61 332.88 253.934 341.125 246.251 344.152C246.251 344.152 244.578 347.579 245.438 350.77L230.957 348.568V348.556Z" fill="white" stroke="#263238" stroke-width="0.75" stroke-linecap="round" stroke-linejoin="round"/>
<path d="M256.703 306.004L254.016 308.206L250.988 313.436L248.95 320.29" stroke="#263238" stroke-width="0.75" stroke-linecap="round" stroke-linejoin="round"/>
<path d="M247.229 320.291C247.229 320.291 251.518 325.438 254.558 326.168C254.558 326.168 257.763 324.778 258.423 324.213C258.965 323.742 259.79 322.823 261.44 321.492" stroke="#263238" stroke-width="0.75" stroke-linecap="round" stroke-linejoin="round"/>
<path d="M251.966 319.89L252.355 318.5C252.355 318.5 254.499 318.995 256.208 318.5L257.186 319.89C257.186 319.89 254.982 319.478 251.954 319.89H251.966Z" stroke="#263238" stroke-width="0.75" stroke-linecap="round" stroke-linejoin="round"/>
<path d="M256.302 314.084C256.302 314.084 255.572 315.45 255.725 317.594" stroke="#263238" stroke-width="0.75" stroke-linecap="round" stroke-linejoin="round"/>
<path d="M258.835 318.5C258.835 318.5 255.548 321.032 256.007 325.531" stroke="#263238" stroke-width="0.75" stroke-linecap="round" stroke-linejoin="round"/>
<path d="M253.769 312.775L251.966 314.742V316.945" stroke="#263238" stroke-width="0.75" stroke-linecap="round" stroke-linejoin="round"/>
<path d="M168.425 405.171C168.425 405.171 209.524 406.219 215.427 410.565C215.427 410.565 211.727 404.618 218.361 406.561C218.361 406.561 218.821 356.141 227.74 355.446L230.71 343.975C230.933 343.115 231.923 342.703 232.677 343.174C235.14 344.694 240.254 347.449 244.99 347.508C245.709 347.508 246.275 348.109 246.275 348.827V358.662C246.275 358.662 250.847 359.804 250.623 366.435C250.399 373.066 246.216 432.554 238.663 438.996C231.11 445.427 178.04 442.235 178.04 442.235C178.04 442.235 164.996 429.657 168.437 405.195L168.425 405.171Z" fill="#92E3A9"/>
<path opacity="0.2" d="M181.222 418.432C181.222 418.432 193.841 438.383 213.778 436.487C233.714 434.603 227.858 427.089 230.945 424.144C234.033 421.2 243.895 425.569 248.938 388.435C253.981 351.3 264.468 414.534 264.468 414.534L261.44 445.379L242.622 459.1L224.936 462.551L183.531 465.931L171.018 430.669L181.21 418.42L181.222 418.432Z" fill="black"/>
<path d="M168.425 405.171C168.425 405.171 209.524 406.219 215.427 410.565C215.427 410.565 211.727 404.618 218.361 406.561C218.361 406.561 218.821 356.141 227.74 355.446L230.71 343.975C230.933 343.115 231.923 342.703 232.677 343.174C235.14 344.694 240.254 347.449 244.99 347.508C245.709 347.508 246.275 348.109 246.275 348.827V358.662C246.275 358.662 250.847 359.804 250.623 366.435C250.399 373.066 246.216 432.554 238.663 438.996C231.11 445.427 178.04 442.235 178.04 442.235C178.04 442.235 164.996 429.657 168.437 405.195L168.425 405.171Z" stroke="#263238" stroke-width="0.75" stroke-linecap="round" stroke-linejoin="round"/>
<path d="M220.14 416.148C220.14 416.148 223.109 418.433 224.948 425.523" stroke="#263238" stroke-width="0.75" stroke-linecap="round" stroke-linejoin="round"/>
<path d="M222.544 410.66C222.544 410.66 228.612 413.404 232.265 418.433" stroke="#263238" stroke-width="0.75" stroke-linecap="round" stroke-linejoin="round"/>
<path d="M230.957 357.049C230.957 357.049 234.845 359.793 242.622 360.712" stroke="#263238" stroke-width="0.75" stroke-linecap="round" stroke-linejoin="round"/>
<path d="M93.9453 506.01C93.9453 506.01 62.1314 438.926 86.5338 417.585C110.936 396.244 162.357 401.909 171.076 404.512C179.796 407.126 188.503 432.389 188.939 445.886C189.375 459.395 197.941 459.206 185.746 505.999H93.9453V506.01Z" fill="#92E3A9"/>
<path opacity="0.2" d="M104.291 456.11C104.291 456.11 120.752 438.102 121.836 444.026C122.92 449.962 102.653 484.258 123.568 493.409C144.482 502.56 159.317 492.432 171.017 493.409C182.718 494.387 187.832 501.453 199.827 502.172C211.81 502.89 209.241 519.873 209.241 519.873L175.86 527.058H106.577L81.4791 520.851L74.5508 508.626V481.184L104.291 456.11Z" fill="black"/>
<path d="M93.9453 506.01C93.9453 506.01 62.1314 438.926 86.5338 417.585C110.936 396.244 162.357 401.909 171.076 404.512C179.796 407.126 188.503 432.389 188.939 445.886C189.375 459.395 197.941 459.206 185.746 505.999H93.9453V506.01Z" stroke="#263238" stroke-width="0.75" stroke-linecap="round" stroke-linejoin="round"/>
<path d="M125.323 462.669L144.718 456.321C144.718 456.321 152.777 443.495 156.925 440.233C161.073 436.97 163.677 435.875 167.824 437.842L174.8 436.864C174.8 436.864 177.745 433.131 181.115 433.92C184.485 434.709 196.798 438.49 195.491 441.104C194.183 443.719 183.719 438.926 182.199 440.233C182.199 440.233 185.628 446.381 185.628 450.138C185.628 453.895 186.606 459.607 184.485 459.607C182.364 459.607 180.562 457.228 180.727 454.177C180.727 454.177 180.078 460.914 177.946 460.596C175.825 460.266 174.352 458.476 174.682 455.697C174.682 455.697 169.78 470.89 157.361 470.725L134.808 479.876C134.808 479.876 130.237 478.792 125.335 462.669H125.323Z" fill="white" stroke="#263238" stroke-width="0.75" stroke-linecap="round" stroke-linejoin="round"/>
<path d="M161.756 455.709C161.756 455.709 164.702 449.832 163.877 447.053L168.13 445.416C168.13 445.416 169.933 447.865 171.241 447.218L170.593 450.563C170.593 450.563 167.329 454.567 169.12 456.852C170.923 459.137 173.527 453.907 175 452.447C176.473 450.975 176.803 444.497 175.648 442.424C174.505 440.351 170.287 440.575 169.049 439.209" stroke="#263238" stroke-width="0.75" stroke-linecap="round" stroke-linejoin="round"/>
<path d="M175.212 437.841C175.212 437.841 178.912 437.405 180.008 439.207C181.092 441.009 182.187 445.249 181.964 447.428C181.74 449.607 180.986 452.869 180.986 452.869" stroke="#263238" stroke-width="0.75" stroke-linecap="round" stroke-linejoin="round"/>
<path d="M175.212 454.19L175.872 450.562" stroke="#263238" stroke-width="0.75" stroke-linecap="round" stroke-linejoin="round"/>
<path d="M178.605 438.172C178.605 438.172 180.715 437.253 182.187 440.245" stroke="#263238" stroke-width="0.75" stroke-linecap="round" stroke-linejoin="round"/>
<path d="M170.923 448.854L169.05 449.607L169.981 451.397L170.582 450.561L170.923 448.854Z" stroke="#263238" stroke-width="0.75" stroke-linecap="round" stroke-linejoin="round"/>
<path d="M150.598 465.072C150.598 465.072 151.47 467.251 155.393 469.43" stroke="#263238" stroke-width="0.75" stroke-linecap="round" stroke-linejoin="round"/>
<path d="M134.255 378.824L127.939 397.338C127.939 397.338 141.454 411.707 153.213 412.802L158.009 418.432L163.241 412.142L161.933 404.087L159.824 400.683L158.009 400.094L161.709 389.93L149.879 373.818H138.39L134.255 378.824Z" fill="white"/>
<path d="M161.709 389.93L149.879 373.818H138.391L137.047 375.455C137.837 379.13 139.522 385.384 142.314 389.07C145.295 392.992 153.685 397.468 158.162 399.682L161.709 389.942V389.93Z" fill="#263238" stroke="#263238" stroke-width="0.75" stroke-linecap="round" stroke-linejoin="round"/>
<path d="M134.255 378.824L127.939 397.338C127.939 397.338 141.454 411.707 153.213 412.802L158.009 418.432L163.241 412.142L161.933 404.087L159.824 400.683L158.009 400.094L161.709 389.93L149.879 373.818H138.39L134.255 378.824V378.824Z" stroke="#263238" stroke-width="0.75" stroke-linecap="round" stroke-linejoin="round"/>
<path d="M137.519 369.756C137.519 369.756 139.698 383.182 145.578 387.54C151.458 391.898 172.596 399.918 176.52 396.126C180.444 392.333 184.367 380.132 185.239 373.819C186.111 367.506 183.931 357.107 184.367 350.759C184.803 344.411 185.239 333.74 176.52 330.478C167.801 327.216 135.987 342.974 135.987 342.974L134.031 355.081L137.519 369.744V369.756Z" fill="white" stroke="#263238" stroke-width="0.75" stroke-linecap="round" stroke-linejoin="round"/>
<path d="M178.594 350.758C178.594 350.758 177.286 356.069 178.594 358.025C179.478 359.355 181.787 362.547 183.189 364.479C183.802 365.327 183.602 366.493 182.753 367.093C181.08 368.283 178.582 370.191 178.017 371.416C177.84 371.781 178.017 373.053 178.017 373.053" stroke="#263238" stroke-width="0.75" stroke-linecap="round" stroke-linejoin="round"/>
<path d="M178.134 376.35C178.134 376.35 172.278 381.05 166.328 375.031" stroke="#263238" stroke-width="0.75" stroke-linecap="round" stroke-linejoin="round"/>
<path d="M161.709 352.797C161.709 352.797 164.301 347.084 173.409 350.017" stroke="#263238" stroke-width="0.75" stroke-linecap="round" stroke-linejoin="round"/>
<path d="M178.959 349.181C178.959 349.181 181.045 347.038 183.495 349.181" stroke="#263238" stroke-width="0.75" stroke-linecap="round" stroke-linejoin="round"/>
<path d="M170.982 354.94C171.347 356.294 171.1 357.531 170.428 357.72C169.757 357.896 168.92 356.954 168.555 355.6C168.19 354.245 168.437 353.009 169.109 352.82C169.78 352.643 170.617 353.586 170.982 354.94Z" fill="#263238"/>
<path d="M183.378 353.561C183.637 354.798 183.354 355.893 182.741 356.023C182.129 356.153 181.422 355.257 181.163 354.033C180.903 352.796 181.186 351.701 181.799 351.571C182.411 351.442 183.118 352.337 183.378 353.561Z" fill="#263238"/>
<path d="M167.859 314.86C167.859 314.86 178.959 308.5 195.643 323.257C210.714 336.59 192.285 328.946 192.285 328.946C192.285 328.946 199.944 343.256 191.779 346.188C183.495 349.168 188.079 340.488 169.768 336.342C169.768 336.342 177.934 342.961 172.337 346.824C165.149 351.783 160.401 343.315 154.733 345.27C154.733 345.27 151.681 362.041 145.578 364.867C145.578 364.867 139.639 387.351 131.827 385.914C124.015 384.477 133.595 381.427 129.235 367.706C124.875 353.985 115.508 341.03 122.695 326.167C129.883 311.303 155.688 309.702 167.848 314.86H167.859Z" fill="#263238" stroke="#263238" stroke-width="0.75" stroke-linecap="round" stroke-linejoin="round"/>
<path d="M98.305 413.875C92.1544 413.969 86.581 416.242 83.9299 420.211C74.2208 434.698 62.1433 461.586 54.2958 479.452C46.4484 497.307 50.3721 508.201 54.2958 509.509C58.2196 510.816 72.1587 515.174 99.177 502.1C126.195 489.027 123.579 486.425 123.579 486.425L139.074 479.276C139.687 478.993 139.757 478.157 139.215 477.768C136.753 476.001 131.78 471.008 131.439 459.395C131.415 458.783 130.802 458.359 130.237 458.594L115.732 464.436C115.732 464.436 113.552 462.033 100.921 466.827C100.921 466.827 113.564 457.676 119.22 450.715C121.883 447.429 122.719 441.258 121.8 434.992" fill="#92E3A9"/>
<path d="M98.305 413.875C92.1544 413.969 86.581 416.242 83.9299 420.211C74.2208 434.698 62.1433 461.586 54.2958 479.452C46.4484 497.307 50.3721 508.201 54.2958 509.509C58.2196 510.816 72.1587 515.174 99.177 502.1C126.195 489.027 123.579 486.425 123.579 486.425L139.074 479.276C139.687 478.993 139.757 478.157 139.215 477.768C136.753 476.001 131.78 471.008 131.439 459.395C131.415 458.783 130.802 458.359 130.237 458.594L115.732 464.436C115.732 464.436 113.552 462.033 100.921 466.827C100.921 466.827 113.564 457.676 119.22 450.715C121.883 447.429 122.719 441.258 121.8 434.992" stroke="#263238" stroke-width="0.75" stroke-linecap="round" stroke-linejoin="round"/>
<path d="M74.5508 475.743C78.7337 472.28 96.3374 470.513 96.5613 467.899C96.7851 465.284 81.7501 471.597 81.9622 467.899" stroke="#263238" stroke-width="0.75" stroke-linecap="round" stroke-linejoin="round"/>
<path d="M109.853 441.117C109.853 441.117 114.224 448.066 114.212 452.011C114.212 455.945 119.444 445.699 119.444 441.117" stroke="#263238" stroke-width="0.75" stroke-linecap="round" stroke-linejoin="round"/>
<path d="M116.604 467.25C116.604 467.25 116.168 472.479 120.964 481.195" stroke="#263238" stroke-width="0.75" stroke-linecap="round" stroke-linejoin="round"/>
<path d="M113.977 404.288C113.977 404.288 118.454 391.039 123.686 392.994C128.917 394.937 154.404 405.984 157.998 418.433C157.998 418.433 152.766 411.543 148.194 418.433C143.622 425.323 139.239 419.199 113.977 404.288Z" fill="#92E3A9" stroke="#263238" stroke-width="0.75" stroke-linecap="round" stroke-linejoin="round"/>
<path d="M159.812 400.684C160.413 403.169 161.768 410.872 157.997 418.433C157.997 418.433 161.921 413.404 166.493 416.831C171.064 420.258 166.493 405.937 164.372 403.228C163.606 402.25 160.307 400.366 160.307 400.366C160.071 400.201 159.741 400.401 159.812 400.696V400.684Z" fill="#92E3A9" stroke="#263238" stroke-width="0.75" stroke-linecap="round" stroke-linejoin="round"/>
<path d="M157.997 400.096C157.997 400.096 156.63 404.43 157.997 407.021" stroke="#263238" stroke-width="0.75" stroke-linecap="round" stroke-linejoin="round"/>
<path d="M141.136 507.105H193.959V511.899H141.56C140.464 511.899 139.581 511.016 139.581 509.92V508.66C139.581 507.8 140.276 507.105 141.136 507.105Z" fill="#858585" stroke="#263238" stroke-linecap="round" stroke-linejoin="round"/>
<path d="M219.41 427.818H212.776C210.69 427.818 208.852 429.196 208.263 431.199L186.547 505.88C185.675 508.883 187.926 511.886 191.06 511.886H196.81L219.41 427.818Z" fill="#263238" stroke="#263238" stroke-width="0.75" stroke-linecap="round" stroke-linejoin="round"/>
<path d="M304.023 511.886H193.346C190.223 511.886 187.961 508.883 188.833 505.88L210.549 431.199C211.126 429.196 212.965 427.818 215.062 427.818H325.739C328.861 427.818 331.124 430.822 330.252 433.825L308.536 508.506C307.958 510.508 306.12 511.886 304.023 511.886Z" fill="#858585" stroke="#263238" stroke-linecap="round" stroke-linejoin="round"/>
<path d="M137.047 375.444C137.047 375.444 128.151 389.329 133.383 401.837C138.614 414.345 134.031 420.823 127.939 416.135C121.824 411.436 119.007 406.301 91.5532 410.647L109.852 392.792L122.271 376.15L133.901 370.674L137.047 375.432V375.444Z" fill="#263238" stroke="#263238" stroke-width="0.75" stroke-linecap="round" stroke-linejoin="round"/>
<path d="M191.178 336.355C192.014 337.934 192.368 339.382 192.274 340.513" stroke="#7F7F7F" stroke-width="0.75" stroke-linecap="round" stroke-linejoin="round"/>
<path d="M155.393 322.011C171.889 321.74 182.27 326.71 187.678 331.88" stroke="#7F7F7F" stroke-width="0.75" stroke-linecap="round" stroke-linejoin="round"/>
<path d="M109.075 393.112C109.805 390.521 110.182 387.388 109.841 383.643C108.533 368.945 120.304 373.927 122.92 355.271C125.288 338.382 128.104 325.179 148.406 322.506" stroke="#7F7F7F" stroke-width="0.75" stroke-linecap="round" stroke-linejoin="round"/>
<path d="M101.675 403.559C101.675 403.559 104.02 402.264 106.223 399.166" stroke="#7F7F7F" stroke-width="0.75" stroke-linecap="round" stroke-linejoin="round"/>
<path d="M125.005 402.922C125.5 404.276 126.101 405.642 126.844 407.02" stroke="#7F7F7F" stroke-width="0.75" stroke-linecap="round" stroke-linejoin="round"/>
<path d="M139.569 334.105C131.545 341.16 138.614 355.011 134.809 363.573C131.286 371.487 121.847 383.065 123.556 396.88" stroke="#7F7F7F" stroke-width="0.75" stroke-linecap="round" stroke-linejoin="round"/>
<path d="M169.769 341.996C169.769 341.996 158.716 325.99 144 331.538" stroke="#7F7F7F" stroke-width="0.75" stroke-linecap="round" stroke-linejoin="round"/>
<path d="M406.617 298.008H268.144C265.268 298.008 262.936 300.338 262.936 303.213V314.167C262.936 317.042 265.268 319.372 268.144 319.372H406.617C409.493 319.372 411.825 317.042 411.825 314.167V303.213C411.825 300.338 409.493 298.008 406.617 298.008Z" fill="white"/>
<path opacity="0.3" d="M406.617 298.008H268.144C265.268 298.008 262.936 300.338 262.936 303.213V314.167C262.936 317.042 265.268 319.372 268.144 319.372H406.617C409.493 319.372 411.825 317.042 411.825 314.167V303.213C411.825 300.338 409.493 298.008 406.617 298.008Z" fill="black"/>
<path d="M406.617 298.008H268.144C265.268 298.008 262.936 300.338 262.936 303.213V314.167C262.936 317.042 265.268 319.372 268.144 319.372H406.617C409.493 319.372 411.825 317.042 411.825 314.167V303.213C411.825 300.338 409.493 298.008 406.617 298.008Z" stroke="#263238" stroke-width="0.75" stroke-linecap="round" stroke-linejoin="round"/>
<path d="M326.953 302.707H329.498C331.218 302.707 332.066 303.661 332.066 305.416V306.499C332.066 308.254 331.218 309.208 329.498 309.208H328.685V313.672H326.964V302.707H326.953ZM329.498 307.642C330.052 307.642 330.346 307.394 330.346 306.605V305.31C330.346 304.521 330.052 304.273 329.498 304.273H328.685V307.642H329.498Z" fill="#263238"/>
<path d="M333.009 302.707H334.729V307.171H336.579V302.707H338.299V313.672H336.579V308.737H334.729V313.672H333.009V302.707Z" fill="#263238"/>
<path d="M339.596 302.707H342.141C343.861 302.707 344.709 303.661 344.709 305.416V306.499C344.709 308.254 343.861 309.208 342.141 309.208H341.328V313.672H339.607V302.707H339.596ZM342.141 307.642C342.695 307.642 342.989 307.394 342.989 306.605V305.31C342.989 304.521 342.695 304.273 342.141 304.273H341.328V307.642H342.141Z" fill="#263238"/>
</g>
<defs>
<clipPath id="clip0_1_633">
<rect width="708" height="551" fill="white"/>
</clipPath>
</defs>
</svg>
