<svg width="76" height="82" viewBox="0 0 76 82" fill="none" xmlns="http://www.w3.org/2000/svg">
<path d="M75.272 20.5016L38.8844 1.00129C38.6819 0.894004 38.456 0.837891 38.2266 0.837891C37.9972 0.837891 37.7713 0.894004 37.5688 1.00129L1.18126 20.5016C0.955112 20.6182 0.765232 20.794 0.632098 21.0101C0.498965 21.2262 0.427628 21.4744 0.425781 21.7279V60.7301C0.426497 60.9821 0.4959 61.2292 0.626594 61.445C0.757287 61.6608 0.944373 61.8373 1.16791 61.9556L37.5554 81.4567C37.7579 81.5641 37.9838 81.6202 38.2133 81.6202C38.4427 81.6202 38.6686 81.5641 38.8711 81.4567L75.2578 61.9556C75.4812 61.8372 75.6683 61.6607 75.799 61.4449C75.9296 61.2291 75.9991 60.9821 75.9999 60.7301V21.7279C76.0005 21.4774 75.9332 21.2313 75.8051 21.0156C75.6769 20.8 75.4928 20.6227 75.272 20.5024V20.5016ZM38.2124 3.81458L71.6607 21.7279L61.8661 26.9789L29.5774 8.43915L38.2124 3.81458ZM4.76667 21.7279L15.3025 16.1562L47.5754 34.6262L38.2124 39.6404L4.76667 21.7279ZM26.6807 9.98538L58.9677 28.5252L50.4729 33.0799L18.2001 14.526L26.6807 9.98538ZM52.3337 35.2393L59.9469 31.1681V41.563L57.0077 38.6658C56.8443 38.5044 56.6435 38.3855 56.423 38.3198C56.2026 38.254 55.9692 38.2434 55.7436 38.2888C55.518 38.3343 55.3071 38.4344 55.1296 38.5803C54.9522 38.7262 54.8136 38.9134 54.7262 39.1253L52.3328 44.864L52.3337 35.2393ZM3.22482 24.0535L36.8133 42.0649V77.9048L3.22482 59.8943V24.0535ZM39.6124 77.9048V42.0649L49.5346 36.7474V51.8707C49.5518 52.1819 49.6734 52.4784 49.8799 52.7127C50.0865 52.947 50.366 53.1055 50.6738 53.163C50.9816 53.2204 51.2999 53.1734 51.5777 53.0295C51.8554 52.8856 52.0767 52.6531 52.206 52.3692L56.4884 42.0757L60.3234 45.8644C60.5192 46.0607 60.7693 46.1945 61.0418 46.2488C61.3143 46.3032 61.5968 46.2756 61.8535 46.1695C62.1102 46.0635 62.3293 45.8838 62.4831 45.6534C62.6368 45.423 62.7182 45.1522 62.7168 44.8757V29.6659L73.1867 24.0992V59.8943L39.6124 77.9048Z" fill="#40BA77"/>
</svg>
