<svg width="50" height="50" viewBox="0 0 50 50" fill="none" xmlns="http://www.w3.org/2000/svg">
<path d="M13.6742 18.6611H21.4072V19.2004H14.3828V23.26H20.9883V23.7993H14.3828V28.2566H21.487V28.7959H13.6742V18.6611ZM22.1 18.6611H22.922L26.5628 23.1176L30.2844 18.6611L35.3453 13L27.03 23.587L31.3154 28.7959H30.4609L26.5628 24.0547L22.648 28.7959H21.8103L26.1272 23.587L22.1 18.6611ZM31.6209 19.2004V18.6611H40.4341V19.2004H36.3735V28.7959H35.6648V19.2004H31.6209ZM4 18.6611H4.88605L17.1041 34.7059L12.0553 28.7959L4.74209 19.4281L4.70959 28.7959H4.00093V18.6611H4ZM40.3617 28.0939C40.2177 28.0939 40.1091 27.9947 40.1091 27.8678C40.1091 27.7409 40.2177 27.6425 40.3617 27.6425C40.5084 27.6425 40.6152 27.7409 40.6152 27.8678C40.6152 27.9947 40.5084 28.0939 40.3617 28.0939ZM41.0583 27.4993H41.4381C41.4428 27.6799 41.5932 27.8011 41.8134 27.8011C42.0604 27.8011 42.1997 27.671 42.1997 27.4269V25.8815H42.5861V27.4286C42.5861 27.8678 42.2963 28.1208 41.8171 28.1208C41.3675 28.1208 41.0583 27.8759 41.0583 27.4993ZM43.0914 27.4798H43.474C43.5065 27.688 43.7378 27.819 44.0712 27.819C44.3805 27.819 44.6081 27.6791 44.6081 27.4847C44.6081 27.3179 44.4632 27.2179 44.1344 27.1496L43.814 27.0813C43.3635 26.9893 43.1592 26.7982 43.1592 26.4769C43.1592 26.0881 43.5205 25.8295 44.0638 25.8295C44.569 25.8295 44.9368 26.0881 44.9601 26.4558H44.5839C44.5477 26.254 44.348 26.1288 44.0582 26.1288C43.7527 26.1288 43.5492 26.2581 43.5492 26.4549C43.5492 26.6103 43.6811 26.6998 44.0053 26.7665L44.2793 26.8258C44.7892 26.9308 45 27.1122 45 27.4408C45 27.8588 44.6303 28.1208 44.0415 28.1208C43.4898 28.1208 43.1183 27.871 43.0914 27.4798Z" fill="black"/>
</svg>
