<svg width="85" height="85" viewBox="0 0 85 85" fill="none" xmlns="http://www.w3.org/2000/svg">
<path d="M19.7107 37.8476V59.1242H22.5264V37.8476C23.4659 37.517 24.2577 36.8666 24.7619 36.0112C25.2661 35.1557 25.4502 34.1505 25.2818 33.173C25.1133 32.1955 24.603 31.3088 23.8412 30.6695C23.0794 30.0303 22.115 29.6797 21.1186 29.6797C20.1221 29.6797 19.1578 30.0303 18.3959 30.6695C17.6341 31.3088 17.1238 32.1955 16.9554 33.173C16.7869 34.1505 16.971 35.1557 17.4752 36.0112C17.9794 36.8666 18.7712 37.517 19.7107 37.8476ZM21.119 32.5002C21.3975 32.5002 21.6698 32.5824 21.9014 32.7364C22.133 32.8904 22.3135 33.1093 22.4201 33.3655C22.5267 33.6216 22.5545 33.9034 22.5002 34.1753C22.4459 34.4472 22.3117 34.6969 22.1148 34.893C21.9178 35.089 21.6669 35.2225 21.3937 35.2766C21.1205 35.3307 20.8374 35.3029 20.5801 35.1968C20.3227 35.0907 20.1028 34.9111 19.948 34.6806C19.7933 34.4501 19.7107 34.1791 19.7107 33.9018C19.7109 33.5302 19.8594 33.1738 20.1234 32.911C20.3875 32.6481 20.7455 32.5004 21.119 32.5002Z" fill="#40BA77"/>
<path d="M21.1207 22.6914C16.5429 22.6882 12.0882 24.1665 8.42833 26.9032C4.76842 29.64 2.10172 33.4869 0.830338 37.8638C-0.441046 42.2408 -0.248183 46.9105 1.37985 51.1688C3.00787 55.4272 5.9828 59.0432 9.85604 61.4718V66.1312C9.85632 66.3173 9.89407 66.5013 9.96705 66.6726C10.04 66.8438 10.1468 66.9988 10.2809 67.1283C10.0047 67.69 9.85944 68.3066 9.85604 68.9321C9.85678 69.6284 10.0314 70.3136 10.3642 70.926C10.6971 71.5385 11.1776 72.059 11.7627 72.4408C11.4397 73.0187 11.2675 73.668 11.2618 74.3293V74.7448C11.2644 75.6156 11.5532 76.4616 12.0843 77.1537C12.6153 77.8458 13.3594 78.3458 14.2028 78.5775C14.4911 80.194 15.342 81.6579 16.6062 82.7125C17.8705 83.7671 19.4674 84.345 21.1169 84.345C22.7664 84.345 24.3633 83.7671 25.6276 82.7125C26.8918 81.6579 27.7427 80.194 28.031 78.5775C28.8741 78.3457 29.6179 77.8457 30.1488 77.1538C30.6796 76.4619 30.9685 75.6162 30.9711 74.7456V74.3302C30.9655 73.6689 30.7932 73.0195 30.4703 72.4416C31.3269 71.8898 31.9508 71.0447 32.224 70.0662C32.4972 69.0876 32.4007 68.0433 31.9529 67.1308C32.0867 67.0011 32.1931 66.8461 32.266 66.6748C32.3388 66.5036 32.3765 66.3197 32.3769 66.1337V61.4718C36.2496 59.0436 39.2242 55.4283 40.8524 51.1708C42.4806 46.9133 42.6741 42.2443 41.4038 37.8678C40.1335 33.4913 37.4682 29.6444 33.8096 26.907C30.1511 24.1696 25.6977 22.69 21.1207 22.6914ZM21.1207 81.5445C20.2501 81.5417 19.4017 81.2708 18.6919 80.769C17.9821 80.2673 17.4457 79.5592 17.1563 78.742H25.0867C24.7976 79.5598 24.261 80.2683 23.5508 80.7701C22.8406 81.272 21.9916 81.5425 21.1207 81.5445ZM28.1604 74.7456C28.1602 75.0622 28.0337 75.3657 27.8088 75.5896C27.5839 75.8134 27.2789 75.9393 26.9608 75.9395H15.2771C14.9594 75.9389 14.6548 75.8128 14.4302 75.589C14.2057 75.3652 14.0794 75.0619 14.0792 74.7456V74.3302C14.0797 74.014 14.206 73.7109 14.4305 73.4873C14.6551 73.2636 14.9595 73.1377 15.2771 73.137H26.9642C27.282 73.1377 27.5865 73.2638 27.8111 73.4876C28.0356 73.7114 28.1619 74.0147 28.1621 74.331L28.1604 74.7456ZM28.1604 70.3346H14.0792C13.7118 70.3256 13.3624 70.1741 13.1057 69.9123C12.8489 69.6505 12.7052 69.2991 12.7052 68.9333C12.7052 68.5675 12.8489 68.2161 13.1057 67.9543C13.3624 67.6925 13.7118 67.541 14.0792 67.5321H28.1587C28.5262 67.541 28.8756 67.6925 29.1323 67.9543C29.389 68.2161 29.5327 68.5675 29.5327 68.9333C29.5327 69.2991 29.389 69.6505 29.1323 69.9123C28.8756 70.1741 28.5262 70.3256 28.1587 70.3346H28.1604ZM30.2708 59.4702C30.0569 59.593 29.8794 59.7697 29.756 59.9825C29.6326 60.1953 29.5677 60.4367 29.5679 60.6825V64.7329H22.5264V61.9271H19.7107V64.7329H12.6718V60.6825C12.672 60.4367 12.6071 60.1953 12.4837 59.9825C12.3603 59.7697 12.1827 59.593 11.9689 59.4702C8.47927 57.4655 5.75183 54.3706 4.20962 50.6658C2.66742 46.9609 2.39663 42.853 3.43926 38.9794C4.48189 35.1057 6.77968 31.6827 9.9762 29.2413C13.1727 26.8 17.0894 25.4766 21.1186 25.4766C25.1478 25.4766 29.0644 26.8 32.2609 29.2413C35.4575 31.6827 37.7552 35.1057 38.7979 38.9794C39.8405 42.853 39.5697 46.9609 38.0275 50.6658C36.4853 54.3706 33.7579 57.4655 30.2683 59.4702H30.2708Z" fill="#40BA77"/>
<path d="M25.3423 46.5138V57.7237H28.158V47.0937L29.1648 46.0917C29.728 46.3665 30.3465 46.5108 30.9738 46.5138C31.8092 46.5138 32.6259 46.2672 33.3205 45.8052C34.0151 45.3433 34.5565 44.6867 34.8762 43.9185C35.196 43.1503 35.2796 42.305 35.1166 41.4894C34.9536 40.6739 34.5513 39.9248 33.9606 39.3368C33.3699 38.7489 32.6172 38.3485 31.7978 38.1863C30.9784 38.024 30.1291 38.1073 29.3573 38.4255C28.5855 38.7437 27.9258 39.2826 27.4616 39.9739C26.9975 40.6653 26.7497 41.4781 26.7497 42.3096C26.7527 42.9339 26.8977 43.5495 27.1738 44.1101L25.7547 45.5226C25.6237 45.6526 25.5199 45.8071 25.4491 45.9772C25.3783 46.1473 25.342 46.3297 25.3423 46.5138ZM30.9738 40.9088C31.2523 40.9086 31.5247 40.9907 31.7564 41.1446C31.9881 41.2985 32.1687 41.5174 32.2754 41.7735C32.3822 42.0296 32.4102 42.3114 32.3559 42.5834C32.3017 42.8553 32.1676 43.1052 31.9707 43.3013C31.7738 43.4974 31.5228 43.631 31.2496 43.6851C30.9764 43.7393 30.6932 43.7116 30.4359 43.6055C30.1785 43.4994 29.9585 43.3198 29.8037 43.0893C29.6489 42.8587 29.5663 42.5877 29.5663 42.3105C29.5665 41.9389 29.7149 41.5827 29.9787 41.3199C30.2426 41.0571 30.6005 40.9092 30.9738 40.9088Z" fill="#40BA77"/>
<path d="M11.2643 46.5129C11.8916 46.51 12.51 46.3657 13.0733 46.0909L14.08 47.0929V57.7229H16.8958V46.5129C16.8959 46.329 16.8596 46.1468 16.7888 45.9768C16.718 45.8069 16.6142 45.6525 16.4834 45.5226L15.0643 44.1101C15.3404 43.5495 15.4853 42.9339 15.4883 42.3096C15.4883 41.4781 15.2406 40.6653 14.7765 39.9739C14.3123 39.2826 13.6526 38.7437 12.8808 38.4255C12.1089 38.1073 11.2596 38.024 10.4402 38.1863C9.62086 38.3485 8.86821 38.7489 8.27747 39.3368C7.68673 39.9248 7.28443 40.6739 7.12145 41.4894C6.95846 42.305 7.04211 43.1503 7.36182 43.9185C7.68153 44.6867 8.22293 45.3433 8.91757 45.8052C9.6122 46.2672 10.4289 46.5138 11.2643 46.5138V46.5129ZM11.2643 40.908C11.5428 40.908 11.8151 40.9902 12.0467 41.1442C12.2783 41.2982 12.4588 41.5171 12.5654 41.7732C12.672 42.0293 12.6999 42.3112 12.6455 42.5831C12.5912 42.855 12.4571 43.1047 12.2601 43.3007C12.0632 43.4968 11.8122 43.6303 11.5391 43.6843C11.2659 43.7384 10.9827 43.7107 10.7254 43.6046C10.4681 43.4985 10.2481 43.3188 10.0934 43.0883C9.93862 42.8578 9.85602 42.5868 9.85602 42.3096C9.85624 41.9379 10.0047 41.5816 10.2687 41.3187C10.5328 41.0559 10.8909 40.9082 11.2643 40.908Z" fill="#40BA77"/>
<path d="M68.9873 22.691C70.3796 22.691 71.7407 22.2801 72.8984 21.5101C74.0561 20.7402 74.9584 19.6459 75.4912 18.3655C76.024 17.0852 76.1634 15.6763 75.8917 14.3171C75.62 12.958 74.9495 11.7095 73.9648 10.7296C72.9802 9.74978 71.7258 9.08253 70.3601 8.81227C68.9945 8.54201 67.579 8.68088 66.2927 9.21132C65.0064 9.74177 63.907 10.64 63.1335 11.7923C62.3601 12.9446 61.9473 14.2994 61.9475 15.6852C61.9497 17.5427 62.6921 19.3235 64.0119 20.6369C65.3317 21.9503 67.121 22.689 68.9873 22.691ZM68.9873 11.4811C69.8227 11.4811 70.6394 11.7276 71.334 12.1896C72.0286 12.6515 72.5701 13.3081 72.8898 14.0763C73.2095 14.8446 73.2931 15.6899 73.1301 16.5054C72.9671 17.3209 72.5648 18.07 71.9741 18.658C71.3834 19.2459 70.6307 19.6464 69.8113 19.8086C68.992 19.9708 68.1426 19.8875 67.3708 19.5693C66.599 19.2511 65.9393 18.7123 65.4751 18.0209C65.011 17.3295 64.7632 16.5167 64.7632 15.6852C64.7646 14.5706 65.21 13.502 66.0019 12.7139C66.7938 11.9257 67.8674 11.4824 68.9873 11.4811Z" fill="#40BA77"/>
<path d="M53.5005 18.4881C53.5004 18.6722 53.5367 18.8545 53.6075 19.0246C53.6782 19.1947 53.7819 19.3493 53.9127 19.4794C54.0435 19.6096 54.1988 19.7129 54.3697 19.7833C54.5406 19.8537 54.7238 19.8898 54.9088 19.8897H57.0517C57.2004 20.3057 57.37 20.7139 57.5601 21.1128L56.0449 22.6216C55.9141 22.7517 55.8104 22.9062 55.7396 23.0762C55.6689 23.2462 55.6324 23.4284 55.6324 23.6124C55.6324 23.7964 55.6689 23.9786 55.7396 24.1486C55.8104 24.3187 55.9141 24.4731 56.0449 24.6032L60.026 28.5672C60.1567 28.6975 60.3118 28.8008 60.4827 28.8713C60.6535 28.9418 60.8366 28.9781 61.0215 28.9781C61.2064 28.9781 61.3895 28.9418 61.5604 28.8713C61.7312 28.8008 61.8863 28.6975 62.017 28.5672L63.533 27.0592C63.9334 27.2492 64.3435 27.4181 64.7618 27.5652V29.698C64.7624 30.0693 64.9111 30.4251 65.1752 30.6873C65.4392 30.9494 65.7971 31.0966 66.1701 31.0964H71.8015C71.9865 31.0965 72.1697 31.0603 72.3406 30.9899C72.5115 30.9195 72.6668 30.8163 72.7976 30.6861C72.9284 30.5559 73.0321 30.4013 73.1028 30.2312C73.1736 30.0611 73.2099 29.8788 73.2098 29.6947V27.5652C73.628 27.4181 74.0382 27.2492 74.4386 27.0592L75.9563 28.5672C76.0869 28.6975 76.2421 28.8008 76.4129 28.8713C76.5837 28.9418 76.7668 28.9781 76.9517 28.9781C77.1367 28.9781 77.3198 28.9418 77.4906 28.8713C77.6614 28.8008 77.8166 28.6975 77.9472 28.5672L81.9292 24.6032C82.0599 24.4731 82.1637 24.3187 82.2345 24.1486C82.3052 23.9786 82.3417 23.7964 82.3417 23.6124C82.3417 23.4284 82.3052 23.2462 82.2345 23.0762C82.1637 22.9062 82.0599 22.7517 81.9292 22.6216L80.414 21.1128C80.6046 20.7141 80.7743 20.3059 80.9224 19.8897H83.0678C83.4405 19.8886 83.7976 19.7405 84.0606 19.4777C84.3237 19.2149 84.4713 18.859 84.4711 18.4881V12.8831C84.4712 12.699 84.4349 12.5167 84.3641 12.3466C84.2934 12.1765 84.1897 12.0219 84.0589 11.8917C83.9281 11.7616 83.7728 11.6583 83.6019 11.5879C83.4309 11.5175 83.2478 11.4813 83.0628 11.4814H80.9232C80.7746 11.0655 80.6049 10.6573 80.4149 10.2584L81.93 8.74625C82.0608 8.61616 82.1645 8.4617 82.2353 8.2917C82.3061 8.12169 82.3425 7.93947 82.3425 7.75545C82.3425 7.57143 82.3061 7.38921 82.2353 7.2192C82.1645 7.0492 82.0608 6.89474 81.93 6.76465L77.9481 2.80062C77.8174 2.67036 77.6622 2.56702 77.4914 2.49652C77.3206 2.42601 77.1375 2.38972 76.9526 2.38972C76.7677 2.38972 76.5845 2.42601 76.4137 2.49652C76.2429 2.56702 76.0877 2.67036 75.9571 2.80062L74.4411 4.31112C74.0399 4.12335 73.6297 3.95468 73.2106 3.80513V1.67314C73.2108 1.48912 73.1744 1.30687 73.1038 1.13682C73.0331 0.966763 72.9294 0.812239 72.7987 0.682072C72.668 0.551905 72.5128 0.448646 72.342 0.378196C72.1712 0.307746 71.9881 0.271485 71.8032 0.271485H66.1717C65.9868 0.271375 65.8036 0.307556 65.6327 0.377957C65.4618 0.448358 65.3065 0.5516 65.1757 0.681778C65.0449 0.811956 64.9411 0.966517 64.8704 1.13662C64.7997 1.30673 64.7633 1.48905 64.7634 1.67314V3.80513C64.3452 3.95227 63.9351 4.12117 63.5346 4.31112L62.0153 2.80477C61.8847 2.67452 61.7295 2.57118 61.5587 2.50067C61.3879 2.43016 61.2048 2.39387 61.0198 2.39387C60.8349 2.39387 60.6518 2.43016 60.481 2.50067C60.3102 2.57118 60.155 2.67452 60.0243 2.80477L56.0458 6.76881C55.915 6.89889 55.8112 7.05335 55.7405 7.22336C55.6697 7.39336 55.6333 7.57558 55.6333 7.7596C55.6333 7.94363 55.6697 8.12585 55.7405 8.29585C55.8112 8.46586 55.915 8.62032 56.0458 8.7504L57.5609 10.2592C57.3701 10.6577 57.1998 11.0657 57.0508 11.4814H54.9088C54.7238 11.4813 54.5406 11.5175 54.3697 11.5879C54.1988 11.6583 54.0435 11.7616 53.9127 11.8917C53.7819 12.0219 53.6782 12.1765 53.6075 12.3466C53.5367 12.5167 53.5004 12.699 53.5005 12.8831V18.4881ZM56.3162 14.2839H58.0918C58.4042 14.2843 58.7077 14.1813 58.9547 13.991C59.2017 13.8007 59.378 13.5339 59.4559 13.2329C59.6854 12.3472 60.0389 11.4981 60.506 10.7104C60.6642 10.4427 60.7287 10.1304 60.6894 9.82232C60.6501 9.51425 60.5093 9.22784 60.289 9.00797L59.0318 7.76168L61.0228 5.77925L62.2799 7.02554C62.5004 7.24612 62.7886 7.38715 63.0987 7.42628C63.4089 7.46541 63.7233 7.4004 63.9921 7.24156C64.7826 6.77773 65.6346 6.42672 66.5232 6.19884C66.8256 6.12122 67.0935 5.9457 67.2846 5.69992C67.4758 5.45413 67.5794 5.15204 67.5792 4.84121V3.07397H70.3949V4.84121C70.3946 5.15168 70.498 5.45344 70.6886 5.69916C70.8793 5.94487 71.1465 6.12062 71.4484 6.19884C72.3376 6.42657 73.1902 6.77758 73.9812 7.24156C74.2502 7.39969 74.5644 7.46429 74.8744 7.42518C75.1843 7.38607 75.4724 7.24548 75.6933 7.02554L76.9505 5.77925L78.9415 7.76168L77.6843 9.00797C77.4636 9.22762 77.3225 9.51406 77.2832 9.82224C77.2439 10.1304 77.3086 10.4428 77.4672 10.7104C77.9352 11.498 78.2895 12.3471 78.5199 13.2329C78.5978 13.5331 78.7736 13.7991 79.0197 13.9893C79.2657 14.1795 79.5682 14.2831 79.8798 14.2839H81.6554V17.0864H79.8798C79.5683 17.0866 79.2658 17.1897 79.0195 17.3794C78.7733 17.5692 78.5972 17.8349 78.5191 18.135C78.2895 19.0206 77.936 19.8698 77.4689 20.6574C77.3107 20.9251 77.2462 21.2375 77.2855 21.5455C77.3248 21.8536 77.4656 22.14 77.6859 22.3599L78.9431 23.6062L76.9522 25.5886L75.695 24.3423C75.474 24.1225 75.1859 23.982 74.876 23.9429C74.5661 23.9038 74.2519 23.9683 73.9828 24.1263C73.1915 24.5916 72.3383 24.9437 71.4484 25.1723C71.147 25.2503 70.8801 25.4255 70.6895 25.6706C70.4988 25.9156 70.3952 26.2167 70.3949 26.5266V28.2947H67.5792V26.5266C67.5786 26.2164 67.4745 25.9152 67.2834 25.6701C67.0923 25.425 66.825 25.2499 66.5232 25.1723C65.634 24.9446 64.7814 24.5936 63.9904 24.1296C63.7214 23.9715 63.4072 23.9069 63.0972 23.946C62.7872 23.9851 62.4992 24.1257 62.2783 24.3456L61.0211 25.5919L59.0301 23.6095L60.2873 22.3632C60.508 22.1436 60.6491 21.8571 60.6884 21.5489C60.7277 21.2408 60.663 20.9283 60.5044 20.6608C60.037 19.872 59.6835 19.0218 59.4542 18.135C59.3762 17.8345 59.2 17.5684 58.9533 17.3786C58.7067 17.1887 58.4036 17.086 58.0918 17.0864H56.3162V14.2839Z" fill="#40BA77"/>
<path d="M28.9041 10.2504C29.8889 11.0414 31.1147 11.4754 32.3802 11.4809C33.8733 11.4794 35.3047 10.8884 36.3605 9.83757C37.4163 8.78676 38.0101 7.36201 38.0117 5.87595C38.0117 5.82278 37.9975 5.77376 37.9958 5.72058C42.9318 4.25769 48.1643 4.09167 53.1839 5.23868L53.8133 2.50765C48.3245 1.25557 42.6037 1.43703 37.2061 3.03441C36.4812 1.81776 35.3199 0.919758 33.9562 0.521331C32.5926 0.122905 31.1279 0.253662 29.8573 0.887259C28.5866 1.52086 27.6045 2.6102 27.1086 3.93584C26.6128 5.26147 26.6402 6.72487 27.1853 8.0312C23.1723 10.9898 19.897 14.8277 17.6128 19.2478L20.1172 20.524C22.2134 16.4725 25.2203 12.9569 28.9041 10.2504ZM32.3802 3.07346C32.9371 3.07346 33.4815 3.23782 33.9445 3.54577C34.4076 3.85371 34.7685 4.2914 34.9816 4.80348C35.1947 5.31557 35.2505 5.87906 35.1418 6.42269C35.0332 6.96632 34.765 7.46567 34.3712 7.85761C33.9774 8.24954 33.4757 8.51646 32.9295 8.62459C32.3833 8.73273 31.8171 8.67723 31.3026 8.46511C30.7881 8.253 30.3484 7.8938 30.039 7.43293C29.7296 6.97206 29.5644 6.43023 29.5644 5.87595C29.5651 5.13289 29.862 4.42045 30.3899 3.89502C30.9178 3.3696 31.6336 3.07412 32.3802 3.07346Z" fill="#40BA77"/>
<path d="M35.7103 61.3231L34.6843 63.932C42.0602 66.7988 50.2381 66.8642 57.6593 64.1156C58.4992 65.1405 59.6783 65.8343 60.9853 66.0727C62.2924 66.3111 63.642 66.0785 64.7924 65.4166C65.9429 64.7548 66.819 63.7069 67.2638 62.4607C67.7087 61.2144 67.6932 59.8513 67.2202 58.6153C70.8686 55.6038 73.8027 51.8264 75.812 47.5538C77.8214 43.2811 78.8564 38.619 78.8429 33.9014C78.8429 32.926 78.7995 31.9414 78.7102 30.9727L75.9053 31.2219C75.9888 32.1059 76.0263 33.0058 76.0263 33.8981C76.0399 38.1633 75.1147 42.3797 73.3157 46.2508C71.5167 50.122 68.8876 53.554 65.6132 56.3056C64.7335 55.537 63.6341 55.0621 62.4693 54.9474C61.3045 54.8327 60.1329 55.0841 59.119 55.6662C58.1052 56.2483 57.3 57.1319 56.8166 58.1929C56.3332 59.2538 56.1958 60.4389 56.4239 61.5815C49.7101 63.9613 42.362 63.8696 35.7103 61.3231ZM61.9476 57.723C62.5045 57.723 63.0489 57.8874 63.512 58.1953C63.975 58.5033 64.3359 58.9409 64.549 59.453C64.7622 59.9651 64.8179 60.5286 64.7093 61.0722C64.6006 61.6159 64.3325 62.1152 63.9387 62.5072C63.5449 62.8991 63.0432 63.166 62.497 63.2741C61.9508 63.3823 61.3846 63.3268 60.8701 63.1147C60.3556 62.9025 59.9158 62.5433 59.6064 62.0825C59.297 61.6216 59.1319 61.0798 59.1319 60.5255C59.1326 59.7823 59.4296 59.0697 59.9576 58.5443C60.4857 58.0188 61.2017 57.7234 61.9485 57.723H61.9476Z" fill="#40BA77"/>
</svg>
