<svg width="40" height="45" viewBox="0 0 40 45" fill="none" xmlns="http://www.w3.org/2000/svg">
<path d="M5.26356 32.3758C4.82528 32.3758 4.40495 32.5529 4.09504 32.8681C3.78512 33.1834 3.61102 33.611 3.61102 34.0568V43.3022C3.61102 43.748 3.78512 44.1756 4.09504 44.4908C4.40495 44.8061 4.82528 44.9832 5.26356 44.9832C5.70184 44.9832 6.12217 44.8061 6.43208 44.4908C6.742 44.1756 6.9161 43.748 6.9161 43.3022V34.0568C6.9161 33.611 6.742 33.1834 6.43208 32.8681C6.12217 32.5529 5.70184 32.3758 5.26356 32.3758ZM16.286 26.2066C15.8477 26.2066 15.4274 26.3837 15.1175 26.6989C14.8076 27.0142 14.6335 27.4417 14.6335 27.8876V43.319C14.6335 43.7648 14.8076 44.1924 15.1175 44.5077C15.4274 44.8229 15.8477 45 16.286 45C16.7243 45 17.1446 44.8229 17.4545 44.5077C17.7645 44.1924 17.9386 43.7648 17.9386 43.319V27.8876C17.9386 27.4417 17.7645 27.0142 17.4545 26.6989C17.1446 26.3837 16.7243 26.2066 16.286 26.2066ZM27.325 16.9443C26.8867 16.9443 26.4664 17.1214 26.1565 17.4367C25.8466 17.7519 25.6725 18.1795 25.6725 18.6253V43.3022C25.6725 43.748 25.8466 44.1756 26.1565 44.4908C26.4664 44.8061 26.8867 44.9832 27.325 44.9832C27.7633 44.9832 28.1836 44.8061 28.4935 44.4908C28.8034 44.1756 28.9775 43.748 28.9775 43.3022V18.6253C28.9775 18.1795 28.8034 17.7519 28.4935 17.4367C28.1836 17.1214 27.7633 16.9443 27.325 16.9443ZM38.3475 10.7751C37.9092 10.7751 37.4888 10.9522 37.1789 11.2675C36.869 11.5827 36.6949 12.0103 36.6949 12.4561V43.3022C36.6949 43.748 36.869 44.1756 37.1789 44.4908C37.4888 44.8061 37.9092 44.9832 38.3475 44.9832C38.7857 44.9832 39.2061 44.8061 39.516 44.4908C39.8259 44.1756 40 43.748 40 43.3022V12.4561C40 12.0103 39.8259 11.5827 39.516 11.2675C39.2061 10.9522 38.7857 10.7751 38.3475 10.7751ZM38.4301 0L32.0182 1.47927L33.1585 2.7232C23.0823 12.095 12.2473 20.5861 0.768645 28.1061C0.398297 28.3446 0.136265 28.723 0.0401919 29.158C-0.0558808 29.5931 0.021876 30.0491 0.256357 30.4258C0.490837 30.8026 0.862834 31.0691 1.29051 31.1668C1.71819 31.2646 2.16652 31.1855 2.53686 30.947C14.1853 23.324 25.1807 14.7148 35.4059 5.21106L36.5131 6.40456L38.4301 0Z" fill="#66DAC3"/>
</svg>
