<svg width="50" height="50" viewBox="0 0 50 50" fill="none" xmlns="http://www.w3.org/2000/svg">
<path d="M24.9459 8.00007C23.5137 8.00467 22.5208 8.13085 21.3207 8.33809C17.7765 8.95518 17.1309 10.2511 17.1309 12.6393V16.2894H25.4202V18.1315H16.8159H12.8094C10.3815 18.1315 8.25671 19.2754 7.58343 22.0173C6.82266 25.1645 6.78858 27.1355 7.58343 30.4217C8.18671 32.8726 9.51576 34.7101 11.9445 34.7101H15.2897V30.0091C15.2897 27.2773 17.7636 24.5787 20.5986 24.5787H27.2632C29.587 24.5787 31.8684 22.8637 31.8684 20.5473V12.6393C31.8684 10.3929 30.2483 8.71295 27.9834 8.33624C28.0396 8.33072 26.3661 7.99454 24.9459 8.00007ZM20.3554 11.6842C21.1116 11.6842 21.737 12.3077 21.737 13.0676C21.737 13.8348 21.1116 14.4473 20.3554 14.4473C19.5845 14.4473 18.9739 13.8357 18.9739 13.0676C18.9739 12.3105 19.5845 11.6842 20.3554 11.6842Z" fill="#0277BD"/>
<path d="M24.0532 42.9991C25.4854 42.9945 26.4783 42.8683 27.6784 42.6611C31.2226 42.044 31.8682 40.7481 31.8682 38.3598V34.7098H23.5789V32.8677H32.1841H36.1906C38.6185 32.8677 40.7433 31.7238 41.4166 28.9818C42.1774 25.8347 42.2114 23.8637 41.4166 20.5774C40.8124 18.1265 39.4833 16.2891 37.0546 16.2891H33.7094V20.99C33.7094 23.7218 31.2355 26.4204 28.4005 26.4204H21.7359C19.4121 26.4204 17.1307 28.1354 17.1307 30.4518V38.3598C17.1307 40.6062 18.7508 42.2862 21.0157 42.6629C20.9595 42.6684 22.633 43.0046 24.0532 42.9991ZM28.6446 39.3149C27.8884 39.3149 27.263 38.6914 27.263 37.9315C27.263 37.1643 27.8884 36.5518 28.6446 36.5518C29.4155 36.5518 30.0261 37.1634 30.0261 37.9315C30.0261 38.6886 29.4146 39.3149 28.6446 39.3149Z" fill="#FFC107"/>
</svg>
