<svg width="50" height="50" viewBox="0 0 50 50" fill="none" xmlns="http://www.w3.org/2000/svg">
<path d="M25 32.9166C14.7875 32.9166 6.79166 29.4333 6.79166 24.9999C6.79166 20.5666 14.7875 17.0833 25 17.0833C35.2125 17.0833 43.2083 20.5666 43.2083 24.9999C43.2083 29.4333 35.2125 32.9166 25 32.9166ZM25 18.6666C15.025 18.6666 8.37499 21.9124 8.37499 24.9999C8.37499 28.0874 15.025 31.3333 25 31.3333C34.975 31.3333 41.625 28.0874 41.625 24.9999C41.625 21.9124 34.975 18.6666 25 18.6666Z" fill="#80DEEA"/>
<path d="M17.9542 41.3084C17.1625 41.3084 16.5292 41.1501 15.8958 40.7542C12.0167 38.5376 13.0458 29.9084 18.1125 21.0417C20.4875 16.9251 23.4167 13.4417 26.2667 11.2251C29.3542 8.85005 32.125 8.13755 34.025 9.24588C36.0042 10.3542 36.7167 13.1251 36.2417 17.0042C35.7667 20.6459 34.1833 24.9209 31.8083 29.0376C29.4333 33.1542 26.5042 36.6376 23.6542 38.8542C21.5958 40.4376 19.6167 41.3084 17.9542 41.3084ZM32.0458 10.2751C30.7792 10.2751 29.1167 10.9876 27.2958 12.4126C24.6042 14.5501 21.8333 17.8751 19.5375 21.8334C14.55 30.4626 14.075 37.9042 16.6875 39.4084C18.0333 40.2001 20.25 39.4876 22.7042 37.5876C25.3958 35.4501 28.1667 32.1251 30.4625 28.1667C32.7583 24.2084 34.2625 20.1709 34.7375 16.7667C35.1333 13.6001 34.6583 11.3834 33.3125 10.5917C32.9167 10.4334 32.5208 10.2751 32.0458 10.2751Z" fill="#80DEEA"/>
<path d="M32.125 41.3084C28.1667 41.3084 22.4667 36.4792 18.1917 28.9584C13.0458 20.0917 12.0167 11.4626 15.8958 9.24589C19.775 7.02922 26.7417 12.1751 31.8875 21.0417C34.2625 25.1584 35.8458 29.4334 36.3208 33.0751C36.875 36.9542 36.0833 39.6459 34.1042 40.8334C33.4708 41.1501 32.8375 41.3084 32.125 41.3084ZM16.6875 10.5917C14.075 12.0959 14.55 19.5376 19.5375 28.1667C24.525 36.7959 30.7 40.9126 33.3125 39.4084C34.6583 38.6167 35.1333 36.4001 34.7375 33.2334C34.2625 29.8292 32.7583 25.7917 30.4625 21.8334C25.475 13.2042 19.3 9.08756 16.6875 10.5917Z" fill="#80DEEA"/>
<path d="M25 28.1666C26.7489 28.1666 28.1667 26.7488 28.1667 24.9999C28.1667 23.251 26.7489 21.8333 25 21.8333C23.2511 21.8333 21.8333 23.251 21.8333 24.9999C21.8333 26.7488 23.2511 28.1666 25 28.1666Z" fill="#80DEEA"/>
</svg>
