<svg width="104" height="105" viewBox="0 0 104 105" fill="none" xmlns="http://www.w3.org/2000/svg">
<path d="M12.6572 85.4453H39.1204C37.4731 84.6636 35.9029 83.7257 34.4311 82.6444H12.6572C11.9235 82.6444 11.2196 82.3509 10.6998 81.8281C10.1799 81.3053 9.88639 80.5958 9.8834 79.8549V37.8079C9.88639 37.0671 10.1799 36.3576 10.6998 35.8348C11.2196 35.3119 11.9235 35.0184 12.6572 35.0184H34.4588C35.9292 33.9396 37.4963 33.0019 39.1395 32.2175H12.6572C11.1874 32.2161 9.77727 32.8043 8.73694 33.8527C7.69661 34.9011 7.11127 36.3238 7.10966 37.8079V79.8549C7.11127 81.3391 7.69661 82.7618 8.73694 83.8102C9.77727 84.8586 11.1874 85.4467 12.6572 85.4453ZM90.3376 35.0184C91.0713 35.0184 91.7751 35.3119 92.295 35.8348C92.8149 36.3576 93.1084 37.0671 93.1114 37.8079V79.8549C93.1084 80.5958 92.8149 81.3053 92.295 81.8281C91.7751 82.3509 91.0713 82.6444 90.3376 82.6444H68.5525C67.0759 83.7256 65.5014 84.6634 63.8501 85.4453H90.3402C91.8096 85.4454 93.2189 84.8567 94.2589 83.8086C95.299 82.7605 95.8847 81.3386 95.8877 79.8549V37.8079C95.8861 36.3238 95.3008 34.9011 94.2605 33.8527C93.2201 32.8043 91.81 32.2161 90.3402 32.2175H63.851C65.4965 33.0016 67.0659 33.9393 68.5386 35.0184H90.3376ZM91.0311 11.9065C91.4425 11.9065 91.8447 11.7833 92.1868 11.5525C92.5289 11.3217 92.7956 10.9936 92.953 10.6097C93.1105 10.2259 93.1517 9.80349 93.0714 9.396C92.9911 8.9885 92.793 8.6142 92.5021 8.32041C92.2111 8.02663 91.8405 7.82656 91.4369 7.7455C91.0334 7.66445 90.6151 7.70605 90.235 7.86504C89.8548 8.02404 89.5299 8.29329 89.3014 8.63874C89.0728 8.9842 88.9508 9.39034 88.9508 9.80582C88.9511 10.0817 89.0053 10.3548 89.1101 10.6095C89.215 10.8643 89.3685 11.0956 89.5619 11.2905C89.7553 11.4853 89.9848 11.6397 90.2374 11.745C90.4899 11.8502 90.7605 11.9042 91.0337 11.9039L91.0311 11.9065ZM91.0311 8.75548C91.2368 8.75548 91.4379 8.81708 91.609 8.93249C91.78 9.04791 91.9133 9.21195 91.9921 9.40387C92.0708 9.5958 92.0914 9.80699 92.0512 10.0107C92.0111 10.2145 91.912 10.4016 91.7666 10.5485C91.6211 10.6954 91.4358 10.7955 91.234 10.836C91.0322 10.8765 90.8231 10.8557 90.633 10.7762C90.443 10.6967 90.2805 10.5621 90.1662 10.3894C90.0519 10.2166 89.9909 10.0136 89.9909 9.80582C89.9906 9.66745 90.0173 9.53037 90.0696 9.40246C90.1219 9.27455 90.1987 9.15833 90.2956 9.06049C90.3925 8.96264 90.5076 8.88509 90.6342 8.8323C90.7609 8.77951 90.8966 8.75251 91.0337 8.75285L91.0311 8.75548ZM71.6149 28.0118C72.0263 28.0118 72.4285 27.8885 72.7706 27.6577C73.1127 27.4269 73.3793 27.0988 73.5368 26.715C73.6943 26.3311 73.7355 25.9087 73.6552 25.5012C73.5749 25.0938 73.3768 24.7194 73.0859 24.4257C72.7949 24.1319 72.4242 23.9318 72.0207 23.8507C71.6172 23.7697 71.1989 23.8113 70.8187 23.9703C70.4386 24.1293 70.1137 24.3985 69.8851 24.744C69.6565 25.0894 69.5345 25.4956 69.5345 25.9111C69.5345 26.4682 69.7537 27.0025 70.1439 27.3965C70.534 27.7904 71.0631 28.0118 71.6149 28.0118ZM71.6149 24.8607C71.8206 24.8607 72.0217 24.9223 72.1927 25.0377C72.3638 25.1532 72.4971 25.3172 72.5758 25.5091C72.6546 25.701 72.6752 25.9122 72.635 26.116C72.5949 26.3197 72.4958 26.5069 72.3503 26.6538C72.2049 26.8007 72.0195 26.9007 71.8178 26.9412C71.616 26.9818 71.4069 26.961 71.2168 26.8815C71.0267 26.802 70.8643 26.6673 70.75 26.4946C70.6357 26.3219 70.5747 26.1188 70.5747 25.9111C70.5747 25.6325 70.6843 25.3653 70.8794 25.1684C71.0744 24.9714 71.339 24.8607 71.6149 24.8607ZM36.2409 4.20137C36.6524 4.20137 37.0546 4.07817 37.3967 3.84734C37.7388 3.61651 38.0054 3.28843 38.1629 2.90458C38.3203 2.52073 38.3615 2.09836 38.2813 1.69086C38.201 1.28337 38.0029 0.909063 37.7119 0.615277C37.421 0.321491 37.0503 0.12142 36.6468 0.040365C36.2432 -0.0406904 35.825 0.000910189 35.4448 0.159906C35.0647 0.318902 34.7398 0.588152 34.5112 0.933608C34.2826 1.27906 34.1606 1.68521 34.1606 2.10069C34.1606 2.65782 34.3798 3.19214 34.7699 3.58609C35.1601 3.98005 35.6892 4.20137 36.2409 4.20137ZM36.2409 1.05034C36.4466 1.05034 36.6478 1.11194 36.8188 1.22736C36.9899 1.34277 37.1232 1.50681 37.2019 1.69874C37.2806 1.89066 37.3012 2.10185 37.2611 2.3056C37.221 2.50934 37.1219 2.6965 36.9764 2.84339C36.831 2.99028 36.6456 3.09032 36.4438 3.13085C36.2421 3.17137 36.0329 3.15057 35.8429 3.07108C35.6528 2.99158 35.4904 2.85695 35.3761 2.68422C35.2618 2.5115 35.2008 2.30842 35.2008 2.10069C35.2008 1.96275 35.2277 1.82617 35.2799 1.69874C35.3322 1.5713 35.4088 1.45551 35.5054 1.35798C35.602 1.26045 35.7167 1.18308 35.8429 1.1303C35.9691 1.07751 36.1043 1.05034 36.2409 1.05034ZM103.518 41.3222C103.518 40.9067 103.396 40.5006 103.168 40.1551C102.939 39.8097 102.614 39.5404 102.234 39.3814C101.854 39.2224 101.436 39.1808 101.032 39.2619C100.628 39.3429 100.258 39.543 99.9668 39.8368C99.6759 40.1306 99.4778 40.5049 99.3975 40.9124C99.3172 41.3199 99.3584 41.7423 99.5159 42.1261C99.6733 42.51 99.94 42.838 100.282 43.0689C100.624 43.2997 101.026 43.4229 101.438 43.4229C101.711 43.4229 101.982 43.3686 102.234 43.263C102.486 43.1574 102.716 43.0027 102.909 42.8076C103.102 42.6126 103.255 42.381 103.36 42.1261C103.464 41.8712 103.518 41.5981 103.518 41.3222ZM100.398 41.3222C100.398 41.1145 100.459 40.9114 100.573 40.7387C100.687 40.5659 100.85 40.4313 101.04 40.3518C101.23 40.2723 101.439 40.2515 101.641 40.2921C101.843 40.3326 102.028 40.4326 102.173 40.5795C102.319 40.7264 102.418 40.9136 102.458 41.1173C102.498 41.321 102.478 41.5322 102.399 41.7242C102.32 41.9161 102.187 42.0801 102.016 42.1955C101.845 42.311 101.644 42.3726 101.438 42.3726C101.162 42.3726 100.897 42.2619 100.702 42.0649C100.507 41.8679 100.398 41.6008 100.398 41.3222ZM1.56217 30.8162C1.28787 30.8162 1.01973 30.8983 0.791661 31.0522C0.563591 31.2061 0.385832 31.4248 0.280863 31.6807C0.175894 31.9366 0.148429 32.2182 0.201942 32.4898C0.255455 32.7615 0.387541 33.011 0.581499 33.2069C0.775457 33.4028 1.02257 33.5361 1.2916 33.5902C1.56063 33.6442 1.83948 33.6165 2.0929 33.5105C2.34632 33.4045 2.56292 33.225 2.71531 32.9947C2.8677 32.7644 2.94904 32.4936 2.94904 32.2166C2.94904 31.8452 2.80292 31.489 2.54283 31.2264C2.28274 30.9637 1.92999 30.8162 1.56217 30.8162ZM1.56217 32.9169C1.42502 32.9169 1.29095 32.8758 1.17691 32.7988C1.06288 32.7219 0.973999 32.6125 0.921515 32.4846C0.86903 32.3566 0.855298 32.2158 0.882054 32.08C0.90881 31.9442 0.974854 31.8194 1.07183 31.7215C1.16881 31.6236 1.29237 31.5569 1.42688 31.5299C1.5614 31.5028 1.70082 31.5167 1.82753 31.5697C1.95424 31.6227 2.06254 31.7124 2.13874 31.8276C2.21493 31.9427 2.2556 32.0781 2.2556 32.2166C2.25572 32.3087 2.23786 32.3998 2.20307 32.4849C2.16827 32.5699 2.11721 32.6472 2.05281 32.7123C1.9884 32.7774 1.91192 32.8291 1.82773 32.8643C1.74355 32.8996 1.6533 32.9177 1.56217 32.9177V32.9169Z" fill="#2D4356"/>
<path d="M97.7773 91.0482H59.823V84.088C64.9076 82.3772 69.3551 79.1421 72.5726 74.8138C75.79 70.4855 77.6245 65.2698 77.8315 59.8618L77.8558 57.9826L77.8358 57.8154C77.5679 51.1208 74.8148 44.7731 70.1239 40.0345C65.4331 35.296 59.1481 32.5135 52.5185 32.2404L50.6609 32.2168L50.4945 32.2378C43.8658 32.5077 37.5805 35.2866 32.8881 40.022C28.1956 44.7575 25.4398 51.1027 25.1685 57.7961L25.1442 59.6745L25.1641 59.8417C25.3715 65.2524 27.2064 70.471 30.4243 74.8024C33.6423 79.1338 38.0907 82.3725 43.177 84.0871V91.043H5.2235C5.02598 91.0165 4.82514 91.033 4.63443 91.0913C4.44373 91.1495 4.26754 91.2483 4.11768 91.3809C3.96782 91.5135 3.84773 91.6769 3.76546 91.8601C3.68319 92.0434 3.64062 92.2422 3.64062 92.4434C3.64062 92.6446 3.68319 92.8435 3.76546 93.0268C3.84773 93.21 3.96782 93.3734 4.11768 93.506C4.26754 93.6386 4.44373 93.7373 4.63443 93.7956C4.82514 93.8539 5.02598 93.8703 5.2235 93.8439H97.7773C97.9749 93.8703 98.1757 93.8539 98.3664 93.7956C98.5571 93.7373 98.7333 93.6386 98.8831 93.506C99.033 93.3734 99.1531 93.21 99.2354 93.0268C99.3176 92.8435 99.3602 92.6446 99.3602 92.4434C99.3602 92.2422 99.3176 92.0434 99.2354 91.8601C99.1531 91.6769 99.033 91.5135 98.8831 91.3809C98.7333 91.2483 98.5571 91.1495 98.3664 91.0913C98.1757 91.033 97.9749 91.0165 97.7773 91.043V91.0482ZM69.1731 74.543C67.237 72.7731 65.051 71.3037 62.6868 70.1832C63.3857 66.8996 63.7706 63.5558 63.8362 60.1979H75.0092C74.7055 65.5037 72.6508 70.5539 69.1731 74.543ZM75.0066 57.4618H63.8388C63.7659 53.513 63.2424 49.586 62.2786 45.7583C64.4033 44.7956 66.3916 43.5514 68.191 42.0585C72.2607 46.1733 74.6878 51.6571 75.0092 57.4635L75.0066 57.4618ZM66.0699 40.1478C64.6481 41.2809 63.1013 42.2443 61.4603 43.0187C60.6446 40.4668 59.4169 38.0686 57.8267 35.921C60.8234 36.7685 63.6249 38.2049 66.0708 40.1478H66.0699ZM52.8539 35.2996C55.2272 36.1661 57.4176 39.297 58.9484 44.0305C56.9774 44.6932 54.928 45.0888 52.8539 45.2069V35.2996ZM52.8539 48.0437C55.1854 47.9258 57.4908 47.4946 59.7094 46.7614C60.5205 50.2715 60.9636 53.858 61.0313 57.4618H52.8539V48.0437ZM61.0339 60.197C60.9749 63.1945 60.662 66.1814 60.0986 69.125C57.7622 68.3114 55.3239 67.8346 52.8557 67.7087V60.2005L61.0339 60.197ZM52.8539 70.5447C55.1083 70.6727 57.3326 71.1284 59.458 71.8979C57.9229 77.6354 55.5453 81.3938 52.8539 82.3628V70.5447ZM50.146 35.2987V45.2069C48.0721 45.0898 46.0227 44.6951 44.0516 44.0331C45.5841 39.2944 47.7728 36.1643 50.146 35.2987ZM42.904 69.1232C42.341 66.1796 42.0281 63.1927 41.9687 60.1953H50.1469V67.7035C47.6785 67.8287 45.24 68.3058 42.904 69.1206V69.1232ZM50.1469 70.5447V82.361C47.4546 81.3912 45.077 77.6345 43.5445 71.8961C45.6693 71.1263 47.8931 70.6706 50.1469 70.5429V70.5447ZM41.9687 57.4618C42.0348 53.8583 42.4776 50.2719 43.2897 46.7623C45.5085 47.4944 47.8139 47.9253 50.1452 48.0437V57.4618H41.9687ZM45.1758 35.921C43.5841 38.0679 42.3557 40.4663 41.5405 43.0187C39.8997 42.244 38.3529 41.2807 36.9309 40.1478C39.3771 38.2043 42.1793 36.7679 45.1767 35.921H45.1758ZM34.809 42.0585C36.609 43.5502 38.5972 44.794 40.7214 45.7575C39.759 49.5857 39.2355 53.5129 39.1612 57.4618H27.9925C28.3122 51.6553 30.7388 46.1711 34.809 42.0568V42.0585ZM27.9925 60.197H39.1612C39.2267 63.5551 39.6124 66.899 40.3131 70.1823C37.9483 71.3021 35.7619 72.7715 33.826 74.5421C30.3482 70.5533 28.2944 65.5028 27.9925 60.197ZM35.8066 76.5561C37.3781 75.1364 39.1307 73.9357 41.0178 72.9858C41.8462 76.1413 43.2562 79.1108 45.1741 81.7387C41.7 80.7582 38.4952 78.9854 35.8066 76.557V76.5561ZM57.0492 91.0473H45.9516V85.4455H57.0466L57.0492 91.0473ZM57.8293 81.7378C59.7489 79.1103 61.1604 76.1408 61.9899 72.985C63.8771 73.9348 65.6297 75.1356 67.2011 76.5552C64.5125 78.9848 61.307 80.758 57.8319 81.7378H57.8293Z" fill="#2D4356"/>
<path d="M75.1886 97.3516H69.4261C69.0772 97.3794 68.7516 97.5391 68.5141 97.7986C68.2766 98.0582 68.1446 98.3986 68.1446 98.752C68.1446 99.1054 68.2766 99.4458 68.5141 99.7054C68.7516 99.965 69.0772 100.125 69.4261 100.152H75.1886C75.5375 100.125 75.8631 99.965 76.1006 99.7054C76.3382 99.4458 76.4701 99.1054 76.4701 98.752C76.4701 98.3986 76.3382 98.0582 76.1006 97.7986C75.8631 97.5391 75.5375 97.3794 75.1886 97.3516ZM33.5737 97.3516H27.8113C27.4624 97.3794 27.1367 97.5391 26.8992 97.7986C26.6617 98.0582 26.5298 98.3986 26.5298 98.752C26.5298 99.1054 26.6617 99.4458 26.8992 99.7054C27.1367 99.965 27.4624 100.125 27.8113 100.152H33.5737C33.9226 100.125 34.2483 99.965 34.4858 99.7054C34.7233 99.4458 34.8552 99.1054 34.8552 98.752C34.8552 98.3986 34.7233 98.0582 34.4858 97.7986C34.2483 97.5391 33.9226 97.3794 33.5737 97.3516ZM65.3713 97.3516H37.626C37.2582 97.3516 36.9054 97.4991 36.6453 97.7617C36.3852 98.0244 36.2391 98.3806 36.2391 98.752C36.2391 99.1234 36.3852 99.4797 36.6453 99.7423C36.9054 100.005 37.2582 100.152 37.626 100.152H48.6837V101.553H43.1735C42.8057 101.553 42.4529 101.7 42.1928 101.963C41.9327 102.226 41.7866 102.582 41.7866 102.953C41.7866 103.325 41.9327 103.681 42.1928 103.944C42.4529 104.206 42.8057 104.354 43.1735 104.354H60.5094C60.8772 104.354 61.23 104.206 61.4901 103.944C61.7502 103.681 61.8963 103.325 61.8963 102.953C61.8963 102.582 61.7502 102.226 61.4901 101.963C61.23 101.7 60.8772 101.553 60.5094 101.553H54.3161V100.152H65.3713C65.7391 100.152 66.0918 100.005 66.3519 99.7423C66.612 99.4797 66.7581 99.1234 66.7581 98.752C66.7581 98.3806 66.612 98.0244 66.3519 97.7617C66.0918 97.4991 65.7391 97.3516 65.3713 97.3516Z" fill="#489977"/>
</svg>
