<svg width="122" height="111" viewBox="0 0 122 111" fill="none" xmlns="http://www.w3.org/2000/svg">
<path d="M21 98H93" stroke="#2D4356" stroke-width="3" stroke-linecap="round"/>
<path d="M3.82131 64.9067L5.5992 62.8025L4.47586 62.2305L3.33501 64.5866H3.29805L2.13775 62.2471L0.99496 62.8357L2.75146 64.8892V64.9225L0 64.6033V65.7472L2.77091 65.4271V65.4604L0.993987 67.5157L2.06384 68.1218L3.28055 65.749H3.31751L4.44085 68.106L5.6206 67.4991L3.82131 65.4787V65.4455L6.64668 65.7481V64.6033L3.82131 64.94V64.9067Z" fill="#489977"/>
<path d="M115.503 29.7553L117.281 27.6501L116.157 27.0781L115.017 29.4352H114.98L113.819 27.0956L112.677 27.6842L114.433 29.7378V29.771L111.681 29.4518V30.5966L114.452 30.2765V30.3098L112.676 32.3642L113.745 32.9703L114.962 30.5975H114.999L116.122 32.9546L117.302 32.3476L115.503 30.3273V30.294L118.328 30.5966V29.4518L115.503 29.7885V29.7553Z" fill="#489977"/>
<path d="M24.3868 2.25034L25.8826 0.481904L24.9392 0L23.9783 1.97834H23.9462L22.9736 0.0122443L22.0127 0.507267L23.492 2.24072V2.26871L21.1772 1.99583V2.95789L23.5056 2.68939V2.71738L22.0108 4.44296L22.9075 4.95285L23.9307 2.95789H23.9618L24.9052 4.93798L25.8963 4.42897L24.3868 2.73137V2.70338L26.7628 2.95789V1.99583L24.3868 2.27833V2.25034Z" fill="#489977"/>
<path d="M119.122 88.1237L118.257 89.1199L118.776 89.4138L119.367 88.2619H119.388L119.933 89.405L120.506 89.1111L119.631 88.1298V88.1141L121.002 88.2619V87.7057L119.631 87.8692V87.8526L120.494 86.8319L119.95 86.5547L119.395 87.6978H119.377L118.814 86.5608L118.258 86.8477L119.113 87.8438V87.8605L117.777 87.7057V88.2619L119.122 88.1071V88.1237Z" fill="#489977"/>
<path d="M65.715 9.62953L64.5479 10.9729L65.2443 11.3691L66.0457 9.81319H66.07L66.8043 11.3551L67.5756 10.9589L66.4007 9.63827V9.61641L68.2486 9.81407V9.06629L66.4007 9.28669V9.26395L67.5629 7.88908L66.8276 7.51562L66.0817 9.05667H66.0564L65.2978 7.52612L64.5508 7.91182L65.7014 9.25607V9.27794L63.9011 9.06891V9.81319L65.7131 9.60504L65.715 9.62953Z" fill="#489977"/>
<path d="M90.6551 100.934H82.2782C81.7709 100.97 81.2974 101.176 80.9521 101.513C80.6068 101.849 80.415 102.289 80.415 102.747C80.415 103.205 80.6068 103.645 80.9521 103.982C81.2974 104.318 81.7709 104.524 82.2782 104.561H90.6551C91.1624 104.524 91.6359 104.318 91.9812 103.982C92.3265 103.645 92.5183 103.205 92.5183 102.747C92.5183 102.289 92.3265 101.849 91.9812 101.513C91.6359 101.176 91.1624 100.97 90.6551 100.934ZM30.1522 100.934H21.7743C21.267 100.97 20.7935 101.176 20.4482 101.513C20.1029 101.849 19.9111 102.289 19.9111 102.747C19.9111 103.205 20.1029 103.645 20.4482 103.982C20.7935 104.318 21.267 104.524 21.7743 104.561H30.1512C30.6585 104.524 31.132 104.318 31.4773 103.982C31.8226 103.645 32.0144 103.205 32.0144 102.747C32.0144 102.289 31.8226 101.849 31.4773 101.513C31.132 101.176 30.6585 100.97 30.1512 100.934H30.1522ZM76.3824 100.934H36.0471C35.5199 100.944 35.0182 101.14 34.6495 101.479C34.2807 101.818 34.0742 102.273 34.0742 102.747C34.0742 103.221 34.2807 103.677 34.6495 104.016C35.0182 104.355 35.5199 104.55 36.0471 104.561H52.1201V106.374H44.1138C43.5866 106.385 43.0849 106.581 42.7161 106.919C42.3474 107.258 42.1409 107.714 42.1409 108.188C42.1409 108.662 42.3474 109.117 42.7161 109.456C43.0849 109.795 43.5866 109.991 44.1138 110.001H69.3204C69.5889 110.007 69.856 109.964 70.1058 109.875C70.3556 109.786 70.5832 109.654 70.7753 109.485C70.9673 109.316 71.1199 109.114 71.224 108.891C71.3282 108.669 71.3818 108.43 71.3818 108.188C71.3818 107.946 71.3282 107.707 71.224 107.485C71.1199 107.262 70.9673 107.06 70.7753 106.891C70.5832 106.722 70.3556 106.59 70.1058 106.501C69.856 106.412 69.5889 106.369 69.3204 106.374H60.3084V104.561H76.3824C76.9095 104.55 77.4112 104.355 77.78 104.016C78.1487 103.677 78.3552 103.221 78.3552 102.747C78.3552 102.273 78.1487 101.818 77.78 101.479C77.4112 101.14 76.9095 100.944 76.3824 100.934Z" fill="#489977"/>
<path d="M70.8934 59.2675C72.3506 56.9985 73.1167 54.4241 73.1144 51.804C73.1121 49.1838 72.3415 46.6105 70.8803 44.3436C69.419 42.0768 67.3189 40.1965 64.7916 38.8925C62.2644 37.5884 59.3994 36.9068 56.4857 36.9162C53.572 36.9256 50.7126 37.6258 48.1958 38.9462C45.6791 40.2666 43.5941 42.1604 42.151 44.4367C40.708 46.7129 39.958 49.2911 39.9767 51.9113C39.9953 54.5314 40.782 57.1007 42.2574 59.3602C44.2881 61.9778 46.1527 64.6966 47.842 67.5036C48.3082 68.3551 48.5491 69.2919 48.5462 70.241V78.5567C48.5479 79.3188 48.8011 80.0632 49.2738 80.6956C49.7465 81.3281 50.4173 81.8201 51.2013 82.1093V84.1113C51.2026 85.1392 51.6573 86.1247 52.4656 86.8515C53.2739 87.5784 54.3697 87.9872 55.5128 87.9884H57.566C58.7087 87.9868 59.8041 87.5777 60.612 86.8509C61.4198 86.1241 61.8742 85.1389 61.8755 84.1113V82.1172C62.66 81.8276 63.331 81.335 63.8036 80.7019C64.2761 80.0687 64.5289 79.3236 64.5297 78.5611V70.2445C64.5297 70.2236 64.5181 70.2061 64.5161 70.1859C64.5158 69.2956 64.7427 68.4171 65.1794 67.6181C66.9052 64.7387 68.813 61.9506 70.8934 59.2675ZM44.6782 57.9766C43.4795 56.1079 42.8477 53.9889 42.8458 51.8317C42.8439 49.6744 43.472 47.5546 44.6674 45.6842C45.8627 43.8139 47.5833 42.2586 49.6571 41.174C51.7308 40.0895 54.0849 39.5137 56.4838 39.5042C58.8827 39.4948 61.2424 40.0521 63.3265 41.1203C65.4107 42.1885 67.1464 43.7301 68.3599 45.591C69.5734 47.4519 70.2222 49.5667 70.2413 51.7239C70.2604 53.8811 69.6491 56.005 68.4687 57.883C66.323 60.6417 64.363 63.5135 62.5991 66.4829C62.1783 67.2619 61.8951 68.0952 61.7598 68.9528H51.3025C51.1597 68.0505 50.8604 67.174 50.4155 66.3552C48.6874 63.4636 46.7716 60.6659 44.6782 57.9766ZM61.6577 78.5611C61.6571 78.8949 61.5094 79.2149 61.2468 79.4508C60.9843 79.6868 60.6283 79.8194 60.2571 79.8196H52.8168C52.4457 79.8194 52.0899 79.6867 51.8275 79.4508C51.565 79.2148 51.4175 78.8948 51.4173 78.5611V76.9702H56.537C56.7288 76.9747 56.9197 76.9446 57.0984 76.8817C57.2772 76.8187 57.44 76.7243 57.5775 76.6038C57.715 76.4834 57.8242 76.3394 57.8988 76.1804C57.9734 76.0214 58.0118 75.8506 58.0118 75.678C58.0118 75.5054 57.9734 75.3346 57.8988 75.1756C57.8242 75.0165 57.715 74.8726 57.5775 74.7521C57.44 74.6317 57.2772 74.5372 57.0984 74.4743C56.9197 74.4114 56.7288 74.3813 56.537 74.3858H51.4182V71.5372H61.6577V78.5611ZM59.0015 84.1113C59.0013 84.4541 58.8497 84.7827 58.5802 85.0251C58.3107 85.2675 57.9452 85.4037 57.564 85.404H55.5109C55.1297 85.4037 54.7642 85.2675 54.4947 85.0251C54.2252 84.7827 54.0737 84.4541 54.0734 84.1113V82.4041H59.0015V84.1113ZM56.5379 32.7077C56.9192 32.7077 57.2848 32.5715 57.5544 32.329C57.824 32.0866 57.9754 31.7578 57.9754 31.415V27.2423C57.9804 27.0698 57.9469 26.8981 57.877 26.7374C57.807 26.5767 57.702 26.4302 57.568 26.3066C57.4341 26.183 57.274 26.0847 57.0972 26.0177C56.9203 25.9506 56.7304 25.916 56.5384 25.916C56.3465 25.916 56.1565 25.9506 55.9797 26.0177C55.8029 26.0847 55.6428 26.183 55.5088 26.3066C55.3749 26.4302 55.2699 26.5767 55.1999 26.7374C55.1299 26.8981 55.0964 27.0698 55.1014 27.2423V31.4159C55.1017 31.7584 55.2531 32.0868 55.5225 32.329C55.7918 32.5713 56.157 32.7074 56.5379 32.7077ZM74.702 38.8465L77.9816 35.8947C78.1182 35.7753 78.227 35.6327 78.3018 35.4751C78.3765 35.3176 78.4157 35.1482 78.417 34.977C78.4184 34.8057 78.3819 34.6359 78.3096 34.4774C78.2373 34.3189 78.1307 34.1749 77.9961 34.0538C77.8614 33.9327 77.7012 33.8369 77.525 33.7719C77.3488 33.7069 77.1599 33.674 76.9695 33.6752C76.779 33.6764 76.5907 33.7117 76.4155 33.7789C76.2403 33.8461 76.0817 33.944 75.9489 34.0668L72.6703 37.0194C72.5337 37.1388 72.4249 37.2814 72.3502 37.439C72.2754 37.5965 72.2362 37.7659 72.2349 37.9372C72.2335 38.1084 72.2701 38.2783 72.3423 38.4367C72.4146 38.5952 72.5212 38.7392 72.6559 38.8603C72.7906 38.9814 72.9507 39.0773 73.1269 39.1423C73.3032 39.2073 73.492 39.2401 73.6825 39.2389C73.8729 39.2377 74.0612 39.2024 74.2364 39.1352C74.4116 39.068 74.5702 38.9702 74.703 38.8473L74.702 38.8465ZM80.6864 52.1517C80.3118 52.1605 79.9557 52.3005 79.6942 52.5419C79.4327 52.7833 79.2863 53.1069 79.2863 53.444C79.2863 53.781 79.4327 54.1046 79.6942 54.346C79.9557 54.5874 80.3118 54.7274 80.6864 54.7362H85.3266C85.7013 54.7274 86.0573 54.5874 86.3188 54.346C86.5804 54.1046 86.7267 53.781 86.7267 53.444C86.7267 53.1069 86.5804 52.7833 86.3188 52.5419C86.0573 52.3005 85.7013 52.1605 85.3266 52.1517H80.6864ZM32.0403 51.8386H27.4001C27.0255 51.8474 26.6694 51.9874 26.4079 52.2288C26.1464 52.4701 26 52.7938 26 53.1308C26 53.4679 26.1464 53.7915 26.4079 54.0329C26.6694 54.2743 27.0255 54.4143 27.4001 54.4231H32.0403C32.415 54.4143 32.771 54.2743 33.0325 54.0329C33.2941 53.7915 33.4404 53.4679 33.4404 53.1308C33.4404 52.7938 33.2941 52.4701 33.0325 52.2288C32.771 51.9874 32.415 51.8474 32.0403 51.8386ZM40.3074 36.7955L37.0249 33.8464C36.7552 33.604 36.3895 33.4679 36.0082 33.4679C35.6269 33.468 35.2612 33.6043 34.9917 33.8468C34.7221 34.0893 34.5707 34.4182 34.5708 34.7611C34.5709 35.104 34.7225 35.4328 34.9921 35.6752L38.2698 38.6243C38.4033 38.7443 38.5618 38.8395 38.7363 38.9045C38.9107 38.9694 39.0977 39.0028 39.2865 39.0028C39.4753 39.0027 39.6622 38.9692 39.8366 38.9042C40.011 38.8392 40.1695 38.744 40.303 38.6239C40.4364 38.5038 40.5423 38.3613 40.6145 38.2044C40.6867 38.0475 40.7239 37.8794 40.7238 37.7096C40.7238 37.5398 40.6865 37.3717 40.6143 37.2149C40.542 37.0581 40.436 36.9156 40.3025 36.7955H40.3074Z" fill="#2D4356"/>
</svg>
